<svg width="20" height="15" viewBox="0 0 20 15" fill="none" xmlns="http://www.w3.org/2000/svg">
<path d="M10.0049 14.9685C15.6083 14.9685 20 12.3299 20 8.97185C20 5.88717 16.299 3.42109 11.3648 3.03516L12.7152 1.68476H12.7154C12.9555 1.42893 13.044 1.0662 12.9486 0.728548C12.8533 0.390902 12.5881 0.127897 12.2496 0.0353347C11.9113 -0.0570223 11.5491 0.0344983 11.2954 0.276773L8.29707 3.2751C8.10934 3.46233 8.00392 3.7165 8.00392 3.98151C8.00392 4.24652 8.10933 4.50069 8.29707 4.68791L11.2954 7.68624C11.5477 7.93855 11.9156 8.0371 12.2603 7.94475C12.6051 7.85239 12.8744 7.58317 12.9667 7.23834C13.0591 6.89367 12.9605 6.52572 12.7082 6.27344L11.4919 5.05252C15.3898 5.43868 17.997 7.29038 17.997 8.97429C17.997 10.8645 14.7133 12.9729 10.0022 12.9729C5.29141 12.9729 2.00781 10.8668 2.00781 8.97429C2.00781 7.91652 2.96719 6.85871 4.62715 6.0767C4.95057 5.92344 5.16775 5.60905 5.19653 5.25216C5.22548 4.89528 5.06184 4.55008 4.76721 4.34663C4.47273 4.14317 4.0919 4.11238 3.76834 4.26581C1.36968 5.39318 0 7.10818 0 8.9719C0.0097043 12.3348 4.40155 14.9686 10.005 14.9686L10.0049 14.9685Z" fill="#202020"/>
</svg>
