<svg width="151" height="126" viewBox="0 0 151 126" fill="none" xmlns="http://www.w3.org/2000/svg">
<path d="M150.198 99.2862C148.271 102.954 144.931 103.394 143.259 101.641C142.465 100.702 142.62 99.4583 142.574 98.3436C142.627 95.4501 139.634 95.6325 138.343 93.6619C137.477 92.3487 137.423 90.5408 138.782 88.6454C134.721 88.0355 130.558 88.3594 126.668 89.588C123.568 90.5562 121.63 91.9409 119.356 94.4302C117.567 96.3781 115.978 98.4734 114.609 100.69C118.255 103.462 120.118 107.79 120.622 112.064C121.154 116.567 120.349 121.315 119.534 125.78C119.516 125.836 119.48 125.885 119.429 125.92C119.379 125.955 119.317 125.974 119.254 125.974H146.869C146.932 125.974 146.994 125.955 147.044 125.92C147.095 125.885 147.131 125.836 147.149 125.78C149.623 117.603 152.348 107.527 150.198 99.2862ZM120.787 125.78C120.761 125.841 120.711 125.892 120.646 125.921C120.583 125.951 120.508 125.958 120.439 125.94C120.37 125.923 120.31 125.882 120.271 125.826C120.233 125.77 120.219 125.703 120.231 125.638C120.25 125.572 123.979 112.944 125.373 108.505C125.399 108.444 125.449 108.393 125.514 108.363C125.577 108.333 125.652 108.327 125.721 108.344C125.79 108.362 125.85 108.403 125.889 108.459C125.927 108.514 125.941 108.582 125.929 108.646C125.586 109.913 120.823 125.667 120.787 125.78Z" fill="#A982F4"/>
<path d="M137.522 83.4006C136.834 81.9137 137.317 80.7421 137.101 79.2421C136.093 80.394 135.513 81.8131 135.446 83.2897C135.259 85.2697 137.614 85.9964 139.311 85.1523C138.594 84.6824 137.986 84.0871 137.522 83.4006Z" fill="#9E647B"/>
<path d="M150.19 93.6408C149.162 92.127 147.64 91.1559 147.488 89.448C147.443 87.4592 148.658 85.8359 147.647 84.0675C146.715 82.6616 146.037 82.3698 145.674 80.8486C145.531 79.6361 145.155 78.4556 144.566 77.3628C144.026 76.3589 143.101 75.5739 141.97 75.1573C140.838 74.7407 139.578 74.7225 138.433 75.1062C136.934 75.6512 136.049 76.9243 136.755 78.1704C137.629 79.7236 136.681 81.576 137.525 83.3992C138.199 84.619 139.194 84.7678 139.769 85.6762C139.896 85.9308 139.956 86.2095 139.943 86.4889C139.93 86.7683 139.844 87.0412 139.694 87.2848C139.413 87.7503 139.112 88.2041 138.784 88.644C138.191 89.3517 137.833 90.2024 137.755 91.0924C137.677 91.9825 137.882 92.8748 138.345 93.6605C139.313 95.1328 141.175 95.3385 142.159 96.7305C143.064 98.3254 142.046 100.211 143.259 101.64C144.934 103.397 148.271 102.953 150.197 99.2847C150.718 98.4209 150.991 97.4492 150.989 96.4621C150.988 95.4742 150.713 94.5039 150.19 93.6408Z" fill="black"/>
<path d="M125.929 108.65C125.94 108.585 125.926 108.518 125.888 108.463C125.849 108.406 125.789 108.366 125.72 108.348C125.651 108.331 125.576 108.337 125.513 108.367C125.449 108.396 125.398 108.447 125.372 108.509C123.978 112.947 120.249 125.576 120.23 125.642C120.218 125.707 120.232 125.774 120.27 125.829C120.309 125.885 120.369 125.926 120.438 125.944C120.507 125.961 120.582 125.955 120.645 125.925C120.71 125.896 120.76 125.845 120.786 125.783C120.823 125.667 125.587 109.913 125.929 108.65Z" fill="#A982F4"/>
<path d="M50.8605 90.9217C48.1905 90.7553 45.5168 91.1916 43.0725 92.1919C42.9755 92.2298 42.8813 92.2736 42.7904 92.3224C42.8501 92.3108 42.9124 92.3166 42.9683 92.3392C43.0242 92.3626 43.0707 92.4012 43.1012 92.4494C43.1318 92.4983 43.1448 92.5544 43.1383 92.6099C43.1318 92.6661 43.1063 92.7186 43.0653 92.7602C42.8269 93.0389 42.509 93.4898 42.7745 93.8348C42.9192 94.0012 43.1144 94.1237 43.3355 94.1879C43.5565 94.2521 43.7933 94.2543 44.0158 94.1945C45.1204 93.9902 45.7427 93.0921 46.6383 92.4757C47.8972 91.6126 49.3896 91.0829 50.9535 90.9436C50.9242 90.9312 50.8927 90.9239 50.8605 90.9217Z" fill="#FF4848"/>
<path d="M68.1666 114.946C67.1876 107.65 66.1743 101.111 61.0144 95.6529C58.5119 92.9871 54.9921 91.3018 51.1784 90.945C49.5344 91.034 47.9556 91.5666 46.6406 92.4771C45.7434 93.0943 45.122 93.9917 44.0181 94.1959C43.7957 94.2558 43.5589 94.2536 43.3379 94.1894C43.1168 94.1252 42.9215 94.0026 42.7768 93.8363C42.5146 93.4883 42.8253 93.0403 43.0677 92.7616C43.1144 92.7149 43.1417 92.6551 43.1448 92.5916C43.1479 92.5289 43.1265 92.4662 43.0844 92.4165C43.0423 92.3662 42.9823 92.3312 42.9149 92.3181C42.8476 92.3049 42.7772 92.3137 42.7164 92.3436C39.8387 93.7108 37.4457 95.8039 35.8179 98.3756C34.1902 100.948 33.3952 103.893 33.5265 106.866C36.1101 112.235 36.5273 119.325 38.3416 125.637C38.3528 125.677 38.3542 125.718 38.3454 125.758C38.3367 125.798 38.3182 125.836 38.2914 125.868C38.2644 125.9 38.23 125.926 38.1903 125.945C38.1506 125.963 38.107 125.973 38.0627 125.974C71.1937 125.974 68.9534 125.989 69.0464 125.947C69.101 125.933 69.1478 125.901 69.1773 125.856C69.2068 125.812 69.2168 125.759 69.2053 125.708C68.7182 122.133 68.6466 118.522 68.1666 114.946ZM60.8737 125.78C59.3987 118.803 58.2281 114.529 56.2851 107.45C56.2733 107.385 56.2881 107.318 56.3267 107.262C56.3653 107.207 56.4249 107.167 56.4941 107.149C56.5633 107.132 56.6371 107.138 56.7012 107.168C56.7653 107.198 56.8153 107.248 56.8414 107.309C57.6448 109.85 59.8279 118.061 61.43 125.638C61.5023 125.973 60.9428 126.115 60.8737 125.78Z" fill="#78B5FF"/>
<path d="M56.8422 107.309C56.8161 107.248 56.7662 107.198 56.702 107.168C56.6378 107.138 56.5641 107.132 56.4948 107.149C56.4257 107.167 56.366 107.207 56.3275 107.262C56.2889 107.319 56.2741 107.385 56.2859 107.45C58.2353 114.557 59.4289 118.944 60.8745 125.78C60.9452 126.115 61.5047 125.973 61.4308 125.638C59.8454 118.144 57.6107 109.739 56.8422 107.309Z" fill="#2755A0"/>
<path d="M45.1744 86.0693C44.6945 86.7865 44.0971 87.4314 43.4031 87.9815C42.8929 88.3835 41.9472 88.857 41.3718 88.4353C41.5026 88.8132 41.7525 89.1466 42.09 89.394C42.4274 89.6413 42.8372 89.7916 43.2675 89.8244C43.6977 89.858 44.1292 89.7733 44.5071 89.5822C44.885 89.3903 45.1925 89.1 45.3906 88.7476C45.6184 88.3244 45.7184 87.8524 45.6803 87.3811C45.6424 86.9105 45.4677 86.4575 45.1744 86.0693Z" fill="#FF4848"/>
<path d="M45.9032 83.734C45.5161 82.3362 43.2664 81.8634 41.9543 84.0156C41.0491 85.5003 40.2346 88.8308 42.0942 88.59C42.5789 88.4908 43.0289 88.2814 43.403 87.9816C44.615 87.028 46.1273 85.2311 45.9032 83.734Z" fill="black"/>
<path d="M24.0657 66.1303C24.3835 66.3142 24.6728 65.8538 24.3581 65.6714L3.06576 53.3002C2.74788 53.1163 2.45861 53.5767 2.77331 53.7591L24.0657 66.1303Z" fill="#FFC431"/>
<path d="M29.2264 69.3775C32.2026 71.0556 35.1867 72.7336 38.2208 74.3174C38.287 74.3503 38.3646 74.3583 38.4371 74.3393C38.5095 74.3211 38.5713 74.2773 38.6093 74.2175C38.6473 74.1577 38.6585 74.0869 38.6406 74.0198C38.6226 73.9527 38.577 73.8943 38.5133 73.8578C35.5371 72.1798 32.553 70.5018 29.5189 68.9187C29.4529 68.888 29.3767 68.8814 29.3057 68.9004C29.2347 68.9194 29.1744 68.9632 29.137 69.0215C29.0996 69.0799 29.0881 69.1499 29.1047 69.2156C29.1214 69.282 29.1649 69.3396 29.2264 69.3775Z" fill="#FFC431"/>
<path d="M30.5162 102.258C25.1814 96.2096 18.3375 96.2264 10.6035 99.4131C10.6345 99.9209 10.5885 100.431 10.4668 100.927C10.3206 101.419 10.0478 101.872 9.67144 102.248C9.29508 102.624 8.82604 102.912 8.30369 103.086C7.78133 103.262 7.22083 103.319 6.66923 103.255C6.11763 103.19 5.59107 103.005 5.13356 102.714C4.94458 102.873 4.77189 103.049 4.6178 103.237C4.66238 103.216 4.71189 103.207 4.76164 103.208C4.81139 103.211 4.85986 103.224 4.90262 103.247C4.94537 103.27 4.98105 103.303 5.00641 103.343C5.03176 103.382 5.04598 103.426 5.04773 103.472C4.93743 104.781 5.07642 106.097 5.45859 107.362C6.98203 112.173 14.0056 114.345 19.5836 110.707C22.7854 108.628 24.2135 105.881 26.8829 103.814C27.918 103.14 29.0481 102.597 30.2421 102.202C30.2895 102.191 30.3387 102.191 30.3861 102.202C30.4337 102.211 30.4781 102.231 30.5162 102.258Z" fill="#9E647B"/>
<path d="M38.3415 125.638C35.7984 116.783 36.2752 108.938 30.5185 102.266C30.4825 102.234 30.4376 102.21 30.3884 102.198C30.3392 102.186 30.2875 102.187 30.2387 102.2C29.0448 102.595 27.9147 103.138 26.8795 103.812C24.2459 105.855 22.8973 108.547 19.5802 110.705C15.6934 113.234 10.5707 113.199 7.23538 110.071C5.80969 108.734 4.80519 106.831 5.04439 103.471C5.0428 103.419 5.02484 103.369 4.99282 103.326C4.96071 103.283 4.91589 103.25 4.8636 103.23C4.81139 103.21 4.75401 103.205 4.69838 103.213C4.64275 103.223 4.59126 103.247 4.55009 103.283C-1.33068 109.48 -0.41837 117.874 1.39831 125.78C1.41569 125.836 1.45235 125.885 1.5028 125.92C1.55324 125.955 1.61474 125.974 1.67804 125.974H38.0657C38.1098 125.974 38.1532 125.963 38.1925 125.945C38.2318 125.926 38.266 125.9 38.2926 125.868C38.3191 125.835 38.3373 125.798 38.3458 125.758C38.3543 125.718 38.3527 125.677 38.3415 125.638ZM23.096 125.78C23.0324 126.117 22.4745 125.973 22.5397 125.638C23.4487 120.838 24.7134 116.1 26.3248 111.458C26.4385 111.132 26.9979 111.272 26.8811 111.599C25.273 116.242 24.0084 120.98 23.096 125.78ZM25.43 124.089C25.4261 124.157 25.3939 124.221 25.34 124.269C25.2861 124.315 25.2146 124.342 25.1403 124.342C25.066 124.342 24.9946 124.315 24.9406 124.269C24.8867 124.221 24.8546 124.157 24.8507 124.089V122.389C24.8546 122.321 24.8867 122.257 24.9406 122.21C24.9946 122.163 25.066 122.137 25.1403 122.137C25.2146 122.137 25.2861 122.163 25.34 122.21C25.3939 122.257 25.4261 122.321 25.43 122.389V124.089Z" fill="#43F7B2"/>
<path d="M17.7955 92.65C17.5947 92.4603 17.3618 92.3012 17.1057 92.1801C17.15 92.2129 17.1834 92.2575 17.2022 92.3071C17.221 92.3559 17.2245 92.4099 17.2122 92.461C17.0969 92.9564 16.9738 93.4496 16.8244 93.9362C16.5588 94.8649 16.0929 95.7353 15.4543 96.4962C15.3224 96.5874 15.1563 96.5655 15.2842 96.5758C16.4199 96.5998 17.7931 96.2796 18.2858 95.2377C18.4897 94.8095 18.552 94.336 18.4648 93.8764C18.3776 93.416 18.1448 92.9892 17.7955 92.65Z" fill="#9E647B"/>
<path d="M17.0787 92.1619C16.5373 91.9299 15.9427 91.8204 15.3456 91.8452C14.7485 91.8693 14.1667 92.0255 13.6496 92.3005C13.2828 92.4471 12.9552 92.6653 12.6899 92.9396C12.4245 93.2146 12.2278 93.5393 12.1134 93.8909C11.7955 95.3121 13.3722 96.3314 14.7208 96.5254C14.9609 96.5984 15.2216 96.5882 15.4543 96.4977C16.0928 95.7367 16.5586 94.8664 16.8244 93.9376C16.9754 93.451 17.097 92.9578 17.2122 92.4625C17.2255 92.4056 17.2199 92.3472 17.1961 92.2932C17.1723 92.2399 17.1314 92.194 17.0787 92.1619Z" fill="black"/>
<path d="M26.8821 111.599C26.9957 111.272 26.4362 111.132 26.3258 111.457C24.7155 116.1 23.4508 120.838 22.5406 125.638C22.4778 125.973 23.0357 126.117 23.0969 125.78C24.0089 120.98 25.2735 116.242 26.8821 111.599Z" fill="#A982F4"/>
<path d="M24.8508 122.389V124.089C24.8547 124.157 24.8869 124.221 24.9408 124.269C24.9947 124.315 25.0662 124.342 25.1405 124.342C25.2148 124.342 25.2862 124.315 25.3401 124.269C25.3941 124.221 25.4263 124.157 25.4302 124.089V122.389C25.4263 122.321 25.3941 122.257 25.3401 122.21C25.2862 122.163 25.2148 122.137 25.1405 122.137C25.0662 122.137 24.9947 122.163 24.9408 122.21C24.8869 122.257 24.8547 122.321 24.8508 122.389Z" fill="#A982F4"/>
<path d="M11.9584 95.5908C9.31367 94.9342 7.68374 96.2073 7.85301 97.7737C7.8697 97.9313 7.95712 98.2319 7.84189 98.3741C7.70123 98.5478 7.34441 98.4128 6.30574 98.4354C5.28932 98.4573 4.24906 98.763 3.897 99.7173C2.88217 102.469 7.38176 104.726 9.74916 102.147C11.12 100.655 10.2776 99.4364 10.7767 98.067C11.1669 97.2192 12.3772 97.1703 12.525 96.1767C12.5049 96.0381 12.4403 95.9089 12.3393 95.8039C12.2383 95.6995 12.1057 95.6259 11.9584 95.5908Z" fill="black"/>
<path d="M89.1602 119.688C89.9366 114.911 90.5851 108.698 88.3973 104.325C87.6439 102.846 86.6323 101.489 85.4029 100.308C85.3735 100.28 85.3512 100.246 85.3377 100.208C85.3234 100.171 85.3194 100.132 85.3234 100.093C85.3282 100.054 85.3425 100.016 85.3647 99.9821C85.387 99.9486 85.4164 99.9201 85.4521 99.8983L85.4299 99.9048C81.6559 101.576 78.5899 104.346 76.7097 107.784C73.577 113.329 73.213 119.523 72.787 125.706C72.7877 125.776 72.8183 125.843 72.8725 125.893C72.9266 125.943 72.9998 125.971 73.0763 125.971C86.2921 126.036 88.1446 125.971 88.2256 125.971C88.1867 125.969 88.1493 125.959 88.1144 125.943C88.0802 125.927 88.0492 125.904 88.0246 125.877C87.9991 125.85 87.9801 125.819 87.969 125.785C87.957 125.751 87.9531 125.715 87.9562 125.68C87.9848 125.337 88.4362 124.147 89.1602 119.688Z" fill="#FFD2D2"/>
<path d="M102.754 100.31C102.165 97.7081 101.341 97.4134 101.843 97.1661C101.87 97.1529 101.898 97.1434 101.929 97.1383C100.527 97.0909 99.1225 97.1135 97.7231 97.2062C97.8892 97.2186 97.9718 97.2828 98.1053 97.4586C99.0566 98.6515 99.7591 99.9953 100.178 101.423C100.496 102.962 100.575 104.487 101.67 104.888C102.613 105.233 102.947 103.997 103.057 103.388C103.174 102.353 103.071 101.308 102.754 100.31Z" fill="#FFD2D2"/>
<path d="M120.625 112.064C119.948 106.318 116.987 101.071 111.144 98.7383C110.973 98.6828 111.298 98.8236 111.632 99.3992C113.455 101.958 114.244 105.261 114.645 108.296C115.139 112.048 114.534 120.119 112.837 125.78C112.821 125.831 112.788 125.877 112.743 125.911C112.698 125.944 112.643 125.966 112.585 125.97C112.664 125.988 112.365 125.996 119.26 125.974C119.324 125.974 119.385 125.955 119.436 125.92C119.486 125.885 119.522 125.836 119.54 125.78C120.351 121.323 121.157 116.57 120.625 112.064Z" fill="#FFD2D2"/>
<path d="M114.645 108.296C114.247 105.261 113.453 101.958 111.632 99.3992C111.489 99.1519 111.307 98.9257 111.092 98.7265C109.587 98.1246 108.002 97.7073 106.379 97.4863C104.921 97.2783 103.45 97.158 101.975 97.1266C101.957 97.1266 101.946 97.1354 101.929 97.1375C101.884 97.1448 101.841 97.1616 101.805 97.1871C101.767 97.2127 101.738 97.2462 101.718 97.2842C101.698 97.3221 101.688 97.3637 101.689 97.406C101.69 97.4483 101.702 97.4899 101.724 97.5271C102.202 98.4077 102.55 99.3437 102.757 100.309C103.075 101.307 103.177 102.352 103.06 103.387C102.951 103.996 102.616 105.232 101.673 104.887C100.207 104.35 100.613 101.879 99.6955 100.027C99.2521 99.1285 98.7196 98.2684 98.1061 97.4578C97.9726 97.282 97.89 97.2171 97.7239 97.2054C95.8174 97.2944 93.9212 97.5154 92.0513 97.8656C89.7713 98.2851 87.5573 98.9651 85.4617 99.8895L85.4521 99.8975C85.4164 99.9194 85.3862 99.9478 85.3639 99.9814C85.3417 100.015 85.3282 100.053 85.3234 100.092C85.3186 100.131 85.3234 100.17 85.3369 100.208C85.3504 100.245 85.3735 100.279 85.4029 100.307C87.934 102.688 89.4693 105.813 89.7364 109.131C90.0169 112.658 89.8238 116.204 89.1602 119.688C88.836 121.682 88.464 123.673 87.9642 125.637C87.9539 125.675 87.9531 125.715 87.961 125.753C87.9689 125.791 87.9864 125.828 88.0111 125.859C88.0357 125.89 88.0683 125.917 88.1048 125.936C88.1422 125.955 88.1835 125.967 88.2256 125.97C88.3051 125.987 87.4007 125.97 112.557 125.97C112.62 125.969 112.681 125.95 112.732 125.915C112.782 125.88 112.818 125.831 112.837 125.775C114.242 121.09 115.251 112.896 114.645 108.296Z" fill="#C0C195"/>
<path d="M102.425 92.8725C102.425 92.9433 102.395 93.0112 102.34 93.0608C102.286 93.1111 102.212 93.1388 102.135 93.1388C102.058 93.1388 101.984 93.1111 101.93 93.0608C101.875 93.0112 101.845 92.9433 101.845 92.8725C101.773 91.7665 101.727 91.1296 101.084 90.6525C100.638 90.3701 100.261 90.0061 99.9768 89.5829C99.535 89.5421 99.0884 89.5859 98.6664 89.7128C98.2436 89.839 97.855 90.0455 97.5244 90.3176C95.6171 91.9226 97.8423 95.2057 100.34 94.8657C101.647 94.687 102.518 93.4219 102.632 92.2561C102.514 92.4443 102.443 92.6551 102.425 92.8725Z" fill="#FFD2D2"/>
<path d="M103.725 88.1391C103.501 87.6503 103.115 87.2374 102.624 86.958C102.133 86.6785 101.559 86.545 100.982 86.5771C100.644 86.5749 100.315 86.6734 100.042 86.8573C99.7702 87.0419 99.57 87.3016 99.4722 87.5985C99.3745 88.1749 99.4865 88.7644 99.7901 89.2765C100.596 90.8422 101.524 90.303 101.747 91.9278C101.791 92.2422 101.82 92.5603 101.84 92.8762C101.84 92.947 101.871 93.0148 101.925 93.0644C101.979 93.1148 102.053 93.1425 102.13 93.1425C102.208 93.1425 102.281 93.1148 102.336 93.0644C102.39 93.0148 102.421 92.947 102.421 92.8762C102.474 92.0737 103.367 91.5032 103.772 90.8196C104.011 90.4052 104.132 89.9426 104.124 89.4742C104.116 89.0051 103.979 88.5462 103.725 88.1391Z" fill="black"/>
<path d="M2.91955 47.3397H30.2127C30.2896 47.3397 30.3634 47.3116 30.4178 47.2617C30.4722 47.2117 30.5027 47.144 30.5027 47.0734C30.5027 47.0027 30.4722 46.935 30.4178 46.8851C30.3634 46.8352 30.2896 46.8071 30.2127 46.8071H2.91955C2.84262 46.8071 2.76884 46.8352 2.71445 46.8851C2.66005 46.935 2.62949 47.0027 2.62949 47.0734C2.62949 47.144 2.66005 47.2117 2.71445 47.2617C2.76884 47.3116 2.84262 47.3397 2.91955 47.3397Z" fill="#FFC431"/>
<path d="M29.0993 32.0239L26.1764 30.2948C25.8585 30.1087 25.5716 30.5691 25.8839 30.7544L27.9215 31.9604C18.0728 31.9071 9.49327 37.1315 3.33039 44.1441C3.09754 44.4082 3.50522 44.7869 3.74046 44.5206C9.73645 37.6794 18.347 32.4047 27.8317 32.4828L25.8839 33.4042C25.5525 33.5611 25.845 34.0207 26.1764 33.8638L29.0373 32.5127C29.0888 32.4944 29.1338 32.4636 29.1677 32.4236C29.2015 32.3835 29.2228 32.3357 29.2291 32.2854C29.2355 32.2351 29.2268 32.1841 29.2039 32.138C29.1811 32.0919 29.1448 32.0525 29.0993 32.0239Z" fill="#FFC431"/>
<path d="M28.9308 44.3754L25.876 43.0476C25.5406 42.9017 25.2458 43.3606 25.5835 43.5072L27.7713 44.4556C23.9649 44.629 20.1642 44.0213 16.6456 42.6769C10.9717 40.242 6.57459 35.8488 4.41039 30.4531C4.28244 30.1343 3.7214 30.2721 3.85412 30.5946C5.2701 34.0798 7.58585 37.1976 10.6027 39.6806C15.2795 43.5699 21.0506 45.0998 27.1729 45.0152L25.5112 45.5989C25.1663 45.7192 25.3157 46.2336 25.6654 46.1096L28.9475 44.9649C29.3067 44.8365 29.3615 44.5614 28.9308 44.3754Z" fill="#FFC431"/>
<path d="M133.171 79.5507C132.222 72.8649 128.42 66.7993 122.602 62.6853C122.374 68.7823 121.644 74.8552 120.419 80.8515C120.401 80.9077 120.365 80.9566 120.315 80.9923C120.264 81.0273 120.203 81.0463 120.139 81.047C118.481 81.0536 113.933 81.2761 95.2222 81.047C95.1657 81.0456 95.1109 81.0288 95.064 80.9989C95.0179 80.9697 94.9814 80.9281 94.9599 80.8807C94.9385 80.8325 94.9321 80.78 94.9424 80.7289C94.9528 80.6779 94.9782 80.6304 95.0171 80.5925C95.5885 80.0475 96.1909 79.531 96.8211 79.0444L96.0789 62.2964C95.761 65.3708 94.6571 75.6891 93.7854 80.8478C93.7679 80.904 93.7313 80.9529 93.6813 80.9886C93.6304 81.0237 93.5692 81.0426 93.5056 81.0434C91.5348 81.0485 83.0323 81.2622 67.7574 81.0434C67.6947 81.0419 67.6341 81.0215 67.5849 80.9857C67.5356 80.95 67.5001 80.9004 67.4838 80.8449C67.4673 80.7895 67.4709 80.7304 67.4939 80.6771C67.5168 80.6231 67.5579 80.5779 67.6112 80.5473C68.3471 80.0512 69.0416 79.5062 69.7759 79.0042C70.0406 75.0522 70.5126 68.2796 70.7399 65.3614C67.5102 68.4336 65.1896 72.212 63.9985 76.3391C62.1516 76.4756 60.2936 76.6207 58.4403 76.809V78.3921C60.8051 78.5278 63.1136 79.1122 65.2207 80.1066C65.5545 80.2605 65.2612 80.718 64.9283 80.5662C64.3547 80.3102 63.7668 80.0811 63.1672 79.8812C59.9344 78.7781 57.9103 78.7525 55.9831 79.1304C54.3898 79.4383 52.8425 79.9206 51.3739 80.5662C51.0385 80.7121 50.7453 80.2554 51.0814 80.1066C53.2019 79.1443 55.5035 78.5643 57.8618 78.398V76.8659C55.523 77.1008 53.2112 77.5006 50.905 77.923C49.7526 78.1215 48.6363 78.468 47.5887 78.9517C46.434 79.5777 46.4094 80.4568 48.0354 81.1141C59.0912 85.5813 128.459 85.458 133.028 80.3583C133.161 80.1081 133.211 79.8272 133.171 79.5507Z" fill="#FFC431"/>
<path d="M122.442 41.8474C122.058 34.2687 121.886 25.5883 117.389 19.7642C115.407 17.1669 112.605 15.1884 109.363 14.094C105.606 12.8749 96.6304 11.5836 88.4974 12.2475C83.4916 12.6594 78.5772 13.7368 73.9091 15.4459C71.618 16.3499 69.5512 17.6724 67.8345 19.333C65.4949 21.5947 63.3953 26.0662 62.0427 29.1931C69.0035 30.3714 76.0556 32.1486 83.08 31.0769C88.4768 30.2532 93.2918 28.4679 98.9366 24.467C98.9588 24.4484 98.9859 24.4342 99.0145 24.4254C99.0431 24.4165 99.0733 24.4131 99.1035 24.4155C99.1337 24.4178 99.1631 24.4258 99.1901 24.4389C99.2171 24.452 99.2402 24.47 99.2592 24.4918C99.4706 24.6238 99.2656 23.1377 99.3729 49.1774C99.3729 49.2239 99.3602 49.2698 99.3347 49.3102C99.3093 49.3506 99.2727 49.3841 99.229 49.4072C98.7379 49.6261 97.2725 50.244 97.2725 50.244C123.656 50.244 122.739 50.1302 122.745 50.5103C122.692 47.6212 122.591 44.7336 122.442 41.8474Z" fill="#CCEAFF"/>
<path d="M122.747 50.5102C122.745 50.4404 122.714 50.3739 122.66 50.3244C122.607 50.2749 122.534 50.2462 122.458 50.2439H97.2749C93.0137 52.0211 87.1472 54.0821 82.5348 54.5279C78.9293 54.7816 75.3023 54.5135 71.7873 53.7335C71.5123 56.3796 70.4657 68.6896 69.7751 79.0042C69.7785 78.9341 69.81 78.8685 69.8637 78.8189C69.9174 78.7693 69.9893 78.7401 70.0652 78.7372C72.4819 78.7758 61.2901 78.4008 93.7869 78.7372C93.8314 78.7379 93.8751 78.7481 93.9141 78.7663C93.9538 78.7846 93.9888 78.8116 94.015 78.8437C94.042 78.8758 94.0611 78.9137 94.0699 78.9538C94.0786 78.9932 94.0778 79.0348 94.0667 79.0742C94.7859 74.3204 95.8524 64.4683 96.0757 62.2941L96.8227 79.0013C96.8227 78.9662 96.8298 78.9312 96.8441 78.8991C96.8584 78.867 96.8799 78.8371 96.9069 78.8123C96.9339 78.7875 96.9657 78.7678 97.0007 78.7547C97.0365 78.7415 97.0738 78.735 97.112 78.735C146.537 78.735 98.2635 78.5365 120.494 78.735C120.538 78.7357 120.582 78.7459 120.622 78.7642C120.661 78.7824 120.695 78.8087 120.722 78.8415C120.749 78.8736 120.768 78.9115 120.776 78.9509C120.785 78.991 120.784 79.0326 120.773 79.072C122.561 69.7307 122.917 59.9989 122.747 50.5102Z" fill="#2755A0"/>
<path d="M49.14 41.649C47.3869 42.6923 44.6706 44.2025 43.0208 43.3956C42.6254 43.1532 42.3424 42.7846 42.2267 42.3614C42.111 41.9381 42.1708 41.4905 42.3946 41.1055C42.8674 40.1497 43.5866 39.8112 47.1008 37.3774C46.3151 37.7302 45.485 37.9926 44.6293 38.1588C44.2055 38.2323 43.7694 38.2198 43.3515 38.1221C42.9336 38.0244 42.544 37.844 42.2102 37.5933C41.8761 37.2863 41.6767 36.8772 41.6496 36.4439C41.6227 36.0106 41.7702 35.5834 42.064 35.2434C42.8197 34.2622 44.2009 33.9302 46.4253 33.1094C45.417 33.2124 44.3979 33.0414 43.4944 32.6177C42.1919 32.0063 42.2078 30.0803 44.8677 29.4492C48.357 28.5648 51.9859 28.237 55.5961 28.4803C53.3845 24.8522 51.0131 21.011 48.6282 17.5026C47.274 15.4577 45.6913 13.5478 43.9061 11.8039C43.2456 11.1353 42.4795 10.5615 41.6333 10.1018C40.8333 9.6717 39.8928 9.51652 38.9798 9.66411C37.9379 9.89465 37.6526 10.258 36.1316 10.9277C33.4669 12.1009 29.2916 13.5746 28.1496 14.4523C27.9275 14.6444 27.7781 14.8968 27.7233 15.1724C27.6686 15.448 27.7113 15.7326 27.8452 15.9843C28.3388 16.9196 30.2794 17.1086 31.4913 16.8956C30.2781 17.4877 29.1015 18.1409 27.9668 18.8523C27.7915 18.9486 27.639 19.0763 27.5185 19.2278C27.3979 19.3792 27.3118 19.5514 27.265 19.734C27.2184 19.9167 27.2121 20.1061 27.2467 20.291C27.2812 20.4758 27.3559 20.6525 27.4662 20.8104C28.5374 21.9857 31.3228 21.2095 32.8741 20.6419C33.4739 27.5168 35.1329 34.2789 37.8012 40.7261C38.436 42.2654 39.3201 43.7079 40.4237 45.005C43.8854 48.9614 52.1249 51.1472 59.301 49.0665C55.5634 47.0283 52.145 44.533 49.14 41.649Z" fill="#FFD2D2"/>
<path d="M99.2616 24.4918C99.2425 24.4702 99.2187 24.4523 99.1925 24.4393C99.1655 24.4263 99.1361 24.4185 99.1059 24.4161C99.0757 24.4138 99.0455 24.4171 99.0169 24.4258C98.9882 24.4346 98.962 24.4486 98.939 24.467C94.4187 27.9709 88.9305 30.2586 83.0824 31.0769C76.4697 32.0858 69.8808 30.5997 62.7381 29.3098C57.2086 28.3111 50.1183 27.9186 44.8574 29.4492C42.1983 30.0803 42.184 32.0078 43.4841 32.6177C44.3876 33.0414 45.4067 33.2124 46.415 33.1094C44.011 33.9922 42.7824 34.2972 42.0537 35.2434C41.7599 35.5834 41.6124 36.0106 41.6393 36.4439C41.6663 36.8772 41.8658 37.2863 42.1999 37.5933C42.5337 37.8439 42.9232 38.0244 43.3412 38.1221C43.7591 38.2198 44.1952 38.2323 44.6189 38.1587C45.4747 37.9926 46.3047 37.7302 47.0905 37.3774C43.5382 39.8382 42.8587 40.1497 42.3843 41.1055C42.1605 41.4905 42.1006 41.9381 42.2163 42.3613C42.332 42.7846 42.6151 43.1532 43.0105 43.3956C43.5072 43.5645 44.0377 43.6338 44.5661 43.599C45.0945 43.5641 45.6087 43.4258 46.074 43.1935C47.1374 42.7554 48.1604 42.2389 49.1328 41.649C59.3177 51.415 72.9348 55.4546 82.5277 54.528C87.7258 54.0261 94.4982 51.4952 99.2243 49.4072C99.268 49.3839 99.3045 49.3504 99.33 49.31C99.3554 49.2697 99.3681 49.2239 99.3681 49.1774C99.2926 23.1319 99.4333 24.5983 99.2616 24.4918Z" fill="#FFD2D2"/>
<path d="M100.04 48.906C107.248 45.736 114.049 40.8866 117.258 34.203C117.406 33.8922 116.908 33.6194 116.757 33.9345C113.507 40.6466 106.928 45.2713 99.7504 48.4463C99.411 48.5952 99.7043 49.0533 100.04 48.906Z" fill="#78B5FF"/>
<path d="M100.04 24.1796C102.225 22.8808 104.121 21.2127 105.628 19.2638C105.844 18.9836 105.342 18.7173 105.128 18.9953C103.676 20.8687 101.851 22.472 99.7472 23.72C99.4357 23.906 99.7257 24.3671 100.04 24.1796Z" fill="#78B5FF"/>
<path d="M87.0376 50.2476L90.7504 49.5334C91.1152 49.4604 90.961 48.9497 90.5962 49.0227L86.8834 49.7369C86.5186 49.8048 86.6728 50.3177 87.0376 50.2476Z" fill="#FC9070"/>
<path d="M90.748 25.2155C90.2712 24.3889 86.761 18.1285 86.5894 17.8236C86.521 17.6835 86.2937 17.5565 86.0672 17.9432C85.7645 18.4627 84.8823 20.0553 81.8776 24.9069C81.8522 24.9477 81.8386 24.994 81.8386 25.0412C81.8386 25.0883 81.8522 25.1346 81.8776 25.1754L85.6127 30.0759C85.6357 30.1105 85.6667 30.1399 85.7033 30.1619C85.7406 30.1839 85.7819 30.1981 85.8256 30.2033C85.8694 30.2085 85.9139 30.2046 85.956 30.1919C85.9973 30.1792 86.0354 30.158 86.0672 30.1299C87.4182 28.7919 90.5064 25.7291 90.7019 25.538C90.7456 25.4955 90.7734 25.4415 90.7822 25.3836C90.7901 25.3257 90.7782 25.2669 90.748 25.2155Z" fill="black"/>
<path d="M91.1454 1.23032C90.9006 0.770624 90.4889 0.403944 89.9811 0.193756C89.4733 -0.0165044 88.9011 -0.0570681 88.3639 0.0790688C87.8847 0.293634 87.4842 0.632225 87.2116 1.05318C86.9398 1.47407 86.8079 1.95894 86.8317 2.44797C86.8238 2.74855 86.8969 3.04621 87.0447 3.31455C87.1925 3.58288 87.4103 3.8135 87.6789 3.98589C89.1888 2.46402 91.1605 2.58294 91.7318 3.76265C91.7422 2.88914 91.5419 2.02438 91.1454 1.23032Z" fill="black"/>
<path d="M46.194 19.5971C44.2583 19.6915 42.3225 19.4129 40.5111 18.7793C38.0404 17.7579 38.3551 15.4291 40.5294 15.3328C41.5331 15.3394 41.8009 15.4503 44.5379 16.0296C44.9011 16.1069 45.056 15.5918 44.692 15.5189C41.9901 14.9469 41.5323 14.8112 40.6677 14.7995C40.1323 14.754 39.5965 14.8824 39.1537 15.1624C38.7109 15.4424 38.3892 15.8561 38.2447 16.3316C38.1595 16.8106 38.2283 17.3021 38.4425 17.7459C38.6568 18.1897 39.0072 18.5665 39.451 18.8304C40.3635 19.3689 41.3891 19.7253 42.4613 19.8766C43.6933 20.081 44.945 20.1675 46.1964 20.1348C46.5691 20.1151 46.5691 19.5825 46.194 19.5971Z" fill="#FF4848"/>
<path d="M33.7745 13.9342C33.8385 14.1466 33.9478 14.3451 34.0963 14.5183C34.2447 14.6914 34.4293 14.8356 34.6391 14.9425C36.1983 15.7596 37.9459 14.9111 39.3525 14.3508L41.2431 13.5979C41.584 13.4622 41.2892 13.0033 40.9506 13.1383C39.9771 13.5264 39.0076 13.924 38.0293 14.3005C37.1965 14.7003 36.2384 14.822 35.3186 14.6448C35.1166 14.5919 34.9286 14.5014 34.7662 14.3791C34.6038 14.2567 34.4705 14.105 34.3745 13.9335C34.206 13.2353 34.8513 12.8392 37.4603 10.9022C37.7504 10.6869 37.3379 10.3127 37.051 10.5264C34.6487 12.3102 33.637 12.9194 33.7745 13.9342Z" fill="#FF4848"/>
<path d="M91.7342 3.76266C91.6405 3.56582 91.5014 3.38949 91.3281 3.24518C91.1549 3.10087 90.9499 2.9918 90.7274 2.92512C90.2974 2.84362 89.8532 2.85289 89.428 2.95226C89.0021 3.05155 88.6071 3.23839 88.2717 3.49856C86.5822 4.63668 86.4368 6.36502 88.8177 7.13544C89.2985 7.25203 89.8063 7.23743 90.2791 7.09335C90.7512 6.94926 91.1676 6.68202 91.4768 6.32416C91.7859 5.96639 91.975 5.53353 92.0211 5.07858C92.0664 4.62369 91.9671 4.1664 91.7342 3.76266Z" fill="#FFD2D2"/>
<path d="M93.7869 78.7379C69.2689 78.4899 69.8133 78.611 69.7751 79.005C69.044 79.5069 68.3447 80.0519 67.6104 80.548C67.5576 80.5786 67.517 80.6246 67.4944 80.6778C67.4718 80.7311 67.4684 80.7902 67.4847 80.8456C67.5011 80.9011 67.5362 80.95 67.5852 80.9857C67.6341 81.0215 67.6941 81.0419 67.7566 81.0441H93.5048C93.5684 81.0441 93.6296 81.0244 93.6805 80.9894C93.7305 80.9536 93.7671 80.9047 93.7846 80.8486C93.8847 80.2583 93.9793 79.6674 94.0691 79.075C94.0802 79.0356 94.081 78.994 94.0722 78.9539C94.0627 78.9138 94.0444 78.8758 94.0166 78.8437C93.9896 78.8109 93.9554 78.7846 93.9149 78.7664C93.8752 78.7481 93.8314 78.7387 93.7869 78.7379Z" fill="black"/>
<path d="M120.494 78.7379C95.42 78.5117 97.0667 78.7131 96.9578 78.7824C96.9085 78.8065 96.868 78.8451 96.8441 78.8918C96.8203 78.9385 96.8131 78.9911 96.8243 79.0414C96.1941 79.528 95.5917 80.0446 95.0203 80.5895C94.9814 80.6275 94.9559 80.6749 94.9456 80.726C94.9353 80.777 94.9416 80.8296 94.9631 80.8777C94.9845 80.9251 95.0211 80.9667 95.0672 80.9959C95.1141 81.0258 95.1689 81.0426 95.2253 81.0441H120.142C120.206 81.0433 120.267 81.0244 120.318 80.9893C120.368 80.9536 120.405 80.9047 120.422 80.8485C120.548 80.259 120.66 79.6666 120.773 79.075C120.784 79.0356 120.785 78.994 120.776 78.9539C120.768 78.9145 120.749 78.8765 120.722 78.8444C120.695 78.8116 120.661 78.7853 120.622 78.7671C120.582 78.7488 120.538 78.7386 120.494 78.7379Z" fill="black"/>
<path d="M74.1452 62.2074C74.3375 61.5253 74.5362 60.8439 74.7213 60.1603C74.7336 60.0952 74.719 60.0282 74.6805 59.9725C74.642 59.9167 74.5823 59.876 74.513 59.8584C74.4437 59.8407 74.3697 59.8474 74.3054 59.877C74.2411 59.9066 74.191 59.9572 74.165 60.0187C73.9544 60.6965 73.774 61.3816 73.5897 62.0659C73.5784 62.1305 73.5935 62.1967 73.632 62.2518C73.6706 62.3069 73.7299 62.347 73.7985 62.3645C73.8673 62.382 73.9406 62.3757 74.0045 62.3467C74.0685 62.3177 74.1185 62.2681 74.1452 62.2074Z" fill="#2755A0"/>
<path d="M99.0939 60.0188C98.9024 60.7009 98.7021 61.3816 98.5178 62.0659C98.5074 62.1304 98.5233 62.196 98.5615 62.2506C98.6004 62.3051 98.6592 62.3449 98.7276 62.3622C98.7959 62.3796 98.869 62.3735 98.9326 62.345C98.997 62.3165 99.0471 62.2676 99.0741 62.2075C99.2656 61.5253 99.4651 60.8439 99.6494 60.1603C99.6606 60.0957 99.6455 60.0295 99.6073 59.9743C99.5684 59.9193 99.5096 59.8791 99.4404 59.8616C99.3721 59.8441 99.2982 59.8505 99.2346 59.8794C99.171 59.9085 99.121 59.958 99.0939 60.0188Z" fill="#2755A0"/>
<path d="M61.0581 8.35748C61.1027 7.91836 61.0473 7.47544 60.8953 7.05703C60.7433 6.6387 60.4981 6.25392 60.1752 5.9273C59.7519 5.64335 59.2324 5.50685 58.7096 5.54223C58.1868 5.57769 57.6947 5.7827 57.3214 6.12063C56.2374 6.98079 55.6247 8.91414 55.4197 10.2164C55.2536 11.3188 55.1733 12.8655 56.2454 13.6184C56.5417 13.8043 56.8769 13.9319 57.2296 13.9929C57.5824 14.054 57.9452 14.0473 58.2949 13.9732C58.6447 13.899 58.9739 13.7592 59.2618 13.5624C59.5498 13.3656 59.7901 13.1161 59.9677 12.8297C60.7567 11.4541 61.133 9.91058 61.0581 8.35748Z" fill="#FFC431"/>
<path d="M61.7828 16.6366C60.8443 15.4861 59.4631 14.5632 57.8229 14.7923C56.239 15.0111 55.0033 16.166 53.9646 17.1998C53.7119 17.4515 54.1235 17.8287 54.3747 17.5763C55.3442 16.614 56.4448 15.559 57.8602 15.33V26.8214C57.8641 26.8895 57.8963 26.9536 57.9502 27.0006C58.0041 27.0475 58.0756 27.0737 58.1499 27.0737C58.2242 27.0737 58.2956 27.0475 58.3496 27.0006C58.4035 26.9536 58.4356 26.8895 58.4395 26.8214V15.2942C59.0127 15.3576 59.5639 15.5349 60.0548 15.8137C60.5457 16.0925 60.9645 16.4662 61.2822 16.9087C61.5031 17.1765 62.0061 16.9117 61.7828 16.6366Z" fill="black"/>
<path d="M55.7996 10.4352C55.4705 10.274 55.1773 10.7329 55.5071 10.8949L59.5903 12.8946C59.9193 13.0558 60.2125 12.5962 59.8827 12.435L55.7996 10.4352Z" fill="black"/>
<path d="M55.8139 9.327L60.234 11.5157C60.5622 11.6791 60.8554 11.2195 60.5264 11.0568L56.1063 8.86811C55.7606 8.69958 55.4936 9.1862 55.8139 9.327Z" fill="black"/>
<path d="M60.5383 10.042C60.6045 10.0748 60.6821 10.0827 60.7546 10.0641C60.8271 10.0455 60.8888 10.0017 60.9268 9.94201C60.9648 9.88234 60.976 9.81142 60.958 9.7443C60.9401 9.67718 60.8945 9.61911 60.8308 9.58234L56.6745 7.41772C56.6083 7.38481 56.5308 7.37686 56.4583 7.39546C56.3858 7.41414 56.3241 7.45792 56.2861 7.51759C56.2481 7.57727 56.2369 7.64819 56.2548 7.71531C56.2727 7.78243 56.3183 7.8405 56.3821 7.87734C56.4774 7.92987 60.168 9.85374 60.5383 10.042Z" fill="black"/>
<path d="M65.2199 80.1036C63.1121 79.1107 60.804 78.527 58.4396 78.3891V52.8383C58.4357 52.7702 58.4035 52.706 58.3495 52.659C58.2956 52.6121 58.2242 52.5859 58.1499 52.5859C58.0756 52.5859 58.0041 52.6121 57.9502 52.659C57.8963 52.706 57.8641 52.7702 57.8602 52.8383V78.395C55.5016 78.5599 53.1996 79.1399 51.0799 80.1036C50.7437 80.2495 51.0377 80.7114 51.3723 80.5633C52.8398 79.9154 54.3875 79.4332 55.9816 79.1275C57.2067 78.8823 58.4703 78.8444 59.7103 79.0158C61.5191 79.3055 63.2749 79.8257 64.9267 80.5618C65.2597 80.7165 65.5537 80.2576 65.2199 80.1036Z" fill="black"/>
<path d="M53.7214 31.5846C52.6165 31.5321 51.5088 31.6123 50.4266 31.8232C50.0618 31.8962 50.216 32.4069 50.5808 32.3339C51.6127 32.135 52.6686 32.0614 53.7214 32.115C54.0941 32.1355 54.0933 31.6029 53.7214 31.5846Z" fill="#FC9070"/>
<path d="M53.7953 36.6274C52.6188 36.3224 51.3764 36.3011 50.1882 36.5653C49.825 36.6426 49.9792 37.1563 50.3424 37.0761C51.4313 36.8529 52.5629 36.8739 53.6411 37.1374C53.7116 37.1476 53.7836 37.1339 53.8437 37.0985C53.9037 37.0631 53.9474 37.0087 53.9665 36.9456C53.9856 36.8825 53.9787 36.8152 53.9471 36.7564C53.9155 36.6978 53.8615 36.6518 53.7953 36.6274Z" fill="#FC9070"/>
<path d="M45.9032 83.734C45.5154 82.3332 43.264 81.8677 41.9543 84.0156C41.4688 84.8298 41.1558 85.7206 41.0317 86.642C40.9474 87.1666 40.8791 88.0676 41.3718 88.436C41.5028 88.8139 41.7528 89.1473 42.0902 89.3939C42.4276 89.6413 42.8372 89.7916 43.2673 89.8244C43.6974 89.8579 44.1287 89.774 44.5066 89.5822C44.8845 89.391 45.1922 89.1007 45.3906 88.749C45.6176 88.3222 45.7185 87.8487 45.6832 87.3745C45.6479 86.901 45.4777 86.4443 45.1895 86.0496C45.7291 85.3842 45.9831 84.5598 45.9032 83.734ZM44.4139 83.0876C44.6296 83.1197 44.8307 83.2079 44.9941 83.3415C45.1574 83.4742 45.2762 83.6479 45.3365 83.8405C45.3897 84.2592 45.3091 84.6831 45.1045 85.0603C43.9188 87.3256 41.8081 88.641 41.6118 87.8283C41.2288 86.3152 42.6393 82.698 44.4139 83.0876ZM44.8907 88.4783C44.7709 88.7184 44.5812 88.9234 44.3425 89.0707C44.1038 89.2174 43.8254 89.3013 43.5381 89.3122C43.2509 89.3239 42.9658 89.2619 42.7144 89.1335C42.4632 89.0051 42.2553 88.8154 42.114 88.5856C43.237 88.3572 44.1715 87.3818 44.843 86.5238C45.0109 86.8251 45.1024 87.1578 45.1106 87.4963C45.1189 87.8348 45.0437 88.1705 44.8907 88.4783Z" fill="black"/>
<path d="M24.0657 66.1303C24.3835 66.3142 24.6728 65.8538 24.3581 65.6714L3.06574 53.3002C2.74787 53.1163 2.4586 53.5767 2.7733 53.7591L24.0657 66.1303Z" fill="black"/>
<path d="M29.2264 69.3775C32.2026 71.0556 35.1867 72.7336 38.2208 74.3174C38.287 74.3503 38.3646 74.3583 38.4371 74.3393C38.5095 74.3211 38.5713 74.2773 38.6093 74.2175C38.6473 74.1577 38.6585 74.0869 38.6406 74.0198C38.6226 73.9527 38.577 73.8943 38.5133 73.8578C35.5371 72.1798 32.553 70.5018 29.5189 68.9187C29.4529 68.888 29.3767 68.8814 29.3057 68.9004C29.2347 68.9194 29.1744 68.9632 29.137 69.0215C29.0996 69.0799 29.0881 69.1499 29.1047 69.2156C29.1214 69.282 29.1649 69.3396 29.2264 69.3775Z" fill="black"/>
<path d="M17.7955 92.65C17.2392 92.1867 16.5341 91.9022 15.7863 91.8387C15.0385 91.7753 14.2886 91.9372 13.6495 92.2991C13.2827 92.4457 12.9551 92.6639 12.6898 92.9382C12.4244 93.2132 12.2277 93.5379 12.1134 93.8895C11.7955 95.3107 13.3722 96.3299 14.7208 96.524C16.0567 96.802 17.7708 96.2986 18.2858 95.2378C18.4876 94.8095 18.5487 94.336 18.4616 93.8764C18.3745 93.4168 18.1429 92.9907 17.7955 92.65ZM15.1142 96.0286C12.8326 95.8492 11.4848 93.9027 14.0676 92.6989C14.455 92.5143 14.8801 92.4049 15.3157 92.3793C15.7514 92.3531 16.1883 92.41 16.5987 92.5471C16.3985 93.7962 15.8908 94.9868 15.1142 96.0286ZM17.7589 95.0204C17.5672 95.3224 17.2926 95.5741 16.9625 95.7485C16.6324 95.9236 16.2582 96.0162 15.8771 96.0177C16.5248 95.0495 16.9649 93.9764 17.174 92.8565C17.5153 93.1096 17.7571 93.4584 17.8627 93.8487C17.9683 94.2397 17.9319 94.6519 17.7589 95.0218V95.0204Z" fill="black"/>
<path d="M24.8508 122.389V124.089C24.8547 124.157 24.8869 124.221 24.9408 124.269C24.9947 124.315 25.0662 124.342 25.1405 124.342C25.2148 124.342 25.2862 124.315 25.3401 124.269C25.3941 124.221 25.4263 124.157 25.4302 124.089V122.389C25.4263 122.321 25.3941 122.257 25.3401 122.21C25.2862 122.163 25.2148 122.137 25.1405 122.137C25.0662 122.137 24.9947 122.163 24.9408 122.21C24.8869 122.257 24.8547 122.321 24.8508 122.389Z" fill="black"/>
<path d="M69.2077 125.709C68.5958 121.243 68.3757 111.155 65.959 104.003C64.9856 100.925 63.2992 98.0765 61.0152 95.6529C53.096 87.2987 38.2073 90.3628 34.4277 101.252C33.7829 103.044 33.4689 104.923 33.4987 106.81C31.3991 102.419 27.6513 98.4931 22.5764 97.5367C18.5727 96.7794 14.3481 97.8657 10.5995 99.4007C10.5605 98.9506 10.6208 98.4975 10.7767 98.0685C10.9968 97.5899 11.4991 97.3623 11.9163 97.0471C12.5878 96.6561 12.7825 95.7959 11.9584 95.588C11.296 95.4158 10.6016 95.3728 9.92002 95.4618C9.31693 95.526 8.76461 95.8025 8.37926 96.2337C7.99383 96.6641 7.80549 97.2149 7.85381 97.7709C7.8705 97.9284 7.95791 98.229 7.84268 98.3713C7.70202 98.5449 7.3452 98.41 6.30653 98.4326C5.29011 98.4545 4.24985 98.7601 3.89778 99.7144C3.71242 100.268 3.73293 100.862 3.95609 101.404C4.17928 101.945 4.59236 102.404 5.13038 102.706C4.98018 102.844 4.80693 103.003 4.67183 103.15C2.57202 105.316 1.14935 107.963 0.554494 110.81C-0.62166 115.733 0.270787 120.863 1.39926 125.772C1.47396 126.012 56.3614 125.929 68.9184 125.966C69.075 125.975 69.2435 125.868 69.2077 125.709ZM43.0621 92.766C44.8046 92.0175 46.6856 91.5776 48.6059 91.4696C46.2489 92.3341 45.9246 93.2935 44.7207 93.9545C44.4378 94.1595 44.0824 94.2602 43.723 94.239C43.3636 94.2171 43.0257 94.0741 42.7744 93.837C42.5162 93.4905 42.8229 93.0447 43.0645 92.766H43.0621ZM4.37064 100.158C4.46911 99.7713 4.72389 99.4335 5.08341 99.2125C5.44301 98.9921 5.88041 98.9046 6.30732 98.9688C7.43977 98.9447 8.64374 99.3022 8.44427 97.8642C8.37147 97.4367 8.48607 97.0004 8.76294 96.651C9.0399 96.3015 9.45648 96.0666 9.92161 95.998C10.4438 95.9382 10.9727 95.9477 11.4919 96.0265C11.9624 96.1038 12.0983 96.2453 11.6183 96.586C11.2106 96.8458 10.8323 97.142 10.489 97.4703C9.6085 98.6427 10.3802 99.9238 9.75711 101.163C8.39182 103.912 3.99952 102.741 4.37064 100.158ZM5.03898 103.594C5.22256 103.413 5.50547 103.132 5.66441 102.987C6.20139 103.212 6.79169 103.308 7.37993 103.265C7.96816 103.223 8.5351 103.045 9.02782 102.747C9.52061 102.449 9.92288 102.041 10.1972 101.562C10.4715 101.082 10.6089 100.546 10.5963 100.005C17.863 96.8793 24.6839 96.6539 29.8376 102.339C28.7913 102.719 27.7988 103.214 26.8813 103.812C23.4521 106.466 20.2289 113.005 12.8342 112.504C10.7109 112.335 8.72432 111.472 7.23712 110.071C5.82415 108.756 4.83872 106.888 5.0374 103.594H5.03898ZM23.1661 125.443C24.0689 120.757 25.3109 116.133 26.8837 111.599C26.9973 111.272 26.4378 111.132 26.3274 111.458C24.7375 116.036 23.4856 120.709 22.5804 125.443C22.5804 125.443 2.32747 125.416 1.9182 125.435C0.487739 119.181 -0.322853 113.397 2.29012 107.586C2.8544 106.387 3.58435 105.259 4.46203 104.23C4.44296 105.171 4.54381 106.111 4.76243 107.03C6.06494 112.023 12.8302 114.763 18.6037 111.884C22.1202 110.182 23.8416 107.349 26.6103 104.726C27.6711 103.872 28.8986 103.21 30.2277 102.776C35.6675 109.28 35.2471 116.668 37.6979 125.44L23.1661 125.443ZM61.3911 125.443C59.7071 117.512 57.4867 109.34 56.8446 107.309C56.8184 107.248 56.7685 107.198 56.7044 107.168C56.6403 107.138 56.5664 107.132 56.4973 107.149C56.4281 107.167 56.3684 107.207 56.3299 107.262C56.2912 107.319 56.2765 107.385 56.2883 107.45C58.0819 113.639 59.6038 119.763 60.803 125.443H38.2892C36.691 119.85 36.1657 113.357 34.1695 108.33C34.0016 106.558 34.1116 104.773 34.4961 103.03C34.9506 100.991 35.8675 99.0636 37.1872 97.3725C38.5068 95.6806 40.1996 94.2638 42.1554 93.2125C41.7628 94.4309 43.4778 95.1094 44.7294 94.5527C46.1201 93.937 46.5389 92.7055 49.0565 91.8811C49.7352 91.641 50.4523 91.5039 51.1792 91.4769C57.5956 91.9394 62.634 96.9785 64.7876 102.505C67.7788 109.78 67.9942 120.859 68.595 125.443H61.3911Z" fill="black"/>
<path d="M150.221 99.2461C150.731 98.3852 150.996 97.42 150.99 96.4394C150.985 95.4596 150.71 94.4966 150.19 93.6408C149.554 92.7062 148.664 91.9416 148.049 90.9939C147.735 90.4891 147.544 89.928 147.486 89.3495C147.427 88.7702 147.506 88.1866 147.714 87.6379C148.346 85.1793 148.14 84.4125 146.518 82.6105C145.534 81.3491 145.627 80.2482 145.251 78.9131C145.051 78.104 144.655 77.3459 144.091 76.6974C143.528 76.0488 142.812 75.5257 141.997 75.1667C138.811 73.909 135.571 76.1516 136.752 78.1689C136.93 78.5038 137.049 78.8634 137.102 79.2333C136.094 80.3897 135.514 81.8102 135.445 83.2897C135.246 85.4106 138.021 86.003 139.31 85.1523C139.489 85.3048 139.643 85.4806 139.766 85.6747C139.893 85.9293 139.953 86.208 139.94 86.4874C139.926 86.7668 139.841 87.0397 139.69 87.2834C139.287 87.9524 138.997 88.3544 138.771 88.6593C131.991 87.6328 125.572 89.3524 122.412 91.6345C119.555 93.697 116.418 97.738 114.607 100.685C112.229 98.9564 109.385 97.8504 106.378 97.4841C102.661 97.0085 98.8921 96.9815 95.1673 97.4039C89.5448 98.024 84.2458 99.64 80.2421 103.286C73.8662 109.274 73.3282 117.819 72.7862 125.706C72.7868 125.776 72.8175 125.843 72.8716 125.893C72.9257 125.943 72.999 125.971 73.0755 125.971C79.774 126.001 146.85 125.971 146.871 125.971C146.934 125.971 146.995 125.951 147.046 125.916C147.096 125.881 147.133 125.832 147.151 125.777C149.496 117.642 152.423 107.721 150.221 99.2461ZM136.225 84.3002C135.849 83.7895 135.9 81.8532 137.161 80.0957C137.161 81.3279 136.982 82.2318 137.523 83.4006C137.84 83.9405 138.287 84.4074 138.83 84.7656C138.401 84.9655 137.912 85.0283 137.441 84.9444C136.968 84.8597 136.541 84.6328 136.225 84.3002ZM138.852 89.5654C139.494 88.4295 140.326 87.8247 140.527 86.5275C140.617 85.4609 139.848 84.7912 138.868 84.1039C136.717 82.5273 138.47 80.1409 137.252 77.9026C137.086 77.5612 137.062 77.176 137.185 76.8199C137.308 76.4639 137.568 76.1611 137.917 75.9693C138.388 75.6942 138.913 75.5074 139.463 75.4199C140.013 75.3323 140.576 75.3462 141.12 75.4607C141.664 75.5746 142.177 75.7869 142.631 76.0853C143.085 76.3829 143.47 76.7608 143.763 77.1964C145.67 79.7039 144.099 80.8778 146.646 83.637C148.657 85.8498 146.255 87.8035 147.061 90.2702C147.742 92.3538 150.153 93.3979 150.403 95.7784C150.482 96.9625 150.212 98.1451 149.623 99.2008C149.034 100.257 148.147 101.149 147.055 101.783C146.579 102.019 146.039 102.126 145.5 102.092C144.96 102.059 144.442 101.884 144.006 101.591C142.634 100.534 143.529 98.7784 142.911 96.9611C142.256 95.3334 140.527 95.0131 139.36 93.964C138.77 93.3789 138.402 92.6347 138.311 91.8424C138.219 91.0494 138.409 90.2512 138.852 89.5654ZM101.739 97.6578C102.601 99.3197 103.37 101.968 102.881 103.867C102.729 104.336 102.382 105.141 101.697 104.882C101.478 104.776 101.284 104.63 101.128 104.454C100.972 104.277 100.857 104.074 100.789 103.855C99.9745 101.363 100.635 100.848 98.331 97.7052C99.4698 97.6556 100.609 97.6337 101.743 97.6578H101.739ZM74.8787 113.87C76.4347 107.983 79.5634 103.235 85.5435 100.452C87.9928 102.814 89.4733 105.882 89.734 109.134C90.3101 114.037 89.1403 120.615 88.0079 125.444H73.3854C73.5147 121.553 74.0152 117.681 74.8811 113.87H74.8787ZM88.6015 125.435C89.4328 121.973 90.0137 118.466 90.3403 114.935C90.8291 109.224 90.2736 104.462 86.0768 100.213C89.7125 98.7208 93.6256 97.8803 97.6055 97.7366C100.559 101.603 99.3125 102.572 100.397 104.473C100.954 105.518 102.443 105.882 103.092 104.883C104.352 102.974 103.315 99.5357 102.439 97.676C104.499 97.714 109.977 98.4654 110.77 99.1986C111.211 99.748 111.599 100.332 111.926 100.945C114.168 105.172 114.469 110.493 114.048 115.159C113.837 118.631 113.26 122.076 112.325 125.446C106.863 125.443 115.787 125.435 88.6039 125.435H88.6015ZM119.009 125.443H112.926C114.736 118.821 115.072 111.73 114.641 108.298C114.233 105.326 113.509 102.166 111.789 99.6327C113.662 100.572 115.3 101.86 116.597 103.416C117.894 104.972 118.822 106.761 119.318 108.666C120.983 114.031 120.012 119.954 119.011 125.443H119.009ZM146.646 125.443H120.891C122.259 121.119 125.57 109.909 125.929 108.647C125.94 108.582 125.926 108.514 125.888 108.459C125.849 108.403 125.789 108.362 125.72 108.344C125.651 108.327 125.576 108.334 125.513 108.363C125.449 108.393 125.398 108.444 125.372 108.505C124.105 112.975 120.668 124.255 120.291 125.443H119.6C120.401 121.034 121.141 116.516 120.628 112.064C120.136 107.988 118.423 103.831 115.049 101.032C116.956 97.9679 120.612 93.1586 123.865 91.3456C127.162 89.5063 132.518 88.3544 138.452 89.1372C137.997 89.8142 137.746 90.5898 137.728 91.3857C137.709 92.1809 137.922 92.9659 138.345 93.6605C139.651 95.6464 142.629 95.4421 142.577 98.3421C142.622 99.4569 142.465 100.7 143.262 101.64C144.733 103.183 147.687 103.138 149.772 100.009C151.739 108.076 148.894 117.654 146.649 125.443H146.646Z" fill="black"/>
<path d="M103.725 88.1391C103.501 87.6503 103.116 87.2374 102.624 86.958C102.133 86.6778 101.559 86.5451 100.982 86.5772C99.2012 86.7282 99.0788 88.1778 99.9657 89.5684C99.5247 89.537 99.0812 89.5873 98.6616 89.7165C98.2428 89.8463 97.8558 90.0513 97.5244 90.3206C95.6227 91.9168 97.8184 95.197 100.34 94.8687C101.624 94.6841 102.514 93.3804 102.651 92.2284C102.954 91.7264 103.483 91.2996 103.776 90.8188C104.015 90.4045 104.135 89.9412 104.126 89.4728C104.117 89.0044 103.979 88.5455 103.725 88.1391ZM100.186 94.3507C98.4478 94.5768 96.6153 92.216 97.7183 90.9079C97.9146 90.6795 98.1602 90.4913 98.4391 90.3534C98.718 90.2162 99.0248 90.1331 99.3403 90.1082C99.6558 90.0842 99.9737 90.1199 100.273 90.2133C100.573 90.3067 100.849 90.4555 101.084 90.6503C101.983 91.3193 102.511 93.891 100.186 94.3507ZM103.047 90.8655C102.808 91.1676 102.541 91.4492 102.316 91.7512C102.022 89.8332 100.391 90.3541 100.018 88.1858C99.7472 87.2666 100.961 86.8595 101.939 87.2075C102.293 87.3614 102.608 87.5839 102.861 87.8597C103.114 88.1355 103.299 88.458 103.404 88.8045C103.51 89.1518 103.533 89.5158 103.472 89.8719C103.411 90.2279 103.267 90.5671 103.05 90.8677L103.047 90.8655Z" fill="black"/>
<path d="M2.91949 47.3397H30.2126C30.2896 47.3397 30.3633 47.3116 30.4178 47.2617C30.4721 47.2117 30.5027 47.144 30.5027 47.0734C30.5027 47.0027 30.4721 46.935 30.4178 46.8851C30.3633 46.8352 30.2896 46.8071 30.2126 46.8071H2.91949C2.84256 46.8071 2.76878 46.8352 2.71439 46.8851C2.65999 46.935 2.62943 47.0027 2.62943 47.0734C2.62943 47.144 2.65999 47.2117 2.71439 47.2617C2.76878 47.3116 2.84256 47.3397 2.91949 47.3397Z" fill="black"/>
<path d="M28.8172 44.3272L25.8768 43.0461C25.5414 42.9002 25.2466 43.3591 25.5843 43.5058L27.7745 44.4542C23.9656 44.6314 20.1619 44.0234 16.6424 42.6748C14.2472 41.6807 12.0628 40.3052 10.1902 38.6118C15.3375 34.8509 21.281 32.4536 27.8055 32.5003L25.8839 33.4093C25.5525 33.5662 25.845 34.0258 26.1764 33.8689L29.0373 32.5178C29.0913 32.5021 29.1393 32.4724 29.1756 32.4323C29.2118 32.3923 29.2347 32.3436 29.2416 32.2919C29.2484 32.2402 29.239 32.1878 29.2144 32.1409C29.1896 32.094 29.1508 32.0546 29.1025 32.0275L26.1764 30.2948C25.8585 30.1087 25.5716 30.5691 25.8839 30.7544L27.8937 31.9436C21.13 31.913 14.9068 34.4183 9.78096 38.2303C7.42071 36.009 5.59131 33.3603 4.40959 30.4531C4.28165 30.1343 3.72056 30.2722 3.85328 30.5946C5.06363 33.5689 6.93046 36.2815 9.33672 38.5622C7.13628 40.2318 5.12577 42.1018 3.33593 44.1434C3.10308 44.4075 3.51076 44.7861 3.74599 44.5199C5.5352 42.4784 7.54428 40.6081 9.74281 38.9372C14.5054 43.2417 20.3123 45.1115 27.1578 45.0218L25.5144 45.5952C25.1695 45.7156 25.3189 46.23 25.6686 46.1059L29.0349 44.9313C29.2884 44.8022 29.3536 44.5607 28.8172 44.3272Z" fill="black"/>
<path d="M100.04 48.906C107.248 45.736 114.049 40.8866 117.258 34.203C117.406 33.8922 116.908 33.6194 116.757 33.9345C113.507 40.6466 106.928 45.2713 99.7504 48.4463C99.411 48.5952 99.7043 49.0533 100.04 48.906Z" fill="black"/>
<path d="M100.04 24.1796C102.225 22.8808 104.121 21.2127 105.628 19.2638C105.844 18.9836 105.342 18.7173 105.128 18.9953C103.676 20.8687 101.851 22.472 99.7472 23.72C99.4356 23.906 99.7257 24.3671 100.04 24.1796Z" fill="black"/>
<path d="M87.0376 50.2476L90.7504 49.5334C91.1152 49.4604 90.961 48.9497 90.5962 49.0227L86.8834 49.7369C86.5186 49.8048 86.6728 50.3177 87.0376 50.2476Z" fill="black"/>
<path d="M86.5893 17.8243C86.5695 17.7836 86.5377 17.749 86.4964 17.725C86.455 17.7009 86.4074 17.6886 86.3589 17.6893C86.3104 17.6901 86.2635 17.704 86.223 17.7294C86.1833 17.7547 86.1523 17.7902 86.134 17.8316C85.9003 18.2132 85.1406 19.638 81.8776 24.9084C81.8521 24.9492 81.8386 24.9955 81.8386 25.0427C81.8386 25.0898 81.8521 25.1361 81.8776 25.1769L85.6127 30.0774C85.6357 30.1121 85.6667 30.1416 85.7033 30.1637C85.7398 30.1859 85.7819 30.2 85.8256 30.2052C85.8693 30.2105 85.9139 30.2065 85.956 30.1937C85.9973 30.1809 86.0354 30.1596 86.0672 30.1314C87.4182 28.7934 90.5064 25.7306 90.7019 25.5395C90.7456 25.497 90.7734 25.4429 90.7814 25.385C90.7893 25.3271 90.7774 25.2683 90.7472 25.217C90.3284 24.4933 90.8227 25.3476 86.5893 17.8243ZM86.3327 18.5247L90.1472 25.3097L85.8948 29.5237L82.4672 25.0281L86.3327 18.5247Z" fill="black"/>
<path d="M46.194 19.5971C44.2583 19.6915 42.3225 19.4129 40.5111 18.7793C38.0404 17.7579 38.3551 15.4291 40.5294 15.3328C41.5331 15.3394 41.8009 15.4503 44.5379 16.0296C44.9011 16.1069 45.056 15.5918 44.692 15.5189C41.9901 14.9469 41.5323 14.8112 40.6677 14.7995C40.1323 14.754 39.5965 14.8824 39.1537 15.1624C38.7109 15.4424 38.3892 15.8561 38.2447 16.3316C38.1595 16.8106 38.2283 17.3021 38.4425 17.7459C38.6568 18.1897 39.0072 18.5665 39.451 18.8304C40.3635 19.3689 41.3891 19.7253 42.4613 19.8766C43.6933 20.081 44.945 20.1675 46.1964 20.1348C46.5691 20.1151 46.5691 19.5825 46.194 19.5971Z" fill="black"/>
<path d="M91.7366 3.76775C91.731 2.89366 91.53 2.02993 91.1454 1.23032C90.9006 0.770624 90.4889 0.403944 89.9811 0.193756C89.4733 -0.0165044 88.9011 -0.0570681 88.3639 0.0790688C86.6402 0.689715 86.3271 3.28916 87.6717 3.99246C87.3499 4.30245 87.1313 4.69014 87.0407 5.11015C86.8516 6.17386 87.8418 6.82099 88.8145 7.13543C89.2953 7.25362 89.8039 7.24034 90.2767 7.09727C90.7496 6.9542 91.1668 6.68755 91.4767 6.33006C91.7867 5.9725 91.9766 5.53958 92.0227 5.08447C92.0688 4.6293 91.9695 4.17171 91.7366 3.76775ZM88.0381 0.910773C88.8884 0.0987666 90.1202 0.653966 90.6447 1.4988C90.9046 1.99615 91.0595 2.53442 91.1001 3.08488C90.2672 2.5968 89.0831 2.93897 88.2487 3.51459C87.1933 3.38327 87.1782 1.73081 88.0381 0.910773ZM88.9719 6.62254C87.3515 6.1724 87.1289 5.0299 88.5133 3.99611C89.6259 3.1644 91.166 3.07977 91.3695 4.4229C91.4616 4.72786 91.464 5.04996 91.3766 5.35609C91.2884 5.66222 91.1136 5.94142 90.8704 6.16525C90.6264 6.38901 90.322 6.54922 89.9883 6.62962C89.6545 6.70995 89.304 6.70754 88.9719 6.62254Z" fill="black"/>
<path d="M74.1452 62.2074C74.3375 61.5253 74.5362 60.8439 74.7213 60.1603C74.7336 60.0952 74.7189 60.0282 74.6805 59.9725C74.6419 59.9167 74.5823 59.876 74.513 59.8584C74.4436 59.8407 74.3696 59.8474 74.3053 59.877C74.241 59.9066 74.191 59.9572 74.165 60.0187C73.9544 60.6965 73.774 61.3816 73.5897 62.0659C73.5784 62.1305 73.5934 62.1967 73.632 62.2518C73.6705 62.3069 73.7298 62.347 73.7985 62.3645C73.8672 62.382 73.9405 62.3757 74.0045 62.3467C74.0684 62.3177 74.1185 62.2681 74.1452 62.2074Z" fill="black"/>
<path d="M99.0939 60.0188C98.9024 60.7009 98.7021 61.3816 98.5178 62.0659C98.5074 62.1304 98.5233 62.196 98.5615 62.2506C98.6004 62.3051 98.6592 62.3449 98.7276 62.3622C98.7959 62.3796 98.869 62.3735 98.9326 62.345C98.997 62.3165 99.047 62.2676 99.0741 62.2075C99.2656 61.5253 99.4651 60.8439 99.6494 60.1603C99.6606 60.0957 99.6454 60.0295 99.6073 59.9743C99.5684 59.9193 99.5096 59.8791 99.4404 59.8616C99.3721 59.8441 99.2982 59.8505 99.2346 59.8794C99.171 59.9085 99.121 59.958 99.0939 60.0188Z" fill="black"/>
<path d="M61.7828 16.6366C60.8443 15.4861 59.4631 14.5632 57.8229 14.7923C56.239 15.0111 55.0033 16.166 53.9646 17.1998C53.7119 17.4515 54.1235 17.8287 54.3747 17.5763C55.3029 16.6556 56.3733 15.6181 57.764 15.3438C57.9071 15.3161 57.6234 14.4516 57.8602 26.825C57.8641 26.8931 57.8963 26.9573 57.9502 27.0043C58.0041 27.0512 58.0756 27.0774 58.1499 27.0774C58.2242 27.0774 58.2956 27.0512 58.3496 27.0043C58.4035 26.9573 58.4356 26.8931 58.4395 26.825V15.2884C59.0127 15.3527 59.5637 15.5305 60.0546 15.8097C60.5454 16.0889 60.9643 16.4626 61.2822 16.9051C61.5031 17.1765 62.0061 16.9117 61.7828 16.6366Z" fill="black"/>
<path d="M61.0581 8.35748C61.1027 7.91836 61.0473 7.47544 60.8952 7.05703C60.7433 6.6387 60.498 6.25392 60.1752 5.9273C59.7519 5.64335 59.2323 5.50685 58.7095 5.54223C58.1867 5.57769 57.6947 5.7827 57.3214 6.12063C56.2366 6.98079 55.6247 8.91414 55.4189 10.2164C55.2536 11.3188 55.1725 12.8655 56.2446 13.6184C56.541 13.8043 56.8762 13.9319 57.229 13.993C57.5818 14.0541 57.9446 14.0473 58.2944 13.9732C58.6442 13.8991 58.9736 13.7593 59.2616 13.5624C59.5496 13.3656 59.79 13.1161 59.9677 12.8297C60.7566 11.4541 61.1329 9.91058 61.0581 8.35748ZM56.9757 13.3995C56.0221 13.0676 55.8806 11.936 55.9068 11.0904L59.3193 12.7619C59.0517 13.0814 58.681 13.3151 58.2601 13.4296C57.8392 13.5442 57.3897 13.5336 56.9757 13.3995ZM59.6181 12.3052L55.9712 10.5192C56.0106 10.1744 56.0697 9.83179 56.1484 9.49269L60.0424 11.4224C59.9417 11.7318 59.7992 12.0284 59.6181 12.3052ZM60.2212 10.9066C60.1418 10.8672 56.3733 9.00096 56.2938 8.9601C56.3932 8.66828 56.5474 8.31736 56.6793 8.03209L60.3969 9.96982C60.3587 10.2653 60.2944 10.6177 60.2212 10.9066ZM60.4597 9.38836L56.9145 7.54183C57.3707 6.72471 58.2973 5.75877 59.4114 6.11917C60.3595 6.42486 60.4692 7.57831 60.4803 8.35748C60.4811 8.68287 60.4811 9.05349 60.4581 9.38836H60.4597Z" fill="black"/>
<path d="M133.171 79.5507C132.273 72.746 128.455 66.9905 122.607 62.6868C122.944 52.9695 122.707 43.2425 121.899 33.5486C121.173 26.253 119.322 19.4935 112.557 15.532C110.321 14.2761 107.828 13.4565 105.232 13.1244C93.4547 10.9357 82.0023 12.2971 73.9115 15.4437C71.6268 16.3582 69.5621 17.6794 67.8368 19.3309C65.4663 21.6509 63.4207 26.0224 62.0483 29.1917C59.9161 28.8258 57.7603 28.5872 55.5945 28.4774C53.0189 24.254 48.9055 17.461 46.0025 14.032C45.3392 13.2616 44.6398 12.5182 43.9045 11.8017C43.2497 11.1274 42.4825 10.5527 41.6317 10.0989C41.0164 9.75683 40.3067 9.58517 39.5877 9.60443C38.8687 9.62369 38.1711 9.83314 37.5787 10.2076C35.131 11.5566 29.5522 13.371 28.1472 14.4479C27.9251 14.64 27.7757 14.8923 27.7209 15.168C27.6662 15.4437 27.7089 15.7282 27.8429 15.98C28.3197 16.905 30.2564 17.1079 31.4889 16.8919C30.276 17.4842 29.0994 18.1372 27.9644 18.8479C27.7891 18.9442 27.6366 19.0719 27.5161 19.2234C27.3955 19.3748 27.3094 19.547 27.2626 19.7296C27.216 19.9123 27.2097 20.1017 27.2443 20.2866C27.2788 20.4715 27.3535 20.6481 27.4638 20.806C28.535 21.9814 31.3205 21.2051 32.8717 20.6375C33.4696 27.5127 35.1285 34.275 37.7988 40.7217C39.2507 44.1769 41.1604 46.0972 43.3927 47.3644C45.7661 48.6503 48.4068 49.4653 51.1444 49.7567C53.882 50.0481 56.6558 49.8096 59.2867 49.0563C63.1721 51.1968 67.3935 52.7751 71.8024 53.7357C71.405 57.5834 71.0331 61.4946 70.7391 65.3504C67.5238 68.4335 65.2055 72.2098 63.9977 76.3311C62.1699 76.4661 60.2761 76.6229 58.4348 76.8104V52.8383C58.4348 52.7677 58.4042 52.6999 58.3498 52.65C58.2954 52.6001 58.2216 52.5721 58.1447 52.5721C58.0678 52.5721 57.994 52.6001 57.9396 52.65C57.8852 52.6999 57.8546 52.7677 57.8546 52.8383V76.8666C55.5286 77.1015 53.1937 77.502 50.8994 77.9223C49.747 78.1207 48.6307 78.4673 47.5832 78.951C46.4579 79.5609 46.3657 80.4203 48.0298 81.1134C59.8565 85.7498 128.568 85.3288 133.022 80.3576C133.158 80.1081 133.21 79.8272 133.171 79.5507ZM65.3304 23.744C66.5002 21.3637 68.3312 19.3076 70.6397 17.782C75.1695 14.7791 83.1841 13.2149 88.6969 12.7626C93.9792 12.3536 99.2982 12.6146 104.503 13.5381C109.3 14.2319 113.324 15.7961 116.441 19.4782C120.487 24.2204 121.229 31.1746 121.601 37.1629C121.939 42.5865 122.096 46.7421 122.163 50.244H97.2749C97.2749 50.244 98.7403 49.6239 99.2314 49.4072C99.2751 49.384 99.3117 49.3505 99.3371 49.3102C99.3625 49.2697 99.3753 49.2239 99.3753 49.1774V24.6968C99.3753 24.5195 99.1321 24.3255 98.9493 24.459L98.939 24.467C95.4741 27.019 91.5244 28.9609 87.2903 30.1948C78.1075 32.6308 72.1115 30.9448 62.6244 29.2909C63.4326 27.4217 64.3322 25.5292 65.3304 23.744ZM44.4552 47.325C41.8647 46.0547 39.8532 43.9773 38.7827 41.4666C35.8304 35.4222 34.0216 26.9577 33.4121 20.28C33.4115 20.2393 33.4008 20.1992 33.3808 20.1628C33.3608 20.1264 33.3321 20.0948 33.2969 20.07C33.2615 20.0454 33.2206 20.0284 33.1771 20.0204C33.1336 20.0124 33.0887 20.0137 33.0457 20.0239C32.2341 20.3072 31.4068 20.5507 30.5671 20.7535C29.7712 20.9857 28.9106 20.946 28.144 20.6419C27.339 20.2246 28.0296 19.4301 28.5501 19.1215C29.4386 18.5947 33.4518 16.4622 34.1321 16.1025C34.4063 15.9566 34.2203 15.4999 33.9088 15.6159C32.3289 16.2988 29.8201 16.9408 28.4794 15.9121C28.3491 15.7775 28.2751 15.6048 28.2707 15.4248C28.2663 15.2447 28.3318 15.0691 28.4556 14.9294C29.2312 14.2297 32.77 12.9107 35.131 11.9382C34.7824 12.2092 34.4582 12.5056 34.1615 12.8246C34.0146 12.9747 33.9041 13.1516 33.8371 13.3437C33.7701 13.5359 33.7483 13.7389 33.7729 13.9394C33.8368 14.1517 33.9462 14.3503 34.0947 14.5234C34.2431 14.6965 34.4276 14.8407 34.6375 14.9476C36.1967 15.7647 37.9443 14.9162 39.3509 14.3559L41.2415 13.603C41.5824 13.4673 41.2876 13.0084 40.949 13.1434C39.9755 13.5315 39.006 13.9291 38.0277 14.3056C37.1949 14.7054 36.2367 14.8272 35.317 14.65C35.115 14.597 34.927 14.5065 34.7646 14.3842C34.6022 14.2618 34.4689 14.1101 34.3729 13.9386C34.337 13.7892 34.3444 13.6339 34.3943 13.488C34.4443 13.342 34.5349 13.2107 34.6574 13.1069C35.0765 12.7046 35.525 12.329 35.9996 11.9827C36.7896 11.2927 37.6952 10.7237 38.6817 10.2974C39.1127 10.1635 39.5701 10.1165 40.0226 10.1596C40.4752 10.2027 40.9123 10.3347 41.3042 10.5469C42.104 10.9656 42.8252 11.4997 43.4404 12.1286C45.1689 13.8081 46.7035 15.6474 48.0195 17.6171C50.1858 20.7579 52.9307 25.1987 54.9103 28.4475C51.5245 28.2771 48.1313 28.6157 44.8645 29.4499C44.296 29.5799 43.7642 29.8197 43.3045 30.1532C43.086 30.298 42.9114 30.4916 42.7972 30.7157C42.683 30.9396 42.6328 31.1867 42.6515 31.4335C42.6702 31.6802 42.7571 31.9186 42.9041 32.1259C43.051 32.3332 43.2531 32.5027 43.4913 32.6184C44.3946 33.0425 45.4138 33.2135 46.4221 33.1102C44.0181 33.9929 42.7895 34.2979 42.0608 35.2441C41.7666 35.584 41.6189 36.0113 41.646 36.4447C41.6729 36.8781 41.8726 37.2871 42.207 37.5941C42.5409 37.8447 42.9304 38.0252 43.3483 38.1229C43.7662 38.2205 44.2024 38.233 44.6261 38.1595C45.4818 37.9934 46.3119 37.7309 47.0976 37.3781C43.5453 39.8389 42.8658 40.1505 42.3914 41.1062C42.1676 41.4912 42.1078 41.9389 42.2235 42.3621C42.3392 42.7854 42.6223 43.1539 43.0176 43.3963C43.5144 43.5652 44.0448 43.6346 44.5732 43.5997C45.1016 43.5648 45.6158 43.4266 46.0812 43.1942C47.1446 42.7562 48.1676 42.2397 49.14 41.6497C51.9656 44.3592 55.1551 46.7276 58.6319 48.6981C53.8853 49.881 48.8284 49.3912 44.4552 47.325ZM50.3217 41.9992C50.0038 41.7074 49.7034 41.4155 49.3919 41.1237C49.3463 41.0826 49.2873 41.0562 49.2239 41.0487C49.1605 41.0412 49.0961 41.0529 49.0406 41.0821C46.7805 42.3122 45.6799 43.0943 43.8441 43.0665C42.8984 43.0549 42.5042 42.1035 42.9238 41.3105C43.3752 40.4401 44.4417 39.8798 45.2491 39.3202L48.5352 37.0432C48.7379 36.9032 48.7092 36.5231 48.389 36.5479C46.3005 36.7091 45.0354 38.1821 43.0256 37.4584C42.8659 37.396 42.7212 37.3053 42.5998 37.1916C42.4783 37.0778 42.3824 36.9432 42.3176 36.7955C42.2528 36.6477 42.2204 36.4897 42.2221 36.3304C42.2239 36.1711 42.2598 36.0137 42.3278 35.8672C42.7927 34.8626 44.2192 34.4883 45.1728 34.1381L49.0232 32.7235C49.0902 32.6996 49.1452 32.6537 49.1775 32.5946C49.2098 32.5356 49.2171 32.4677 49.1978 32.4041C49.1786 32.3405 49.1343 32.2856 49.0735 32.2503C49.0127 32.2149 48.9399 32.2016 48.869 32.2128C47.1795 32.552 44.8526 33.0015 43.465 31.9399C43.3793 31.8427 43.3154 31.7308 43.277 31.6108C43.2385 31.4907 43.2264 31.3649 43.2412 31.2406C43.2559 31.1162 43.2974 30.9957 43.3631 30.8861C43.4288 30.7765 43.5174 30.6799 43.624 30.6019C44.1038 30.2494 44.6678 30.0064 45.2698 29.8928C50.3686 28.484 57.4215 28.8407 62.6204 29.8322C69.3754 31.0564 75.8601 32.5265 82.5157 31.7014C88.4688 30.8991 94.0849 28.6647 98.7935 25.225C98.7935 25.225 98.7594 48.7455 98.7824 49.0162C95.2746 50.5943 91.6341 51.909 87.895 52.9471C85.0166 53.8066 81.9944 54.1916 78.9698 54.0844C68.1245 53.7138 57.7744 48.8257 50.3217 42.0006V41.9992ZM72.3722 53.8597C75.7052 54.5441 79.1295 54.7703 82.5348 54.5309C86.8142 54.0735 92.0863 52.3743 95.9731 50.7795C95.9731 50.7795 121.589 50.7868 122.171 50.7795C122.336 60.215 121.968 69.6023 120.237 78.7394C117.773 78.7394 97.4934 78.7306 97.3877 78.7328L96.4825 58.3101C96.4825 58.2395 96.4524 58.1717 96.3975 58.1218C96.3435 58.0718 96.2696 58.0438 96.1925 58.0438C96.1154 58.0438 96.0415 58.0718 95.9875 58.1218C95.9326 58.1717 95.9024 58.2395 95.9024 58.3101C95.823 59.5504 93.6836 77.6925 93.5279 78.7379C93.5279 78.7379 70.5269 78.7321 70.3823 78.7336C70.9775 69.819 71.3772 63.2492 72.3722 53.8597ZM120.145 79.2793C120.065 79.6893 119.986 80.1059 119.902 80.5137C119.902 80.5137 96.0375 80.5137 95.9342 80.5071C95.9453 80.4969 97.3551 79.2909 97.3647 79.2793H120.145ZM93.4524 79.2793C93.3888 79.6907 93.3228 80.1059 93.2545 80.5195H68.6149C68.8183 80.3736 70.2567 79.3354 70.2885 79.2858L93.4524 79.2793ZM132.591 79.9497C132.409 83.9448 69.0098 85.6404 49.9426 81.1674C49.3371 81.0259 47.5093 80.5108 47.3392 79.9614C47.3392 79.9745 47.3471 79.8637 47.3567 79.8469C48.0973 78.5081 56.2192 77.6108 57.8562 77.4313V78.3965C55.4987 78.5665 53.1982 79.1472 51.0782 80.1095C50.7421 80.2554 51.0361 80.7172 51.3707 80.5691C52.8382 79.9213 54.3859 79.439 55.9799 79.1334C57.2051 78.8882 58.4688 78.8503 59.7087 79.0225C61.5177 79.3092 63.2741 79.8279 64.9267 80.5618C65.2588 80.7151 65.5529 80.2562 65.2191 80.1022C63.1109 79.1078 60.8017 78.5249 58.4364 78.3885V77.3671C64.6064 76.7185 64.4069 76.9709 64.5039 76.6536C65.6519 72.7839 67.7636 69.2127 70.6723 66.2208C70.3282 70.7134 70.0755 74.4992 69.7743 78.9998C69.0432 79.5025 68.3439 80.0453 67.6096 80.5414C67.5568 80.5721 67.5162 80.618 67.4936 80.6713C67.471 80.7245 67.4676 80.7836 67.484 80.8391C67.5003 80.8945 67.5355 80.9434 67.5844 80.9792C67.6332 81.0149 67.6933 81.0353 67.7558 81.0375C67.7558 81.0375 92.424 81.0733 93.4587 81.0375C93.5287 81.0448 93.6002 81.0295 93.659 80.9938C93.7178 80.958 93.7615 80.904 93.7814 80.842C94.611 75.9765 95.5694 67.1991 96.0749 62.2906L96.8211 79.0363C96.1933 79.5229 95.5925 80.038 95.0195 80.583C94.9806 80.6209 94.9551 80.6684 94.9448 80.7194C94.9345 80.7705 94.9408 80.823 94.9623 80.8712C94.9837 80.9193 95.0203 80.9602 95.0664 80.9894C95.1133 81.0193 95.1681 81.0361 95.2245 81.0375C95.2245 81.0375 119.089 81.0711 120.099 81.0375C120.169 81.0448 120.24 81.0295 120.299 80.9938C120.358 80.958 120.402 80.904 120.422 80.842C121.608 75.0507 122.329 69.1865 122.578 63.2981C122.568 63.5039 131.35 69.123 132.591 79.5448C132.599 79.6813 132.598 79.8126 132.591 79.9439V79.9497Z" fill="black"/>
<path d="M53.7214 31.5846C52.6165 31.5321 51.5088 31.6123 50.4266 31.8232C50.0618 31.8962 50.216 32.4069 50.5808 32.3339C51.6127 32.135 52.6686 32.0614 53.7214 32.115C54.0941 32.1355 54.0933 31.6029 53.7214 31.5846Z" fill="black"/>
<path d="M53.7953 36.6274C52.6188 36.3224 51.3764 36.3011 50.1882 36.5653C49.825 36.6426 49.9792 37.1563 50.3424 37.0761C51.4313 36.8529 52.5629 36.8739 53.6411 37.1374C53.7116 37.1476 53.7836 37.1339 53.8437 37.0985C53.9037 37.0631 53.9474 37.0087 53.9665 36.9456C53.9856 36.8825 53.9787 36.8152 53.9471 36.7564C53.9155 36.6978 53.8615 36.6518 53.7953 36.6274Z" fill="black"/>
</svg>
