<svg width="154" height="154" viewBox="0 0 154 154" fill="none" xmlns="http://www.w3.org/2000/svg">
<path d="M112.976 18.7444C112.759 16.9643 112.542 15.1845 112.324 13.405C112.278 13.0259 111.676 13.0213 111.723 13.405L112.376 18.7444C112.422 19.1234 113.023 19.128 112.976 18.7444Z" fill="black"/>
<path d="M131.616 22.2738L133.799 17.0173C133.947 16.6613 133.366 16.5055 133.22 16.8577L131.037 22.1143C130.889 22.4703 131.47 22.626 131.616 22.2738Z" fill="black"/>
<path d="M135.167 25.2831L139.664 21.1828C139.95 20.922 139.524 20.4984 139.239 20.7585L134.742 24.8596C134.456 25.1197 134.881 25.5432 135.167 25.2831Z" fill="black"/>
<path d="M142.937 56.4189L147.066 58.3002C147.415 58.4598 147.721 57.9419 147.373 57.7816L143.244 55.9002C142.891 55.7406 142.585 56.2585 142.937 56.4189Z" fill="black"/>
<path d="M132.412 75.4659C132.172 75.4318 131.93 75.4287 131.69 75.4567C130.849 75.5335 101.613 77.4585 100.145 77.5567C99.8984 78.7161 99.2106 79.7342 98.2269 80.3956C97.3262 81.0169 96.3262 81.48 95.2699 81.7652C103.173 81.3225 106.019 80.8928 108.544 82.1174L132.35 78.8688C132.752 78.8064 133.119 78.6042 133.387 78.2977C133.655 77.9911 133.805 77.6 133.813 77.1932C133.82 76.7864 133.683 76.3901 133.427 76.0741C133.171 75.7581 132.811 75.5427 132.412 75.4659Z" fill="#2755A0"/>
<path d="M44.7505 25.1379C42.5608 21.8149 38.5863 20.611 34.7991 21.1558C31.5405 21.6215 28.839 24.119 29.4996 27.3975C29.7246 28.131 29.8518 28.891 29.8779 29.6579C29.8618 29.9681 29.7477 30.2653 29.5521 30.5067C29.3564 30.7481 29.0893 30.9213 28.7891 31.0013C27.3659 31.3558 26.7114 30.8747 24.9797 31.266C24.2194 31.5106 23.5707 32.0172 23.1492 32.6955C22.7276 33.3737 22.5606 34.1797 22.6779 34.9696C22.8904 35.9494 23.4006 36.5686 23.0615 37.0359C22.9549 37.1451 22.8259 37.23 22.6834 37.2847C22.5409 37.3394 22.3882 37.3626 22.2359 37.3527C21.375 37.3942 20.5134 37.2476 19.6495 37.2668C18.1426 37.2998 16.6364 37.9673 16.1868 39.4244C16.0988 39.9221 16.1182 40.4329 16.2438 40.9226C16.3694 41.4122 16.5982 41.8693 16.9149 42.2632C15.5039 42.1612 14.0323 42.2226 12.9137 43.2008C12.3782 43.6642 12.0432 44.3171 11.9791 45.0223C11.9744 45.371 12.0385 45.7172 12.1678 46.0411C12.2971 46.365 12.489 46.6602 12.7326 46.9098C13.2537 47.4387 13.8621 47.8737 14.531 48.1957C15.0087 48.4335 15.4984 48.6463 15.9981 48.8333C18.4383 45.9364 21.4659 43.5909 24.8806 41.9519C28.2953 40.313 32.0192 39.4179 35.8058 39.3262C36.0935 39.3008 36.1418 39.3315 36.3037 39.3208C39.8446 39.2916 41.6577 39.142 44.6469 39.607C45.4967 37.6673 46.0859 35.6238 46.3994 33.5295C46.8706 30.6251 46.2856 27.6481 44.7505 25.1379ZM41.6815 30.4719C41.5384 31.2541 41.1494 31.9702 40.571 32.5159C39.9926 33.0616 39.2551 33.4084 38.4659 33.5057C36.7863 33.7244 34.8689 32.7553 34.4707 31.0282C34.2236 30.2036 34.2405 29.3223 34.519 28.5078C34.7974 27.6932 35.3235 26.986 36.0237 26.4852C36.6634 26.0978 37.4005 25.9013 38.1482 25.919C38.8959 25.9367 39.6229 26.1677 40.2436 26.585C40.8316 27.0259 41.2798 27.6273 41.5343 28.3168C41.7888 29.0063 41.8388 29.7547 41.6784 30.4719H41.6815Z" fill="black"/>
<path d="M40.2389 26.585C39.6182 26.1677 38.8912 25.9367 38.1435 25.919C37.3958 25.9013 36.6587 26.0978 36.019 26.4852C35.3188 26.986 34.7927 27.6932 34.5143 28.5078C34.2358 29.3223 34.219 30.2036 34.466 31.0282C34.8642 32.7553 36.7816 33.7244 38.4612 33.5057C39.2504 33.4084 39.9879 33.0616 40.5663 32.5159C41.1447 31.9702 41.5337 31.2541 41.6768 30.4719C41.8369 29.7544 41.7864 29.0058 41.5313 28.3163C41.2762 27.6268 40.8275 27.0256 40.2389 26.585Z" fill="#FC9070"/>
<path d="M63.343 51.9554C61.1869 48.5593 58.3092 45.6797 54.9144 43.5214C51.5196 41.363 47.6911 39.9789 43.701 39.4674C43.4302 39.4352 42.2593 39.3186 42.1665 39.3385C42.2097 39.3421 42.2516 39.3551 42.2893 39.3767C42.3269 39.3983 42.3593 39.4279 42.3842 39.4634C42.4091 39.4989 42.4259 39.5395 42.4334 39.5822C42.4408 39.625 42.4388 39.6688 42.4273 39.7107C42.2408 40.2966 41.8783 40.8108 41.3892 41.1834C40.9001 41.556 40.308 41.7689 39.6936 41.793C38.9683 41.7736 38.2584 41.5798 37.6238 41.2282C36.9892 40.8766 36.4486 40.3774 36.0475 39.7728C36.0233 39.7307 36.0097 39.6833 36.0078 39.6348C36.006 39.5862 36.016 39.538 36.037 39.4941C36.058 39.4503 36.0894 39.4123 36.1284 39.3833C36.1674 39.3543 36.2128 39.3353 36.2608 39.3278C36.1105 39.314 35.9592 39.314 35.8089 39.3278C20.8296 39.591 8.56182 52.7196 8.55722 69.1859V87.5642C8.55898 87.6432 8.59115 87.7185 8.64704 87.7744C8.70292 87.8303 8.77821 87.8624 8.85722 87.8642C17.1437 87.9869 42.5685 88.3307 42.6491 88.3391C42.7258 88.3629 49.1394 90.6455 49.5476 90.7422C49.4806 90.7142 49.4258 90.6633 49.3928 90.5987C49.3598 90.5341 49.3507 90.4599 49.3673 90.3893C51.2448 82.7933 54.3038 75.5688 59.3885 69.5803C59.034 69.4414 23.911 55.3276 23.5895 55.1987C23.2342 55.056 23.39 54.4751 23.7491 54.6194C33.4166 58.5063 68.1046 72.4521 68.4269 72.5826C68.3486 64.9951 68.09 59.2406 63.343 51.9554ZM42.669 84.1169C43.8166 84.7359 45.0228 85.2397 46.2698 85.6207C46.3433 85.6447 46.4047 85.6961 46.4413 85.7642C46.4779 85.8324 46.4868 85.9119 46.4663 85.9865C46.4458 86.061 46.3973 86.1248 46.331 86.1645C46.2647 86.2043 46.1856 86.217 46.1102 86.2C44.8125 85.8063 43.558 85.2822 42.366 84.6355C42.0261 84.4506 42.3299 83.932 42.669 84.1169ZM37.1217 84.6655C37.4808 84.7997 37.3243 85.3798 36.9621 85.2447L17.1866 77.8936C16.8276 77.7601 16.9841 77.1793 17.3462 77.3143L37.1217 84.6655Z" fill="#FFD2D2"/>
<path d="M123.53 113.523C123.354 112.335 121.919 112.065 120.712 112.026C119.349 111.978 118.038 111.88 117.316 110.731C115.329 112.005 115.428 114.716 116.674 116.279C117.34 116.987 118.206 117.474 119.156 117.677C120.106 117.879 121.095 117.787 121.992 117.412C123.359 116.849 124.055 115.126 124.027 113.653C123.874 113.791 123.566 113.76 123.53 113.523Z" fill="#FC9070"/>
<path d="M42.1621 39.3386C41.3596 39.2166 37.1189 39.314 36.3025 39.3209C36.2499 39.3215 36.1983 39.3358 36.1529 39.3625C36.1075 39.3891 36.0699 39.4271 36.0437 39.4728C36.0175 39.5184 36.0037 39.5701 36.0036 39.6227C36.0035 39.6754 36.0172 39.7271 36.0432 39.7729C36.4442 40.3774 36.9849 40.8766 37.6195 41.2283C38.2541 41.5799 38.964 41.7736 39.6892 41.7931C40.3037 41.7689 40.8957 41.556 41.3849 41.1834C41.874 40.8109 42.2365 40.2966 42.423 39.7107C42.4346 39.6688 42.4367 39.6249 42.4293 39.5822C42.4219 39.5394 42.4052 39.4987 42.3803 39.4632C42.3553 39.4276 42.3228 39.398 42.2851 39.3765C42.2474 39.3549 42.2054 39.342 42.1621 39.3386Z" fill="#FF4848"/>
<path d="M31.6247 100.033C31.4579 100.173 31.2638 100.278 31.0546 100.34C30.2543 100.577 30.0403 100.349 29.1618 100.769C28.6478 101.131 28.2364 101.621 27.9676 102.19C27.6987 102.758 27.5814 103.387 27.6272 104.014C27.6775 105.012 27.7866 106.005 27.9541 106.99C29.1441 106.998 30.5628 106.83 31.2656 105.809C31.5974 105.256 31.7687 104.621 31.7605 103.976C31.7978 102.66 31.7525 101.343 31.6247 100.033Z" fill="#9E647B"/>
<path d="M36.71 112.105C33.8874 111.35 30.9523 111.106 28.0437 111.385C27.9867 112.156 27.8449 112.918 27.621 113.658C31.4795 114.102 33.6732 112.987 36.2865 112.2C36.6018 112.067 36.7867 112.141 36.71 112.105Z" fill="#9E647B"/>
<path d="M56.8981 139.963C55.2914 133.504 53.9264 127.75 50.4093 122.149C47.525 117.501 43.0592 114.052 37.8338 112.436C37.6727 112.385 36.9177 112.151 36.7405 112.114C36.5862 112.111 36.4329 112.14 36.2909 112.2C33.6753 112.988 31.4794 114.102 27.6254 113.658C27.4383 114.266 27.1479 114.837 26.7668 115.346C25.4855 117.029 23.8397 116.651 22.3443 117.102C17.7538 118.484 17.2036 125.159 13.375 127.773C12.3472 128.42 11.1377 128.718 9.92678 128.623C8.71582 128.527 7.5681 128.043 6.65451 127.243C4.71061 131.219 3.76692 135.61 3.9054 140.034C3.90716 140.113 3.93933 140.189 3.99522 140.245C4.0511 140.301 4.12639 140.333 4.2054 140.334C4.67497 140.338 56.5789 140.344 56.6096 140.343C56.6556 140.342 56.7008 140.331 56.7419 140.311C56.783 140.29 56.8188 140.26 56.8466 140.223C56.8744 140.187 56.8935 140.144 56.9024 140.099C56.9114 140.054 56.9099 140.008 56.8981 139.963ZM14.0678 128.645C14.6453 128.444 15.1705 128.117 15.605 127.687C16.0396 127.257 16.3724 126.735 16.5791 126.159C17.11 124.975 17.3302 123.678 17.8213 122.476C18.4968 120.967 19.5774 119.675 20.943 118.742C22.3087 117.81 23.906 117.274 25.5576 117.195C25.9412 117.166 25.9412 117.766 25.5576 117.795C24.3456 117.887 23.1641 118.219 22.0819 118.773C21.0728 119.267 20.1835 119.976 19.4757 120.849C18.768 121.722 18.2586 122.738 17.9832 123.828C17.3763 125.916 16.6573 128.622 14.2274 129.223C14.152 129.24 14.0729 129.227 14.0066 129.187C13.9403 129.148 13.8919 129.084 13.8713 129.009C13.8508 128.935 13.8597 128.855 13.8963 128.787C13.9329 128.719 13.9943 128.668 14.0678 128.644V128.645ZM41.8581 140.121C41.4528 138.179 40.8337 136.288 40.0121 134.482C39.8525 134.133 40.3696 133.828 40.5308 134.175C41.3796 136.025 42.0191 137.965 42.4374 139.958C42.5157 140.339 41.9364 140.499 41.8581 140.121Z" fill="#CCEAFF"/>
<path d="M86.4845 114.281C83.3441 113.361 80.0118 113.318 76.8485 114.156L76.8339 114.295C76.9873 114.388 77.1339 114.551 77.2605 114.642C78.7151 115.758 80.5369 116.285 82.3628 116.118C83.7615 115.851 85.0756 115.252 86.1945 114.371C86.2864 114.307 86.3989 114.28 86.5099 114.294C86.4991 114.294 86.4953 114.284 86.4845 114.281Z" fill="#FFD2D2"/>
<path d="M102.232 131.606C100.166 122.924 94.6235 117.019 87.4557 114.583C87.2455 114.512 87.0329 114.449 86.8219 114.38C86.5833 114.303 86.3969 114.237 86.1943 114.371C85.0771 115.254 83.7623 115.854 82.3626 116.118C80.5367 116.285 78.7149 115.758 77.2603 114.642C77.1337 114.55 76.9848 114.388 76.8337 114.295C76.4261 118.406 75.4714 122.443 73.9948 126.301C73.8582 126.659 73.2774 126.503 73.4155 126.142C74.8761 122.345 75.8223 118.37 76.2291 114.323C75.794 114.493 75.8362 114.461 75.359 114.65C74.8632 117.479 74.2248 120.28 73.4462 123.044C71.8442 128.215 67.8199 131.09 62.8756 128.927C61.6703 132.542 60.6786 136.225 59.9055 139.956C59.8946 140.001 59.8938 140.047 59.9032 140.092C59.9126 140.137 59.9319 140.179 59.9597 140.215C59.9875 140.252 60.0232 140.282 60.064 140.302C60.1048 140.323 60.1497 140.335 60.1956 140.336H103.234C103.313 140.335 103.389 140.303 103.445 140.247C103.501 140.191 103.533 140.115 103.534 140.036C103.325 137.196 102.889 134.377 102.232 131.606ZM66.5416 139.859C66.5377 139.936 66.5044 140.009 66.4485 140.062C66.3926 140.115 66.3184 140.145 66.2412 140.145C66.1641 140.145 66.0899 140.115 66.034 140.062C65.9781 140.009 65.9447 139.936 65.9408 139.859V137.021C65.9447 136.944 65.9781 136.871 66.034 136.818C66.0899 136.765 66.1641 136.735 66.2412 136.735C66.3184 136.735 66.3926 136.765 66.4485 136.818C66.5044 136.871 66.5377 136.944 66.5416 137.021C66.5569 137.908 66.5554 139.055 66.5416 139.859ZM90.4557 139.942L89.7521 134.942C89.6984 134.564 90.2769 134.405 90.3306 134.782L91.035 139.782C91.0887 140.16 90.5094 140.323 90.4557 139.942Z" fill="#78B5FF"/>
<path d="M80.245 105.989C79.9672 106.457 79.5913 106.859 79.1432 107.167C78.4381 107.689 77.6315 108.057 76.7754 108.247C76.9048 108.807 77.2326 109.301 77.698 109.638C78.1634 109.975 78.7351 110.132 79.3074 110.08C81.1626 110.07 82.16 107.099 80.245 105.989Z" fill="#FFD2D2"/>
<path d="M76.2656 108.809H76.2511C76.2119 108.802 76.1718 108.8 76.1321 108.804C70.5173 109.725 61.6247 111.306 58.1145 115.728C57.4539 116.504 56.9595 117.408 56.6618 118.382C56.3641 119.357 56.2694 120.382 56.3835 121.395C56.9206 125.07 60.9871 128.718 64.6654 129.505C68.1679 130.254 71.8316 128.264 73.449 123.044C74.5308 119.554 74.8577 116.686 76.4935 109.21C76.5063 109.169 76.5104 109.125 76.5057 109.082C76.501 109.039 76.4876 108.998 76.4663 108.96C76.4449 108.923 76.4161 108.89 76.3816 108.864C76.3471 108.838 76.3076 108.819 76.2656 108.809Z" fill="black"/>
<path d="M141.89 139.954C141.305 137.348 140.566 134.778 139.678 132.259C138.812 129.822 137.502 127.567 135.815 125.607C131.46 120.615 124.18 119.501 118.065 121.919C110.746 124.813 106.619 132.522 106.1 140.034C106.102 140.113 106.134 140.189 106.19 140.245C106.246 140.301 106.321 140.333 106.401 140.334H141.601C141.647 140.333 141.692 140.321 141.733 140.3C141.773 140.28 141.809 140.25 141.837 140.213C141.864 140.177 141.883 140.135 141.893 140.09C141.902 140.045 141.901 139.999 141.89 139.954ZM117.139 140.031C117.138 140.11 117.105 140.186 117.049 140.242C116.993 140.298 116.918 140.33 116.838 140.332C116.759 140.332 116.683 140.3 116.626 140.244C116.57 140.187 116.538 140.111 116.538 140.031L117.043 136.173C117.044 136.094 117.077 136.019 117.133 135.963C117.189 135.907 117.264 135.875 117.343 135.873C117.423 135.873 117.499 135.905 117.555 135.961C117.612 136.017 117.643 136.094 117.643 136.173L117.139 140.033V140.031ZM121.769 139.948L118.777 122.237C118.713 121.858 119.291 121.7 119.356 122.077L122.348 139.789C122.412 140.169 121.833 140.333 121.769 139.949V139.948ZM130.843 139.857C130.51 132.868 130.331 122.526 130.333 122.342C130.337 122.265 130.37 122.192 130.426 122.139C130.482 122.086 130.556 122.056 130.634 122.056C130.711 122.056 130.785 122.086 130.841 122.139C130.897 122.192 130.93 122.265 130.934 122.342C130.939 122.572 131.004 130.658 131.443 139.857C131.462 140.245 130.861 140.244 130.843 139.859V139.857ZM134.935 139.857C134.935 139.937 134.904 140.013 134.847 140.069C134.791 140.125 134.715 140.157 134.635 140.157C134.556 140.157 134.479 140.125 134.423 140.069C134.367 140.013 134.335 139.937 134.335 139.857V137.187C134.335 137.107 134.367 137.031 134.423 136.975C134.479 136.918 134.556 136.887 134.635 136.887C134.715 136.887 134.791 136.918 134.847 136.975C134.904 137.031 134.935 137.107 134.935 137.187V139.857Z" fill="#2755A0"/>
<path d="M85.0954 29.3457L79.1553 20.4923C78.9412 20.1723 78.421 20.4731 78.6374 20.7992L83.8386 28.5531C80.0852 26.3058 70.5243 20.5506 69.3765 19.8976C69.3077 19.8569 69.2256 19.8452 69.1482 19.8651C69.0707 19.8849 69.0044 19.9347 68.9637 20.0035C68.923 20.0723 68.9113 20.1544 68.9311 20.2318C68.951 20.3092 69.0008 20.3756 69.0696 20.4163C72.9826 22.8209 82.3609 28.3851 83.6545 29.1562L74.2501 28.7933C73.8665 28.7787 73.8665 29.3795 74.2501 29.3941C82.2842 29.701 84.7617 29.8015 84.8537 29.7984C84.906 29.7974 84.9571 29.7825 85.0017 29.7552C85.0463 29.7279 85.0828 29.6891 85.1074 29.643C85.1321 29.5969 85.144 29.545 85.1418 29.4927C85.1397 29.4405 85.1237 29.3897 85.0954 29.3457Z" fill="black"/>
<path d="M149.063 75.5803C148.986 75.6278 140.299 83.1908 135.299 86.7202C134.986 86.9419 135.286 87.4629 135.606 87.2389C139.15 84.7368 144.911 79.9253 148.181 77.1255C147.177 78.9186 130.928 106.88 130.813 107.073C127.284 103.373 118.288 93.7084 117.239 92.6519C117.206 92.6206 117.166 92.5971 117.123 92.583C117.079 92.5689 117.033 92.5646 116.988 92.5705C116.943 92.5764 116.9 92.5923 116.862 92.6169C116.823 92.6416 116.791 92.6746 116.767 92.7133L108.136 105.422C107.918 105.743 108.438 106.044 108.654 105.725C110.895 102.426 116.499 94.1688 117.06 93.3417C120.599 97.0522 129.618 106.736 130.665 107.794C130.698 107.826 130.737 107.85 130.781 107.865C130.824 107.879 130.87 107.884 130.915 107.878C130.961 107.872 131.004 107.856 131.042 107.831C131.081 107.806 131.113 107.773 131.136 107.733C131.587 106.978 147.577 79.4212 148.797 77.2514C148.634 78.6716 147.109 91.9545 147.026 92.6504C146.982 93.034 147.583 93.034 147.626 92.6504L149.564 75.7989C149.597 75.5342 149.228 75.4153 149.063 75.5803Z" fill="#FF4848"/>
<path d="M123.577 109.844C122.503 109.184 121.416 109.673 120.022 108.25C119.127 107.336 119.131 107.199 118.628 106.885C118.374 106.779 118.088 106.778 117.833 106.883C117.578 106.989 117.376 107.19 117.27 107.445C117.01 107.955 116.878 108.521 116.886 109.094C116.894 109.666 117.042 110.228 117.316 110.731C118.021 111.882 119.375 111.979 120.713 112.026C121.918 112.068 123.355 112.333 123.53 113.523C123.575 113.823 124.049 113.787 124.11 113.523C124.227 112.998 124.291 112.462 124.3 111.923C124.316 111.203 124.255 110.26 123.577 109.844Z" fill="black"/>
<path d="M17.3405 77.3141C16.9783 77.1791 16.8218 77.7599 17.1809 77.8934L36.9625 85.243C37.3247 85.378 37.482 84.798 37.1221 84.6637L17.3405 77.3141Z" fill="#FF4848"/>
<path d="M108.548 82.1136C107.371 81.5878 106.097 81.3141 104.809 81.3103C103.434 81.2742 103.002 81.3279 95.2714 81.7614C99.3095 80.6535 100.642 78.0018 100.028 76.2916C99.2512 74.1294 96.3149 73.9898 94.0185 73.9215C90.8953 73.7864 87.7673 73.8148 84.6471 74.0067C78.7584 74.3642 75.1154 75.1192 74.6351 75.1046C74.6351 75.1046 34.7373 59.035 23.747 54.6187C23.3879 54.4744 23.2322 55.0552 23.5874 55.1979C23.9089 55.3268 59.0351 69.4407 59.3865 69.5795C54.3133 75.5542 51.2366 82.8072 49.3652 90.3885C49.3482 90.4652 49.3603 90.5454 49.3991 90.6136C49.438 90.6818 49.5008 90.7332 49.5754 90.7576C54.7852 92.5752 89.7893 104.557 90.5827 104.823C92.0017 105.43 93.5584 105.642 95.088 105.437C97.0062 105.023 98.7402 102.696 97.3131 100.915C96.3778 99.7461 93.5581 98.2952 92.2192 97.6269C95.5338 98.5937 97.8019 99.2681 101.401 99.4008C102.312 99.4874 103.23 99.3373 104.067 98.965C104.716 98.5683 105.213 97.9643 105.478 97.2506C105.742 96.5368 105.759 95.7547 105.524 95.0305C105.003 93.4898 103.721 92.9757 102.164 92.5438C101.569 92.3788 97.6998 91.2149 96.3678 90.7791C98.5043 90.8093 100.64 90.6836 102.758 90.4031C104.101 90.2132 105.423 89.9007 106.708 89.4693C107.75 89.1243 108.72 88.59 109.568 87.8934C111.573 86.2622 111.399 83.4962 108.548 82.1136ZM87.2458 96.341L84.407 95.6734C83.9673 95.5699 84.1545 94.8939 84.5934 94.9975L87.4323 95.6658C87.8712 95.7694 87.6839 96.4453 87.2458 96.341ZM91.0016 89.9957C89.7092 89.675 88.4037 89.41 87.0885 89.2016C87.0442 89.1894 87.0027 89.1686 86.9664 89.1404C86.9301 89.1122 86.8998 89.077 86.8771 89.037C86.8545 88.997 86.8399 88.953 86.8343 88.9073C86.8287 88.8617 86.8322 88.8154 86.8446 88.7711C86.871 88.6828 86.9305 88.608 87.0107 88.5624C87.0909 88.5169 87.1855 88.5039 87.275 88.5264C88.5911 88.731 89.8954 88.9957 91.188 89.3205C91.2736 89.3486 91.345 89.4086 91.3876 89.488C91.4301 89.5674 91.4405 89.6601 91.4165 89.7469C91.3925 89.8337 91.3361 89.908 91.2588 89.9543C91.1816 90.0006 91.0895 90.0154 91.0016 89.9957Z" fill="#FC9070" fill-opacity="0.8"/>
<path d="M91.1886 89.3203C89.8965 88.9955 88.5922 88.7308 87.2755 88.5262C87.1861 88.5037 87.0914 88.5167 87.0112 88.5623C86.9311 88.6078 86.8716 88.6826 86.8451 88.7709C86.8328 88.8152 86.8293 88.8615 86.8349 88.9071C86.8405 88.9528 86.855 88.9969 86.8777 89.0368C86.9003 89.0768 86.9307 89.112 86.967 89.1402C87.0033 89.1684 87.0448 89.1892 87.0891 89.2014C88.4049 89.4062 89.7078 89.6786 91.0021 89.9955C91.09 90.0152 91.1821 90.0004 91.2594 89.9541C91.3366 89.9078 91.3931 89.8335 91.417 89.7467C91.441 89.6599 91.4307 89.5672 91.3881 89.4878C91.3456 89.4084 91.2741 89.3484 91.1886 89.3203Z" fill="#FC9070"/>
<path d="M84.4112 95.6734L87.2501 96.3409C87.6882 96.4445 87.8754 95.7693 87.4365 95.6657L84.5976 94.9975C84.1588 94.8939 83.9715 95.5698 84.4112 95.6734Z" fill="#FC9070"/>
<path d="M31.974 98.836C31.9387 97.0782 31.7861 95.1769 30.4587 93.8872C29.6541 93.1401 28.6509 92.6413 27.5696 92.4508C26.4883 92.2602 25.375 92.386 24.3635 92.813C23.9474 92.0983 23.4332 91.4454 22.8359 90.8734C22.5574 90.6063 22.1316 91.0268 22.4116 91.2976C22.6111 91.4887 22.7952 91.6905 22.9748 91.8976C22.6034 91.693 22.2282 91.4959 21.8492 91.3061C21.5039 91.1342 21.1993 91.6521 21.5461 91.8248C22.3153 92.2173 23.0727 92.6326 23.8172 93.07C22.8113 93.6653 21.9408 94.4641 21.2614 95.4153C20.5821 96.3664 20.1088 97.4489 19.872 98.5936C19.4784 100.301 19.6341 102.131 18.9858 103.778C18.2553 105.635 16.6709 106.15 15.0405 107.104C9.50776 110.342 11.439 113.499 9.78474 116.268C8.36991 118.637 5.50878 119.825 4.82514 122.683C3.8768 126.652 9.5139 130.407 13.3709 127.774C17.172 125.179 17.7743 118.48 22.3403 117.104C23.1505 116.86 24.0052 116.858 24.8216 116.643C26.8694 116.1 27.7165 114.09 27.9758 111.998C28.4454 108.214 27.6958 106.32 27.6252 104.023C27.5788 103.396 27.6958 102.767 27.9647 102.198C28.2336 101.63 28.6453 101.14 29.1597 100.778C30.0398 100.358 30.2584 100.585 31.0525 100.349C31.9564 100.076 32.2127 99.1774 31.974 98.836Z" fill="black"/>
<path d="M25.5575 117.196C23.9057 117.275 22.3082 117.811 20.9425 118.743C19.5768 119.675 18.4963 120.968 17.8211 122.478C17.3301 123.678 17.1099 124.975 16.5789 126.161C16.3659 126.732 16.031 127.251 15.5973 127.68C15.1636 128.11 14.6417 128.439 14.0677 128.647C13.9942 128.671 13.9328 128.722 13.8962 128.79C13.8596 128.858 13.8507 128.938 13.8712 129.012C13.8917 129.087 13.9402 129.151 14.0065 129.19C14.0728 129.23 14.1518 129.243 14.2273 129.226C16.6572 128.624 17.3731 125.919 17.983 123.83C18.2906 122.699 18.8314 121.645 19.5705 120.735C21.1049 119.011 23.2531 117.957 25.5552 117.797C25.9403 117.768 25.9434 117.168 25.5575 117.196Z" fill="black"/>
<path d="M80.3667 104.91C80.3609 104.897 80.3543 104.886 80.3467 104.874C80.3421 104.862 80.3413 104.85 80.3367 104.837C79.6393 103.524 77.8301 104.019 77.0636 105.348C76.6107 106.147 76.3117 107.024 76.182 107.933C76.1631 108.012 76.1758 108.094 76.2173 108.163C76.2588 108.232 76.3257 108.282 76.4037 108.302C76.5165 108.331 76.5994 108.287 76.7759 108.247C78.3971 107.877 80.8424 106.42 80.3667 104.91Z" fill="black"/>
<path d="M73.4144 126.138C73.2763 126.5 73.8571 126.656 73.9937 126.298C75.7192 121.782 76.734 117.026 77.0021 112.2C77.0236 111.816 76.4228 111.816 76.4013 112.2C76.1354 116.973 75.1277 121.675 73.4144 126.138Z" fill="black"/>
<path d="M124.125 108.591C123.432 108.603 122.745 108.47 122.107 108.202C121.468 107.934 120.893 107.536 120.416 107.033C120.152 106.751 119.726 107.177 119.992 107.458C120.524 108.017 121.165 108.46 121.877 108.758C122.588 109.056 123.353 109.204 124.125 109.192C124.165 109.194 124.206 109.188 124.244 109.173C124.282 109.159 124.317 109.137 124.347 109.109C124.377 109.081 124.4 109.047 124.416 109.01C124.432 108.972 124.441 108.932 124.441 108.891C124.441 108.851 124.432 108.81 124.416 108.773C124.4 108.735 124.377 108.701 124.347 108.673C124.317 108.645 124.282 108.623 124.244 108.609C124.206 108.595 124.165 108.589 124.125 108.591Z" fill="black"/>
<path d="M40.0118 134.482C40.8335 136.287 41.4526 138.179 41.8578 140.121C41.9346 140.499 42.5146 140.339 42.4371 139.961C42.0188 137.969 41.3793 136.029 40.5305 134.178C40.3693 133.828 39.8522 134.132 40.0118 134.482Z" fill="#78B5FF"/>
<path d="M89.7527 134.942L90.4562 139.942C90.51 140.325 91.0892 140.16 91.0355 139.782L90.3312 134.782C90.2775 134.402 89.699 134.564 89.7527 134.942Z" fill="#2755A0"/>
<path d="M65.9412 137.023V139.862C65.9451 139.939 65.9784 140.012 66.0343 140.065C66.0902 140.118 66.1644 140.148 66.2415 140.148C66.3187 140.148 66.3929 140.118 66.4488 140.065C66.5047 140.012 66.538 139.939 66.5419 139.862V137.023C66.538 136.946 66.5047 136.874 66.4488 136.821C66.3929 136.768 66.3187 136.738 66.2415 136.738C66.1644 136.738 66.0902 136.768 66.0343 136.821C65.9784 136.874 65.9451 136.946 65.9412 137.023Z" fill="#2755A0"/>
<path d="M117.344 135.875C117.265 135.876 117.19 135.908 117.134 135.964C117.078 136.02 117.045 136.096 117.043 136.175L116.539 140.033C116.539 140.112 116.571 140.189 116.627 140.245C116.683 140.301 116.76 140.333 116.839 140.333C116.919 140.332 116.994 140.3 117.05 140.244C117.106 140.188 117.139 140.112 117.14 140.033L117.644 136.175C117.644 136.095 117.613 136.019 117.556 135.963C117.5 135.906 117.424 135.875 117.344 135.875Z" fill="#2755A0"/>
<path d="M134.937 139.86V137.187C134.937 137.108 134.906 137.031 134.849 136.975C134.793 136.919 134.717 136.887 134.637 136.887C134.558 136.887 134.481 136.919 134.425 136.975C134.369 137.031 134.337 137.108 134.337 137.187V139.857C134.337 139.936 134.369 140.012 134.425 140.069C134.481 140.125 134.558 140.157 134.637 140.157C134.717 140.157 134.793 140.125 134.849 140.069C134.906 140.012 134.937 139.936 134.937 139.857V139.86Z" fill="#2755A0"/>
<path d="M119.353 122.079C119.289 121.695 118.71 121.859 118.774 122.238L121.766 139.95C121.831 140.333 122.409 140.169 122.346 139.79L119.353 122.079Z" fill="#2755A0"/>
<path d="M130.935 122.344C130.931 122.266 130.898 122.194 130.842 122.141C130.786 122.088 130.712 122.058 130.635 122.058C130.558 122.058 130.483 122.088 130.428 122.141C130.372 122.194 130.338 122.266 130.334 122.344C130.334 122.42 130.494 132.523 130.845 139.859C130.862 140.242 131.463 140.242 131.445 139.859C131.114 132.935 130.937 122.447 130.935 122.344Z" fill="#2755A0"/>
<path d="M112.251 60.7628C111.714 59.8344 111.067 58.9766 110.563 58.0314C110.537 57.9856 110.499 57.9475 110.454 57.921C110.408 57.8945 110.356 57.8805 110.304 57.8805C110.251 57.8805 110.199 57.8945 110.154 57.921C110.109 57.9475 110.071 57.9856 110.045 58.0314C109.562 58.9887 108.997 59.9026 108.357 60.7628C108.198 60.9723 108.443 61.217 108.616 61.2147C112.06 61.1587 111.955 61.2278 112.032 61.2071C112.08 61.2 112.126 61.1813 112.165 61.1526C112.205 61.1239 112.237 61.086 112.258 61.0423C112.28 60.9986 112.29 60.9504 112.289 60.9017C112.288 60.853 112.275 60.8053 112.251 60.7628ZM109.182 60.614C109.587 60.0247 109.965 59.4172 110.314 58.7933C110.665 59.3618 111.205 60.1935 111.465 60.614H109.182Z" fill="#77751E"/>
<path d="M133.044 49.3291C133.389 49.4228 133.754 49.4105 134.091 49.2939C134.429 49.1773 134.724 48.9618 134.938 48.6754C135.166 48.3363 135.273 47.9301 135.241 47.5225C135.21 47.115 135.042 46.7299 134.765 46.4296C134.511 46.1843 134.195 46.0116 133.851 45.9297C133.508 45.8478 133.148 45.8596 132.811 45.9639C132.478 46.1168 132.199 46.3673 132.013 46.6823C131.826 46.9973 131.739 47.3617 131.764 47.7271C131.79 48.0925 131.926 48.4415 132.154 48.7277C132.383 49.0139 132.693 49.2236 133.044 49.3291ZM132.714 46.6928C132.961 46.5244 133.259 46.4483 133.557 46.4779C133.854 46.5075 134.132 46.6409 134.341 46.8547C134.448 46.9654 134.532 47.0967 134.587 47.2407C134.642 47.3846 134.668 47.5382 134.662 47.6924C134.657 47.8465 134.62 47.9978 134.555 48.1375C134.489 48.2771 134.396 48.402 134.281 48.5047C134.166 48.6075 134.032 48.686 133.886 48.7355C133.74 48.7849 133.585 48.8044 133.431 48.7927C133.278 48.781 133.128 48.7383 132.991 48.6673C132.854 48.5962 132.733 48.4983 132.635 48.3793C132.444 48.135 132.348 47.8303 132.363 47.5208C132.378 47.2112 132.504 46.9174 132.717 46.6928H132.714Z" fill="#A982F4"/>
<path d="M46.2695 85.6207C45.0226 85.2393 43.8164 84.7356 42.6687 84.1169C42.3295 83.932 42.0257 84.4506 42.3618 84.6355C43.5538 85.2822 44.8083 85.8063 46.106 86.2C46.1814 86.217 46.2605 86.2043 46.3268 86.1645C46.3931 86.1248 46.4416 86.061 46.4621 85.9865C46.4826 85.9119 46.4737 85.8323 46.4371 85.7642C46.4005 85.6961 46.3391 85.6447 46.2656 85.6207H46.2695Z" fill="#FF4848"/>
<path d="M112.676 19.0947C112.722 19.0948 112.768 19.0858 112.81 19.0682C112.853 19.0506 112.891 19.0248 112.924 18.9922C112.956 18.9596 112.982 18.9209 113 18.8783C113.017 18.8357 113.026 18.7901 113.026 18.7441L112.374 13.4047C112.372 13.3125 112.334 13.2247 112.269 13.1594C112.204 13.0941 112.116 13.0564 112.024 13.054C111.931 13.054 111.842 13.091 111.776 13.1567C111.71 13.2225 111.673 13.3117 111.673 13.4047L112.325 18.7441C112.328 18.8363 112.366 18.924 112.431 18.9892C112.496 19.0545 112.584 19.0922 112.676 19.0947Z" fill="black"/>
<path d="M131.664 22.2864L133.848 17.0306C133.871 16.941 133.859 16.8456 133.813 16.765C133.768 16.6843 133.692 16.6249 133.603 16.5994C133.513 16.577 133.419 16.5899 133.338 16.6355C133.258 16.681 133.198 16.7558 133.172 16.8442L130.989 22.1007C130.965 22.1902 130.977 22.2855 131.023 22.3661C131.069 22.4466 131.144 22.5059 131.234 22.5312C131.323 22.5538 131.418 22.541 131.498 22.4954C131.578 22.4497 131.638 22.3749 131.664 22.2864Z" fill="black"/>
<path d="M135.202 25.3194L139.699 21.2191C140.032 20.9122 139.536 20.4204 139.203 20.7243L134.706 24.8238C134.372 25.1268 134.869 25.6209 135.202 25.3194Z" fill="black"/>
<path d="M143.264 55.8565C142.856 55.6708 142.497 56.2739 142.91 56.4611L147.04 58.3424C147.447 58.5289 147.807 57.9243 147.393 57.7378L143.264 55.8565Z" fill="black"/>
<path d="M38.47 33.5545C39.2689 33.456 40.0156 33.1053 40.6014 32.5534C41.1873 32.0014 41.5819 31.277 41.7278 30.4854C41.8888 29.7573 41.8366 28.9981 41.5774 28.2988C41.3181 27.5996 40.8629 26.9898 40.2662 26.5425C39.6382 26.1201 38.9025 25.8863 38.1459 25.8686C37.3893 25.8509 36.6434 26.0501 35.9964 26.4427C34.4404 27.4103 34.0475 29.3384 34.4212 31.0425C34.6838 31.8764 35.2367 32.5886 35.9797 33.0495C36.7226 33.5104 37.6062 33.6896 38.47 33.5545ZM36.0202 27.2998C36.3767 27.0166 36.7906 26.8146 37.2331 26.7077C37.6757 26.6008 38.1362 26.5916 38.5826 26.6808C39.0291 26.7699 39.4507 26.9553 39.8183 27.224C40.1858 27.4927 40.4903 27.8383 40.7107 28.2366C40.9311 28.635 41.0621 29.0766 41.0945 29.5307C41.1269 29.9848 41.0599 30.4405 40.8983 30.8661C40.7366 31.2917 40.4842 31.677 40.1585 31.9951C39.8328 32.3133 39.4418 32.5566 39.0125 32.7082C37.4987 33.2277 35.4977 32.5302 35.0925 30.8553C34.9135 30.2339 34.9052 29.5759 35.0684 28.9502C35.2317 28.3246 35.5604 27.7544 36.0202 27.2998Z" fill="black"/>
<path d="M131.69 75.4063C130.85 75.4831 101.651 77.4058 100.206 77.5018C100.265 77.0883 100.221 76.6669 100.08 76.2741C99.2909 74.1104 96.3201 73.9109 94.0183 73.868C87.5383 73.6245 81.05 74.0214 74.6479 75.0526C74.3265 74.9567 75.7536 75.4938 68.4738 72.5452L68.453 70.6179C68.5298 63.8828 67.2009 57.7823 63.3837 51.9265C61.3115 48.6729 58.5789 45.8908 55.363 43.7605C52.1471 41.6301 48.5196 40.199 44.7154 39.5598C45.5609 37.6355 46.1441 35.6063 46.4494 33.5267C46.9305 29.8891 46.108 26.0076 43.4295 23.4917C42.2569 22.476 40.8724 21.7349 39.377 21.3223C37.8816 20.9098 36.3129 20.8362 34.7855 21.107C31.4862 21.5237 28.7402 24.2145 29.4515 27.4101C29.6785 28.1386 29.8053 28.8947 29.8282 29.6574C29.8123 29.9573 29.7016 30.2443 29.5119 30.4771C29.3223 30.7099 29.0636 30.8764 28.7732 30.9526C27.33 31.3117 26.7116 30.8221 24.9637 31.2173C24.19 31.4646 23.5296 31.9792 23.1008 32.6691C22.672 33.359 22.5028 34.179 22.6236 34.9823C22.8016 35.9222 23.3463 36.5406 23.0156 37.0048C22.9137 37.1081 22.7907 37.1882 22.655 37.2396C22.5192 37.291 22.374 37.3124 22.2292 37.3025C21.3683 37.3431 20.5067 37.1973 19.642 37.2165C18.099 37.2503 16.5852 37.9401 16.1325 39.4109C16.0431 39.8983 16.0577 40.399 16.1754 40.8803C16.2931 41.3616 16.5112 41.8126 16.8154 42.2037C15.419 42.1109 13.9665 42.183 12.8716 43.1621C12.3236 43.6322 11.9826 44.2992 11.9225 45.0188C11.9171 45.3741 11.9822 45.7269 12.1138 46.057C12.2455 46.387 12.4413 46.6876 12.6898 46.9416C13.2102 47.4794 13.8243 47.9178 14.5021 48.2352C14.9589 48.4669 15.4287 48.6718 15.9092 48.849C11.0863 54.5211 8.46024 61.7363 8.50897 69.1815V87.5591C8.51035 87.6515 8.54763 87.7398 8.61292 87.8052C8.67822 87.8706 8.76641 87.9081 8.85884 87.9097C37.6504 88.3363 42.6507 88.3846 42.6507 88.3846C42.6507 88.3846 89.8152 104.612 90.5725 104.868C92.0005 105.477 93.5663 105.689 95.1047 105.482C97.0536 105.061 98.803 102.695 97.362 100.886C97.0001 100.451 96.5718 100.076 96.093 99.7747C95.021 99.0512 93.9016 98.4007 92.7423 97.8274C95.5416 98.7662 98.4577 99.3116 101.407 99.4478C102.327 99.5348 103.254 99.3823 104.098 99.0051C104.754 98.6006 105.256 97.988 105.524 97.2649C105.792 96.5418 105.81 95.7499 105.576 95.0153C105.295 94.2086 104.717 93.5396 103.96 93.1455C102.662 92.5125 101.658 92.4335 96.6861 90.8245C98.7223 90.8399 100.757 90.714 102.776 90.4478C104.119 90.2619 105.442 89.9493 106.726 89.514C107.778 89.1713 108.756 88.6321 109.607 87.925C110.053 87.5677 110.407 87.108 110.639 86.5848C110.87 86.0617 110.972 85.4905 110.936 84.9197C110.895 84.8429 110.887 83.28 108.721 82.1353L132.37 78.9081C132.61 78.8748 132.841 78.7929 133.049 78.6673C133.257 78.5417 133.437 78.3751 133.578 78.1777C133.719 77.9803 133.818 77.7561 133.87 77.519C133.922 77.2819 133.925 77.0367 133.878 76.7985C133.832 76.5602 133.738 76.3339 133.601 76.1333C133.464 75.9327 133.288 75.7621 133.084 75.6318C132.879 75.5016 132.65 75.4144 132.41 75.3756C132.171 75.3368 131.926 75.3473 131.69 75.4063ZM13.8276 47.0176C11.4929 45.3296 12.8409 42.9979 15.6046 42.8743C16.2412 42.8596 16.878 42.8891 17.5105 42.9626C17.5718 42.9618 17.6319 42.945 17.6848 42.9139C17.7377 42.8828 17.7815 42.8385 17.812 42.7852C17.8425 42.732 17.8587 42.6718 17.8588 42.6105C17.8589 42.5491 17.8431 42.4888 17.8128 42.4355C17.3133 41.8277 16.9579 41.1147 16.7732 40.35C16.7281 40.0172 16.7733 39.6783 16.9041 39.3689C17.0349 39.0596 17.2465 38.791 17.5167 38.5915C19.6036 37.0201 22.9719 38.9866 23.7215 37.1667C24.0169 36.4493 23.5358 35.7633 23.3632 35.0851C23.2257 34.5128 23.2786 33.9114 23.514 33.372C23.7494 32.8326 24.1545 32.3848 24.6676 32.0966C26.2604 31.2019 28.3374 32.4472 29.885 31.1129C30.1222 30.8666 30.3027 30.5714 30.4139 30.2481C30.5251 29.9247 30.5643 29.5809 30.5287 29.2408C30.386 27.7147 29.6356 26.6229 30.33 24.9625C30.6357 24.2894 31.0811 23.689 31.6367 23.2012C32.1923 22.7135 32.8454 22.3496 33.5525 22.1336C34.9693 21.6721 36.4722 21.5372 37.9485 21.7389C39.4249 21.9406 40.8365 22.4737 42.0776 23.2983C43.1892 24.1389 44.1019 25.214 44.7509 26.4473C45.3999 27.6806 45.7692 29.0417 45.8326 30.4339C46.1003 33.549 45.2088 36.572 44.0157 39.4608C42.9669 39.3213 41.9102 39.2498 40.8522 39.2467C31.6627 39.1193 23.8397 40.0577 16.4003 48.2912C15.4847 47.996 14.6178 47.567 13.8276 47.0183V47.0176ZM41.585 39.9587C40.6451 41.6866 38.3878 41.3122 37.0405 39.9587C38.5543 39.9388 40.0719 39.9058 41.5865 39.9626L41.585 39.9587ZM42.2932 87.6826C39.1527 87.6342 9.53096 87.1923 9.20871 87.2C9.20871 70.8434 9.14733 68.3253 9.34835 66.1723C10.6819 51.9994 21.6292 40.1444 36.0967 39.9741C37.8292 42.2575 41.2796 42.6434 42.4021 40.004C54.8602 40.8702 64.487 50.5562 67.0451 62.5247C67.8124 66.1248 67.7356 68.4135 67.7748 72.2644C55.8576 67.4421 25.2975 55.1958 23.763 54.5705C23.6733 54.5466 23.5779 54.5589 23.4973 54.6047C23.4166 54.6505 23.3572 54.7261 23.3318 54.8153C23.3093 54.9048 23.3222 54.9996 23.3678 55.0799C23.4133 55.1602 23.4881 55.2199 23.5765 55.2465C23.898 55.3754 58.9712 69.4677 59.3003 69.5943C54.4988 75.2721 51.1673 82.7145 49.3581 89.9905C42.0146 87.4509 42.92 87.6918 42.2932 87.6826ZM110.238 84.981C110.637 88.8266 102.815 90.0258 98.9426 90.0857C97.481 90.1409 96.0178 90.1064 94.5554 90.1248C94.4709 90.1259 94.3897 90.1574 94.3265 90.2134C94.2633 90.2694 94.2223 90.3463 94.2111 90.43C94.1998 90.5137 94.219 90.5987 94.2652 90.6694C94.3113 90.7401 94.3814 90.7919 94.4625 90.8153C99.4053 92.4734 98.1354 92.0046 102.263 93.2591C103.204 93.4234 104.051 93.93 104.641 94.6816C104.983 95.2509 105.107 95.9244 104.992 96.5782C104.877 97.2321 104.53 97.8225 104.014 98.2409C103.314 98.6561 102.5 98.839 101.689 98.7634C97.4395 98.6867 94.4994 97.6194 89.1416 96.0573C89.0602 96.0368 88.9742 96.0462 88.8991 96.0836C88.8241 96.1211 88.7649 96.1842 88.7323 96.2615C88.6996 96.3388 88.6957 96.4252 88.7213 96.5051C88.7468 96.585 88.8001 96.6531 88.8715 96.6972C91.1889 97.7608 93.4391 98.9651 95.6096 100.303C96.4375 100.864 97.3835 101.595 97.1395 102.716C97.0328 103.182 96.8054 103.613 96.4799 103.964C96.1545 104.316 95.7424 104.575 95.285 104.717C93.7896 105.195 92.216 104.689 90.785 104.209C90.0347 103.958 50.6065 90.4309 50.0755 90.2452C52.4118 80.9483 55.9835 74.5209 59.9824 69.869C63.6039 71.3222 74.1093 75.6235 74.5045 75.7501C75.3109 75.869 82.5968 74.1112 93.8994 74.567C95.3856 74.6268 97.092 74.6046 98.4324 75.3688C98.7355 75.5364 98.9928 75.7759 99.1818 76.0662C99.3708 76.3565 99.4858 76.6887 99.5165 77.0337C99.4152 80.5954 93.7513 81.7516 90.2326 81.9941C89.7861 82.0248 89.7799 82.7199 90.2326 82.6946C93.2641 82.5243 102.19 82.024 103.621 81.9603C104.976 81.8743 106.335 82.0344 107.633 82.433C108.255 82.5858 108.825 82.9028 109.283 83.351C109.742 83.7992 110.071 84.3621 110.238 84.981ZM107.388 81.6212C105.032 80.9974 103.314 81.2606 95.6641 81.6887C97.4733 81.134 99.3201 80.0383 100.022 78.2107L131.817 76.0984C132.081 76.0374 132.359 76.0777 132.595 76.2112C132.831 76.3447 133.009 76.5618 133.093 76.8197C133.177 77.0777 133.162 77.3578 133.05 77.6048C132.937 77.8519 132.737 78.0481 132.487 78.1547C132.263 78.2537 133.935 77.9897 107.388 81.6212Z" fill="black"/>
<path d="M115.736 113.893C115.756 114.69 116.018 115.463 116.487 116.108C116.956 116.753 117.61 117.24 118.363 117.505C119.547 117.937 120.848 117.92 122.019 117.456C123.798 116.688 124.309 113.839 124.351 111.923C124.368 111.183 124.3 110.227 123.604 109.801C122.976 109.51 122.31 109.309 121.625 109.203C120.061 108.703 119.554 107.405 118.655 106.841C117.217 106.121 116.242 108.961 117.254 110.718C116.732 111.055 116.314 111.53 116.046 112.091C115.778 112.651 115.671 113.275 115.736 113.893ZM117.599 108.484C117.653 108.204 117.858 107.293 118.317 107.454C118.763 107.608 119.528 109.152 121.202 109.804C121.904 109.933 122.59 110.135 123.25 110.406C123.741 110.706 123.666 111.758 123.625 112.328C122.084 110.904 120.281 111.695 118.765 111.115C118.289 110.888 117.909 110.498 117.696 110.015C117.482 109.533 117.447 108.99 117.599 108.484ZM117.697 111.262C118.496 111.978 119.657 112.039 120.715 112.076C121.571 112.106 122.839 112.245 123.313 113.052C123.442 113.713 123.389 114.396 123.159 115.029C123.025 115.601 122.706 116.112 122.251 116.483C121.795 116.854 121.23 117.064 120.643 117.08C120.049 117.163 119.444 117.113 118.871 116.934C118.299 116.754 117.773 116.449 117.333 116.041C116.138 114.706 115.954 112.352 117.7 111.262H117.697Z" fill="black"/>
<path d="M4.20653 140.384L56.6107 140.393C56.6644 140.392 56.7171 140.379 56.765 140.355C56.8129 140.331 56.8547 140.296 56.8872 140.253C56.9197 140.211 56.9421 140.161 56.9527 140.109C56.9633 140.056 56.9618 140.002 56.9483 139.95C55.3324 133.182 53.8424 127.591 50.4526 122.122C48.0978 118.424 44.7589 115.455 40.8108 113.549C36.8626 111.642 32.4612 110.874 28.1007 111.33C28.2286 109.902 28.199 108.465 28.0124 107.044C29.2078 107.044 30.605 106.859 31.3117 105.837C31.6476 105.276 31.8213 104.633 31.8135 103.979C31.8497 102.667 31.8056 101.354 31.6815 100.048C31.8587 99.905 31.987 99.7106 32.0489 99.4915C32.1108 99.2724 32.103 99.0395 32.0268 98.825C31.9907 97.0603 31.8319 95.149 30.4968 93.8516C29.6923 93.0998 28.6879 92.5961 27.6042 92.4008C26.5205 92.2055 25.4035 92.327 24.3871 92.7506C23.9724 92.0467 23.4633 91.4029 22.8741 90.837C22.5488 90.5263 22.0523 91.0212 22.3792 91.3327C22.5119 91.4593 22.637 91.5912 22.7628 91.7255C22.4716 91.5666 22.1774 91.4131 21.8805 91.2651C21.4777 91.0641 21.1224 91.6687 21.5268 91.8705C23.1587 92.6853 23.5853 93.0291 23.725 93.0682C22.7334 93.6711 21.8761 94.4712 21.2065 95.4189C20.5368 96.3667 20.0689 97.4419 19.8319 98.5779C19.2495 101.106 19.8319 104.075 17.3513 105.726C15.948 106.697 12.6955 107.825 11.3145 110.725C10.4797 112.477 10.7551 114.561 9.75001 116.241C8.80935 117.816 7.23262 118.86 6.06714 120.248C4.80116 121.754 4.23952 123.527 5.08735 125.336C5.44379 126.078 5.95901 126.733 6.59656 127.254C4.66389 131.229 3.72525 135.614 3.86126 140.032C3.86259 140.124 3.89921 140.212 3.96351 140.277C4.0278 140.343 4.11483 140.381 4.20653 140.384ZM28.024 112.037C30.4584 111.782 32.9179 111.919 35.3091 112.442C32.827 113.261 30.9871 113.976 27.6887 113.616C27.8452 113.1 27.9574 112.572 28.024 112.037ZM31.0355 104.66C30.997 104.929 30.897 105.186 30.7431 105.41C30.5893 105.633 30.3858 105.819 30.1485 105.951C29.4434 106.248 28.6796 106.38 27.9158 106.335C27.779 105.568 27.6997 104.792 27.6787 104.013C27.6493 103.142 27.8935 102.283 28.3769 101.558C28.6061 101.227 28.9139 100.958 29.2727 100.776C29.6315 100.593 30.0299 100.502 30.4324 100.511C30.6279 100.491 30.8214 100.455 31.0109 100.402C31.0876 101.431 31.0761 101.511 31.1214 102.809C31.1509 103.427 31.1221 104.047 31.0355 104.66ZM5.494 122.698C6.17303 120.157 8.75871 119.127 10.37 116.56C11.4917 114.496 10.9638 113.627 11.85 111.219C13.1475 108.38 16.1191 107.389 17.6045 106.398C18.3204 105.934 18.916 105.307 19.3419 104.568C19.7679 103.829 20.0121 103 20.0544 102.148C20.2984 100.443 20.2324 99.1028 20.982 97.2698C21.5636 95.782 22.6204 94.528 23.9881 93.7027C26.613 92.2327 30.3012 93.194 31.0523 96.247C31.247 97.1354 31.3405 98.043 31.3309 98.9524C31.3319 99.0209 31.3547 99.0873 31.3961 99.1419C31.4483 99.5255 30.9357 99.7273 30.6419 99.7841C30.2005 99.8232 29.7623 99.893 29.3306 99.9928C28.5932 100.264 27.9788 100.792 27.6012 101.481C26.5876 103.23 27.094 105.245 27.3288 107.126C27.5855 109.056 27.5261 111.015 27.1531 112.927C26.8209 114.476 25.9324 115.848 24.3457 116.085C23.5784 116.199 22.8211 116.326 22.0715 116.507C16.8441 118.189 16.5219 125.962 11.949 127.785C8.25845 128.862 4.72136 125.594 5.494 122.698ZM7.15743 127.673C8.06698 128.312 9.14611 128.667 10.2577 128.691C11.3692 128.716 12.4629 128.409 13.3999 127.811C17.2285 125.164 17.8278 118.511 22.3569 117.146C23.9728 116.659 26.1879 117.187 27.4416 114.285C32.0575 114.858 34.8749 113.161 36.6089 112.782C36.7833 112.787 36.9552 112.825 37.116 112.893C40.7185 113.927 44.0036 115.849 46.67 118.482C52.2289 124.259 54.2529 131.715 56.1641 139.689H42.4255C42.011 137.781 41.3908 135.924 40.5756 134.151C40.3877 133.741 39.7831 134.097 39.9703 134.504C40.729 136.166 41.3109 137.904 41.7066 139.687C40.7659 139.687 5.14182 139.66 4.5495 139.678C4.47665 135.528 5.36946 131.418 7.15743 127.673Z" fill="black"/>
<path d="M103.582 140.034C103.371 137.191 102.935 134.368 102.277 131.594C98.9358 117.593 86.589 111.558 76.9038 114.091C76.9637 113.464 77.0158 112.835 77.0511 112.205C77.0757 111.754 76.3752 111.756 76.3499 112.205C76.3097 112.901 76.2534 113.595 76.1811 114.289C75.8066 114.435 75.921 114.378 75.4238 114.572C75.6954 113.237 76.4381 109.677 76.5355 109.231C76.5538 109.171 76.5565 109.107 76.5436 109.046C76.5306 108.985 76.5023 108.928 76.4614 108.881C76.4205 108.834 76.3682 108.797 76.3095 108.776C76.2509 108.754 76.1876 108.748 76.1258 108.757H76.1135C70.4833 109.678 61.5892 111.267 58.0744 115.693C57.4081 116.476 56.9095 117.387 56.6095 118.37C56.3096 119.353 56.2145 120.387 56.3304 121.409C56.7861 124.501 59.7202 127.572 62.8214 128.95C61.6131 132.552 60.6225 136.223 59.8552 139.944C59.8435 139.989 59.8409 140.036 59.8474 140.082C59.8539 140.128 59.8694 140.172 59.8931 140.212C59.9167 140.252 59.948 140.288 59.9853 140.316C60.0225 140.344 60.0648 140.364 60.1099 140.376C60.1759 140.392 70.9284 140.386 103.23 140.386C103.323 140.386 103.413 140.349 103.479 140.283C103.545 140.217 103.582 140.127 103.582 140.034ZM85.557 114.721C84.802 115.251 83.964 115.653 83.0772 115.909C82.1058 116.131 81.0975 116.135 80.1243 115.921C79.1511 115.708 78.2372 115.282 77.4478 114.674C80.1166 114.039 82.8989 114.055 85.5601 114.721H85.557ZM57.3432 122.532C57.0233 121.622 56.9165 120.651 57.0309 119.693C57.1453 118.735 57.4778 117.817 58.003 117.008C59.1246 115.312 60.703 113.968 62.556 113.131C66.611 111.203 71.3227 110.262 75.7621 109.525C73.5486 119.784 73.2639 123.601 71.0051 126.453C70.4572 127.203 69.7491 127.822 68.9322 128.264C68.1154 128.707 67.2103 128.962 66.2826 129.011C62.6511 129.085 58.5286 125.763 57.3432 122.532ZM91.0752 139.683L90.3847 134.769C90.3594 134.68 90.3001 134.604 90.2196 134.559C90.139 134.513 90.0437 134.501 89.9542 134.524C89.8657 134.551 89.7908 134.61 89.7452 134.691C89.6996 134.771 89.6868 134.866 89.7095 134.956L90.3755 139.683H66.5926V137.023C66.5883 136.933 66.5496 136.848 66.4844 136.786C66.4191 136.724 66.3325 136.689 66.2423 136.689C66.1521 136.689 66.0654 136.724 66.0002 136.786C65.935 136.848 65.8963 136.933 65.892 137.023V139.683C65.892 139.683 61.0729 139.67 60.6386 139.678C61.3725 136.135 62.3205 132.64 63.4775 129.212C68.2805 130.958 71.8974 127.979 73.4964 123.055C74.2169 120.534 74.806 117.977 75.2611 115.394C75.5389 115.278 75.8197 115.17 76.1051 115.07C75.6558 118.855 74.7375 122.57 73.3713 126.128C73.2102 126.549 73.8877 126.732 74.0473 126.314C75.4282 122.704 76.3538 118.936 76.8025 115.097C78.1721 116.221 79.8958 116.825 81.6678 116.8C83.4399 116.775 85.1458 116.123 86.4831 114.96C89.2321 115.775 91.787 117.14 93.9931 118.972C100.275 124.199 102.126 131.581 102.856 139.683H91.0752Z" fill="black"/>
<path d="M112.022 125.926C108.484 129.812 106.378 134.789 106.052 140.034C106.053 140.127 106.09 140.215 106.156 140.28C106.221 140.346 106.31 140.383 106.402 140.384H141.603C141.657 140.383 141.709 140.37 141.757 140.346C141.805 140.322 141.847 140.287 141.88 140.245C141.912 140.202 141.934 140.152 141.945 140.1C141.956 140.047 141.954 139.993 141.941 139.941C141.358 137.334 140.619 134.764 139.729 132.245C138.85 129.804 137.536 127.543 135.852 125.569C129.639 118.605 118.366 119.284 112.022 125.926ZM141.16 139.683H134.987V137.187C134.983 137.097 134.944 137.012 134.879 136.949C134.813 136.887 134.727 136.852 134.637 136.852C134.546 136.852 134.46 136.887 134.395 136.949C134.329 137.012 134.291 137.097 134.286 137.187V139.68H131.488C131.221 134.049 131.055 128.413 130.992 122.775C137.413 125.831 139.571 132.837 141.16 139.683ZM130.287 122.461C130.274 121.135 130.393 131.411 130.787 139.683H122.38C121.613 135.123 119.63 123.421 119.412 122.131C122.965 120.973 126.81 121.089 130.287 122.461ZM121.675 139.683H117.239L117.7 136.175C117.7 136.082 117.663 135.993 117.597 135.927C117.532 135.861 117.443 135.824 117.35 135.824C117.257 135.826 117.169 135.863 117.104 135.928C117.038 135.994 117.001 136.082 116.999 136.175L116.539 139.683C116.539 139.683 107.137 139.67 106.786 139.677C107.142 135.049 108.935 130.647 111.915 127.089C113.744 124.947 116.099 123.317 118.748 122.358C118.482 120.792 121.013 135.763 121.675 139.683Z" fill="black"/>
<path d="M74.2559 29.4399C82.8071 29.7683 84.7675 29.8481 84.8634 29.8435C84.9233 29.8414 84.9817 29.8236 85.0326 29.7919C85.0835 29.7601 85.1251 29.7155 85.1533 29.6625C85.1814 29.6095 85.1951 29.5501 85.193 29.4901C85.1909 29.4301 85.173 29.3718 85.1411 29.321L79.2002 20.4667C78.9508 20.0938 78.3439 20.4445 78.5956 20.8204L83.6772 28.3941C80.0626 26.2304 70.5623 20.5089 69.4061 19.8499C69.3259 19.8052 69.2315 19.7938 69.143 19.818C69.0545 19.8422 68.979 19.9001 68.9327 19.9793C68.8864 20.0585 68.873 20.1527 68.8954 20.2417C68.9178 20.3307 68.9741 20.4073 69.0523 20.4552C72.9109 22.7647 82.4971 28.5269 83.4393 29.0931L74.2582 28.7394C73.8056 28.7217 73.8063 29.423 74.2559 29.4399Z" fill="black"/>
<path d="M149.03 75.5431C148.954 75.5899 140.224 83.1835 135.275 86.6769C134.91 86.9354 135.259 87.5431 135.629 87.2822C139.128 84.8117 144.759 80.1122 148 77.3416C147.04 79.0533 130.911 106.821 130.805 106.994C127.291 103.307 118.321 93.6728 117.272 92.6163C117.233 92.579 117.187 92.5509 117.137 92.534C117.086 92.5172 117.032 92.512 116.979 92.5188C116.926 92.5257 116.876 92.5445 116.831 92.5737C116.786 92.6029 116.749 92.6419 116.722 92.6876C114.553 96.0367 108.729 104.461 108.094 105.397C107.84 105.771 108.447 106.122 108.699 105.751L117.068 93.4211C120.592 97.1178 129.584 106.772 130.631 107.829C130.669 107.866 130.715 107.895 130.766 107.912C130.816 107.929 130.87 107.934 130.923 107.928C130.976 107.921 131.027 107.902 131.071 107.873C131.116 107.843 131.153 107.804 131.181 107.758C131.628 107 147.54 79.5927 148.72 77.4912L146.977 92.65C146.978 92.7428 147.015 92.8317 147.08 92.8973C147.146 92.9629 147.235 93.0001 147.328 93.0007C147.42 92.9985 147.508 92.9609 147.573 92.8955C147.638 92.8302 147.676 92.7423 147.678 92.65L149.616 75.7986C149.653 75.4902 149.224 75.3513 149.03 75.5431Z" fill="black"/>
<path d="M37.1373 84.6176L17.358 77.2634C16.9345 77.1099 16.7519 77.7828 17.1716 77.9393L36.9501 85.2905C37.3736 85.4501 37.5562 84.7734 37.1373 84.6176Z" fill="black"/>
<path d="M91.1895 89.3195C89.8985 88.9957 88.5941 88.7313 87.2765 88.5262C87.187 88.5037 87.0923 88.5167 87.0122 88.5623C86.932 88.6078 86.8725 88.6826 86.846 88.7709C86.8337 88.8153 86.8302 88.8616 86.8359 88.9073C86.8415 88.9529 86.8561 88.9971 86.8789 89.0371C86.9016 89.0771 86.9321 89.1122 86.9684 89.1404C87.0048 89.1686 87.0464 89.1893 87.0908 89.2014C88.4059 89.406 89.7102 89.6707 91.0038 89.9955C91.0925 90.0172 91.1861 90.0034 91.2648 89.9571C91.3435 89.9109 91.401 89.8358 91.4252 89.7478C91.4494 89.6597 91.4383 89.5658 91.3943 89.4858C91.3503 89.4058 91.2768 89.3462 91.1895 89.3195Z" fill="black"/>
<path d="M87.434 95.6652L84.5951 94.9969C84.1563 94.8934 83.969 95.5686 84.4087 95.6729L87.2476 96.3404C87.6864 96.4448 87.8729 95.7688 87.434 95.6652Z" fill="black"/>
<path d="M14.2419 129.272C16.6849 128.64 17.3877 125.939 18.033 123.842C18.4917 122.174 19.4675 120.696 20.8199 119.618C22.1723 118.541 23.8316 117.921 25.5591 117.846C26.0056 117.812 26.0095 117.111 25.5591 117.145C23.897 117.226 22.2899 117.766 20.9159 118.705C19.5419 119.644 18.4546 120.945 17.7744 122.463C17.2849 123.659 17.0662 124.953 16.5376 126.133C16.3277 126.699 15.9969 127.213 15.5684 127.638C15.1399 128.064 14.6239 128.391 14.0563 128.596C13.969 128.623 13.8955 128.683 13.8515 128.763C13.8075 128.842 13.7964 128.936 13.8206 129.024C13.8447 129.112 13.9023 129.188 13.981 129.234C14.0597 129.28 14.1533 129.294 14.2419 129.272Z" fill="black"/>
<path d="M77.0206 105.323C76.5656 106.126 76.265 107.007 76.1344 107.92C76.1125 108.011 76.1273 108.108 76.1757 108.188C76.2241 108.269 76.3021 108.327 76.393 108.35C76.509 108.366 76.6271 108.351 76.736 108.308C76.8841 108.865 77.2226 109.352 77.6928 109.685C78.163 110.018 78.735 110.176 79.3094 110.13C81.2275 110.09 82.2081 107.129 80.3114 105.973C81.2636 104.239 78.3887 102.953 77.0206 105.323ZM76.9293 107.542C77.0342 107.008 77.2027 106.489 77.4311 105.995C77.6681 105.484 78.0684 105.066 78.569 104.808C78.7686 104.708 78.9977 104.684 79.2136 104.741C79.4296 104.797 79.6176 104.93 79.7429 105.115C79.9424 105.814 79.0454 106.463 78.5505 106.795C78.0524 107.127 77.5054 107.379 76.9293 107.542ZM79.3078 109.429C78.8878 109.474 78.4656 109.367 78.1183 109.127C77.771 108.886 77.5219 108.529 77.4165 108.119C78.3616 107.811 79.2154 107.273 79.9017 106.554C81.2268 107.233 80.5792 109.403 79.3094 109.429H79.3078Z" fill="black"/>
<path d="M124.126 109.241C124.216 109.237 124.301 109.198 124.363 109.133C124.425 109.068 124.46 108.981 124.46 108.891C124.46 108.801 124.425 108.714 124.363 108.649C124.301 108.584 124.216 108.545 124.126 108.541C123.439 108.556 122.758 108.426 122.125 108.161C121.492 107.895 120.922 107.499 120.453 106.998C120.146 106.668 119.649 107.164 119.958 107.493C120.492 108.059 121.139 108.507 121.857 108.808C122.574 109.109 123.347 109.257 124.126 109.241Z" fill="black"/>
<path d="M108.614 61.2644H111.99C112.051 61.2623 112.11 61.2448 112.162 61.2134C112.214 61.1819 112.257 61.1378 112.288 61.085C112.318 61.0322 112.334 60.9726 112.335 60.9117C112.336 60.8509 112.321 60.7909 112.292 60.7373C111.77 59.8013 111.108 58.9511 110.604 58.0051C110.574 57.9512 110.53 57.9064 110.477 57.8752C110.424 57.8439 110.363 57.8275 110.302 57.8275C110.24 57.8275 110.18 57.8439 110.126 57.8752C110.073 57.9064 110.029 57.9512 109.999 58.0051C109.516 58.9627 108.952 59.8769 108.312 60.7373C108.134 60.9698 108.377 61.2721 108.614 61.2644ZM110.319 58.8951C110.664 59.456 111.031 60.0031 111.376 60.5639H109.281C109.65 60.0222 110.003 59.4675 110.319 58.8951Z" fill="black"/>
<path d="M132.801 45.9151C132.426 46.0529 132.106 46.3077 131.887 46.6418C131.668 46.9759 131.563 47.3715 131.586 47.7702C131.61 48.1688 131.761 48.5493 132.017 48.8554C132.274 49.1615 132.622 49.3769 133.011 49.4697C133.399 49.5625 133.807 49.5279 134.174 49.3708C134.541 49.2138 134.848 48.9428 135.049 48.5978C135.251 48.2529 135.336 47.8523 135.291 47.4554C135.247 47.0585 135.077 46.6863 134.805 46.3939C134.544 46.1423 134.221 45.9651 133.868 45.8809C133.516 45.7967 133.147 45.8085 132.801 45.9151ZM134.291 48.4379C134.182 48.5446 134.052 48.6273 133.909 48.6808C133.766 48.7343 133.614 48.7573 133.462 48.7484C133.309 48.7395 133.161 48.6989 133.025 48.6292C132.889 48.5595 132.77 48.4622 132.674 48.3435C132.493 48.1089 132.401 47.8175 132.415 47.5215C132.429 47.2255 132.548 46.9441 132.751 46.7277C132.988 46.5695 133.274 46.4991 133.558 46.5287C133.842 46.5582 134.107 46.6858 134.307 46.8896C134.407 46.9922 134.487 47.1137 134.54 47.2471C134.594 47.3805 134.621 47.5231 134.62 47.6669C134.618 47.8107 134.588 47.9528 134.532 48.0851C134.476 48.2174 134.394 48.3373 134.291 48.4379Z" fill="black"/>
<path d="M46.2842 85.5728C45.0405 85.1956 43.8382 84.6933 42.6957 84.0736C42.2998 83.858 41.9453 84.4626 42.342 84.6782C43.5389 85.3272 44.7986 85.8532 46.1016 86.248C46.1895 86.2678 46.2816 86.253 46.3588 86.2067C46.4361 86.1604 46.4925 86.0861 46.5165 85.9993C46.5405 85.9125 46.5301 85.8197 46.4876 85.7404C46.4451 85.661 46.3736 85.601 46.2881 85.5728H46.2842Z" fill="black"/>
<path d="M129.555 64.6746C129.555 33.8766 129.645 34.9047 129.401 33.704C129.112 32.5993 128.467 31.6207 127.565 30.9196C126.664 30.2186 125.556 29.834 124.414 29.8254H91.6405C90.9309 29.8007 90.2239 29.9229 89.5637 30.1843C88.9035 30.4456 88.3045 30.8406 87.8041 31.3443C87.3037 31.8481 86.9128 32.4498 86.6559 33.1117C86.399 33.7736 86.2816 34.4815 86.3111 35.1909V65.5631C86.2974 66.2881 86.4321 67.0082 86.7069 67.6793C86.9817 68.3504 87.3907 68.9582 87.9089 69.4654C88.4272 69.9726 89.0436 70.3685 89.7204 70.6289C90.3972 70.8892 91.1201 71.0084 91.8446 70.9792C126.625 70.5089 124.425 71.0322 125.28 70.8833C126.435 70.6645 127.483 70.0646 128.257 69.1795C129.031 68.2944 129.486 67.1753 129.549 66.0012C129.576 65.5608 129.555 65.115 129.555 64.6746Z" fill="#FFD500"/>
<path d="M108.271 46.7706C107.57 45.4939 105.867 42.6412 105.762 42.4647C105.736 42.4217 105.699 42.3861 105.655 42.3614C105.612 42.3367 105.562 42.3237 105.512 42.3237C105.461 42.3237 105.412 42.3367 105.368 42.3614C105.324 42.3861 105.288 42.4217 105.262 42.4647C104.419 43.8961 103.583 45.3314 102.753 46.7706C102.728 46.815 102.715 46.8653 102.715 46.9164C102.715 46.9676 102.729 47.0178 102.754 47.0621C102.78 47.1063 102.817 47.1431 102.861 47.1687C102.905 47.1943 102.955 47.2078 103.007 47.2079H108.023C108.073 47.2048 108.121 47.1894 108.163 47.1629C108.206 47.1364 108.241 47.0998 108.265 47.0564C108.29 47.013 108.303 46.9641 108.304 46.9142C108.305 46.8643 108.294 46.8149 108.271 46.7706Z" fill="#2755A0"/>
<path d="M114.77 46.7705C114.07 45.4938 112.366 42.6403 112.262 42.4646C112.236 42.4216 112.199 42.386 112.155 42.3613C112.111 42.3366 112.062 42.3237 112.012 42.3237C111.961 42.3237 111.912 42.3366 111.868 42.3613C111.824 42.386 111.787 42.4216 111.761 42.4646C110.919 43.8964 110.083 45.3317 109.253 46.7705C109.228 46.8147 109.215 46.8645 109.215 46.9152C109.215 46.9658 109.229 47.0156 109.254 47.0595C109.279 47.1035 109.315 47.1401 109.359 47.1659C109.403 47.1916 109.452 47.2055 109.503 47.2063H114.517C114.567 47.2041 114.616 47.1894 114.659 47.1634C114.702 47.1375 114.738 47.1011 114.763 47.0577C114.788 47.0143 114.802 46.9652 114.803 46.915C114.805 46.8649 114.793 46.8152 114.77 46.7705Z" fill="#2755A0"/>
<path d="M107.851 50.4464H103.968C103.892 50.4476 103.819 50.4786 103.765 50.5327C103.711 50.5869 103.68 50.66 103.679 50.7365V54.6181C103.68 54.6945 103.711 54.7676 103.765 54.8218C103.819 54.8759 103.892 54.9069 103.968 54.9081C108.111 54.9372 107.958 54.9503 108.068 54.8037C108.174 54.6917 108.17 54.8805 108.141 50.7372C108.14 50.6605 108.109 50.5871 108.055 50.5328C108.001 50.4784 107.927 50.4474 107.851 50.4464Z" fill="#FF4848"/>
<path d="M116.7 54.7555C115.999 53.4788 114.296 50.6261 114.191 50.4504C114.165 50.4074 114.128 50.3718 114.084 50.3471C114.04 50.3224 113.991 50.3094 113.941 50.3094C113.89 50.3094 113.841 50.3224 113.797 50.3471C113.753 50.3718 113.717 50.4074 113.691 50.4504C112.946 51.7018 111.284 54.5783 111.182 54.7555C111.158 54.7997 111.145 54.8496 111.145 54.9003C111.145 54.951 111.158 55.0008 111.184 55.0448C111.209 55.0888 111.245 55.1255 111.289 55.1513C111.332 55.1771 111.382 55.1912 111.433 55.1921H116.45C116.499 55.1891 116.548 55.1738 116.59 55.1475C116.633 55.1212 116.668 55.0847 116.693 55.0414C116.717 54.9981 116.731 54.9493 116.732 54.8994C116.734 54.8495 116.722 54.8 116.7 54.7555Z" fill="#2755A0"/>
<path d="M101.819 50.3097L97.8812 54.2466C97.8321 54.302 97.8061 54.3741 97.8083 54.4481C97.8105 54.5222 97.841 54.5926 97.8933 54.6449C97.9457 54.6973 98.0161 54.7277 98.0901 54.73C98.1642 54.7322 98.2363 54.7061 98.2917 54.657C99.6263 53.3665 100.939 52.054 102.229 50.7194C102.279 50.6643 102.306 50.5919 102.304 50.5174C102.302 50.4428 102.272 50.3717 102.219 50.319C102.167 50.2662 102.096 50.2358 102.021 50.2341C101.946 50.2324 101.874 50.2595 101.819 50.3097Z" fill="black"/>
<path d="M101.819 35.2331L97.881 39.1707C97.8281 39.2255 97.7989 39.2988 97.7996 39.3749C97.8003 39.4509 97.8309 39.5237 97.8847 39.5775C97.9386 39.6312 98.0114 39.6617 98.0875 39.6622C98.1636 39.6628 98.2368 39.6334 98.2915 39.5804C99.626 38.2909 100.938 36.9784 102.228 35.6428C102.279 35.5877 102.306 35.5153 102.304 35.4408C102.302 35.3662 102.272 35.2951 102.219 35.2424C102.166 35.1896 102.095 35.1592 102.021 35.1575C101.946 35.1558 101.874 35.1829 101.819 35.2331Z" fill="black"/>
<path d="M101.819 42.8014C100.484 44.0915 99.1718 45.4038 97.8812 46.7383C97.8321 46.7937 97.8061 46.8658 97.8083 46.9399C97.8105 47.0139 97.841 47.0843 97.8933 47.1367C97.9457 47.189 98.0161 47.2195 98.0901 47.2217C98.1642 47.224 98.2363 47.1979 98.2917 47.1488C99.6263 45.8582 100.939 44.5457 102.229 43.2112C102.279 43.156 102.306 43.0837 102.304 43.0091C102.302 42.9345 102.272 42.8635 102.219 42.8107C102.167 42.758 102.096 42.7276 102.021 42.7258C101.946 42.7241 101.874 42.7512 101.819 42.8014Z" fill="black"/>
<path d="M90.43 35.4977V39.657C90.4338 39.7313 90.466 39.8012 90.5199 39.8524C90.5738 39.9036 90.6453 39.9321 90.7196 39.9321C90.794 39.9321 90.8655 39.9036 90.9194 39.8524C90.9733 39.8012 91.0055 39.7313 91.0093 39.657V35.4977C91.0055 35.4234 90.9733 35.3535 90.9194 35.3023C90.8655 35.2511 90.794 35.2226 90.7196 35.2226C90.6453 35.2226 90.5738 35.2511 90.5199 35.3023C90.466 35.3535 90.4338 35.4234 90.43 35.4977Z" fill="#FF4848"/>
<path d="M90.43 43.1506V47.31C90.4338 47.3842 90.466 47.4542 90.5199 47.5053C90.5738 47.5565 90.6453 47.5851 90.7196 47.5851C90.794 47.5851 90.8655 47.5565 90.9194 47.5053C90.9733 47.4542 91.0055 47.3842 91.0093 47.31V43.1506C91.0055 43.0764 90.9733 43.0065 90.9194 42.9553C90.8655 42.9041 90.794 42.8755 90.7196 42.8755C90.6453 42.8755 90.5738 42.9041 90.5199 42.9553C90.466 43.0065 90.4338 43.0764 90.43 43.1506Z" fill="#FF4848"/>
<path d="M90.43 50.7204V54.8805C90.4338 54.9547 90.466 55.0247 90.5199 55.0758C90.5738 55.127 90.6453 55.1556 90.7196 55.1556C90.794 55.1556 90.8655 55.127 90.9194 55.0758C90.9733 55.0247 91.0055 54.9547 91.0093 54.8805V50.7204C91.0055 50.6461 90.9733 50.5762 90.9194 50.525C90.8655 50.4738 90.794 50.4453 90.7196 50.4453C90.6453 50.4453 90.5738 50.4738 90.5199 50.525C90.466 50.5762 90.4338 50.6461 90.43 50.7204Z" fill="#FF4848"/>
<path d="M90.43 58.2625V62.4218C90.4338 62.4961 90.466 62.566 90.5199 62.6172C90.5738 62.6684 90.6453 62.6969 90.7196 62.6969C90.794 62.6969 90.8655 62.6684 90.9194 62.6172C90.9733 62.566 91.0055 62.4961 91.0093 62.4218V58.2625C91.0055 58.1882 90.9733 58.1183 90.9194 58.0671C90.8655 58.0159 90.794 57.9874 90.7196 57.9874C90.6453 57.9874 90.5738 58.0159 90.5199 58.0671C90.466 58.1183 90.4338 58.1882 90.43 58.2625Z" fill="#FF4848"/>
<path d="M93.7088 52.7827L96.662 50.497C96.7162 50.4424 96.7465 50.3686 96.7465 50.2917C96.7465 50.2149 96.7162 50.1411 96.662 50.0865C96.607 50.0335 96.5336 50.0039 96.4572 50.0039C96.3808 50.0039 96.3074 50.0335 96.2523 50.0865C96.2523 50.0865 93.1434 52.4788 93.0421 52.5709C92.8119 52.8156 93.0498 52.999 93.227 53.1364L96.2562 55.4781C96.3115 55.5303 96.3848 55.5595 96.461 55.5595C96.5372 55.5595 96.6105 55.5303 96.6659 55.4781C96.7201 55.4237 96.7506 55.35 96.7506 55.2732C96.7506 55.1964 96.7201 55.1227 96.6659 55.0683C95.6766 54.3062 94.6909 53.5443 93.7088 52.7827Z" fill="black"/>
<path d="M93.7088 45.2292L96.662 42.9435C96.7163 42.8892 96.7468 42.8155 96.7468 42.7387C96.7468 42.6619 96.7163 42.5882 96.662 42.5338C96.6071 42.4806 96.5336 42.4509 96.4572 42.4509C96.3807 42.4509 96.3073 42.4806 96.2523 42.5338C95.2902 43.2781 93.1434 44.9261 93.0421 45.0174C92.8119 45.2622 93.0498 45.4463 93.227 45.5837L96.2562 47.9246C96.3114 47.9772 96.3847 48.0066 96.461 48.0066C96.5373 48.0066 96.6107 47.9772 96.6659 47.9246C96.7201 47.8702 96.7506 47.7966 96.7506 47.7197C96.7506 47.6429 96.7201 47.5693 96.6659 47.5149L93.7088 45.2292Z" fill="black"/>
<path d="M93.7088 37.5029L96.662 35.2172C96.7163 35.1628 96.7468 35.0891 96.7468 35.0123C96.7468 34.9355 96.7163 34.8618 96.662 34.8075C96.607 34.7545 96.5336 34.7249 96.4572 34.7249C96.3808 34.7249 96.3074 34.7545 96.2523 34.8075C95.2902 35.5517 93.1434 37.1998 93.0421 37.2919C92.8119 37.5359 93.0498 37.72 93.227 37.8573L96.2562 40.199C96.3117 40.2516 96.3853 40.2809 96.4618 40.2809C96.5383 40.2809 96.6118 40.2516 96.6674 40.199C96.6944 40.1722 96.7158 40.1402 96.7303 40.1051C96.7449 40.0699 96.7525 40.0322 96.7525 39.9942C96.7525 39.9561 96.7449 39.9184 96.7303 39.8833C96.7158 39.8481 96.6944 39.8162 96.6674 39.7893L93.7088 37.5029Z" fill="black"/>
<path d="M123.263 52.4252L120.238 50.0835C120.182 50.0312 120.109 50.0021 120.033 50.0021C119.957 50.0021 119.883 50.0312 119.828 50.0835C119.774 50.138 119.743 50.2118 119.743 50.2887C119.743 50.3657 119.774 50.4395 119.828 50.494L122.782 52.7789L119.828 55.0653C119.774 55.1197 119.743 55.1934 119.743 55.2702C119.743 55.347 119.774 55.4207 119.828 55.4751C119.883 55.528 119.957 55.5576 120.033 55.5576C120.109 55.5576 120.183 55.528 120.238 55.4751C120.238 55.4751 123.347 53.0827 123.448 52.9906C123.675 52.749 123.44 52.5656 123.263 52.4252Z" fill="black"/>
<path d="M120.516 45.4383C120.746 45.1936 120.509 45.0094 120.331 44.8728L117.306 42.5311C117.251 42.4789 117.177 42.4497 117.101 42.4497C117.025 42.4497 116.952 42.4789 116.896 42.5311C116.842 42.5855 116.812 42.6592 116.812 42.736C116.812 42.8128 116.842 42.8865 116.896 42.9409L119.85 45.2265L116.895 47.5145C116.841 47.569 116.81 47.6428 116.81 47.7198C116.81 47.7967 116.841 47.8705 116.895 47.925C116.95 47.9778 117.023 48.0073 117.1 48.0073C117.176 48.0073 117.249 47.9778 117.305 47.925C118.268 47.1777 120.415 45.5304 120.516 45.4383Z" fill="black"/>
<path d="M113.628 37.5026L110.674 39.7883C110.62 39.8429 110.59 39.9167 110.59 39.9935C110.59 40.0704 110.62 40.1442 110.674 40.1988C110.729 40.2516 110.803 40.2811 110.879 40.2811C110.955 40.2811 111.029 40.2516 111.084 40.1988C112.046 39.4538 114.193 37.8065 114.294 37.7144C114.524 37.4696 114.286 37.2855 114.109 37.1481L111.084 34.8072C111.028 34.7548 110.955 34.7255 110.879 34.7255C110.803 34.7255 110.729 34.7548 110.674 34.8072C110.62 34.8616 110.589 34.9353 110.589 35.0121C110.589 35.0889 110.62 35.1626 110.674 35.2169L113.628 37.5026Z" fill="black"/>
<path d="M106.934 35.0528C106.445 34.8735 105.912 34.8547 105.411 34.9994C104.91 35.1441 104.469 35.4446 104.151 35.8573C103.833 36.27 103.655 36.7733 103.643 37.2942C103.63 37.815 103.784 38.3262 104.082 38.7535C104.381 39.1808 104.807 39.5019 105.3 39.6701C105.793 39.8384 106.327 39.845 106.824 39.689C107.321 39.533 107.756 39.2225 108.064 38.8027C108.373 38.3829 108.54 37.8756 108.54 37.3546C108.541 36.8526 108.387 36.3624 108.1 35.9506C107.813 35.5388 107.406 35.2254 106.934 35.0528Z" fill="#CCEAFF"/>
<path d="M86.3284 26.7986C84.7384 27.7235 83.4651 29.1072 82.6754 30.7685C82.5127 31.1022 83.013 31.3969 83.1757 31.0608C83.9414 29.5031 85.1368 28.197 86.6207 27.2966C86.6832 27.256 86.7277 27.1929 86.7449 27.1203C86.7621 27.0478 86.7507 26.9714 86.7131 26.907C86.6755 26.8427 86.6145 26.7953 86.5429 26.7746C86.4713 26.754 86.3944 26.7618 86.3284 26.7963V26.7986Z" fill="black"/>
<path d="M85.8487 25.0339C83.703 26.0366 81.9914 27.7803 81.0288 29.9444C80.8753 30.2828 81.3786 30.5781 81.529 30.2375C82.4459 28.1611 84.0845 26.4876 86.1411 25.5272C86.4794 25.373 86.1848 24.8728 85.8487 25.0339Z" fill="black"/>
<path d="M86.5554 35.1909V65.563C86.5484 66.2862 86.6876 67.0034 86.9646 67.6714C87.2417 68.3395 87.651 68.9446 88.1678 69.4505C88.6847 69.9564 89.2984 70.3526 89.9723 70.6153C90.6461 70.878 91.3661 71.0017 92.089 70.9792C121.39 71.026 124.67 71.0321 125.525 70.8833C126.679 70.6634 127.727 70.0632 128.501 69.1783C129.275 68.2934 129.729 67.1748 129.793 66.0011C129.808 65.7587 129.937 62.1372 129.802 35.7249C129.818 35.0478 129.766 34.3709 129.649 33.7039C129.359 32.5992 128.714 31.6207 127.812 30.9196C126.911 30.2185 125.804 29.8339 124.662 29.8254H91.8849C91.1753 29.8007 90.4682 29.9228 89.808 30.1842C89.1479 30.4456 88.5488 30.8405 88.0484 31.3443C87.5481 31.848 87.1572 32.4497 86.9003 33.1117C86.6433 33.7736 86.5259 34.4815 86.5554 35.1909ZM91.6961 30.4054H124.662C125.816 30.4154 126.924 30.8584 127.767 31.6466C128.61 32.4348 129.126 33.5108 129.213 34.6615C129.237 35.0451 129.235 65.8377 129.191 66.2659C129.053 67.4067 128.501 68.4575 127.641 69.2192C126.78 69.9809 125.67 70.4007 124.521 70.3991H92.0483C91.4282 70.4241 90.8093 70.3267 90.2269 70.1124C89.6446 69.8981 89.1101 69.5712 88.6541 69.1503C88.1981 68.7294 87.8294 68.2228 87.5693 67.6595C87.3091 67.0961 87.1625 66.4869 87.1378 65.8669C87.1332 65.7265 87.1378 65.5853 87.1378 65.4449V35.151C87.1159 34.5373 87.2175 33.9256 87.4367 33.352C87.6558 32.7784 87.988 32.2547 88.4134 31.8119C88.8389 31.3692 89.349 31.0165 89.9135 30.7748C90.4779 30.533 91.0852 30.4072 91.6992 30.4047L91.6961 30.4054Z" fill="black"/>
<path d="M103.11 47.1686C103.206 47.2239 102.834 47.3482 108.265 47.2062C108.315 47.2039 108.364 47.189 108.406 47.1629C108.449 47.1369 108.485 47.1004 108.51 47.057C108.535 47.0136 108.548 46.9646 108.549 46.9145C108.55 46.8644 108.539 46.8149 108.516 46.7704C107.814 45.4937 106.11 42.6418 106.007 42.4645C105.967 42.3984 105.902 42.3508 105.827 42.3324C105.751 42.314 105.672 42.3262 105.606 42.3663C105.508 42.4246 105.699 42.1362 102.997 46.7704C102.978 46.804 102.966 46.8409 102.961 46.8791C102.957 46.9173 102.96 46.956 102.97 46.993C102.981 47.03 102.999 47.0646 103.022 47.0948C103.046 47.1249 103.076 47.15 103.11 47.1686ZM105.757 43.1865L107.761 46.627H103.753L105.757 43.1865Z" fill="black"/>
<path d="M109.607 47.1687C109.704 47.2239 109.332 47.3482 114.763 47.2062C114.813 47.204 114.862 47.1891 114.905 47.163C114.947 47.137 114.983 47.1005 115.008 47.057C115.033 47.0136 115.046 46.9645 115.047 46.9144C115.048 46.8643 115.036 46.8148 115.013 46.7704C114.312 45.4937 112.608 42.6418 112.505 42.4646C112.485 42.4317 112.459 42.403 112.428 42.3803C112.397 42.3576 112.362 42.3412 112.324 42.332C112.287 42.3229 112.248 42.3213 112.21 42.3271C112.172 42.333 112.136 42.3463 112.103 42.3663C111.995 42.4316 112.169 42.1983 109.494 46.7704C109.475 46.804 109.463 46.8409 109.459 46.8791C109.454 46.9173 109.458 46.956 109.468 46.9929C109.478 47.0299 109.496 47.0645 109.52 47.0946C109.544 47.1248 109.573 47.1499 109.607 47.1687ZM112.255 43.1865L114.259 46.627H110.251L112.255 43.1865Z" fill="black"/>
<path d="M108.095 50.4464H104.213C104.136 50.4476 104.063 50.4785 104.009 50.5327C103.955 50.5868 103.924 50.6599 103.923 50.7364V54.618C103.924 54.6945 103.955 54.7676 104.009 54.8217C104.063 54.8759 104.136 54.9068 104.213 54.908C108.572 54.9387 108.161 54.9395 108.299 54.8213C108.423 54.6894 108.414 54.9425 108.385 50.7364C108.384 50.6598 108.353 50.5866 108.299 50.5324C108.245 50.4782 108.172 50.4474 108.095 50.4464ZM107.805 54.328H104.506V51.0287H107.805V54.328Z" fill="black"/>
<path d="M113.934 50.4501L111.426 54.756C111.407 54.7895 111.395 54.8263 111.39 54.8644C111.386 54.9026 111.389 54.9413 111.399 54.9783C111.409 55.0153 111.427 55.0499 111.451 55.0801C111.474 55.1103 111.504 55.1355 111.538 55.1542C111.64 55.2118 111.315 55.1918 116.694 55.1918C116.743 55.1892 116.792 55.1741 116.834 55.1479C116.877 55.1217 116.912 55.0853 116.937 55.042C116.962 54.9986 116.976 54.9498 116.977 54.8998C116.978 54.8499 116.967 54.8004 116.944 54.756C116.944 54.756 114.538 50.6266 114.435 50.4501C114.409 50.4071 114.372 50.3715 114.328 50.3468C114.284 50.3221 114.235 50.3091 114.185 50.3091C114.134 50.3091 114.085 50.3221 114.041 50.3468C113.997 50.3715 113.96 50.4071 113.934 50.4501ZM112.18 54.6118L114.185 51.1721L116.189 54.6118H112.18Z" fill="black"/>
<path d="M102.063 50.3098L98.1265 54.2467C98.0762 54.3018 98.0492 54.3742 98.0509 54.4488C98.0526 54.5233 98.083 54.5944 98.1358 54.6471C98.1885 54.6999 98.2595 54.7303 98.3341 54.732C98.4087 54.7337 98.4811 54.7066 98.5362 54.6564C99.8712 53.3674 101.184 52.0551 102.474 50.7196C102.527 50.6648 102.556 50.5915 102.555 50.5154C102.555 50.4393 102.524 50.3666 102.47 50.3128C102.416 50.2591 102.343 50.2286 102.267 50.2281C102.191 50.2275 102.118 50.2569 102.063 50.3098Z" fill="black"/>
<path d="M98.5362 39.5804C99.8712 38.2913 101.184 36.9788 102.474 35.6427C102.527 35.588 102.556 35.5147 102.555 35.4386C102.555 35.3625 102.524 35.2898 102.47 35.236C102.416 35.1822 102.343 35.1518 102.267 35.1513C102.191 35.1507 102.118 35.1801 102.063 35.233L98.1265 39.1706C98.0762 39.2258 98.0492 39.2981 98.0509 39.3727C98.0526 39.4473 98.083 39.5183 98.1358 39.5711C98.1885 39.6238 98.2595 39.6542 98.3341 39.6559C98.4087 39.6577 98.4811 39.6306 98.5362 39.5804Z" fill="black"/>
<path d="M98.5363 47.1486C99.8708 45.858 101.183 44.5455 102.474 43.211C102.527 43.1563 102.556 43.0829 102.555 43.0068C102.555 42.9308 102.524 42.858 102.47 42.8042C102.416 42.7505 102.343 42.72 102.267 42.7195C102.191 42.7189 102.118 42.7483 102.063 42.8013C100.73 44.0918 99.4176 45.4041 98.1266 46.7381C98.0736 46.7927 98.0443 46.866 98.0448 46.9421C98.0454 47.0182 98.0758 47.091 98.1296 47.1449C98.1833 47.1987 98.2561 47.2293 98.3322 47.23C98.4083 47.2307 98.4816 47.2014 98.5363 47.1486Z" fill="black"/>
<path d="M90.9744 39.9364C91.0478 39.9339 91.1175 39.9037 91.1695 39.8519C91.2214 39.8 91.2518 39.7304 91.2545 39.6571V35.4977C91.2507 35.4235 91.2185 35.3536 91.1646 35.3024C91.1107 35.2512 91.0392 35.2226 90.9648 35.2226C90.8905 35.2226 90.819 35.2512 90.7651 35.3024C90.7112 35.3536 90.679 35.4235 90.6752 35.4977V39.6571C90.6765 39.6951 90.6853 39.7324 90.701 39.767C90.7167 39.8016 90.7391 39.8328 90.7669 39.8587C90.7947 39.8847 90.8273 39.9049 90.863 39.9182C90.8986 39.9315 90.9364 39.9377 90.9744 39.9364Z" fill="black"/>
<path d="M90.9744 47.5915C91.0479 47.589 91.1177 47.5587 91.1697 47.5067C91.2217 47.4547 91.252 47.3849 91.2545 47.3114V43.1506C91.2507 43.0763 91.2185 43.0064 91.1646 42.9552C91.1107 42.904 91.0392 42.8755 90.9648 42.8755C90.8905 42.8755 90.819 42.904 90.7651 42.9552C90.7112 43.0064 90.679 43.0763 90.6752 43.1506V47.3099C90.6763 47.3481 90.6849 47.3856 90.7005 47.4205C90.7162 47.4553 90.7386 47.4867 90.7664 47.5128C90.7942 47.539 90.8268 47.5594 90.8626 47.5729C90.8983 47.5864 90.9363 47.5927 90.9744 47.5915Z" fill="black"/>
<path d="M90.976 55.1597C91.0491 55.1568 91.1184 55.1265 91.17 55.0747C91.2217 55.0229 91.2518 54.9535 91.2545 54.8804V50.7203C91.2507 50.6461 91.2185 50.5761 91.1646 50.5249C91.1107 50.4737 91.0392 50.4452 90.9648 50.4452C90.8905 50.4452 90.819 50.4737 90.7651 50.5249C90.7112 50.5761 90.679 50.6461 90.6752 50.7203V54.8804C90.6766 54.9185 90.6855 54.956 90.7013 54.9906C90.7172 55.0253 90.7398 55.0565 90.7677 55.0824C90.7956 55.1083 90.8284 55.1285 90.8641 55.1418C90.8999 55.155 90.9379 55.1611 90.976 55.1597Z" fill="black"/>
<path d="M90.9744 62.7021C91.0479 62.6994 91.1176 62.669 91.1695 62.6171C91.2215 62.5651 91.2518 62.4954 91.2545 62.422V58.2627C91.2507 58.1884 91.2185 58.1185 91.1646 58.0673C91.1107 58.0161 91.0392 57.9875 90.9648 57.9875C90.8905 57.9875 90.819 58.0161 90.7651 58.0673C90.7112 58.1185 90.679 58.1884 90.6752 58.2627V62.422C90.6778 62.4988 90.7108 62.5714 90.7669 62.6239C90.823 62.6764 90.8976 62.7045 90.9744 62.7021Z" fill="black"/>
<path d="M93.4701 53.1365L96.4992 55.4782C96.5546 55.5305 96.6279 55.5596 96.7041 55.5596C96.7803 55.5596 96.8535 55.5305 96.9089 55.4782C96.9632 55.4238 96.9937 55.3502 96.9937 55.2733C96.9937 55.1965 96.9632 55.1229 96.9089 55.0685C96.8407 55.0155 94.8711 53.4918 93.9557 52.782L96.9089 50.4971C96.9632 50.4426 96.9937 50.3688 96.9937 50.2919C96.9937 50.2149 96.9632 50.1411 96.9089 50.0866C96.8539 50.0337 96.7805 50.0041 96.7041 50.0041C96.6277 50.0041 96.5543 50.0337 96.4992 50.0866C96.4992 50.0866 93.3903 52.479 93.289 52.571C93.0588 52.8158 93.2928 52.9999 93.4701 53.1365Z" fill="black"/>
<path d="M93.4705 45.5834L96.4997 47.9243C96.5549 47.977 96.6283 48.0063 96.7046 48.0063C96.7808 48.0063 96.8542 47.977 96.9094 47.9243C96.9637 47.87 96.9942 47.7963 96.9942 47.7195C96.9942 47.6427 96.9637 47.569 96.9094 47.5146L93.9524 45.2289L96.9056 42.9433C96.9598 42.8889 96.9903 42.8152 96.9903 42.7384C96.9903 42.6616 96.9598 42.5879 96.9056 42.5335C96.8506 42.4804 96.7772 42.4507 96.7007 42.4507C96.6243 42.4507 96.5508 42.4804 96.4959 42.5335C95.5337 43.2778 93.3869 44.9259 93.2856 45.0172C93.0593 45.2619 93.2933 45.443 93.4705 45.5834Z" fill="black"/>
<path d="M93.4705 37.8571L96.4997 40.198C96.5549 40.2506 96.6283 40.28 96.7046 40.28C96.7808 40.28 96.8542 40.2506 96.9094 40.198C96.9637 40.1436 96.9942 40.0699 96.9942 39.9931C96.9942 39.9163 96.9637 39.8426 96.9094 39.7883L93.9524 37.5026L96.9056 35.2169C96.9598 35.1625 96.9903 35.0889 96.9903 35.012C96.9903 34.9352 96.9598 34.8616 96.9056 34.8072C96.8505 34.7542 96.7771 34.7246 96.7007 34.7246C96.6243 34.7246 96.5509 34.7542 96.4959 34.8072C95.5337 35.5514 93.3869 37.1995 93.2856 37.2916C93.0593 37.5356 93.2933 37.7197 93.4705 37.8571Z" fill="black"/>
<path d="M120.072 50.0865C120.018 50.141 119.988 50.2148 119.988 50.2918C119.988 50.3687 120.018 50.4425 120.072 50.497L123.026 52.7819L120.072 55.0676C120.018 55.1222 119.988 55.196 119.988 55.2729C119.988 55.3497 120.018 55.4235 120.072 55.4781C120.128 55.5309 120.201 55.5604 120.277 55.5604C120.354 55.5604 120.427 55.5309 120.482 55.4781C120.482 55.4781 123.591 53.0858 123.692 52.9937C123.923 52.7489 123.685 52.5656 123.507 52.4282L120.482 50.0865C120.427 50.0343 120.353 50.0051 120.277 50.0051C120.201 50.0051 120.128 50.0343 120.072 50.0865Z" fill="black"/>
<path d="M120.094 45.2268L117.139 47.5148C117.085 47.5693 117.054 47.6431 117.054 47.72C117.054 47.7969 117.085 47.8707 117.139 47.9252C117.194 47.9781 117.267 48.0075 117.344 48.0075C117.42 48.0075 117.493 47.9781 117.549 47.9252C118.511 47.1802 120.658 45.5329 120.759 45.4408C120.989 45.1961 120.751 45.0119 120.574 44.8754L117.549 42.5337C117.493 42.4814 117.42 42.4523 117.344 42.4523C117.268 42.4523 117.194 42.4814 117.139 42.5337C117.112 42.5605 117.09 42.5924 117.076 42.6276C117.061 42.6627 117.054 42.7004 117.054 42.7385C117.054 42.7766 117.061 42.8143 117.076 42.8495C117.09 42.8847 117.112 42.9166 117.139 42.9434L120.094 45.2268Z" fill="black"/>
<path d="M113.872 37.5026L110.918 39.7883C110.863 39.8427 110.833 39.9163 110.833 39.9931C110.833 40.07 110.863 40.1436 110.918 40.198C110.972 40.2513 111.046 40.2812 111.122 40.2812C111.199 40.2812 111.272 40.2513 111.327 40.198C112.289 39.4538 114.436 37.8064 114.538 37.7144C114.768 37.4696 114.53 37.2855 114.353 37.1481L111.327 34.8072C111.272 34.7549 111.199 34.7258 111.122 34.7258C111.046 34.7258 110.973 34.7549 110.918 34.8072C110.863 34.8616 110.833 34.9353 110.833 35.0121C110.833 35.0889 110.863 35.1626 110.918 35.2169L113.872 37.5026Z" fill="black"/>
<path d="M105.491 39.6518C105.946 39.8183 106.44 39.8461 106.91 39.7318C107.381 39.6176 107.807 39.3663 108.135 39.0098C108.463 38.6534 108.678 38.2077 108.753 37.7291C108.828 37.2505 108.759 36.7605 108.555 36.321C108.352 35.8815 108.022 35.5123 107.609 35.2599C107.195 35.0076 106.716 34.8835 106.232 34.9033C105.748 34.9231 105.281 35.0859 104.89 35.3712C104.498 35.6565 104.2 36.0514 104.033 36.506C103.922 36.8083 103.872 37.1295 103.885 37.4512C103.898 37.7729 103.975 38.0889 104.11 38.381C104.245 38.6732 104.437 38.9358 104.674 39.1538C104.911 39.3719 105.188 39.5411 105.491 39.6518ZM105.701 35.5899C105.984 35.4888 106.287 35.4572 106.584 35.4977C106.882 35.5382 107.165 35.6496 107.411 35.8226C107.656 35.9956 107.856 36.2251 107.995 36.4918C108.133 36.7584 108.205 37.0543 108.205 37.3546C108.202 37.7401 108.082 38.1156 107.86 38.4309C107.638 38.7463 107.326 38.9864 106.964 39.1193C106.497 39.285 105.983 39.2587 105.536 39.0463C105.088 38.834 104.743 38.4528 104.576 37.9864C104.409 37.5199 104.433 37.0063 104.644 36.5579C104.855 36.1096 105.235 35.7632 105.701 35.5945V35.5899Z" fill="black"/>
<path d="M82.9189 30.7676C82.7563 31.1021 83.2565 31.396 83.4192 31.0607C84.178 29.4983 85.375 28.1904 86.8642 27.2965C86.9292 27.2554 86.9752 27.1903 86.9922 27.1153C87.0092 27.0404 86.9957 26.9618 86.9548 26.8967C86.916 26.8338 86.8545 26.7883 86.7831 26.7695C86.7116 26.7508 86.6357 26.7604 86.5711 26.7962C84.9822 27.7227 83.7094 29.1067 82.9189 30.7676Z" fill="black"/>
<path d="M81.773 30.2405C82.6978 28.1698 84.3337 26.4988 86.3843 25.5303C86.7226 25.3768 86.428 24.8728 86.092 25.03C83.9478 26.0369 82.2371 27.7811 81.272 29.9444C81.1224 30.2858 81.6219 30.5812 81.773 30.2405Z" fill="black"/>
</svg>
