<svg width="151" height="126" viewBox="0 0 151 126" fill="none" xmlns="http://www.w3.org/2000/svg">
<path d="M30.7972 26.8839C30.7876 26.8839 23.5631 26.8343 23.4356 26.8464C23.395 26.8503 23.3561 26.864 23.3222 26.8862C23.2884 26.9084 23.2608 26.9384 23.2418 26.9736C23.2228 27.0088 23.2131 27.048 23.2135 27.0877C23.2139 27.1274 23.2244 27.1664 23.2441 27.2012C24.2004 28.8982 27.0748 34.5929 28.7365 36.1894C28.8702 36.3181 29.0927 36.2973 29.1995 35.9687C29.2416 35.8399 29.4751 35.0296 29.6591 34.3267C30.2558 31.9516 30.7108 29.5449 31.0218 27.1187C31.0217 27.0592 30.9984 27.002 30.9568 26.9585C30.9151 26.9149 30.8582 26.8883 30.7972 26.8839Z" fill="#FC9070"/>
<path d="M28.844 18.533C28.6621 17.1996 27.1457 16.5536 25.929 16.7502C25.4359 16.8763 24.984 17.1229 24.6162 17.4666C24.2483 17.8103 23.9767 18.2397 23.8269 18.7141C23.5157 19.3337 23.3947 20.0275 23.4783 20.7123C23.5349 20.943 23.6384 21.1603 23.7828 21.3513C23.9272 21.5423 24.1095 21.7032 24.3189 21.8244C24.7723 22.1303 25.3049 22.3059 25.856 22.331C26.407 22.3562 26.9542 22.2299 27.4351 21.9666C28.6435 21.2858 29.0059 19.7236 28.844 18.533ZM27.1774 20.1663C27.0967 20.3434 26.9657 20.4943 26.7998 20.6013C26.6339 20.7083 26.44 20.7668 26.2411 20.77C26.0373 20.7292 25.8534 20.6233 25.7186 20.469C25.5838 20.3148 25.5058 20.1211 25.497 19.9188C25.4453 19.617 25.9193 19.4882 25.971 19.7914C25.9999 19.9597 26.0564 20.2609 26.2748 20.2944C26.4932 20.328 26.6593 20.0778 26.7523 19.9255C26.7694 19.8987 26.7917 19.8755 26.8181 19.8571C26.8445 19.8388 26.8744 19.8258 26.906 19.8188C26.9376 19.8118 26.9703 19.811 27.0022 19.8164C27.0341 19.8218 27.0646 19.8334 27.0919 19.8504C27.1444 19.883 27.1823 19.9335 27.1981 19.9921C27.2139 20.0506 27.2065 20.1128 27.1774 20.1663Z" fill="#FC9070"/>
<path d="M29.0059 13.3971C29.9519 12.6954 30.5981 12.35 30.4693 11.6591C30.4052 11.4088 30.2612 11.1846 30.0581 11.0189C29.855 10.8532 29.6031 10.7544 29.3387 10.7368C28.621 10.6883 27.9093 10.8923 27.3331 11.3117C27.3531 11.2567 27.3758 11.203 27.3944 11.148C27.6948 10.4276 27.5095 9.49661 26.7013 9.31013C25.8828 9.19409 25.3454 9.87156 25.1353 10.6409C24.8389 11.5159 24.5917 12.406 24.3947 13.3072C24.2702 13.706 24.2098 14.1212 24.2155 14.538C24.2602 14.9102 24.4408 15.2544 24.7243 15.5079C25.0078 15.7614 25.3754 15.9073 25.7602 15.9191C27.1815 15.9587 28.6084 15.9721 30.0318 15.9191C30.5196 15.9017 31.0921 15.8715 31.3346 15.3825C31.8458 14.3435 30.5816 13.061 29.0059 13.3971Z" fill="black"/>
<path d="M17.1826 104.783C14.7074 104.169 12.3476 103.178 10.1909 101.846C8.74625 100.952 7.55645 99.718 6.73162 98.2578C5.36924 95.9138 4.23685 93.4499 3.34948 90.899L3.34259 90.8876C3.24269 90.6347 2.84515 90.7219 2.86651 90.9613C2.86651 93.851 2.50687 96.9036 3.52585 99.6812C4.6592 102.774 7.34066 104.543 10.5871 104.998C12.7478 105.315 14.9379 105.4 17.1178 105.252C17.3796 105.234 17.4678 104.851 17.1826 104.783Z" fill="black"/>
<path d="M11.1555 14.0892C11.7611 11.6041 13.9113 7.982 16.2717 6.6908C16.3242 6.65687 16.3614 6.60469 16.3756 6.54494C16.3898 6.48519 16.38 6.42241 16.3482 6.36947C16.3164 6.31654 16.265 6.27746 16.2045 6.26025C16.144 6.24305 16.0791 6.24902 16.023 6.27694C14.8907 6.9415 13.9216 7.83944 13.1838 8.90765C12.0474 10.4343 11.1994 12.1457 10.6794 13.9618C10.6105 14.2616 11.0824 14.3897 11.1555 14.0892Z" fill="black"/>
<path d="M13.7067 4.77381C13.9285 4.55313 13.5792 4.21305 13.3622 4.43843C10.8867 7.11581 8.9333 10.21 7.59761 13.5694C7.49495 13.8619 7.96827 13.9873 8.07162 13.6969C9.383 10.4166 11.292 7.39371 13.7067 4.77381Z" fill="black"/>
<path d="M13.8672 62.4334C13.6922 62.1778 13.2658 62.418 13.4428 62.6749C15.274 65.348 17.8071 67.4948 20.779 68.8921C21.0628 69.0263 21.3129 68.6131 21.027 68.4789C18.129 67.1219 15.6569 65.0345 13.8672 62.4334Z" fill="black"/>
<path d="M19.7235 70.7944C20.0087 70.9231 20.2581 70.512 19.9715 70.3805C17.0654 69.0047 14.6315 66.8378 12.9647 64.1425C12.7966 63.8822 12.3722 64.1217 12.5396 64.3846C14.254 67.1472 16.7475 69.372 19.7235 70.7944Z" fill="black"/>
<path d="M26.7523 19.9215C26.6593 20.0737 26.4919 20.3239 26.2748 20.2904C26.0578 20.2568 25.9993 19.955 25.971 19.7873C25.9193 19.4841 25.4453 19.6129 25.497 19.9147C25.5058 20.1171 25.5838 20.3108 25.7186 20.465C25.8534 20.6192 26.0373 20.7251 26.2411 20.7659C26.44 20.7627 26.6339 20.7042 26.7998 20.5972C26.9657 20.4903 27.0967 20.3393 27.1774 20.1623C27.2061 20.1077 27.2122 20.0444 27.1945 19.9856C27.1769 19.9267 27.1367 19.8766 27.0823 19.8457C27.028 19.8147 26.9635 19.8052 26.9021 19.819C26.8407 19.8328 26.7871 19.869 26.7523 19.9201V19.9215Z" fill="black"/>
<path d="M5.10567 81.8854C5.34957 82.0772 5.69887 81.7412 5.45016 81.55C3.58095 80.0597 2.15912 78.1063 1.33438 75.8955C0.509643 73.6846 0.312531 71.2981 0.763803 68.9874C0.82581 68.6862 0.350423 68.5574 0.289105 68.8599C-0.184529 71.2521 0.0128394 73.7243 0.860445 76.0165C1.70805 78.3087 3.17456 80.3361 5.10567 81.8854Z" fill="#F7DA31"/>
<path d="M16.034 83.8547C15.7412 83.7387 15.6138 84.2008 15.9031 84.3169C16.7578 84.6601 17.529 85.174 18.1671 85.8254C18.3869 86.0488 18.7348 85.7094 18.5157 85.49C17.8152 84.7817 16.9698 84.2246 16.034 83.8547Z" fill="#77751E"/>
<path d="M37.4492 84.8427C37.5725 85.1258 38.0004 84.8816 37.8736 84.6013C37.5622 83.8885 37.2505 83.1759 36.9387 82.4635C36.8153 82.1805 36.3909 82.4246 36.5143 82.705C36.8257 83.4174 37.1373 84.1299 37.4492 84.8427Z" fill="#77751E"/>
<path d="M28.0972 60.4151C28.3762 60.5593 28.6256 60.1468 28.3452 60.0012C27.4942 59.5667 26.75 58.9578 26.1639 58.2164C25.9738 57.9749 25.5439 58.2123 25.7388 58.4578C26.3705 59.2684 27.1751 59.9362 28.0972 60.4151Z" fill="#43F7B2"/>
<path d="M27.7231 16.9949C26.1384 16.239 24.5669 16.7937 23.7877 18.7013C23.4742 19.3276 23.353 20.0286 23.4384 20.7203C23.4962 20.9567 23.6021 21.1794 23.7497 21.3752C23.8974 21.5711 24.0839 21.7361 24.2982 21.8606C24.6584 22.1154 25.0748 22.2845 25.5142 22.3544C25.9535 22.4243 26.4036 22.3931 26.8283 22.2632C27.2531 22.1333 27.6407 21.9084 27.9601 21.6065C28.2795 21.3045 28.5218 20.934 28.6676 20.5245C28.8966 19.8848 28.9706 19.2024 28.884 18.5303C28.8346 18.2013 28.7029 17.8892 28.5005 17.6215C28.2981 17.3537 28.0311 17.1385 27.7231 16.9949ZM28.2391 19.9322C28.1855 20.287 28.0442 20.6239 27.8272 20.9137C27.6103 21.2036 27.3243 21.4378 26.9937 21.5962C26.6632 21.7546 26.2981 21.8324 25.9299 21.823C25.5616 21.8135 25.2012 21.7171 24.8797 21.542C24.5079 21.3927 24.2092 21.1101 24.0454 20.7525C23.9162 20.1036 24.0219 19.4312 24.3444 18.8496C24.5765 18.213 25.0457 17.6845 25.6589 17.3686C26.1208 17.1863 26.6348 17.1732 27.1059 17.3315C27.577 17.4898 27.9732 17.809 28.2212 18.2298C28.3934 18.784 28.3996 19.3746 28.2391 19.9322Z" fill="black"/>
<path d="M31.3691 15.4026C31.8665 14.4005 30.709 13.0858 29.1582 13.3353L29.6783 12.9489C30.1241 12.6189 30.6271 12.2661 30.5099 11.6483C30.4449 11.39 30.2969 11.1585 30.0875 10.9876C29.8781 10.8167 29.6182 10.7152 29.3456 10.6979C28.7784 10.6504 28.2095 10.7683 27.7113 11.0366C27.3806 11.211 27.3951 11.2633 27.4358 11.1587C27.7313 10.3954 27.5439 9.46503 26.7137 9.27185C25.8725 9.1491 25.3144 9.83595 25.0974 10.6301C24.8004 11.5052 24.5529 12.3955 24.3561 13.2971C24.2313 13.6993 24.1707 14.1178 24.1763 14.538C24.2215 14.9204 24.4064 15.2743 24.6973 15.5351C24.9882 15.7959 25.3657 15.9462 25.7609 15.9586C27.1822 15.9928 28.6091 16.0116 30.0325 15.9586C30.5334 15.9432 31.1176 15.9076 31.3691 15.4026ZM25.7616 15.4026C25.5135 15.3928 25.2767 15.2994 25.0918 15.1382C24.9069 14.977 24.7853 14.7581 24.7481 14.5192C24.7393 14.2069 24.783 13.8954 24.8776 13.5969C25.0795 12.5351 25.3757 11.4924 25.7629 10.4806C25.8087 10.3431 25.8829 10.2162 25.9808 10.1076C26.0788 9.99909 26.1986 9.9112 26.3327 9.84937C26.3901 9.82712 26.4516 9.81645 26.5134 9.81799C26.5751 9.81954 26.6359 9.83326 26.6921 9.85834C26.7483 9.88343 26.7986 9.91934 26.8401 9.96391C26.8816 10.0085 26.9134 10.0608 26.9335 10.1177C27.0362 10.4519 27.0045 10.8116 26.8446 11.1238C26.6944 11.5263 26.5277 11.9287 26.3692 12.3312C26.25 12.6323 26.733 12.8121 26.8935 12.5465C27.5825 11.4149 28.9859 11.0212 29.6453 11.3706C29.7451 11.4216 29.8273 11.5002 29.8814 11.5965C29.9354 11.6928 29.959 11.8026 29.9491 11.9119C29.8961 12.1514 29.6046 12.3144 29.4207 12.4486L27.7224 13.7076C27.6634 13.7425 27.6193 13.7969 27.5981 13.8608C27.5768 13.9248 27.5799 13.994 27.6067 14.0559C27.6335 14.1178 27.6822 14.1683 27.7441 14.1982C27.8059 14.2281 27.8767 14.2353 27.9435 14.2187C28.6285 13.8876 29.4117 13.8033 30.1544 13.9806C30.429 14.0879 30.6589 14.2815 30.8076 14.5306C30.8781 14.5993 30.9265 14.6865 30.9468 14.7816C30.9671 14.8767 30.9584 14.9755 30.9218 15.0658C30.8852 15.1562 30.8223 15.2342 30.7408 15.2902C30.6593 15.3462 30.5628 15.3778 30.4631 15.3811C28.8979 15.4855 27.3275 15.4917 25.7616 15.3999V15.4026Z" fill="black"/>
<path d="M17.1936 104.745C14.7181 104.143 12.3599 103.152 10.2116 101.812C8.77323 100.921 7.5885 99.6918 6.76674 98.2378C5.40795 95.8902 4.2744 93.4257 3.38047 90.8755C3.35694 90.8156 3.31295 90.7653 3.25588 90.7332C3.19882 90.7011 3.13214 90.6891 3.06704 90.6991C3.00194 90.7092 2.94238 90.7408 2.89834 90.7885C2.8543 90.8363 2.82846 90.8973 2.82516 90.9614C2.82516 93.8544 2.45588 96.9144 3.48519 99.694C4.03304 101.143 4.98848 102.413 6.24236 103.358C7.49624 104.304 8.99799 104.887 10.576 105.041C12.7387 105.373 14.934 105.459 17.1171 105.296C17.4237 105.271 17.527 104.823 17.1936 104.745ZM11.4848 104.605C9.85057 104.507 8.26965 104.002 6.8942 103.137C5.67532 102.333 4.72702 101.197 4.16796 99.8711C3.22063 97.4221 3.31364 95.3998 3.3784 92.474C4.31058 94.8216 5.68369 97.9708 7.3627 100.08C9.29181 102.38 12.5355 103.877 15.4016 104.806C14.0927 104.829 12.7839 104.762 11.4848 104.605Z" fill="black"/>
<path d="M11.1947 14.1C11.8472 11.5511 13.9168 8.04639 16.2931 6.725C16.6162 6.5506 16.3234 6.06162 16.003 6.24272C14.8645 6.91063 13.8901 7.81342 13.1486 8.88752C12.0064 10.4147 11.1573 12.1304 10.6422 13.9517C10.5602 14.3019 11.1134 14.4508 11.1947 14.1Z" fill="black"/>
<path d="M13.3298 4.40687C10.8414 7.08322 8.88341 10.185 7.55491 13.5553C7.43641 13.8974 7.99034 14.0436 8.10608 13.7042C9.40802 10.4273 11.3153 7.41007 13.7336 4.80195C13.9954 4.54572 13.5896 4.14997 13.3298 4.40687Z" fill="black"/>
<path d="M21.0483 68.4441C18.1566 67.0904 15.6895 65.0082 13.9031 62.4133C13.6964 62.1155 13.201 62.3952 13.407 62.695C15.243 65.3732 17.781 67.5248 20.7583 68.927C21.0897 69.0826 21.3811 68.6004 21.0483 68.4441Z" fill="black"/>
<path d="M19.9922 70.3463C17.0919 68.975 14.6628 66.8136 12.9999 64.1244C12.8035 63.8205 12.3068 64.1009 12.5045 64.4068C14.2254 67.1738 16.724 69.4033 19.7049 70.8319C20.0356 70.9795 20.3249 70.4966 19.9922 70.3463Z" fill="black"/>
<path d="M27.0961 19.8075C27.0323 19.7731 26.9573 19.7639 26.8868 19.7819C26.8162 19.7999 26.7555 19.8436 26.7172 19.9041C26.5608 20.1603 26.3217 20.3957 26.1384 20.1569C26.0659 20.0429 26.0222 19.9137 26.011 19.78C25.9503 19.4258 25.3978 19.5787 25.4598 19.9282C25.4704 20.1392 25.5534 20.3406 25.6956 20.5002C25.8377 20.6597 26.0308 20.7682 26.2438 20.8082C26.4493 20.8055 26.6496 20.7458 26.8215 20.6363C26.9934 20.5268 27.1298 20.3719 27.2146 20.1898C27.233 20.1572 27.2445 20.1214 27.2485 20.0844C27.2525 20.0474 27.2488 20.01 27.2378 19.9744C27.2268 19.9388 27.2085 19.9057 27.1842 19.877C27.1599 19.8484 27.1299 19.8247 27.0961 19.8075Z" fill="black"/>
<path d="M5.07602 81.9135C5.13076 81.9644 5.20356 81.9928 5.27927 81.9928C5.35498 81.9928 5.42778 81.9644 5.48251 81.9135C5.53624 81.861 5.56641 81.79 5.56641 81.7159C5.56641 81.6419 5.53624 81.5708 5.48251 81.5184C3.62031 80.0323 2.20321 78.0857 1.37986 75.8827C0.556522 73.6798 0.357284 71.3018 0.803049 68.998C0.87608 68.6466 0.320772 68.497 0.251875 68.8491C-0.22226 71.2478 -0.0245525 73.7265 0.824255 76.0252C1.67306 78.3239 3.14168 80.3578 5.07602 81.9135Z" fill="black"/>
<path d="M16.0451 83.8165C15.9717 83.7973 15.8936 83.8071 15.8276 83.8436C15.7615 83.8801 15.7129 83.9405 15.6923 84.0117C15.6737 84.0832 15.6842 84.1589 15.7215 84.223C15.7589 84.2871 15.8203 84.3347 15.8928 84.3558C16.7408 84.6979 17.5057 85.2093 18.1382 85.857C18.3945 86.1172 18.8003 85.7228 18.5447 85.4626C17.8394 84.7491 16.9878 84.1882 16.0451 83.8165Z" fill="black"/>
<path d="M37.4113 84.8629C37.4501 84.9265 37.513 84.9727 37.5865 84.9915C37.66 85.0103 37.7381 85.0003 37.804 84.9635C37.8683 84.9248 37.9149 84.8635 37.9341 84.7924C37.9533 84.7212 37.9438 84.6456 37.9074 84.5811L36.9725 82.4434C36.9337 82.3796 36.8706 82.3333 36.797 82.3145C36.7233 82.2956 36.645 82.3058 36.5791 82.3428C36.5149 82.3816 36.4685 82.4429 36.4494 82.5141C36.4303 82.5852 36.44 82.6607 36.4764 82.7251C36.7901 83.4375 37.1018 84.1501 37.4113 84.8629Z" fill="black"/>
<path d="M28.0765 60.4493C28.4024 60.6176 28.6966 60.1354 28.3659 59.967C27.5211 59.5357 26.7822 58.9316 26.1998 58.1962C26.1599 58.1336 26.0968 58.0883 26.0236 58.0697C25.9504 58.0511 25.8726 58.0606 25.8064 58.0963C25.7738 58.1148 25.7453 58.1393 25.7225 58.1686C25.6997 58.1978 25.6831 58.2312 25.6735 58.2667C25.664 58.3022 25.6618 58.3392 25.6669 58.3756C25.6721 58.4119 25.6846 58.4469 25.7037 58.4786C26.3386 59.2951 27.1482 59.9676 28.0765 60.4493Z" fill="black"/>
<path d="M127.979 17.4985C126.193 15.4214 123.318 13.9199 120.444 14.3836C117.497 14.8587 115.413 17.3432 114.615 19.9457C114.15 21.5182 113.931 23.1477 113.966 24.7813C113.971 26.2532 114.07 27.7233 114.263 29.1837C117.126 28.6803 120.036 28.4533 122.947 28.5061L122.964 28.5099L122.985 28.5061C126.352 28.5116 129.698 29.0153 132.902 29.9992C131.437 24.8278 130.521 20.4566 127.979 17.4985ZM123.839 24.5932C123.162 25.8442 121.383 26.3148 119.994 26.2737C119.95 26.2727 119.907 26.2625 119.869 26.2436C119.83 26.2248 119.796 26.1978 119.77 26.1647C119.743 26.1316 119.725 26.0933 119.716 26.0526C119.707 26.0119 119.708 25.9698 119.719 25.9295C119.995 25.1926 120.125 24.413 120.102 23.6308C119.942 23.6537 119.778 23.6925 119.628 23.707C118.844 23.7712 118.054 23.7397 117.277 23.6133C117.218 23.5968 117.165 23.5625 117.127 23.5153C117.09 23.4681 117.069 23.4107 117.068 23.3514C117.053 22.8205 117.154 22.2925 117.366 21.8012C118.338 19.5931 121.934 19.5414 123.435 21.2476C123.839 21.7062 124.092 22.2677 124.164 22.8626C124.236 23.4574 124.123 24.0592 123.839 24.5932Z" fill="black"/>
<path d="M103.434 86.0686C102.588 86.5006 101.654 86.7553 100.696 86.8156C100.334 86.8384 89.416 86.8285 84.7166 86.8285C84.5793 88.2645 84.521 89.5962 84.4994 91.0764H102.458C102.533 91.0764 102.606 91.105 102.659 91.156C102.713 91.207 102.743 91.2761 102.743 91.3482C102.743 91.4203 102.713 91.4894 102.659 91.5404C102.606 91.5914 102.533 91.62 102.458 91.62H84.4906C84.5094 94.3439 84.6977 97.0644 85.0544 99.767C85.2309 101.527 85.4241 102.911 86.891 104.582C90.4541 108.638 96.5614 108.48 101.206 105.882C102.076 105.406 102.869 104.812 103.56 104.119C103.369 103.795 103.223 103.449 103.127 103.089C102.712 101.595 103.021 99.3048 103.242 97.7721C103.254 97.6907 104.865 87.5739 106.402 83.6139C105.54 84.5621 104.541 85.3886 103.434 86.0686Z" fill="#2755A0"/>
<path d="M48.125 91.0764H67.0049C66.4459 88.3978 65.522 85.7466 63.4522 83.9192C61.5077 82.2023 58.847 81.4759 56.2917 80.8051L47.2801 78.4387C47.237 78.4486 35.9344 81.0366 35.8609 81.0525C39.3341 84.2144 42.2259 87.9098 44.4157 91.9847C45.022 93.0848 45.411 94.2819 45.5632 95.5161C45.6157 96.0959 45.5818 96.6798 45.4626 97.2506C44.9198 99.3976 43.6849 101.328 41.9315 102.771C42.6382 103.412 42.6406 103.757 45.7357 112.229C46.7195 114.923 47.5788 115.788 51.1283 115.899C53.7179 115.982 56.3103 115.931 58.8941 115.747C62.1218 115.514 66.4092 114.795 67.9121 112.038C68.255 111.22 68.4181 110.344 68.3912 109.463C68.6027 103.491 68.1746 97.5134 67.1135 91.6238H48.125C48.0533 91.6176 47.9868 91.586 47.9383 91.5354C47.8898 91.4848 47.8629 91.4187 47.8629 91.3501C47.8629 91.2815 47.8898 91.2154 47.9383 91.1648C47.9868 91.1142 48.0533 91.0826 48.125 91.0764ZM61.8192 84.8961C62.235 85.6793 62.6505 86.4628 63.0657 87.2465C63.231 87.5587 62.7391 87.8336 62.5738 87.5206C62.1575 86.7374 61.742 85.9539 61.3273 85.1702C61.1596 84.8565 61.6539 84.5816 61.8192 84.8961Z" fill="#C0C195"/>
<path d="M139.155 74.7048C136.939 74.4336 134.762 73.9301 132.662 73.2033C132.864 74.2319 132.631 75.295 132.014 76.1606C131.429 76.795 130.634 77.2206 129.761 77.3676C128.888 77.5145 127.989 77.374 127.21 76.9692C126.742 76.6861 126.344 76.3076 126.047 75.8608C125.75 75.414 125.56 74.91 125.491 74.385C124.337 76.9479 120.201 77.471 118.658 75.0741C117.958 73.9749 117.6 72.7089 117.625 71.4232C116.366 73.3265 114.695 74.9508 112.723 76.1865C112.723 77.4862 112.759 77.5532 112.651 77.6613C112.598 77.7374 112.807 77.4953 107.434 82.634C106.09 85.5791 105.339 89.227 104.674 92.7698C104.195 95.3273 102.788 101.042 103.863 103.473C104.429 104.478 105.199 105.365 106.129 106.083C107.058 106.802 108.129 107.336 109.277 107.655C109.345 107.676 109.402 107.721 109.437 107.78C109.472 107.839 109.482 107.908 109.466 107.974C109.45 108.04 109.409 108.098 109.35 108.136C109.292 108.175 109.22 108.191 109.15 108.181C115.152 109.875 122.941 109.662 126.345 104.648C128.218 101.889 128.9 98.0204 131.173 92.967C132.312 90.4376 133.197 89.8787 134.979 88.3224C136.809 86.8886 138.252 85.0576 139.187 82.9827C140.215 80.3536 139.889 77.41 139.155 74.7048ZM109.807 85.4733C110.268 84.6883 110.738 83.9078 111.227 83.1388C111.265 83.0765 111.327 83.0312 111.4 83.0129C111.474 82.9945 111.551 83.0046 111.617 83.041C111.682 83.0773 111.73 83.1369 111.749 83.2067C111.768 83.2764 111.758 83.3506 111.719 83.4129C111.259 84.1982 110.786 84.9763 110.3 85.7474C110.261 85.8097 110.199 85.855 110.126 85.8733C110.053 85.8917 109.975 85.8816 109.909 85.8452C109.844 85.8089 109.797 85.7493 109.777 85.6795C109.758 85.6098 109.769 85.5356 109.807 85.4733Z" fill="#2755A0"/>
<path d="M145.972 38.9837C142.351 34.3136 137.156 30.9733 131.257 29.5233C128.554 28.8625 125.776 28.5209 122.985 28.506L122.964 28.5099C123.005 28.5131 123.046 28.525 123.082 28.5446C123.119 28.5642 123.15 28.5911 123.175 28.6234C123.199 28.6558 123.216 28.6928 123.224 28.7319C123.232 28.7711 123.231 28.8114 123.222 28.8502C123.105 29.8721 122.828 30.8714 122.399 31.8143C121.84 33.0234 120.943 33.2709 120.209 32.9435C118.863 32.3435 118.546 30.2999 118.592 28.8883C118.593 28.8218 118.62 28.7581 118.667 28.7091C118.714 28.6602 118.779 28.6294 118.848 28.6225C118.768 28.6096 116.78 28.7687 114.815 29.0847C108.116 30.1606 105.055 31.994 102.329 34.5523C97.9172 38.6705 94.2718 43.4741 91.549 48.7578L91.5442 48.7715C91.5605 48.7422 91.5827 48.7163 91.6095 48.6952C91.6363 48.6741 91.6672 48.6583 91.7004 48.6486C91.7336 48.6389 91.7685 48.6355 91.8031 48.6387C91.8377 48.6419 91.8713 48.6516 91.9019 48.6672C92.3659 48.9024 104.632 54.2421 106.076 54.9038C106.133 54.9345 106.176 54.9835 106.197 55.042C106.219 55.1005 106.217 55.1644 106.193 55.222C106.219 55.1834 106.24 55.1417 106.254 55.0979C106.637 56.7014 106.886 58.3308 107.107 59.9625H109.912C110.278 59.9538 110.642 60.0155 110.983 60.1438C111.323 60.2721 111.633 60.4644 111.894 60.7093C112.155 60.9542 112.361 61.2467 112.501 61.5693C112.641 61.8919 112.711 62.238 112.707 62.5871C112.974 61.968 113.369 61.4064 113.868 60.9355C114.367 60.4647 114.96 60.0942 115.612 59.846C117.117 59.3449 118.715 59.1481 120.305 59.2681C127.793 59.7745 126.364 59.8338 133.269 60.682C133.004 57.4853 133.084 54.2711 133.508 51.0899C133.525 51.0329 133.561 50.9827 133.61 50.9468C133.66 50.9108 133.72 50.8911 133.782 50.8904C136.897 50.8493 144.315 50.5554 150.12 50.1526C150.182 50.1529 150.242 50.1724 150.292 50.2082C150.341 50.2441 150.377 50.2943 150.394 50.3514C149.857 46.2883 148.343 42.3982 145.972 38.9837Z" fill="#CCEAFF"/>
<path d="M123.432 21.2499C121.691 19.2703 116.994 19.5802 117.068 23.3537C117.069 23.4129 117.09 23.4704 117.127 23.5176C117.165 23.5647 117.217 23.5991 117.277 23.6156C117.805 23.6984 118.339 23.7414 118.874 23.7443C119.287 23.7524 119.699 23.7151 120.102 23.6331C120.126 24.4153 119.996 25.1948 119.72 25.9318C119.71 25.9669 119.708 26.0034 119.714 26.0393C119.719 26.0752 119.732 26.1097 119.751 26.1409C119.77 26.1721 119.796 26.1993 119.827 26.221C119.857 26.2428 119.892 26.2586 119.928 26.2675C120.76 26.3103 121.59 26.1677 122.354 25.8511C122.797 25.6693 123.189 25.3898 123.497 25.0355C123.805 24.6812 124.02 24.2623 124.126 23.8132C124.231 23.364 124.223 22.8975 124.102 22.4519C123.982 22.0063 123.752 21.5943 123.432 21.2499Z" fill="#FFD2D2"/>
<path d="M45.5632 95.5161C45.411 94.2819 45.022 93.0849 44.4157 91.9848C42.2228 87.9107 39.3302 84.2153 35.8577 81.0518C33.7017 81.5087 31.0768 81.9609 29.1244 82.3013C22.7664 83.4091 14.2028 84.6951 7.77934 84.9738C7.04149 85.0058 6.24454 85.0408 5.446 85.0119C5.37668 85.0098 5.31042 84.9842 5.25916 84.9397C5.20791 84.8951 5.17505 84.8346 5.16651 84.769C5.16927 84.8649 5.17888 84.9606 5.19525 85.0553C5.27938 85.7395 5.45849 86.4101 5.72788 87.0494C7.26907 90.7467 11.1372 93.2319 14.8936 94.9801C12.8421 95.7179 10.7571 96.3704 8.73999 97.192C7.54218 97.5811 6.44967 98.2184 5.54102 99.0582C4.49014 100.189 4.46459 101.47 4.86545 102.934C5.70262 105.517 6.93385 107.968 8.51959 110.209C9.39799 111.483 11.1284 113.77 12.6584 114.228C13.2393 114.349 13.8395 114.36 14.4248 114.26C15.8792 113.992 17.315 113.639 18.7242 113.203C26.4285 111.092 36.0582 108.09 41.9314 102.772C43.6849 101.329 44.9198 99.3984 45.4626 97.2514C45.5819 96.6804 45.6157 96.0962 45.5632 95.5161ZM42.0856 93.6073C42.4465 94.4159 42.8077 95.2248 43.1692 96.0339C43.3121 96.3522 42.8202 96.6293 42.6773 96.308C42.3158 95.4994 41.9551 94.6903 41.5953 93.8806C41.4507 93.5631 41.9426 93.286 42.0856 93.6073ZM17.8562 95.1864C18.9398 95.6056 19.9192 96.237 20.7309 97.0397C20.9849 97.2917 20.5816 97.677 20.3269 97.4204C19.5873 96.681 18.6934 96.0977 17.7028 95.708C17.369 95.5793 17.5168 95.0547 17.8562 95.1864Z" fill="#C0C195"/>
<path d="M106.08 54.9038C104.977 54.3989 92.0704 48.7707 91.9315 48.6824C91.9008 48.6622 91.866 48.6485 91.8294 48.642C91.7927 48.6356 91.7551 48.6366 91.7189 48.645C91.6827 48.6534 91.6488 48.669 91.6194 48.6908C91.5899 48.7126 91.5657 48.7401 91.5482 48.7714C91.3885 48.9603 90.0421 51.7858 89.3721 53.3216C87.8513 47.2914 85.8409 41.3831 83.3591 35.6502C85.2978 34.0276 87.0389 32.2022 88.5496 30.2085C89.0909 29.6281 89.446 28.9116 89.5726 28.1444C89.6676 26.6002 87.7359 25.9607 86.1867 26.4046C84.5513 26.8713 83.3479 28.0248 81.9656 28.9035C80.5482 29.8034 78.833 30.2024 77.6695 29.0085C77.1878 28.5067 76.7712 27.9515 76.4285 27.3548C76.4285 27.3548 72.2617 21.0671 71.4848 19.8276C69.914 17.3195 67.4793 17.0378 66.2367 18.32C65.8107 18.7787 65.5098 19.3305 65.3608 19.9266C65.2118 20.5226 65.2191 21.1445 65.3823 21.7372C65.9054 23.2656 66.6251 24.7265 67.5248 26.0863C67.8234 26.6299 68.4535 27.4797 67.7404 27.9738C67.2197 28.3347 66.4843 27.8916 66.0123 27.6373C63.7517 26.419 61.729 23.9148 59.1529 23.5189C56.7069 23.1382 55.4572 25.9157 56.5736 27.8725C58.003 30.2013 59.892 32.2439 62.1362 33.8876C62.7607 34.3658 62.5523 34.7411 61.7952 34.7145C59.4651 34.633 56.8283 32.9678 54.4239 33.4559C52.842 33.7772 52.4419 35.3845 53.1215 36.7421C53.8623 37.9916 55.0543 38.9416 56.4753 39.4154C58.0078 40.0245 59.612 40.4303 60.9727 41.376C65.8295 44.752 66.3302 51.9944 67.7388 56.6801C69.8684 55.8099 72.1161 55.2306 74.4154 54.9593C75.0152 54.883 75.6236 55.0184 76.1259 55.34C76.3129 55.4955 76.4649 55.6855 76.5728 55.8986C76.6807 56.1116 76.7422 56.3433 76.7536 56.5796C76.8574 58.3932 74.8698 59.2719 73.3621 60.082L70.1408 61.8196C70.5143 62.337 70.9258 62.8286 71.3722 63.2906C74.2853 63.3621 75.9366 63.0622 78.0001 63.1528C82.4599 63.3462 82.745 66.8912 79.5652 68.2206C81.3897 68.8414 83.2909 69.2338 85.2213 69.3879V62.5825C85.2219 62.2296 85.2971 61.8804 85.4424 61.5558C85.5877 61.2312 85.8001 60.9379 86.0669 60.6934C86.3338 60.4488 86.6496 60.2581 86.9955 60.1325C87.3414 60.0069 87.7102 59.9491 88.0801 59.9625H103.435C104.511 58.4912 105.431 56.9213 106.18 55.2761C106.186 55.2584 106.191 55.2403 106.195 55.222C106.219 55.1646 106.221 55.1009 106.2 55.0425C106.179 54.984 106.136 54.9348 106.08 54.9038ZM77.2582 31.2859C76.9179 32.634 76.2234 33.8773 75.2401 34.8989C74.2567 35.9204 73.0169 36.6865 71.6373 37.1251C71.2883 37.2362 71.1398 36.7116 71.4864 36.6012C72.7711 36.1881 73.9244 35.4702 74.838 34.5151C75.7516 33.5599 76.3954 32.3989 76.7088 31.1412C76.7935 30.8009 77.3437 30.9455 77.2582 31.2859ZM89.0831 57.9494L88.98 55.8357C88.9625 55.4855 89.5326 55.4877 89.5502 55.8357L89.6532 57.9494C89.6676 58.2996 89.1006 58.2981 89.0831 57.9494Z" fill="#FFD2D2"/>
<path d="M47.9932 53.8469C47.9932 53.8469 47.9884 38.8884 47.9932 37.2956C48.015 35.6366 47.387 34.0296 46.232 32.7887C45.0769 31.5479 43.478 30.7625 41.7478 30.5861C40.7602 30.5165 39.7693 30.4982 38.7796 30.5313C36.1061 30.5694 35.06 30.5092 34.9666 30.5169C35.0374 30.5217 35.1036 30.5518 35.152 30.6012C35.2005 30.6506 35.2275 30.7157 35.2277 30.7833C34.8196 33.9718 34.1735 37.1284 33.2944 40.2293C33.1938 40.5711 33.0126 41.4917 32.5758 41.082C30.6513 39.2691 27.1704 32.5467 26.2098 30.8793C26.1869 30.8398 26.1748 30.7955 26.1743 30.7504C26.1738 30.7053 26.1851 30.6608 26.2071 30.6209C26.2291 30.581 26.2611 30.5469 26.3003 30.5217C26.3395 30.4965 26.3847 30.481 26.4318 30.4765C26.2673 30.4605 12.6545 30.3943 12.2736 30.4004C16.4017 30.8617 20.3135 32.4101 23.5706 34.8721C29.4223 39.5014 33.4094 46.5603 46.3658 53.1655C46.69 53.3307 46.4017 53.7997 46.0783 53.6345C43.3159 52.2263 40.6711 50.6178 38.1672 48.8232C28.5439 41.9287 26.3846 36.3362 19.514 33.0356C17.2393 31.9223 14.7714 31.2125 12.2305 30.941C11.9007 30.9082 11.8711 30.4605 12.1442 30.408C10.5806 30.412 9.06348 30.9151 7.83471 31.8371C6.60595 32.759 5.73635 34.0468 5.36459 35.4949C5.05156 37.055 5.16016 33.3896 5.16016 84.7445C5.16331 84.8158 5.19447 84.8833 5.24743 84.9337C5.3004 84.984 5.3713 85.0135 5.44604 85.0163C6.24458 85.0453 7.04872 85.0102 7.77938 84.9783C14.2037 84.6996 22.7688 83.4136 29.1244 82.3058C35.4801 81.1979 33.5372 81.5763 47.7497 78.3328C48.546 78.4939 49.3551 78.5914 50.1685 78.6244C50.0375 78.6023 49.8922 78.5033 49.9113 78.3594C51.185 68.6318 51.0844 63.3933 52.3645 56.543C52.3841 56.4768 52.4295 56.4202 52.4913 56.3847C52.5532 56.3492 52.6269 56.3375 52.6974 56.3519C51.0184 55.7224 49.436 54.8798 47.9932 53.8469ZM29.5972 66.0834C30.2765 66.925 31.139 67.6162 32.1254 68.1095C32.4504 68.2732 32.1613 68.7429 31.8379 68.5792C30.7691 68.0356 29.8366 67.2776 29.1045 66.3575C28.8825 66.0788 29.3776 65.8093 29.5972 66.0834ZM25.2108 67.5742C29.5844 71.7337 37.5651 75.9542 46.2979 77.4899C46.6589 77.5531 46.5055 78.0769 46.1462 78.0137C39.2801 76.8452 32.8122 74.1107 27.2942 70.0434C22.3792 66.3605 21.0065 63.0697 16.7327 59.6183C14.9422 58.1402 12.6997 57.2519 10.3379 57.0851C9.97218 57.0631 9.97138 56.5225 10.3379 56.5415C17.2341 56.8986 20.4075 63.005 25.2108 67.5742ZM13.806 73.0852C13.6119 72.7867 14.1038 72.5149 14.2987 72.8103C16.2301 75.8702 19.0512 78.33 22.4199 79.8914C22.7521 80.0436 22.463 80.5073 22.1324 80.3611C18.6831 78.7466 15.793 76.2211 13.806 73.0852ZM15.3448 70.8703C17.419 73.8229 20.2843 76.1924 23.6432 77.7328C23.9746 77.8851 23.6848 78.3533 23.3558 78.2018C19.9113 76.6156 16.9752 74.1787 14.8529 71.1444C14.6477 70.8528 15.142 70.5817 15.3448 70.8703Z" fill="#43F7B2"/>
<path d="M81.6542 65.2923C81.3803 63.7078 79.4422 63.2152 78.0024 63.1528C75.3433 63.037 71.7994 63.6964 68.0901 62.9243L73.3605 60.0805C74.8977 59.2506 76.8565 58.4001 76.7519 56.5781C76.7405 56.3417 76.6791 56.1101 76.5712 55.897C76.4633 55.684 76.3113 55.494 76.1243 55.3385C75.6219 55.0169 75.0136 54.8815 74.4138 54.9578C68.2962 55.6819 66.624 57.9212 61.9222 57.944C58.778 57.9327 55.6607 57.3914 52.7142 56.3451H52.6966C52.626 56.3307 52.5523 56.3424 52.4905 56.3779C52.4287 56.4134 52.3833 56.47 52.3636 56.5362C51.0796 63.4078 51.1969 68.526 49.9105 78.3526C49.8913 78.4965 50.0367 78.5955 50.1676 78.6176C50.1772 78.6176 50.1868 78.6236 50.1956 78.6244C54.6027 78.9967 59.1201 78.6061 63.4594 79.5282C67.4353 80.3733 68.3097 81.319 72.4757 81.7629C73.1794 81.8412 73.8921 81.8034 74.5823 81.651C75.1843 81.4856 75.7181 81.1469 76.1105 80.6812C76.5029 80.2155 76.7347 79.6455 76.7743 79.0493C76.7703 78.0983 76.0109 77.4062 75.3617 76.7696C73.4156 74.8661 72.023 74.5418 69.4429 73.0243C69.066 72.8027 68.4615 72.55 68.368 72.0893C68.3462 71.8747 68.3889 71.6587 68.4912 71.4664C68.5934 71.2741 68.7509 71.1136 68.9454 71.0036C69.6002 70.635 69.2648 70.7668 75.7905 69.2204C77.0742 68.9785 78.3366 68.6435 79.5668 68.2184C81.2621 67.5095 81.8259 66.2836 81.6542 65.2923ZM61.9517 62.919L64.678 62.5383C65.0373 62.4881 65.1906 63.0119 64.8289 63.0629L62.1034 63.4436C61.7441 63.4939 61.59 62.9677 61.9517 62.919ZM62.2624 71.7246H64.9926C65.0682 71.7246 65.1407 71.7532 65.1942 71.8042C65.2476 71.8552 65.2777 71.9243 65.2777 71.9964C65.2777 72.0685 65.2476 72.1377 65.1942 72.1886C65.1407 72.2396 65.0682 72.2682 64.9926 72.2682H62.2624C62.224 72.2695 62.1859 72.2633 62.1501 72.2503C62.1143 72.2372 62.0816 72.2174 62.054 72.192C62.0264 72.1667 62.0044 72.1363 61.9893 72.1027C61.9742 72.0691 61.9663 72.033 61.9661 71.9964C61.9653 71.9596 61.9724 71.9229 61.9872 71.8888C62.0019 71.8548 62.0239 71.8239 62.0517 71.7983C62.0795 71.7727 62.1126 71.7529 62.1489 71.7401C62.1851 71.7273 62.2238 71.7217 62.2624 71.7238V71.7246Z" fill="#FC9070"/>
<path d="M122.967 28.5099C122.887 28.4916 120.899 28.4726 118.88 28.6165C118.805 28.619 118.734 28.6484 118.681 28.6988C118.628 28.7493 118.597 28.817 118.595 28.8883C118.557 29.801 118.697 30.7124 119.006 31.5768C119.124 31.9241 119.328 32.2393 119.601 32.4959C119.873 32.7525 120.206 32.9431 120.572 33.0517C121.479 33.1872 122.062 32.5514 122.402 31.8144C122.831 30.8714 123.109 29.8721 123.225 28.8503C123.235 28.8115 123.236 28.7711 123.227 28.732C123.219 28.6928 123.202 28.6558 123.178 28.6235C123.153 28.5911 123.122 28.5642 123.085 28.5446C123.049 28.525 123.009 28.5132 122.967 28.5099Z" fill="#FFD2D2"/>
<path d="M109.277 107.655C106.988 107.014 105.055 105.54 103.896 103.55C102.677 101.038 104.363 94.451 105.107 90.5587C105.576 87.8469 106.352 85.1917 107.423 82.6401L106.41 83.6064C105.798 85.2139 105.311 86.8622 104.953 88.5379C104.911 88.7184 103.06 98.5755 103.042 98.7331C102.864 100.276 102.717 102.374 103.381 103.78C104.614 105.908 106.677 107.489 109.123 108.178C109.195 108.195 109.271 108.185 109.335 108.149C109.399 108.113 109.446 108.055 109.466 107.987C109.486 107.918 109.477 107.846 109.441 107.783C109.405 107.721 109.345 107.675 109.274 107.654L109.277 107.655Z" fill="#2755A0"/>
<path d="M108.137 75.3025C107.703 75.4091 109.043 75.3786 90.3927 75.3786C89.7395 75.3786 89.1131 75.1312 88.6513 74.6908C88.1894 74.2505 87.93 73.6532 87.93 73.0304V64.6588C87.93 64.3505 87.9937 64.0452 88.1174 63.7604C88.2412 63.4755 88.4226 63.2167 88.6513 62.9987C88.88 62.7807 89.1515 62.6078 89.4503 62.4899C89.7491 62.372 90.0693 62.3113 90.3927 62.3114H107.555C108.208 62.3114 108.834 62.5587 109.296 62.9989C109.758 63.4391 110.017 64.0362 110.018 64.6588V67.9565C110.755 66.3476 111.84 64.1495 112.713 62.5871C112.716 62.2381 112.646 61.892 112.506 61.5694C112.366 61.2469 112.16 60.9545 111.899 60.7096C111.638 60.4647 111.329 60.2723 110.988 60.144C110.648 60.0156 110.284 59.9539 109.918 59.9625H88.0841C87.7142 59.9491 87.3453 60.0069 86.9994 60.1325C86.6536 60.2581 86.3378 60.4488 86.0709 60.6934C85.8041 60.938 85.5917 61.2313 85.4464 61.5559C85.3011 61.8804 85.2259 62.2296 85.2253 62.5825V77.3042C85.0153 77.4762 79.5916 82.7497 77.9378 84.2679C76.9524 85.1732 77.2902 86.9983 79.5852 86.8285C79.5852 86.8285 99.6965 86.878 100.698 86.8156C101.656 86.7553 102.59 86.5006 103.436 86.0686C104.921 85.2113 104.794 85.1047 112.642 77.6757C112.761 77.5075 112.722 77.6483 112.722 76.1864C110.484 77.4009 108.725 76.6897 108.137 75.3025ZM101.904 83.4639H82.5789C82.5033 83.4639 82.4308 83.4353 82.3773 83.3843C82.3239 83.3333 82.2939 83.2642 82.2939 83.1921C82.2939 83.12 82.3239 83.0509 82.3773 82.9999C82.4308 82.9489 82.5033 82.9203 82.5789 82.9203H101.904C101.979 82.9203 102.052 82.9489 102.105 82.9999C102.159 83.0509 102.189 83.12 102.189 83.1921C102.189 83.2642 102.159 83.3333 102.105 83.3843C102.052 83.4353 101.979 83.4639 101.904 83.4639ZM104.913 80.5188H85.3491C85.2735 80.5188 85.201 80.4902 85.1475 80.4392C85.094 80.3882 85.064 80.3191 85.064 80.247C85.064 80.1749 85.094 80.1057 85.1475 80.0548C85.201 80.0038 85.2735 79.9752 85.3491 79.9752H104.913C104.989 79.9752 105.062 80.0038 105.115 80.0548C105.168 80.1057 105.198 80.1749 105.198 80.247C105.198 80.3191 105.168 80.3882 105.115 80.4392C105.062 80.4902 104.989 80.5188 104.913 80.5188Z" fill="#F7DA31"/>
<path d="M110.017 64.6589C110.017 64.3505 109.953 64.0452 109.829 63.7604C109.706 63.4755 109.524 63.2167 109.296 62.9987C109.067 62.7807 108.795 62.6079 108.497 62.4899C108.198 62.372 107.878 62.3114 107.554 62.3115H90.3927C90.0693 62.3114 89.7491 62.372 89.4503 62.4899C89.1515 62.6079 88.88 62.7807 88.6514 62.9987C88.4227 63.2167 88.2412 63.4755 88.1175 63.7604C87.9937 64.0452 87.93 64.3505 87.93 64.6589V73.0282C87.9297 73.3367 87.9931 73.6423 88.1168 73.9275C88.2404 74.2126 88.4217 74.4718 88.6505 74.69C88.8792 74.9083 89.1508 75.0815 89.4497 75.1997C89.7487 75.3178 90.0691 75.3786 90.3927 75.3786C108.934 75.3786 107.704 75.4106 108.137 75.3025C107.593 74.0484 108.116 72.3406 108.651 71.0836C109.595 68.8648 109.31 69.4991 110.017 67.9565V64.6589Z" fill="white"/>
<path d="M12.2305 30.9387C16.0404 31.3726 19.6648 32.75 22.7433 34.9338C28.48 39.1679 32.6285 46.7759 46.0783 53.6323C46.4017 53.7975 46.69 53.3277 46.3658 53.1632C31.2757 45.4708 28.076 36.8152 20.4579 32.8925C17.9144 31.5545 15.1196 30.7067 12.2329 30.3974C11.8735 30.3684 11.8655 30.9022 12.2305 30.9387Z" fill="#43F7B2"/>
<path d="M150.393 50.3476C150.376 50.2905 150.34 50.2403 150.29 50.2044C150.241 50.1686 150.18 50.1491 150.118 50.1489C143.706 50.5935 136.331 50.8532 133.781 50.8867C133.719 50.8873 133.658 50.9071 133.609 50.943C133.559 50.9789 133.523 51.0291 133.506 51.0862C133.084 54.2695 133.006 57.4858 133.274 60.6844C126.326 59.8308 127.815 59.7775 120.309 59.2704C118.72 59.1504 117.122 59.3472 115.617 59.8483C114.965 60.0963 114.372 60.4667 113.873 60.9376C113.374 61.4085 112.979 61.9702 112.712 62.5894C111.2 65.3503 109.845 68.1865 108.651 71.0858C108.354 71.7819 108.129 72.5041 107.981 73.2421C107.371 76.2999 110.216 78.3336 113.97 75.3489C115.404 74.2396 116.638 72.9143 117.624 71.4254C117.598 72.7101 117.956 73.9753 118.655 75.0741C120.229 77.5212 124.363 76.8839 125.488 74.385C125.557 74.91 125.746 75.414 126.044 75.8608C126.341 76.3076 126.738 76.6861 127.207 76.9692C127.985 77.374 128.885 77.5145 129.758 77.3676C130.631 77.2206 131.425 76.795 132.011 76.1606C132.628 75.2949 132.861 74.2319 132.659 73.2033C134.758 73.9303 136.936 74.4338 139.152 74.7048C140.947 74.9457 142.777 74.7357 144.46 74.0957C147.591 72.834 149.571 69.6224 150.144 66.5692C151.11 61.2072 151.194 55.7343 150.393 50.3476ZM144.559 71.7429C145.207 71.3271 145.794 70.8306 146.305 70.2666C146.586 69.9574 147.056 70.4082 146.775 70.715C146.225 71.3175 145.592 71.8472 144.895 72.2904C144.537 72.518 144.208 71.9691 144.559 71.7429ZM139.783 62.2254C137.963 61.8289 136.116 61.5521 134.255 61.397C133.831 61.3612 133.829 60.727 134.255 60.7628C136.175 60.9217 138.081 61.2061 139.96 61.614C140.375 61.7016 140.2 62.313 139.783 62.2224V62.2254ZM125.798 70.4729C126.215 69.6908 126.514 68.8564 126.687 67.9946C126.767 67.5933 127.411 67.7661 127.326 68.1636C127.137 69.0784 126.815 69.9634 126.368 70.7927C126.177 71.1536 125.602 70.8323 125.798 70.4699V70.4729ZM118.078 67.9816L119.047 65.4203C119.191 65.0396 119.833 65.204 119.686 65.5893C119.363 66.4431 119.04 67.2969 118.717 68.1506C118.575 68.526 117.936 68.3631 118.078 67.9786V67.9816Z" fill="#FFD2D2"/>
<path d="M46.2979 77.49C37.5938 75.9596 29.6028 71.7521 25.2108 67.5743C20.4195 63.015 17.2254 56.9009 10.3379 56.5416C9.97139 56.5225 9.97219 57.0631 10.3379 57.0852C12.6997 57.252 14.9422 58.1403 16.7327 59.6184C21.0448 63.098 22.356 66.3438 27.2942 70.0435C32.8128 74.1103 39.2808 76.8448 46.147 78.0138C46.5055 78.077 46.6589 77.5532 46.2979 77.49Z" fill="#43F7B2"/>
<path d="M102.458 91.62C102.533 91.62 102.606 91.5914 102.659 91.5404C102.713 91.4894 102.743 91.4203 102.743 91.3482C102.743 91.2761 102.713 91.2069 102.659 91.156C102.606 91.105 102.533 91.0764 102.458 91.0764H48.125C48.0493 91.0764 47.9768 91.105 47.9234 91.156C47.8699 91.2069 47.8399 91.2761 47.8399 91.3482C47.8399 91.4203 47.8699 91.4894 47.9234 91.5404C47.9768 91.5914 48.0493 91.62 48.125 91.62C66.1664 91.9314 84.3117 91.9329 102.458 91.62Z" fill="#F7DA31"/>
<path d="M93.82 125.428C92.9776 125.272 78.3051 122.737 76.2896 122.403V94.3694C76.2896 94.2973 76.2596 94.2282 76.2061 94.1772C76.1526 94.1262 76.0801 94.0976 76.0045 94.0976C75.9289 94.0976 75.8564 94.1262 75.8029 94.1772C75.7495 94.2282 75.7194 94.2973 75.7194 94.3694V122.407C74.7061 122.596 71.0288 123.412 58.0916 125.217C57.7298 125.267 57.884 125.791 58.2433 125.741C61.2155 125.327 71.8888 123.769 76.0253 122.904C80.7215 123.596 89.2012 125.124 93.6683 125.95C94.0268 126.019 94.1802 125.495 93.82 125.428Z" fill="#F7DA31"/>
<path d="M134.92 3.50247C135.095 3.19791 134.601 2.92 134.428 3.22837L130.299 10.4914C130.124 10.7959 130.619 11.0738 130.791 10.7655C131.257 9.94544 134.749 3.80703 134.92 3.50247Z" fill="black"/>
<path d="M133.171 12.2845L139.384 8.02595C139.68 7.82342 139.395 7.35135 139.097 7.55616L132.884 11.8147C132.589 12.0172 132.873 12.487 133.171 12.2845Z" fill="black"/>
<path d="M122.852 49.0867C122.552 47.7527 119.956 36.2236 119.953 36.2068C119.889 35.9267 119.489 35.9716 119.403 36.2068C119.103 37.0261 114.656 49.1682 114.536 49.5313C114.433 49.8428 114.775 50.1526 114.952 50.3948C118.027 54.6883 117.836 54.4409 117.906 54.4873C117.931 54.5134 117.96 54.5343 117.993 54.5486C118.027 54.5629 118.063 54.5703 118.099 54.5703C118.136 54.5703 118.172 54.5629 118.205 54.5486C118.238 54.5343 118.268 54.5134 118.292 54.4873C119.262 53.4137 122.254 50.2996 122.742 49.7841C122.995 49.51 122.94 49.475 122.852 49.0867Z" fill="#2755A0"/>
<path d="M70.9018 120.149C67.031 118.449 62.8591 117.46 58.6042 117.233C54.0248 117.107 49.4888 118.112 45.4363 120.149C45.384 120.18 45.3436 120.227 45.3211 120.281C45.2986 120.336 45.2952 120.396 45.3114 120.453C45.3276 120.51 45.3626 120.56 45.4111 120.597C45.4596 120.633 45.5191 120.654 45.5808 120.655H70.7581C71.0216 120.655 71.1709 120.264 70.9018 120.149Z" fill="black"/>
<path d="M123.024 114.813C117.833 112.597 111.755 111.298 106.094 112.14C103.83 111.311 101.477 110.721 99.0777 110.38C94.4943 109.646 89.7867 110.154 85.4913 111.846C84.576 112.182 83.6815 112.567 82.8121 112.999C82.7597 113.031 82.7192 113.077 82.6966 113.132C82.674 113.187 82.6705 113.248 82.6866 113.305C82.7026 113.362 82.7375 113.413 82.7859 113.449C82.8344 113.486 82.894 113.507 82.9559 113.509H100.629C99.5774 113.883 98.5509 114.318 97.5556 114.813C97.5033 114.844 97.4629 114.891 97.4405 114.945C97.418 115 97.4146 115.061 97.4308 115.117C97.447 115.174 97.482 115.224 97.5305 115.261C97.579 115.297 97.6385 115.318 97.7002 115.319H122.881C123.143 115.319 123.293 114.928 123.024 114.813Z" fill="black"/>
<path d="M143.208 80.314C143.247 79.9661 142.678 79.9691 142.638 80.314C142.326 82.9121 141.381 85.4047 139.88 87.5935C138.379 89.7822 136.363 91.6065 133.992 92.9213C133.917 92.9815 133.856 93.0565 133.814 93.1411C133.772 93.2257 133.749 93.318 133.748 93.4116C135.318 99.0749 137.008 107.025 138.122 112.721C138.19 113.064 138.74 112.919 138.673 112.576C137.373 105.938 135.906 99.5074 134.323 93.3659C136.769 92.0016 138.846 90.1108 140.389 87.8446C141.932 85.5784 142.897 82.9995 143.208 80.314Z" fill="#F7DA31"/>
<path d="M110.3 85.7473C110.787 84.9773 111.26 84.1991 111.719 83.4128C111.757 83.3506 111.768 83.2764 111.749 83.2066C111.73 83.1369 111.682 83.0773 111.617 83.0409C111.551 83.0046 111.474 82.9944 111.4 83.0128C111.327 83.0311 111.265 83.0764 111.227 83.1387C110.738 83.9078 110.268 84.6882 109.807 85.4732C109.788 85.504 109.776 85.5381 109.771 85.5735C109.766 85.6089 109.768 85.6449 109.777 85.6794C109.787 85.714 109.803 85.7464 109.826 85.7748C109.849 85.8032 109.877 85.8271 109.909 85.8451C109.942 85.8631 109.978 85.8749 110.015 85.8797C110.052 85.8845 110.089 85.8823 110.126 85.8732C110.162 85.8642 110.196 85.8484 110.226 85.8268C110.256 85.8051 110.281 85.7781 110.3 85.7473Z" fill="#2755A0"/>
<path d="M62.5738 87.5191C62.7391 87.832 63.231 87.5572 63.0657 87.245C62.6505 86.4618 62.235 85.6783 61.8192 84.8946C61.6539 84.5816 61.162 84.8565 61.3273 85.1687C61.7425 85.9514 62.158 86.7349 62.5738 87.5191Z" fill="#C0C195"/>
<path d="M104.913 79.9752H85.3491C85.2735 79.9752 85.201 80.0039 85.1475 80.0548C85.094 80.1058 85.064 80.1749 85.064 80.247C85.064 80.3191 85.094 80.3883 85.1475 80.4392C85.201 80.4902 85.2735 80.5189 85.3491 80.5189H104.913C104.989 80.5189 105.062 80.4902 105.115 80.4392C105.168 80.3883 105.198 80.3191 105.198 80.247C105.198 80.1749 105.168 80.1058 105.115 80.0548C105.062 80.0039 104.989 79.9752 104.913 79.9752Z" fill="white"/>
<path d="M101.904 82.9203H82.5789C82.5033 82.9203 82.4308 82.9489 82.3773 82.9999C82.3239 83.0509 82.2938 83.12 82.2938 83.1921C82.2938 83.2642 82.3239 83.3333 82.3773 83.3843C82.4308 83.4353 82.5033 83.4639 82.5789 83.4639H101.904C101.979 83.4639 102.052 83.4353 102.105 83.3843C102.159 83.3333 102.189 83.2642 102.189 83.1921C102.189 83.12 102.159 83.0509 102.105 82.9999C102.052 82.9489 101.979 82.9203 101.904 82.9203Z" fill="white"/>
<path d="M76.7088 31.1413C76.3954 32.399 75.7516 33.56 74.838 34.5151C73.9244 35.4703 72.771 36.1882 71.4863 36.6013C71.1398 36.7117 71.2883 37.2363 71.6372 37.1251C73.0168 36.6866 74.2567 35.9204 75.24 34.8989C76.2234 33.8774 76.9179 32.634 77.2582 31.2859C77.3436 30.9456 76.7934 30.8009 76.7088 31.1413Z" fill="#FF4848"/>
<path d="M62.1035 63.4429L64.8289 63.0622C65.1907 63.0112 65.0374 62.4873 64.678 62.5376L61.9518 62.9183C61.59 62.9678 61.7442 63.4939 62.1035 63.4429Z" fill="#FF4848"/>
<path d="M62.2624 71.7239C62.1868 71.7239 62.1143 71.7525 62.0608 71.8035C62.0074 71.8545 61.9773 71.9236 61.9773 71.9957C61.9773 72.0678 62.0074 72.1369 62.0608 72.1879C62.1143 72.2389 62.1868 72.2675 62.2624 72.2675H64.9926C65.0682 72.2675 65.1407 72.2389 65.1942 72.1879C65.2477 72.1369 65.2777 72.0678 65.2777 71.9957C65.2777 71.9236 65.2477 71.8545 65.1942 71.8035C65.1407 71.7525 65.0682 71.7239 64.9926 71.7239H62.2624Z" fill="#FF4848"/>
<path d="M118.078 67.9786C117.932 68.3593 118.575 68.5291 118.717 68.1476C119.04 67.2934 119.363 66.4396 119.686 65.5863C119.831 65.201 119.189 65.0358 119.047 65.4173L118.078 67.9786Z" fill="#FC9070"/>
<path d="M127.329 68.1605C127.409 67.7616 126.77 67.5903 126.69 67.9915C126.518 68.8534 126.218 69.6877 125.801 70.4699C125.607 70.8323 126.18 71.1551 126.376 70.7897C126.821 69.9601 127.142 69.0751 127.329 68.1605Z" fill="#FC9070"/>
<path d="M139.96 61.611C138.081 61.2031 136.175 60.9187 134.255 60.7598C133.829 60.724 133.831 61.3582 134.255 61.394C136.116 61.5491 137.963 61.8259 139.783 62.2224C140.2 62.313 140.375 61.7016 139.96 61.611Z" fill="#FC9070"/>
<path d="M146.305 70.2666C145.794 70.8306 145.207 71.3271 144.559 71.7429C144.205 71.9713 144.537 72.518 144.895 72.2904C145.592 71.8472 146.225 71.3174 146.775 70.715C147.056 70.4082 146.586 69.9574 146.305 70.2666Z" fill="#FC9070"/>
<path d="M89.6532 57.9494L89.5502 55.8358C89.5326 55.4878 88.9625 55.4856 88.98 55.8358L89.0831 57.9494C89.1006 58.2982 89.6676 58.2997 89.6532 57.9494Z" fill="#FF4848"/>
<path d="M105.239 47.9035C105.449 49.6461 105.701 51.3841 105.993 53.1176C106.05 53.4625 106.601 53.3163 106.542 52.9729C106.258 51.2887 106.014 49.5989 105.81 47.9035C105.771 47.5601 105.2 47.5555 105.239 47.9035Z" fill="#78B5FF"/>
<path d="M117.265 23.6597C118.046 23.7864 118.839 23.8184 119.628 23.7549C119.766 23.742 119.916 23.7084 120.063 23.6848C120.072 24.4458 119.94 25.2022 119.674 25.9196C119.661 25.9665 119.659 26.0157 119.669 26.0633C119.679 26.1108 119.701 26.1557 119.731 26.1944C119.762 26.233 119.802 26.2646 119.847 26.2866C119.892 26.3087 119.942 26.3206 119.993 26.3216C120.812 26.3468 121.626 26.1986 122.377 25.8876C122.826 25.702 123.223 25.4175 123.535 25.0574C123.847 24.6974 124.065 24.2719 124.171 23.816C124.277 23.3601 124.269 22.8866 124.146 22.4345C124.023 21.9824 123.79 21.5644 123.465 21.2149C121.637 19.1804 116.907 19.5931 117.021 23.3506C117.021 23.4204 117.045 23.4884 117.089 23.5442C117.133 23.6 117.195 23.6405 117.265 23.6597ZM119.239 20.8562C119.878 20.6201 120.577 20.5711 121.245 20.7154C121.914 20.8597 122.522 21.1908 122.992 21.6664C123.246 21.95 123.425 22.2875 123.514 22.6507C123.603 23.0139 123.599 23.392 123.502 23.7534C123.406 24.1147 123.22 24.4488 122.96 24.7274C122.7 25.006 122.374 25.2211 122.009 25.3546C121.502 25.5428 120.967 25.6548 120.424 25.6866C120.708 24.9079 120.79 24.0754 120.664 23.26C120.644 23.1937 120.602 23.1353 120.544 23.0934C120.487 23.0514 120.417 23.0282 120.344 23.027C119.888 23.0992 119.428 23.1421 118.965 23.1557C118.542 23.1585 118.119 23.1331 117.699 23.0795C117.689 22.6038 117.832 22.1366 118.107 21.7397C118.382 21.3427 118.777 21.0346 119.239 20.8562Z" fill="black"/>
<path d="M132.941 29.9649C131.344 24.3306 130.503 20.3637 128.012 17.4665C126.215 15.3757 123.322 13.8742 120.431 14.3402C117.468 14.8176 115.401 17.3264 114.565 19.9342C114.101 21.5105 113.882 23.1435 113.915 24.7805C113.914 26.2406 114.012 27.6993 114.21 29.1472C108.052 30.2284 105.119 31.8699 102.296 34.5204C101.346 35.4112 100.39 36.2868 99.5064 37.2401C97.4453 39.5527 95.5721 42.0118 93.9031 44.596C92.1737 47.3443 90.6628 50.2124 89.3833 53.1762C87.8682 47.2012 85.8723 41.3465 83.4134 35.664C85.3482 34.0456 87.0844 32.2234 88.5888 30.2322C89.1313 29.6433 89.4879 28.92 89.6173 28.1459C89.6359 27.79 89.5377 27.4374 89.3363 27.1372C89.1349 26.8369 88.8404 26.604 88.4937 26.4708C85.9616 25.4407 83.6729 27.7591 81.9393 28.8624C80.5379 29.7532 78.8473 30.1507 77.7006 28.9743C77.2289 28.4695 76.8152 27.9179 76.4669 27.3289C75.658 26.0247 72.3001 21.0421 71.5239 19.8025C69.9436 17.2838 67.4729 16.9792 66.2008 18.2881C65.769 18.7526 65.4639 19.3115 65.3128 19.9152C65.1617 20.519 65.1691 21.149 65.3344 21.7494C65.8585 23.2815 66.5795 24.7459 67.4809 26.1092C67.766 26.6269 68.3936 27.4576 67.7132 27.9365C67.2142 28.2875 66.4875 27.8437 66.0363 27.5992C63.7645 26.3726 61.7242 23.8554 59.1648 23.4763C56.7349 23.0803 55.3845 25.816 56.5296 27.8969C57.9527 30.2343 59.8454 32.281 62.0995 33.9196C62.2824 34.0597 62.5467 34.2196 62.4189 34.4792C62.3063 34.7077 62.014 34.6765 61.7912 34.6696C59.4052 34.5759 56.8315 32.9184 54.4071 33.4125C54.0512 33.4813 53.7207 33.6383 53.4487 33.8676C53.1767 34.097 52.973 34.3907 52.8579 34.7191C52.6721 35.4041 52.7497 36.1299 53.0767 36.765C53.8241 38.0243 55.026 38.9816 56.4586 39.4588C57.9878 40.0679 59.5865 40.4715 60.9448 41.4148C65.7768 44.7703 66.3022 52.044 67.6789 56.6482C65.8668 57.4271 63.9094 57.8519 61.9222 57.8976C57.1086 57.8976 51.9827 56.6672 48.0411 53.8219V37.2957C48.065 35.6241 47.4327 34.0043 46.2683 32.7545C45.1039 31.5046 43.4915 30.715 41.7478 30.5405C40.7602 30.4716 39.7693 30.4533 38.7796 30.4857C38.6654 30.4857 12.1881 30.3479 12.1418 30.3578C10.5696 30.3692 9.04609 30.8788 7.81094 31.8063C6.5758 32.7338 5.69918 34.0266 5.31906 35.4813C5.12954 36.4223 5.06063 37.3819 5.11383 38.3388C5.11383 88.3947 5.03877 84.7187 5.26875 85.7611C6.227 90.0736 10.6366 93.0355 14.7714 94.974C12.7511 95.6973 10.6988 96.3445 8.71367 97.1524C7.51105 97.54 6.41472 98.1795 5.50512 99.0239C4.94499 99.6097 4.61756 100.364 4.57961 101.156C4.471 104.278 8.03091 109.998 10.2037 112.433C10.8425 113.23 11.6815 113.86 12.6433 114.266C13.2279 114.392 13.8332 114.403 14.4225 114.299C15.1907 114.184 15.9491 114.016 16.6919 113.797C24.7628 111.612 35.2636 108.68 41.7191 103.017C42.3148 103.584 42.1311 103.328 45.4259 112.345C45.6909 113.232 46.1308 114.063 46.7219 114.793C48.1042 116.311 50.5014 116.214 52.4203 116.24C54.8188 116.28 57.2178 116.199 59.6072 115.997C62.6513 115.732 66.1497 115.031 67.9073 112.662C68.4683 111.773 68.7457 110.747 68.7058 109.709C68.9474 103.668 68.5275 97.6183 67.4529 91.6596H66.7774C67.8498 97.6329 68.2726 103.696 68.0391 109.752C68.0783 110.768 67.7601 111.767 67.1351 112.59C65.8494 114.062 63.7477 114.736 61.8376 115.078C58.4225 115.555 54.968 115.725 51.5196 115.587C50.5497 115.597 49.5829 115.482 48.6448 115.247C48.2075 115.105 47.8046 114.881 47.4603 114.587C47.116 114.293 46.8375 113.936 46.6413 113.538C45.7206 111.604 45.8427 111.253 43.1277 104.144C42.9261 103.57 42.605 103.041 42.1838 102.589C43.8349 101.177 44.993 99.317 45.5026 97.259C45.6222 96.6842 45.6566 96.0962 45.6048 95.5123C45.4616 94.2682 45.0699 93.0617 44.4509 91.9581C42.2607 87.9107 39.3875 84.2341 35.9464 81.0754C37.827 80.6658 46.2899 78.7105 46.7044 78.6138L54.895 80.7648C57.6995 81.501 60.8122 82.1185 63.0569 84.0075C65.1659 85.7816 66.0914 88.41 66.6504 91.0277H48.125C48.0396 91.0316 47.9591 91.0668 47.9001 91.1258C47.8412 91.1849 47.8083 91.2633 47.8083 91.3448C47.8083 91.4263 47.8412 91.5047 47.9001 91.5637C47.9591 91.6228 48.0396 91.6579 48.125 91.6619H84.4443C84.4635 94.3711 84.6518 97.0768 85.0081 99.7647C85.0592 100.415 85.1555 101.062 85.2964 101.7C86.0055 104.618 89.1485 107.424 93.2235 107.743C95.1099 107.879 97.0051 107.634 98.7849 107.022C100.565 106.411 102.189 105.448 103.551 104.196C104.233 105.25 105.137 106.157 106.206 106.861C107.097 107.468 108.087 107.929 109.137 108.224C113.817 109.559 119.917 109.782 123.92 107.07C128.112 104.233 127.936 100.273 131.214 92.989C131.625 92.0104 132.191 91.0973 132.891 90.2815C134.345 88.6704 137.836 86.5735 139.232 82.9964C140.251 80.3894 139.945 77.4618 139.218 74.7565C141.001 74.9894 142.818 74.7761 144.488 74.1375C147.732 72.7876 149.636 69.5341 150.193 66.5844C151.501 59.6488 151.397 50.4161 148.547 43.4737C145.82 36.8343 139.858 32.1714 132.941 29.9649ZM114.601 23.8318C114.7 21.4654 115.218 18.981 116.855 17.1209C117.512 16.2973 118.395 15.6618 119.406 15.2838C120.416 14.9058 121.516 14.7999 122.586 14.9775C124.83 15.4457 126.792 16.734 128.05 18.566C129.967 21.2248 130.686 24.4135 132.188 29.738C128.77 28.8005 125.222 28.3686 121.667 28.4573C119.384 28.4821 117.106 28.6741 114.854 29.0314C114.618 27.308 114.533 25.5687 114.601 23.8318ZM122.559 29.0969C122.449 29.8314 122.256 30.5525 121.985 31.2479C121.771 31.771 121.398 32.629 120.671 32.4783C119.512 32.2377 119.198 30.3258 119.216 29.189C120.329 29.12 121.444 29.0893 122.559 29.0969ZM61.5916 41.0897C60.293 40.1965 58.843 39.5228 57.305 39.0979C55.8584 38.6958 54.6033 37.8266 53.7547 36.6393C53.581 36.3573 53.4729 36.0428 53.4379 35.7174C53.4029 35.392 53.4418 35.0632 53.5519 34.7534C53.7363 34.4687 54.003 34.2408 54.3198 34.097C54.6366 33.9532 54.9902 33.8995 55.3382 33.9425C57.3649 33.925 59.0115 35.0259 61.5062 35.2856C62.1099 35.3373 62.7838 35.3137 63.0418 34.694C63.0953 34.5662 63.1194 34.429 63.1125 34.2916C63.1056 34.1542 63.0679 34.0198 63.0018 33.8975C62.8085 33.6388 62.5645 33.4183 62.2831 33.2481C60.4327 31.8397 58.8315 30.1572 57.5406 28.2647C57.1672 27.7873 56.9137 27.2345 56.7996 26.649C56.7365 26.1706 56.8036 25.6847 56.9944 25.2381C57.1695 24.7906 57.5238 24.4276 57.9795 24.2291C58.4351 24.0305 58.9548 24.0125 59.4244 24.179C60.6847 24.5909 61.8411 25.2488 62.8198 26.1107C63.8119 26.965 64.9009 27.7109 66.0666 28.3348C66.3321 28.5085 66.6369 28.6198 66.9562 28.6595C67.2754 28.6992 67.6 28.6662 67.9033 28.5632C68.1912 28.4238 68.4216 28.196 68.5572 27.9166C68.6928 27.6372 68.7257 27.3223 68.6507 27.0229C67.9065 24.8392 64.6365 21.6344 66.3789 19.0845C66.6558 18.658 67.0894 18.345 67.5951 18.2066C67.9182 18.1486 68.2502 18.1531 68.5715 18.2198C68.8927 18.2865 69.1967 18.4141 69.4653 18.5949C70.0895 19.0135 70.6097 19.5578 70.9889 20.1893C76.4549 29.0116 76.3942 28.4657 76.9779 29.1685C77.4422 29.725 78.089 30.1167 78.8146 30.2809C81.3244 30.6959 83.1667 28.6149 85.1638 27.4637C87.2161 26.2828 88.917 26.9825 88.9529 27.9883C88.8498 28.7517 88.4907 29.4629 87.9292 30.0159C86.4293 31.9719 84.7022 33.7598 82.781 35.3457C82.7389 35.3842 82.7088 35.433 82.6937 35.4866C82.6786 35.5403 82.6793 35.5969 82.6955 35.6503C85.3156 41.6836 87.4161 47.9104 88.9761 54.2688C89.0559 54.603 89.5055 54.5345 89.6149 54.2688C90.3235 52.5968 91.0954 50.9524 91.9307 49.3357C92.0105 49.3692 105.01 55.0675 105.492 55.2853C104.723 56.9073 103.794 58.4559 102.717 59.91H88.0833C87.7159 59.8965 87.3493 59.9522 87.0045 60.0739C86.6596 60.1955 86.3433 60.3807 86.0735 60.6189C85.8038 60.8571 85.5859 61.1436 85.4322 61.4621C85.2786 61.7806 85.1923 62.1249 85.1782 62.4752V68.7857C83.5399 68.6463 81.9232 68.3325 80.3582 67.8499C82.5741 66.4908 82.3545 63.2883 78.0049 63.0995C76.046 63.0142 74.8442 63.2419 72.1915 63.2518C71.6474 62.7299 71.1498 62.1658 70.7038 61.5653C74.7181 59.4014 74.6678 59.444 75.1437 59.1418C77.18 57.8474 77.1257 56.0962 76.161 55.3005C75.6495 54.9711 75.0288 54.8324 74.417 54.9107C72.3118 55.1348 70.2508 55.6437 68.2962 56.422C66.8692 51.629 66.4691 44.8373 61.5916 41.0897ZM107.549 61.994C105.921 61.9764 91.1984 61.994 91.1984 61.994C90.4455 61.9187 89.6853 62.0411 89 62.348C88.5762 62.5842 88.2241 62.9214 87.9783 63.3266C87.7324 63.7317 87.6013 64.1908 87.5978 64.6589C87.5978 64.6589 87.5594 72.4152 87.5978 73.1546C87.6379 73.8591 87.9671 74.5203 88.5143 74.9953C89.0614 75.4702 89.7826 75.7209 90.522 75.6931C109.048 75.5179 107.728 75.7311 108.238 75.604C108.634 76.2022 109.256 76.632 109.976 76.8039C110.695 76.9757 111.457 76.8765 112.102 76.5268V77.1359C112.102 77.1359 86.0933 77.1176 85.8378 77.1207V62.5825C85.8447 62.0443 86.0727 61.5301 86.4728 61.1504C86.873 60.7707 87.4134 60.5558 87.9779 60.5519H109.608C109.938 60.5339 110.269 60.5629 110.589 60.6379C111.035 60.7713 111.423 61.0389 111.696 61.4005C111.969 61.7621 112.111 62.1982 112.102 62.6434V63.6234C111.486 64.7822 110.904 65.957 110.345 67.1418V64.7951C110.362 64.4344 110.302 64.0741 110.17 63.7359C110.037 63.3977 109.834 63.0885 109.573 62.8269C109.312 62.5654 108.998 62.3567 108.65 62.2136C108.303 62.0705 107.928 61.9957 107.549 61.994ZM107.982 75.0139C107.623 75.0862 108.522 75.0626 91.2647 75.0619C90.6286 75.1337 89.9838 75.0518 89.3897 74.8236C89.0485 74.6468 88.7637 74.3855 88.5654 74.0672C88.3671 73.7489 88.2626 73.3855 88.263 73.0152V64.6619C88.2631 64.3774 88.3257 64.096 88.4466 63.8359C88.5675 63.5758 88.7442 63.3426 88.9652 63.1514C89.1861 62.9602 89.4466 62.8151 89.7299 62.7256C90.0131 62.636 90.3128 62.6039 90.6099 62.6313C90.6099 62.6313 107.4 62.6313 107.545 62.6313C107.849 62.6298 108.15 62.6898 108.427 62.8075C108.704 62.9251 108.953 63.0977 109.155 63.3137C109.357 63.5297 109.509 63.7842 109.6 64.0603C109.691 64.3365 109.72 64.628 109.684 64.9155V68.5702C108.481 71.2556 108.145 72.1213 107.935 73.2337C107.82 73.8227 107.836 74.4282 107.982 75.0109V75.0139ZM103.526 59.9207C104.244 58.908 106.081 55.9987 106.241 55.2419C106.602 56.7852 106.843 58.3514 107.057 59.9207H103.526ZM71.2564 63.2449C70.235 63.2219 69.218 63.1103 68.2179 62.9114L70.1256 61.8828C70.4711 62.3589 70.8488 62.8129 71.2564 63.2419V63.2449ZM60.4968 58.4908C66.5058 58.9803 68.82 56.0017 74.338 55.554C74.6039 55.4962 74.8804 55.4982 75.1454 55.5599C75.4104 55.6217 75.6567 55.7414 75.8648 55.9096C76.1066 56.309 76.1751 56.7828 76.0558 57.2297C75.9364 57.6766 75.6386 58.0614 75.2259 58.3019C74.6963 58.6848 74.1316 59.0214 73.5386 59.3077C73.5386 59.3077 68.5541 61.9612 67.1503 62.7538C67.0953 62.7864 67.0514 62.8335 67.0237 62.8892C66.996 62.945 66.9858 63.0073 66.9942 63.0685C67.0026 63.1297 67.0293 63.1872 67.0712 63.2343C67.113 63.2814 67.1682 63.316 67.2301 63.334C73.1873 64.9474 80.2168 62.1759 81.0553 65.4492C81.0626 65.9033 80.9256 66.3488 80.6621 66.7272C80.3987 67.1056 80.0213 67.399 79.5796 67.5689C78.5444 67.9895 77.4623 68.296 76.3543 68.4826C69.1874 70.1813 69.843 70.0123 69.4357 70.1417C67.3787 70.7996 67.3403 72.4952 68.4982 73.1515C70.8531 74.7367 73.0331 75.0938 75.4352 77.7131C75.7844 78.0182 76.03 78.4159 76.1403 78.8552C76.1478 79.2701 76.0389 79.6794 75.825 80.0408C75.611 80.4022 75.2997 80.7026 74.9233 80.9109C74.3862 81.1415 73.7982 81.2432 73.2104 81.2071C68.7386 81.1987 66.1952 78.6328 58.4573 78.3945C55.6473 78.2506 53.4345 78.2795 50.5645 78.0618C51.7767 68.8961 51.6386 63.9508 52.8995 57.0357C55.3463 57.8632 57.9046 58.3532 60.4968 58.4908ZM34.5617 31.0986C34.1461 34.198 33.5079 37.2666 32.6516 40.2826C30.3646 37.432 28.6804 34.0247 27.0131 31.0598L34.5617 31.0986ZM43.5405 91.6231C44.2663 92.8229 44.7435 94.1445 44.946 95.5161C45.1368 97.9153 43.7993 100.066 42.1239 101.754C35.6821 107.903 25.4719 110.764 16.8708 113.094C15.8167 113.441 14.7195 113.655 13.6071 113.73C13.362 113.734 13.1169 113.715 12.8757 113.673C12.3516 113.487 11.8781 113.192 11.4902 112.808C9.58259 110.855 8.01275 108.625 6.83948 106.202C6.13532 104.912 5.62255 103.535 5.31586 102.111C5.15922 101.377 5.27287 100.615 5.63761 99.9518C6.00235 99.289 6.59583 98.7665 7.31781 98.4726C8.43427 97.9097 9.59452 97.4297 10.7883 97.0366C11.8016 96.6719 15.0828 95.5481 15.6985 95.3197C15.9341 95.2321 16.0635 94.8674 15.7784 94.7395C13.9251 93.9373 12.1688 92.9452 10.5407 91.7807C8.94529 90.6754 7.6233 89.2501 6.6678 87.6052C6.23737 86.8108 5.95296 85.9519 5.82693 85.0659C12.7407 85.1725 28.8897 82.5236 35.1846 81.2368C38.5146 84.2676 41.3332 87.7711 43.5405 91.6231ZM47.4686 77.7877C47.0613 77.8829 38.4259 79.8823 36.8176 80.2401C29.5509 81.8581 12.9883 84.5154 5.77902 84.4134V37.1883C5.76613 36.3745 5.92385 35.5665 6.24291 34.8116C6.56197 34.0567 7.03595 33.3701 7.63703 32.7922C8.23812 32.2144 8.9542 31.7568 9.74327 31.4463C10.5323 31.1359 11.3785 30.9789 12.232 30.9844C16.036 31.407 19.6545 32.7831 22.7193 34.9726C28.8457 39.6103 32.7083 46.8703 46.0544 53.6719C46.4321 53.8645 46.7682 53.317 46.3905 53.1237C43.9116 51.8606 41.5271 50.4359 39.254 48.8598C27.6527 40.805 26.2952 33.9029 15.7616 31.0019L26.2082 31.0552C28.25 34.6536 29.784 37.9078 32.3418 40.9534C32.4759 41.1126 32.5813 41.2892 32.8209 41.2778C32.893 41.2761 32.9627 41.2527 33.02 41.211C33.0774 41.1693 33.1195 41.1114 33.1403 41.0456C34.128 37.7904 34.843 34.4655 35.2788 31.1024L40.9157 31.1314C41.7581 31.1257 42.5935 31.2782 43.374 31.5803C44.1546 31.8824 44.8651 32.3281 45.465 32.8921C46.0649 33.456 46.5424 34.1271 46.8703 34.867C47.1982 35.6069 47.37 36.4011 47.3759 37.2043V53.9262C47.3567 53.9791 47.3572 54.0368 47.3773 54.0894C47.3973 54.1421 47.4358 54.1866 47.4861 54.2155C48.9458 55.2611 50.5392 56.1251 52.2279 56.7867C51.0029 63.5168 51.0301 69.1077 49.8626 78.0047C48.0803 77.841 47.8591 77.6742 47.4686 77.7877ZM84.4523 91.0315H67.3331C66.5897 87.3988 65.2569 84.2801 61.903 82.449C59.529 81.2147 58.2162 80.9498 48.9762 78.5498C53.8745 79.1209 58.732 78.5704 63.4514 79.5739C67.3395 80.4008 68.392 81.3731 72.4806 81.8102C73.1884 81.8849 73.9044 81.8466 74.5991 81.6967C75.2111 81.5289 75.7536 81.1846 76.1523 80.7112C76.5511 80.2378 76.7865 79.6584 76.8262 79.0524C76.8222 78.0877 76.0604 77.3841 75.4 76.74C73.4835 74.8555 71.9407 74.439 69.4716 72.9871C69.1091 72.7739 68.5062 72.5256 68.4192 72.0795C68.4009 71.8743 68.4436 71.6684 68.5425 71.4854C68.6414 71.3024 68.7924 71.1496 68.9781 71.0447C69.6313 70.6823 69.4173 70.782 75.8121 69.2669C77.0919 69.0247 78.3507 68.691 79.578 68.2687C81.3866 68.8832 83.2707 69.2729 85.1838 69.4283V77.2874C84.8556 77.5745 79.7225 82.5685 77.9106 84.236C77.6988 84.416 77.5414 84.6469 77.4549 84.9046C77.3684 85.1623 77.356 85.4374 77.419 85.7012C77.482 85.9651 77.618 86.208 77.8129 86.4046C78.0078 86.6013 78.2544 86.7445 78.5271 86.8194C78.8779 86.8818 79.2358 86.9002 79.5916 86.8742L84.6719 86.8841C84.529 88.3224 84.4771 89.6031 84.4523 91.0315ZM78.9831 86.24C78.7389 86.2429 78.5033 86.1538 78.3275 85.9922C78.1517 85.8305 78.0499 85.6093 78.044 85.3765C78.0344 84.871 78.4081 84.6509 78.9344 84.1484L85.6126 77.7702C89.0615 77.7702 109.939 77.8014 111.636 77.8021C104.013 85.0263 104.314 84.9456 102.989 85.6263C102.32 85.949 101.594 86.1487 100.848 86.2148C100.302 86.2621 82.9223 86.227 78.9831 86.24ZM103.285 96.7305C103.166 97.4402 102.97 98.8518 102.909 99.6581C102.734 100.966 102.845 102.294 103.237 103.558C101.878 104.941 100.162 105.958 98.2607 106.508C92.1247 108.468 87.3654 105.816 86.0071 101.788C85.8572 101.194 85.7542 100.591 85.6988 99.9825C85.317 97.2257 85.1188 94.4487 85.1055 91.668H102.459C102.544 91.664 102.625 91.6289 102.684 91.5698C102.742 91.5108 102.775 91.4324 102.775 91.3509C102.775 91.2694 102.742 91.191 102.684 91.1319C102.625 91.0729 102.544 91.0377 102.459 91.0338H85.1103C85.1327 89.649 85.2096 88.2671 85.3411 86.8879C91.3677 86.8971 100.047 86.9039 100.696 86.8628C101.663 86.8025 102.604 86.5457 103.458 86.1098C104.514 85.4699 105.468 84.6889 106.291 83.7906C105.895 84.8504 105.557 85.9286 105.276 87.0212C104.797 88.8554 103.298 96.6544 103.285 96.7305ZM139.22 79.2427C139.304 85.1519 134.483 87.5831 132.432 89.817C129.686 92.8139 128.328 100.14 126.016 104.045C124.776 105.884 122.892 107.245 120.699 107.887C118.323 108.557 115.823 108.732 113.369 108.401C111.759 108.223 110.173 107.886 108.635 107.398C106.463 106.644 103.896 104.636 103.573 102.22C103.271 99.5119 104.142 95.6227 104.715 92.7834C105.408 89.3571 105.998 85.8859 107.469 82.6622C108.415 81.7576 111.881 78.4562 112.669 77.7131C112.801 77.522 112.765 77.7405 112.765 76.2161C114.699 75.0119 116.342 73.4286 117.583 71.5716C117.587 72.8143 117.946 74.0326 118.621 75.0954C118.854 75.4597 119.162 75.7761 119.524 76.026C119.887 76.276 120.299 76.4545 120.735 76.5512C121.648 76.7588 122.607 76.6737 123.465 76.3089C124.322 75.9442 125.029 75.3201 125.477 74.5335C125.563 75.0378 125.76 75.5189 126.055 75.9452C126.351 76.3715 126.738 76.7332 127.19 77.0065C127.976 77.4206 128.888 77.5656 129.772 77.4172C130.657 77.2688 131.461 76.8361 132.052 76.191C132.669 75.3374 132.909 74.2866 132.719 73.2657C134.606 73.8962 136.547 74.369 138.519 74.6789C138.96 76.1646 139.196 77.6988 139.22 79.2427H139.22ZM150.293 59.3892C150.229 62.0783 149.905 64.756 149.325 67.3885C148.719 69.74 147.21 71.7893 145.097 73.1317C141.303 75.2286 136.606 73.817 132.426 72.5104C132.384 72.4997 132.339 72.497 132.296 72.5027C132.252 72.5084 132.21 72.5222 132.172 72.5434C132.134 72.5647 132.101 72.5929 132.074 72.6264C132.048 72.6599 132.029 72.6982 132.018 72.7388C131.938 73.0236 132.394 74.4771 131.72 75.5461C131.283 76.1495 130.622 76.5721 129.87 76.7286C129.212 76.9342 128.498 76.9029 127.863 76.6407C127.227 76.3785 126.715 75.9036 126.421 75.3055C126.085 74.5082 125.933 73.6513 125.975 72.7929C125.971 72.7115 125.934 72.6347 125.872 72.5785C125.81 72.5223 125.728 72.4909 125.642 72.4909C125.557 72.4909 125.475 72.5223 125.413 72.5785C125.351 72.6347 125.314 72.7115 125.31 72.7929C125.282 73.2624 125.157 73.722 124.942 74.1451C124.726 74.5682 124.425 74.9463 124.055 75.2575C123.574 75.5944 123.017 75.8189 122.428 75.9131C119.186 76.6197 117.951 73.3015 118.297 70.2026C118.295 70.134 118.27 70.0679 118.225 70.014C118.18 69.9602 118.119 69.9214 118.049 69.9035C117.98 69.8856 117.906 69.8894 117.839 69.9145C117.772 69.9396 117.715 69.9845 117.677 70.0427C116.931 71.5486 115.881 72.8996 114.587 74.0187C113.504 75.0086 112.18 76.1705 110.584 76.207C110.255 76.2239 109.927 76.1602 109.632 76.022C109.336 75.8838 109.082 75.6756 108.895 75.4174C108.573 74.8733 108.45 74.2423 108.547 73.6243C108.638 72.9461 108.818 72.2811 109.08 71.6447C109.886 69.6072 111.156 66.7999 112.587 64.0954C113.299 62.7477 113.98 61.1968 115.499 60.5237C116.859 59.9964 118.324 59.7577 119.791 59.824C125.419 60.0752 128.133 60.6501 133.578 61.3057C133.666 61.3052 133.75 61.2716 133.813 61.2122C133.875 61.1527 133.91 61.0722 133.91 60.9881C133.629 57.8157 133.683 54.6245 134.07 51.4623C139.137 51.358 144.797 51.0861 149.831 50.7496C150.254 53.6107 150.409 56.502 150.293 59.3892ZM133.781 50.8417C133.709 50.8423 133.639 50.8647 133.582 50.9058C133.524 50.9469 133.482 51.0045 133.461 51.0702C133.04 54.2402 132.959 57.4431 133.222 60.6288C128.124 59.9999 126.239 59.5521 120.309 59.2209C118.715 59.0946 117.111 59.2924 115.603 59.8011C114.327 60.2803 113.301 61.2228 112.752 62.4219C112.718 61.7328 112.402 61.084 111.871 60.6149C111.341 60.1459 110.639 59.8941 109.915 59.9138H107.741C107.49 57.9614 107.123 56.0241 106.642 54.1112C106.621 54.0466 106.578 53.9903 106.521 53.9504C106.463 53.9104 106.394 53.8889 106.323 53.8889C106.252 53.8889 106.183 53.9104 106.125 53.9504C106.068 53.9903 106.025 54.0466 106.003 54.1112C105.936 54.3038 105.849 54.4919 105.77 54.6784C104.775 54.2257 103.772 53.7942 102.761 53.384C102.761 53.384 92.3108 48.8111 92.2373 48.7806C93.4955 46.4004 94.9282 44.1077 96.5247 41.9196C98.3264 39.3891 100.419 37.0584 102.764 34.9711C104.257 33.5088 106.034 32.3369 107.997 31.5205C111.345 30.2187 114.894 29.4471 118.503 29.2362C118.484 30.0883 118.644 30.9353 118.973 31.7275C119.12 32.0802 119.356 32.3925 119.661 32.6365C119.965 32.8806 120.329 33.0486 120.718 33.1255C122.355 33.2976 123.06 30.6578 123.266 29.1038C131.744 29.2461 139.518 32.243 144.769 38.4248C147.049 41.2313 148.834 44.7977 149.728 50.1245C144.234 50.5006 138.189 50.7565 133.781 50.8417Z" fill="black"/>
<path d="M46.3107 77.4458C37.577 75.9146 29.6658 71.7353 25.2443 67.5415C20.4179 62.9358 17.2397 56.8674 10.3379 56.4959C9.90988 56.4738 9.91068 57.105 10.3379 57.1309C15.5284 57.4903 18.3944 61.0064 21.7515 64.7898C23.3859 66.7382 25.2362 68.5127 27.2702 70.0823C32.8155 74.114 39.2774 76.8458 46.1342 78.0572C46.5526 78.1318 46.7315 77.5196 46.3107 77.4458Z" fill="black"/>
<path d="M75.9925 94.0626C75.909 94.0661 75.8299 94.0994 75.7708 94.1557C75.7117 94.2121 75.6768 94.2875 75.6731 94.3671V122.368C71.468 123.243 62.3295 124.576 58.0804 125.17C57.9957 125.193 57.924 125.247 57.8805 125.32C57.837 125.393 57.8254 125.48 57.848 125.561C57.8735 125.641 57.9302 125.709 58.0065 125.75C58.0827 125.791 58.1726 125.803 58.2577 125.783C61.2299 125.369 71.9128 123.809 76.0125 122.948C80.5914 123.616 89.0895 125.147 93.6603 125.993C94.0788 126.07 94.2576 125.46 93.8368 125.384C92.3707 125.112 77.7589 122.567 76.3415 122.359V94.3694C76.34 94.3274 76.3297 94.286 76.3113 94.2478C76.2929 94.2095 76.2667 94.1751 76.2342 94.1466C76.2018 94.118 76.1637 94.0959 76.1222 94.0815C76.0807 94.0671 76.0366 94.0607 75.9925 94.0626Z" fill="black"/>
<path d="M134.386 3.20475C133.92 4.02401 130.429 10.1655 130.258 10.467C130.054 10.8264 130.628 11.1469 130.832 10.7875L134.961 3.52453C135.165 3.16592 134.59 2.84537 134.386 3.20475Z" fill="black"/>
<path d="M133.195 12.3233L139.408 8.06479C139.753 7.82876 139.421 7.27827 139.073 7.51659L132.86 11.7759C132.516 12.0119 132.847 12.5631 133.195 12.3233Z" fill="black"/>
<path d="M119.999 36.1947C119.925 35.8681 119.457 35.9206 119.36 36.1947C119.06 37.014 114.613 49.156 114.489 49.5192C114.38 49.8481 114.728 50.1618 114.91 50.4177C117.986 54.7119 117.796 54.4675 117.871 54.5185C117.899 54.5491 117.934 54.5736 117.973 54.5904C118.012 54.6072 118.054 54.6159 118.097 54.6159C118.139 54.6159 118.181 54.6072 118.22 54.5904C118.259 54.5736 118.294 54.5491 118.322 54.5185C119.29 53.4442 122.283 50.3309 122.771 49.8154C122.896 49.6829 123.003 49.5778 122.965 49.3753C122.967 49.3639 120.001 36.2054 119.999 36.1947ZM118.124 53.783C117.245 52.5549 115.263 49.7887 115.152 49.6326L119.602 37.4502L122.287 49.3799L118.124 53.783Z" fill="black"/>
<path d="M70.9258 120.109C67.0459 118.411 62.8667 117.42 58.6043 117.189C54.0167 117.061 49.4725 118.067 45.4131 120.109C45.3517 120.146 45.3042 120.2 45.2777 120.264C45.2512 120.328 45.247 120.398 45.2659 120.465C45.2847 120.531 45.3255 120.59 45.3823 120.633C45.439 120.675 45.5087 120.699 45.5808 120.701C68.947 120.988 70.6679 120.701 70.7621 120.701C71.0656 120.701 71.2412 120.242 70.9258 120.109ZM47.015 120.067C49.7756 118.866 52.7303 118.121 55.7527 117.865C60.3215 117.645 64.8844 118.396 69.1115 120.064L47.015 120.067Z" fill="black"/>
<path d="M97.6986 115.364H122.88C123.187 115.364 123.359 114.907 123.048 114.774C117.954 112.559 111.549 111.242 106.086 112.095C103.829 111.264 101.483 110.675 99.0904 110.337C94.499 109.601 89.7831 110.108 85.4793 111.802C84.56 112.139 83.6615 112.525 82.7882 112.96C82.7271 112.996 82.6799 113.05 82.6537 113.114C82.6274 113.178 82.6234 113.249 82.6423 113.315C82.6612 113.381 82.702 113.44 82.7586 113.482C82.8152 113.525 82.8847 113.549 82.9567 113.551H100.411C99.427 113.9 98.4668 114.309 97.5365 114.774C97.4756 114.81 97.4284 114.864 97.4018 114.927C97.3752 114.99 97.3707 115.06 97.3888 115.126C97.4069 115.192 97.4468 115.251 97.5026 115.294C97.5583 115.337 97.6271 115.361 97.6986 115.364ZM84.3925 112.916C88.0187 111.319 91.9855 110.551 95.9777 110.672C98.9846 110.839 101.954 111.392 104.806 112.317C103.98 112.482 103.165 112.681 102.36 112.916H84.3925ZM110.723 112.486C114.332 112.68 117.882 113.438 121.233 114.729H99.1376C102.763 113.13 106.73 112.362 110.723 112.487V112.486Z" fill="black"/>
<path d="M143.255 80.314C143.255 80.2299 143.22 80.1495 143.157 80.0901C143.095 80.0307 143.011 79.9971 142.922 79.9965C142.835 79.9984 142.751 80.0325 142.689 80.0916C142.628 80.1508 142.592 80.2304 142.59 80.314C142.097 84.3915 140.056 88.1559 136.852 90.8974C134.569 92.8542 133.842 92.7248 133.813 93.1146C133.763 93.1502 133.727 93.1991 133.707 93.2549C133.687 93.3107 133.686 93.3709 133.702 93.4276C135.362 99.8644 136.82 106.301 138.077 112.736C138.157 113.137 138.796 112.964 138.716 112.568C137.491 106.309 136.035 99.8248 134.375 93.3918C136.82 92.0212 138.897 90.1253 140.438 87.8549C141.98 85.5846 142.945 83.0024 143.255 80.314Z" fill="black"/>
<path d="M111.628 83.0055C111.553 82.9673 111.467 82.9575 111.385 82.978C111.303 82.9985 111.233 83.0478 111.188 83.1159L109.768 85.4496C109.723 85.5223 109.711 85.6089 109.733 85.6904C109.755 85.7719 109.811 85.8415 109.887 85.884C109.963 85.9265 110.054 85.9384 110.14 85.9171C110.225 85.8957 110.298 85.8429 110.343 85.7702L111.762 83.4357C111.783 83.399 111.796 83.3588 111.801 83.3173C111.805 83.2758 111.801 83.2339 111.788 83.194C111.776 83.154 111.755 83.1168 111.728 83.0845C111.7 83.0522 111.666 83.0253 111.628 83.0055Z" fill="black"/>
<path d="M63.1073 87.2222C62.6915 86.439 62.276 85.6555 61.8607 84.8717C61.6675 84.507 61.0933 84.8276 61.2858 85.1915C61.7021 85.9748 62.1176 86.7582 62.5323 87.542C62.7256 87.9067 63.2997 87.5861 63.1073 87.2222Z" fill="black"/>
<path d="M85.3507 80.5637H104.915C105 80.5597 105.081 80.5245 105.14 80.4655C105.199 80.4065 105.232 80.3281 105.232 80.2466C105.232 80.165 105.199 80.0867 105.14 80.0276C105.081 79.9686 105 79.9334 104.915 79.9294H85.3507C85.2653 79.9334 85.1848 79.9686 85.1258 80.0276C85.0668 80.0867 85.034 80.165 85.034 80.2466C85.034 80.3281 85.0668 80.4065 85.1258 80.4655C85.1848 80.5245 85.2653 80.5597 85.3507 80.5637Z" fill="black"/>
<path d="M102.225 83.1814C102.222 83.1016 102.187 83.026 102.128 82.9696C102.069 82.9131 101.99 82.88 101.906 82.8768H82.5813C82.4959 82.8808 82.4154 82.916 82.3565 82.975C82.2975 83.034 82.2646 83.1124 82.2646 83.1939C82.2646 83.2755 82.2975 83.3539 82.3565 83.4129C82.4154 83.4719 82.4959 83.5071 82.5813 83.5111H101.906C101.994 83.5075 102.077 83.4708 102.137 83.4091C102.197 83.3473 102.229 83.2654 102.225 83.1814Z" fill="black"/>
<path d="M71.6501 37.1693C73.035 36.7241 74.2795 35.9524 75.268 34.926C76.2565 33.8996 76.9571 32.6517 77.3045 31.2981C77.402 30.9007 76.7607 30.7316 76.6657 31.1291C76.3502 32.3775 75.7089 33.5297 74.8015 34.4786C73.8941 35.4276 72.7499 36.1425 71.4752 36.5571C71.0687 36.685 71.242 37.2972 71.6501 37.1693Z" fill="black"/>
<path d="M62.1179 63.4871L64.8433 63.1064C64.928 63.0836 64.9999 63.0299 65.0434 62.9569C65.0869 62.884 65.0985 62.7976 65.0757 62.7165C65.0506 62.6365 64.994 62.5688 64.9179 62.5275C64.8417 62.4863 64.7518 62.4746 64.6668 62.495L61.9406 62.8757C61.856 62.8986 61.7842 62.9523 61.7407 63.0252C61.6973 63.0982 61.6856 63.1844 61.7082 63.2655C61.7337 63.3455 61.7904 63.4131 61.8666 63.4543C61.9429 63.4955 62.0328 63.5073 62.1179 63.4871Z" fill="black"/>
<path d="M62.2624 71.679C62.177 71.6829 62.0965 71.7181 62.0375 71.7771C61.9786 71.8362 61.9457 71.9146 61.9457 71.9961C61.9457 72.0776 61.9786 72.156 62.0375 72.215C62.0965 72.2741 62.177 72.3092 62.2624 72.3132H64.9926C65.078 72.3092 65.1585 72.2741 65.2174 72.215C65.2764 72.156 65.3093 72.0776 65.3093 71.9961C65.3093 71.9146 65.2764 71.8362 65.2174 71.7771C65.1585 71.7181 65.078 71.6829 64.9926 71.679H62.2624Z" fill="black"/>
<path d="M119.047 65.4172C118.724 66.2704 118.401 67.1242 118.078 67.9785C117.932 68.3638 118.575 68.529 118.717 68.1468C119.04 67.2935 119.363 66.44 119.686 65.5862C119.833 65.2009 119.191 65.0349 119.047 65.4172Z" fill="black"/>
<path d="M126.687 67.993C126.515 68.8549 126.216 69.6892 125.799 70.4714C125.604 70.8338 126.178 71.1566 126.373 70.7912C126.82 69.962 127.142 69.0769 127.331 68.162C127.41 67.7646 126.769 67.5902 126.687 67.993Z" fill="black"/>
<path d="M134.255 61.394C136.115 61.5495 137.963 61.8263 139.783 62.2224C140.2 62.313 140.378 61.7016 139.96 61.6133C138.081 61.205 136.175 60.9206 134.255 60.762C133.827 60.724 133.831 61.3582 134.255 61.394Z" fill="black"/>
<path d="M144.895 72.2904C145.592 71.8472 146.225 71.3174 146.775 70.715C147.055 70.4105 146.586 69.9536 146.305 70.2666C145.795 70.8307 145.207 71.327 144.559 71.7421C144.208 71.9683 144.537 72.5188 144.895 72.2904Z" fill="black"/>
<path d="M89.7011 57.9494C89.666 57.2448 89.6314 56.5403 89.5973 55.8357C89.5774 55.4299 88.9122 55.4276 88.9321 55.8357C88.9667 56.5408 89.0013 57.2454 89.036 57.9494C89.0559 58.356 89.7211 58.3583 89.7011 57.9494Z" fill="black"/>
<path d="M105.86 47.9034C105.858 47.8198 105.822 47.7402 105.76 47.6811C105.698 47.6219 105.614 47.5879 105.527 47.5859C105.483 47.5859 105.44 47.5942 105.399 47.6101C105.359 47.6261 105.322 47.6495 105.291 47.679C105.261 47.7085 105.236 47.7435 105.22 47.782C105.203 47.8205 105.194 47.8618 105.194 47.9034C105.404 49.6506 105.656 51.3927 105.949 53.1297C105.973 53.2104 106.03 53.2789 106.106 53.3203C106.183 53.3617 106.274 53.3728 106.359 53.3513C106.443 53.3271 106.513 53.2732 106.557 53.2006C106.6 53.1281 106.612 53.0424 106.591 52.9614C106.308 51.2802 106.064 49.5943 105.86 47.9034Z" fill="black"/>
<path d="M93.0523 5.71051H70.8416C70.808 5.7676 70.7728 5.82625 70.7421 5.88387C72.8768 8.12707 76.0567 9.75307 79.7127 10.4708C80.4764 10.613 81.2648 10.6754 82.0534 10.6562C82.049 10.2582 82.0322 9.86013 82.0395 9.46209C82.0431 9.41237 82.0732 9.36554 82.1237 9.33126C82.1741 9.29698 82.241 9.27786 82.3105 9.27786C82.38 9.27786 82.4469 9.29698 82.4973 9.33126C82.5478 9.36554 82.5779 9.41237 82.5815 9.46209C82.5815 9.57941 82.5932 10.365 82.5954 10.641C84.755 10.5142 86.8392 10.0139 88.6692 9.18311C90.4992 8.3523 92.0201 7.21583 93.1013 5.8713C93.0874 5.81736 93.0692 5.76341 93.0523 5.71051Z" fill="#FFD500"/>
<path d="M93.8975 5.62891C93.8957 5.65988 93.885 5.69015 93.8661 5.71743C92.7144 7.29167 91.0889 8.62335 89.1302 9.5974C87.1714 10.5715 84.9383 11.1586 82.6237 11.3081C82.6282 11.7658 82.6409 12.2241 82.6327 12.6819C82.629 12.7372 82.5982 12.7892 82.5468 12.8274C82.4954 12.8655 82.4272 12.8867 82.3562 12.8867C82.2853 12.8867 82.2171 12.8655 82.1657 12.8274C82.1142 12.7892 82.0835 12.7372 82.0798 12.6819C82.0798 12.5514 82.0642 11.3203 82.0642 11.3203C80.9985 11.3355 79.9367 11.2155 78.9202 10.9651C75.3116 10.0139 72.188 8.18567 70.007 5.74829C69.9752 5.72522 69.9531 5.69518 69.9436 5.6621C69.9436 7.51343 70.0428 16.8743 70.0466 17.1969C70.066 17.0915 69.7399 17.346 74.9273 13.8134C75.1944 13.6317 75.5868 13.9357 75.3182 14.1186L70.5196 17.3868C70.4856 17.4087 70.4457 17.4243 70.4029 17.4324C70.3601 17.4406 70.3155 17.4411 70.2724 17.4339C70.2294 17.4266 70.1889 17.4119 70.1542 17.3907C70.1195 17.3695 70.0914 17.3425 70.0719 17.3117C70.0919 17.3519 70.1269 17.3866 70.1724 17.4112C70.2179 17.4358 70.2717 17.4492 70.3271 17.4497C70.8754 17.4532 93.4222 17.5079 93.6043 17.512C93.6537 17.5138 93.7025 17.5035 93.7441 17.4827C93.7857 17.4618 93.8179 17.4313 93.8363 17.3955C93.8168 17.4246 93.7888 17.4496 93.7546 17.4688C93.7205 17.4879 93.6811 17.5005 93.6396 17.5057C93.5981 17.5108 93.5556 17.5083 93.5155 17.4984C93.4755 17.4885 93.4389 17.4714 93.4088 17.4485L88.9779 14.118C88.7213 13.9252 89.1122 13.6201 89.3689 13.8128C93.3387 16.7974 93.8318 17.1428 93.8811 17.2371C93.8773 13.22 93.9087 6.45295 93.8975 5.62891Z" fill="#FFD500"/>
<path d="M75.7699 14.9875C75.8441 14.9265 77.6583 13.4166 77.7404 13.3483C77.8506 13.2565 77.6895 13.1041 77.5798 13.1952C75.4299 14.9834 75.5843 14.8412 75.5757 14.8923C75.5737 14.9145 75.5786 14.9369 75.5899 14.9564C75.6013 14.976 75.6184 14.9919 75.6393 15.0021C75.6601 15.0123 75.6837 15.0164 75.7069 15.0138C75.7302 15.0112 75.7521 15.002 75.7699 14.9875Z" fill="black"/>
<path d="M83.51 13.1964C83.4046 13.0997 83.2438 13.2528 83.3495 13.3495C83.8813 13.8379 85.1006 14.9583 85.1689 15.02C85.27 15.1111 85.4182 14.9729 85.3456 14.8897C85.273 14.8064 84.9388 14.5085 83.51 13.1964Z" fill="black"/>
<path d="M102.338 65.3206L102.048 66.3092H96.5252L96.815 65.3206H102.338ZM99.7468 71.9854L96.6275 68.1672L96.6105 67.4513H98.1616C98.565 67.4513 98.9088 67.3944 99.1928 67.2808C99.4769 67.1643 99.6943 66.991 99.8448 66.7609C99.9954 66.528 100.071 66.2354 100.071 65.8831C100.071 65.3632 99.9144 64.9555 99.6019 64.6601C99.2894 64.3618 98.8093 64.2126 98.1616 64.2126H96.5252L96.815 63.2581H98.1616C98.8548 63.2581 99.423 63.3731 99.8661 63.6032C100.312 63.8305 100.642 64.143 100.855 64.5407C101.071 64.9356 101.179 65.3831 101.179 65.8831C101.179 66.3348 101.079 66.751 100.88 67.1317C100.684 67.5095 100.369 67.8135 99.9343 68.0436C99.5025 68.2737 98.9315 68.3888 98.2213 68.3888H98.1957L101.076 71.9172V71.9854H99.7468ZM102.338 63.2581L102.048 64.2467L97.7014 64.2126L97.9911 63.2581H102.338Z" fill="black"/>
</svg>
