<svg width="154" height="154" viewBox="0 0 154 154" fill="none" xmlns="http://www.w3.org/2000/svg">
<path d="M40.931 78.6079C40.931 78.5387 40.9035 78.4723 40.8546 78.4234C40.8057 78.3745 40.7393 78.347 40.6701 78.347C40.601 78.347 40.5346 78.3745 40.4857 78.4234C40.4368 78.4723 40.4093 78.5387 40.4093 78.6079V83.035C40.5827 82.989 40.7561 82.9406 40.931 82.8977C40.931 81.5104 40.954 79.9667 40.931 78.6079Z" fill="#FFD2D2"/>
<path d="M40.4092 127.826C40.4092 127.896 40.4367 127.962 40.4856 128.011C40.5346 128.06 40.6009 128.087 40.6701 128.087C40.7393 128.087 40.8057 128.06 40.8546 128.011C40.9035 127.962 40.931 127.896 40.931 127.826V112.174C40.7576 112.225 40.5837 112.274 40.4092 112.319C40.4092 117.668 40.3164 122.456 40.4092 127.826Z" fill="#FFD2D2"/>
<path d="M36.4782 114.623C35.3907 114.063 34.2578 113.597 33.0915 113.228C30.3985 113.316 27.7089 112.972 25.125 112.209C22.3536 112.345 19.6335 113.007 17.1101 114.161C16.8623 114.275 17.0019 114.642 17.2421 114.648L36.347 115.108C36.4036 115.107 36.4583 115.088 36.5029 115.053C36.5475 115.018 36.5796 114.97 36.5944 114.915C36.6092 114.86 36.6059 114.802 36.5849 114.75C36.564 114.697 36.5265 114.653 36.4782 114.623Z" fill="#2755A0"/>
<path d="M16.6976 116.641C16.8772 116.357 16.426 116.095 16.2472 116.378L9.09939 127.692C8.91986 127.977 9.37101 128.238 9.54978 127.955L16.6976 116.641Z" fill="#2755A0"/>
<path d="M36.6066 116.51C36.5958 116.175 36.0741 116.173 36.0848 116.51L36.4531 127.823C36.4639 128.159 36.9856 128.16 36.9749 127.823L36.6066 116.51Z" fill="#2755A0"/>
<path d="M127.194 56.5636C126.637 55.5363 125.333 55.6836 124.693 54.6808C124.476 54.3401 124.337 53.958 124.144 53.6066C123.344 52.1342 121.607 51.8519 120.078 51.9117C119.102 52.0308 118.116 52.0229 117.143 51.8879C116.967 51.8592 116.8 51.7936 116.651 51.6954C116.503 51.5973 116.376 51.4689 116.281 51.3186C115.799 50.391 116.107 49.3598 115.521 48.3938C115.133 47.7789 114.551 47.3108 113.867 47.0634C112.123 46.3943 110.287 46.9329 108.491 46.7826C106.093 46.5815 106.898 43.6069 104.857 42.2864C102.728 41.0864 100.33 42.3831 98.1392 43.1687C95.3824 44.1585 94.4916 42.746 92.8704 42.9439C92.0748 43.0872 91.3556 43.5074 90.8402 44.1301C90.2611 44.6795 89.8554 45.3863 89.6733 46.1635C89.4911 46.9406 89.5404 47.7541 89.8151 48.5035C90.6944 50.1532 91.4785 50.2084 92.0755 51.6731C92.5121 53.0826 90.8425 54.2879 91.3412 55.6874C91.8668 57.1606 93.7197 57.0255 94.9351 57.5089C95.3561 56.9478 95.8263 56.4253 96.3399 55.9475L96.3507 55.9284C97.8516 54.5766 99.6746 53.6329 101.645 53.1877C105.635 52.2439 110.896 52.8969 114.903 54.1659C115.759 54.2976 116.608 54.4725 117.446 54.69C120.818 55.4367 124.137 56.4011 127.384 57.5772C127.428 57.2278 127.362 56.8734 127.194 56.5636ZM99.3668 50.1424C99.233 50.6155 98.9854 51.0486 98.6455 51.4039C98.3056 51.7591 97.8839 52.0257 97.4172 52.1803C96.7891 52.3997 96.0999 52.3625 95.4991 52.0768C94.8983 51.7911 94.4346 51.2798 94.2085 50.6542C94.0159 50.0602 94.0255 49.4192 94.2356 48.8312C94.4458 48.2433 94.8447 47.7414 95.3701 47.404C95.8017 47.1036 96.3145 46.9417 96.8404 46.9397C97.3662 46.9378 97.8802 47.0959 98.314 47.3932C98.7478 47.6904 99.0809 48.1126 99.2689 48.6037C99.457 49.0948 99.4911 49.6315 99.3668 50.1424Z" fill="black"/>
<path d="M28.5544 78.0119C28.6618 77.0911 27.6337 76.073 26.8825 75.5827C26.5592 75.4379 26.2108 75.3574 25.8567 75.3456C24.5918 75.1542 23.3052 75.1542 22.0403 75.3456C24.2523 76.4735 25.1984 79.0584 27.5516 78.9203C27.7989 78.911 28.035 78.8149 28.2184 78.6487C28.4018 78.4826 28.5208 78.2571 28.5544 78.0119Z" fill="white"/>
<path d="M31.0224 76.8593C29.5883 75.8736 27.964 75.1987 26.2536 74.8779C24.5433 74.5571 22.7848 74.5974 21.091 74.9964C21.0758 75.0009 21.0611 75.0071 21.0472 75.0148C20.2938 75.1895 19.5602 75.4412 18.8582 75.7659C16.4317 76.9408 14.3101 78.6614 12.6595 80.793C12.1775 81.4038 11.7214 82.0346 11.2922 82.6836C10.968 83.1605 10.6963 83.6712 10.482 84.2066C10.9153 83.4162 11.5 82.7188 12.2027 82.1543C12.9055 81.5898 13.7126 81.1693 14.5779 80.9167C15.4432 80.6641 16.3498 80.5845 17.2458 80.6823C18.1419 80.7801 19.01 81.0534 19.8004 81.4867C20.5909 81.9199 21.2882 82.5046 21.8527 83.2074C22.4172 83.9102 22.8377 84.7172 23.0903 85.5825C23.3429 86.4478 23.4225 87.3544 23.3248 88.2505C23.227 89.1466 22.9536 90.0146 22.5204 90.8051C22.0731 91.6076 20.8378 93.934 20.3682 95.1064C21.7493 95.4493 24.2406 92.437 26.2293 90.7023C29.227 88.0735 32.6337 85.9517 36.315 84.4207C35.0107 81.7015 33.6327 78.7982 31.0224 76.8593ZM22.0408 75.3455C23.3058 75.154 24.5923 75.154 25.8572 75.3455C26.211 75.3571 26.5591 75.4374 26.8823 75.5818C27.625 76.0675 28.6623 77.081 28.5541 78.0109C28.5206 78.256 28.4017 78.4814 28.2185 78.6476C28.0352 78.8137 27.7993 78.9099 27.5521 78.9194C25.2096 79.0575 24.2352 76.4641 22.0408 75.3455Z" fill="#FFF0B3"/>
<path d="M43.4796 95.3336C38.9051 100.46 35.754 104.206 28.6361 107.226C25.8894 108.392 22.9994 109.186 20.0427 109.588C22.1098 111.187 24.5332 112.263 27.1061 112.723C30.4014 113.32 33.7693 113.402 37.0898 112.967C40.0421 112.668 42.8905 111.714 45.4276 110.175C45.3548 109.612 43.5594 95.939 43.4796 95.3336Z" fill="#FFC431"/>
<path d="M112.608 94.8017C109.758 94.4496 107.879 95.6649 105.565 95.2506C104.85 95.1232 103.895 94.7994 103.653 94.023C103.573 93.6118 103.654 93.1856 103.879 92.8323C104.104 92.4791 104.456 92.2258 104.863 92.1248C105.557 91.9063 106.267 91.7381 106.985 91.6214C106.187 91.6329 105.451 91.6306 104.625 91.5639C104.073 91.5545 103.534 91.3954 103.065 91.1035C102.838 90.9588 102.654 90.755 102.534 90.5139C102.413 90.2728 102.36 90.0035 102.381 89.7347C102.419 89.5041 102.513 89.2865 102.655 89.1011C102.798 88.9157 102.983 88.7683 103.196 88.6721C104.541 88.1634 105.915 87.7353 107.311 87.39L104.944 87.5779C103.978 87.6547 102.526 87.8181 102.095 86.6718C101.716 85.6652 102.731 85.0329 103.512 84.7084C104.773 84.1906 106.093 83.8266 107.442 83.6242C105.422 81.6094 103.397 79.5999 101.395 77.5682C99.0931 80.605 96.2412 83.6058 92.5913 84.7038C85.5401 86.8161 77.513 83.3227 73.2854 78.0807C72.2996 76.8114 71.5527 75.3734 71.081 73.837H61.4135C61.2062 75.511 60.833 77.1603 60.2994 78.7605C60.2809 78.8195 60.2421 78.8701 60.1899 78.9033C60.1376 78.9364 60.0754 78.9501 60.0141 78.9418C59.9528 78.9336 59.8964 78.9039 59.8548 78.8581C59.8132 78.8123 59.7892 78.7533 59.7869 78.6915C59.6795 76.6199 59.8046 75.4951 59.7555 73.837H40.9513C40.8823 73.8374 40.8161 73.865 40.7673 73.9139C40.7185 73.9627 40.6909 74.0288 40.6905 74.0979L41.8199 82.6989C44.4018 82.1276 47.0533 81.9366 49.6905 82.1319C51.3178 82.257 53.1669 82.4166 54.5526 83.3634C56.2406 84.5143 55.5416 85.8363 53.882 86.1155C52.5289 86.2972 51.1655 86.3915 49.8002 86.3979C50.3672 86.5652 50.9304 86.7447 51.4882 86.9403C52.2132 87.1935 53.1992 87.4191 53.668 88.0912C53.8801 88.4393 53.9517 88.8551 53.8684 89.2542C53.785 89.6532 53.5529 90.0055 53.2191 90.2396C52.0575 91.0721 50.8184 90.5918 49.5754 90.1836C50.2431 90.5739 50.8761 91.0208 51.4675 91.5194C51.7643 91.737 52.0071 92.02 52.1772 92.3465C52.305 92.7107 52.3015 93.1081 52.1673 93.47C52.033 93.832 51.7765 94.1356 51.4421 94.3283C51.0356 94.5238 50.5908 94.6267 50.1397 94.6296C49.6886 94.6325 49.2425 94.5354 48.8334 94.3452C47.9787 93.8912 47.0512 93.59 46.0928 93.4552C44.9825 93.4437 44.3281 94.3874 43.4764 95.3381L46.4373 117.883C46.4388 117.952 46.4668 118.018 46.5154 118.066C46.564 118.115 46.6294 118.143 46.6981 118.144H49.5263C48.0916 114.234 47.3879 110.093 47.4501 105.928C47.5222 101.55 48.6777 97.8992 52.3099 95.1861C55.6475 92.8102 59.6452 91.5387 63.7422 91.5501C63.7585 91.5509 63.7746 91.5532 63.7905 91.557C64.0552 91.4803 66.7943 91.5317 67.5401 91.557C69.4583 91.6337 73.6982 91.9843 73.788 91.9905C77.0472 92.4092 80.2398 93.242 83.2882 94.4687C84.7966 94.9788 86.2018 95.7542 87.4376 96.7583C89.5614 98.012 90.7031 100.533 90.9808 102.859C91.0575 103.48 92.0297 115.434 92.0366 115.511C92.4726 111.728 92.6505 107.921 92.5691 104.114C92.5215 101.846 92.2621 101.079 92.7831 99.8818C92.923 99.6147 93.1322 99.3902 93.3886 99.2317C93.6451 99.0732 93.9395 98.9867 94.2409 98.981C94.4923 98.9947 94.7359 99.0729 94.9481 99.2083C95.1604 99.3436 95.3341 99.5315 95.4524 99.7537C95.8675 100.522 96.1051 101.374 96.1476 102.246C96.4443 101.901 96.8255 101.638 97.2539 101.485C97.6823 101.331 98.1433 101.291 98.5917 101.369C99.0402 101.446 99.4608 101.639 99.8124 101.928C100.164 102.217 100.435 102.593 100.598 103.018C102.029 102.145 103.374 103.409 103.658 105.073C104.107 105.08 104.538 105.251 104.871 105.552C105.204 105.853 105.416 106.265 105.468 106.71C106.189 110.485 106.212 114.36 105.536 118.143H115.379C115.448 118.142 115.514 118.115 115.563 118.066C115.612 118.017 115.64 117.951 115.64 117.882C114.847 111.857 113.127 98.7539 112.608 94.8017ZM70.8885 87.782C70.3096 88.421 69.5066 88.8121 68.6466 88.8739C67.7867 88.9356 66.936 88.6633 66.2718 88.1135C65.7559 87.6066 65.4035 86.957 65.2597 86.2482C65.116 85.5394 65.1877 84.8038 65.4654 84.136C66.6232 80.9764 70.2578 81.4774 71.3734 84.07C71.6416 84.6735 71.7382 85.3393 71.6527 85.9942C71.5671 86.6491 71.3027 87.2677 70.8885 87.782ZM72.8741 79.8547C72.6701 80.6135 71.7585 80.582 71.1294 80.615C70.5156 80.648 67.4151 80.8199 66.4744 80.8383C66.4342 80.8382 66.3946 80.8288 66.3586 80.8109C66.3226 80.793 66.2912 80.7671 66.2669 80.7351C66.2425 80.7031 66.2259 80.666 66.2182 80.6265C66.2106 80.5871 66.2121 80.5464 66.2227 80.5076C66.8364 78.71 67.6745 76.9969 68.7171 75.4091C68.7994 75.2452 68.915 75.1002 69.0565 74.9834C69.198 74.8667 69.3623 74.7806 69.5388 74.7309C69.628 74.7119 69.72 74.7108 69.8096 74.7275C69.8992 74.7443 69.9846 74.7787 70.0608 74.8286C70.137 74.8785 70.2027 74.943 70.2538 75.0185C70.305 75.0939 70.3408 75.1787 70.3591 75.2679C70.4381 75.7905 70.3475 76.3245 70.1005 76.7917C70.3096 76.6772 70.529 76.5824 70.7557 76.5086C70.9903 76.3991 71.2553 76.3733 71.5066 76.4354C71.7579 76.4975 71.9803 76.6439 72.1368 76.8501C72.2505 77.0984 72.2796 77.3772 72.2197 77.6436C72.1599 77.9101 72.0143 78.1496 71.8053 78.3255C71.5821 78.5495 71.3456 78.7598 71.0972 78.9554C71.3847 78.926 71.6742 78.9211 71.9626 78.9408C72.2287 78.933 72.4893 79.0176 72.7 79.1802C72.7862 79.2671 72.8477 79.3754 72.8783 79.4939C72.9089 79.6124 72.9075 79.7369 72.8741 79.8547ZM92.8084 96.2572C92.7455 96.0439 91.7573 92.5744 91.3637 91.0398C91.3503 90.9748 91.3621 90.9071 91.3968 90.8505C91.4314 90.7938 91.4863 90.7525 91.5504 90.7348C91.6144 90.7172 91.6827 90.7245 91.7415 90.7554C91.8003 90.7862 91.8452 90.8383 91.867 90.901C91.9299 91.1143 92.9159 94.5838 93.3118 96.1184C93.3209 96.1514 93.3234 96.1859 93.3192 96.22C93.315 96.254 93.3041 96.2868 93.2872 96.3167C93.2702 96.3465 93.2476 96.3727 93.2206 96.3937C93.1935 96.4148 93.1626 96.4303 93.1295 96.4395C93.0965 96.4486 93.062 96.4511 93.028 96.4469C92.9939 96.4427 92.9611 96.4318 92.9313 96.4149C92.9014 96.3979 92.8752 96.3753 92.8542 96.3483C92.8331 96.3212 92.8176 96.2903 92.8084 96.2572ZM94.5102 96.8603C94.3568 97.1603 93.9079 96.8956 94.0598 96.5971L96.9594 90.8718C97.1128 90.5718 97.5609 90.8365 97.4097 91.1357L94.5102 96.8603ZM99.644 96.3002L95.5829 97.7427C95.2652 97.8555 95.1294 97.3514 95.444 97.2393L99.5051 95.7969C99.8205 95.6841 99.9586 96.1882 99.644 96.3002Z" fill="#FFD2D2"/>
<path d="M98.6302 47.6319C98.1861 47.2436 97.6273 47.011 97.0388 46.9694C96.4503 46.9279 95.8644 47.0797 95.3701 47.4017C94.8504 47.7361 94.4543 48.2314 94.2423 48.812C94.0304 49.3926 94.0142 50.0266 94.1962 50.6173C94.3012 50.9342 94.4687 51.2268 94.6888 51.4778C94.9089 51.7289 95.1771 51.9332 95.4776 52.0787C95.7781 52.2242 96.1047 52.308 96.4381 52.325C96.7715 52.3421 97.105 52.292 97.4187 52.1779C99.4435 51.4927 100.172 48.9861 98.6302 47.6319Z" fill="#FC9070"/>
<path d="M94.2248 69.2188C92.5645 66.7636 92.2844 64.6766 92.6236 62.8559C91.9192 65.0342 91.5617 66.2426 90.4177 67.7948C89.8626 68.5677 89.118 69.185 88.2555 69.5871C87.4666 69.8409 86.6151 69.8213 85.8388 69.5312C85.0624 69.2412 84.4065 68.6978 83.9773 67.9889C83.4946 66.9847 83.2579 65.8801 83.2867 64.7664C83.2287 63.7114 83.2051 62.6549 83.2161 61.5984C83.2537 56.6786 84.4499 43.9275 81.6923 41.4193C81.1161 41.0375 80.4304 40.8557 79.7407 40.9017C79.0511 40.9477 78.3956 41.2191 77.8752 41.674C76.7849 42.5863 76.5271 43.7119 76.3821 45.1206C76.2664 46.2218 76.1917 47.3269 76.1581 48.4336C73.2946 45.9017 70.7926 43.8377 67.8087 42.3139C66.723 41.7592 64.4895 40.7418 63.7898 42.3822C63.6761 42.7904 63.6611 43.2198 63.7459 43.6349C63.8308 44.05 64.013 44.4391 64.2777 44.7699C64.725 45.4417 65.2182 46.0816 65.754 46.685C63.8285 45.8511 61.7603 45.3962 59.6627 45.3454C58.7197 45.3004 57.7877 45.5633 57.0071 46.0942C56.623 46.417 56.3681 46.8675 56.2893 47.3631C56.2105 47.8586 56.3131 48.3659 56.5782 48.7919C57.0823 49.5895 57.8673 50.1689 58.778 50.4155C57.6242 50.5562 56.5394 51.0406 55.6644 51.8058C55.3846 52.0482 55.1786 52.3645 55.07 52.7185C54.9615 53.0725 54.9548 53.4499 55.0506 53.8075C55.1736 54.154 55.3714 54.4692 55.63 54.7306C55.8886 54.9919 56.2016 55.1931 56.5468 55.3198C57.2775 55.5778 58.0454 55.7151 58.8202 55.7265C61.4642 55.9198 66.146 55.8377 68.8015 55.7487C68.9757 61.9804 69.3524 73.1979 73.2877 78.0761C77.4893 83.2874 85.4872 86.8275 92.5936 84.6992C96.2428 83.6058 99.0916 80.605 101.397 77.5636C98.7409 75.0217 96.3388 72.2269 94.2248 69.2188ZM85.8425 82.9529H88.7581C88.8273 82.9529 88.8936 82.9803 88.9426 83.0293C88.9915 83.0782 89.019 83.1445 89.019 83.2137C89.019 83.2829 88.9915 83.3493 88.9426 83.3982C88.8936 83.4471 88.8273 83.4746 88.7581 83.4746H85.8425C85.7733 83.4746 85.7069 83.4471 85.658 83.3982C85.6091 83.3493 85.5816 83.2829 85.5816 83.2137C85.5816 83.1445 85.6091 83.0782 85.658 83.0293C85.7069 82.9803 85.7733 82.9529 85.8425 82.9529ZM76.1964 48.9845C76.2297 48.9515 76.2714 48.9283 76.317 48.9174C76.3626 48.9065 76.4103 48.9084 76.4549 48.9228C76.4995 48.9372 76.5393 48.9637 76.5699 48.9992C76.6005 49.0347 76.6207 49.0779 76.6284 49.1242C76.7105 49.4418 76.2356 49.3927 75.1898 51.2595C75.161 51.3094 75.1165 51.3484 75.0631 51.3702C75.0098 51.392 74.9507 51.3954 74.8951 51.3799C73.1788 50.7313 71.2767 50.7809 69.5964 51.518C69.2895 51.6523 69.0271 51.2035 69.3332 51.0676C71.073 50.2935 73.0407 50.2037 74.8437 50.816C75.2198 50.1537 75.674 49.5388 76.1964 48.9845ZM61.2724 50.4055C62.3389 50.4254 63.4046 50.4515 64.4696 50.5229C64.8033 50.5451 64.8049 51.0669 64.4696 51.0446C63.4053 50.9721 62.3391 50.933 61.2724 50.9272C61.2032 50.9272 61.1368 50.8998 61.0879 50.8508C61.039 50.8019 61.0115 50.7356 61.0115 50.6664C61.0115 50.5972 61.039 50.5308 61.0879 50.4819C61.1368 50.433 61.2032 50.4055 61.2724 50.4055ZM67.7105 47.7316L70.5609 48.9178C70.8678 49.0451 70.732 49.55 70.422 49.4211L67.5716 48.2349C67.2655 48.1075 67.4005 47.6027 67.7105 47.7316Z" fill="#FC9070"/>
<path d="M69.3334 51.0677C69.0265 51.2035 69.292 51.6524 69.5966 51.5181C71.2768 50.781 73.179 50.7314 74.8953 51.38C74.9511 51.3959 75.0105 51.3927 75.0642 51.3709C75.1179 51.349 75.1627 51.3098 75.1915 51.2596C75.5643 50.5665 76.0268 49.9257 76.5672 49.3537C76.6041 49.3137 76.6277 49.2633 76.6348 49.2094C76.642 49.1555 76.6323 49.1007 76.6071 49.0524C76.5819 49.0042 76.5425 48.965 76.4941 48.9401C76.4458 48.9152 76.3909 48.9058 76.337 48.9133C76.2212 48.9324 76.1836 49.0038 76.1068 49.0859C75.6201 49.6116 75.1963 50.1923 74.8439 50.8161C73.0408 50.2037 71.0732 50.2936 69.3334 51.0677Z" fill="#FF4848"/>
<path d="M64.4695 50.523C63.4045 50.4516 62.3388 50.391 61.2723 50.4056C61.2031 50.4056 61.1368 50.4331 61.0879 50.482C61.0389 50.5309 61.0114 50.5973 61.0114 50.6664C61.0114 50.7356 61.0389 50.802 61.0879 50.8509C61.1368 50.8998 61.2031 50.9273 61.2723 50.9273C62.3388 50.9496 63.4045 50.9733 64.4695 51.0447C64.8048 51.067 64.8033 50.5452 64.4695 50.523Z" fill="#FF4848"/>
<path d="M70.5609 48.9178L67.7106 47.7316C67.4037 47.6027 67.2656 48.1076 67.5717 48.2349L70.4221 49.4211C70.732 49.55 70.8671 49.0452 70.5609 48.9178Z" fill="#FF4848"/>
<path d="M74.0846 132.134C73.2201 131.64 72.3272 131.198 71.4107 130.81C67.7246 130.715 64.0688 130.115 60.5454 129.028C58.114 129.41 55.7562 130.165 53.5557 131.268C53.5124 131.294 53.4778 131.333 53.4559 131.379C53.4341 131.425 53.426 131.476 53.4325 131.526C53.4391 131.577 53.4601 131.624 53.4929 131.663C53.5258 131.702 53.5692 131.73 53.6178 131.745C58.8584 132.744 64.1948 133.15 69.5263 132.956C70.8644 132.906 73.8229 132.702 74.0171 132.642C74.0755 132.636 74.1301 132.61 74.172 132.568C74.214 132.527 74.241 132.473 74.2487 132.414C74.2564 132.356 74.2445 132.297 74.2148 132.246C74.1851 132.195 74.1392 132.156 74.0846 132.134Z" fill="#2755A0"/>
<path d="M124.821 72.9002C122.122 68.8866 112.897 67.606 112.104 67.3613C110.514 66.8407 109.172 65.751 108.337 64.3015C107.502 62.852 107.231 61.1449 107.578 59.5082C107.925 57.8715 108.864 56.4206 110.215 55.4342C111.566 54.4478 113.235 53.9956 114.899 54.1643C111.056 52.9087 106.989 52.4916 102.971 52.9413C102.07 53.0601 101.185 53.2738 100.329 53.5789C100.534 53.5459 100.659 53.7976 100.577 53.9702C99.955 55.2807 99.7716 57.4996 98.0445 57.8234C97.0064 58.0206 96.4893 57.0562 96.2798 56.1822C96.2702 56.1414 96.2704 56.0989 96.2802 56.0581C96.2901 56.0173 96.3094 55.9794 96.3366 55.9475C95.9531 56.2968 95.5973 56.6755 95.2724 57.0799C93.445 59.2418 92.4663 61.9945 92.5187 64.8247C92.7154 66.4077 93.3011 67.9174 94.2236 69.2188C97.2796 73.7288 100.844 77.0449 107.44 83.625C111.872 82.8999 116.654 83.3948 120.674 82.2439C125.559 80.8337 127.508 76.8969 124.821 72.9002Z" fill="#C0C195"/>
<path d="M87.4209 96.7361C84.9219 94.475 77.6367 92.4394 74.2239 92.0305C74.0323 91.9986 73.8382 91.984 73.6439 91.9867C73.6958 92.0051 73.7405 92.0394 73.7716 92.0848C73.8027 92.1302 73.8187 92.1842 73.8172 92.2392C73.8156 92.2942 73.7967 92.3473 73.7631 92.3909C73.7295 92.4344 73.6829 92.4662 73.6301 92.4816C73.5894 92.4916 70.1206 93.4223 69.9741 93.4645C66.5091 94.4451 64.4083 95.9305 62.1188 95.6573C61.8709 95.6599 61.6259 95.6032 61.4042 95.4921C61.1826 95.3809 60.9906 95.2185 60.8444 95.0182C60.3495 94.0515 61.9124 92.7655 62.7978 92.1356C63.028 91.9691 63.2743 91.8164 63.5152 91.6607C63.5983 91.6057 63.6914 91.5676 63.7891 91.5486C63.7733 91.5448 63.7571 91.5425 63.7408 91.5417C59.6439 91.5303 55.6461 92.8017 52.3086 95.1778C48.6948 97.8832 47.5208 101.519 47.4487 105.92C47.3815 110.607 48.28 115.258 50.0881 119.583C50.7229 121.15 51.5753 122.621 52.6201 123.95C52.2683 121.844 52.2112 119.7 52.4505 117.578C52.6387 116.221 53.099 114.916 53.8038 113.741C54.5087 112.567 55.4435 111.546 56.5523 110.742C61.2326 107.289 68.0475 110.009 69.9572 117.283C70.8618 120.736 70.5403 124.298 70.6723 127.82C70.6846 128.156 70.1628 128.155 70.1505 127.82C70.014 124.19 70.3807 120.273 69.2037 116.572C67.1728 110.187 60.5521 107.651 56.0482 111.815C55.0671 112.716 54.278 113.805 53.7282 115.018C53.1784 116.231 52.8793 117.543 52.8487 118.874C52.795 120.812 52.9289 122.751 53.2485 124.664C58.9308 130.642 70.3232 131.232 78.5874 130.721C79.8479 130.65 81.1015 130.485 82.3378 130.229C79.4153 128.08 77.5922 124.797 76.4805 121.359C74.9214 116.535 74.7365 111.356 74.85 106.321C74.8548 105.585 74.9035 104.851 74.9958 104.121C75.2952 102.389 75.9612 100.741 76.9493 99.2873C77.8535 97.9378 79.1501 96.8983 80.6639 96.3092C82.1778 95.7202 83.836 95.6099 85.4145 95.9934C86.1198 96.1281 86.7979 96.3791 87.4209 96.7361Z" fill="#CCEAFF"/>
<path d="M140.749 70.4581C140.145 66.8435 137.588 63.3448 134.835 61.3399C132.523 59.7701 130.017 58.5064 127.38 57.5803C124.132 56.4081 120.812 55.4437 117.442 54.6931C115.585 54.2281 114.542 53.9895 113.156 54.2197C111.38 54.5072 109.791 55.4866 108.736 56.9434C107.682 58.4002 107.247 60.2156 107.528 61.9921C107.718 63.2237 108.246 64.3782 109.054 65.3267C109.862 66.2752 110.918 66.9802 112.104 67.363C112.85 67.5931 122.131 68.9029 124.821 72.9018C127.51 76.9008 125.559 80.8354 120.677 82.2417C115.399 83.7609 109.003 82.4274 103.514 84.7108C102.733 85.0354 101.717 85.6676 102.097 86.6742C102.528 87.8205 103.98 87.6571 104.946 87.5804L107.313 87.3924C105.917 87.7379 104.543 88.1661 103.198 88.6745C102.985 88.7707 102.799 88.9181 102.657 89.1035C102.515 89.2889 102.421 89.5065 102.383 89.7372C102.362 90.0059 102.415 90.2752 102.535 90.5163C102.656 90.7574 102.84 90.9612 103.067 91.1059C103.536 91.3978 104.075 91.557 104.627 91.5663C105.462 91.6338 106.202 91.6346 106.987 91.6239C106.269 91.7413 105.559 91.9095 104.865 92.1272C104.458 92.2282 104.106 92.4815 103.881 92.8348C103.656 93.188 103.575 93.6142 103.655 94.0254C103.897 94.7996 104.852 95.1234 105.567 95.253C107.694 95.6367 109.723 94.5817 112.081 94.7466C113.783 94.8663 115.692 95.5315 117.417 95.7893C121.119 96.3463 124.903 95.827 128.317 94.2933C131.732 92.7595 134.633 90.2762 136.676 87.1392C140.312 81.7407 141.489 74.8852 140.749 70.4581ZM137.789 78.9563C137.568 79.9603 137.217 80.9309 136.744 81.8435C136.59 82.142 136.14 81.8781 136.294 81.5796C136.744 80.7061 137.077 79.7775 137.286 78.8174C137.358 78.4914 137.861 78.6295 137.789 78.9563ZM112.66 86.3175L114.209 86.1533C114.543 86.1172 114.539 86.6397 114.209 86.675L112.66 86.8392C112.327 86.8707 112.327 86.3481 112.66 86.3175ZM114.564 90.9978H112.941C112.872 90.9978 112.805 90.9703 112.757 90.9214C112.708 90.8724 112.68 90.8061 112.68 90.7369C112.68 90.6677 112.708 90.6014 112.757 90.5524C112.805 90.5035 112.872 90.476 112.941 90.476H114.562C114.631 90.476 114.698 90.5035 114.747 90.5524C114.796 90.6014 114.823 90.6677 114.823 90.7369C114.823 90.8061 114.796 90.8724 114.747 90.9214C114.698 90.9703 114.631 90.9978 114.562 90.9978H114.564Z" fill="#FC9070"/>
<path d="M105.467 106.706C105.416 106.26 105.204 105.848 104.871 105.546C104.538 105.245 104.106 105.075 103.657 105.069C103.374 103.411 102.031 102.138 100.597 103.013C100.434 102.588 100.163 102.213 99.8114 101.924C99.4598 101.635 99.0392 101.442 98.5907 101.364C98.1422 101.286 97.6813 101.326 97.2528 101.48C96.8244 101.634 96.4432 101.896 96.1466 102.241C96.104 101.369 95.8665 100.517 95.4514 99.7491C95.3332 99.5275 95.16 99.3401 94.9483 99.2049C94.7366 99.0697 94.4937 98.9913 94.243 98.9773C93.9415 98.9829 93.6472 99.0695 93.3907 99.228C93.1342 99.3864 92.9251 99.611 92.7852 99.878C92.268 101.069 92.5235 101.821 92.5711 104.11C92.6523 107.917 92.4744 111.725 92.0386 115.507C91.899 113.8 91.1271 104.07 90.9829 102.855C90.8036 101.258 90.2197 99.7341 89.2865 98.4264C88.4231 97.2421 87.1666 96.4036 85.7417 96.0609C84.1232 95.605 82.4021 95.6716 80.8238 96.2514C79.2454 96.8311 77.8904 97.8944 76.9519 99.2896C75.965 100.744 75.299 102.392 74.9985 104.123C74.9061 104.853 74.8574 105.588 74.8527 106.323C74.7391 111.359 74.924 116.538 76.4831 121.361C77.4151 124.627 79.2603 127.559 81.8018 129.812C83.3361 131.073 85.163 131.928 87.1143 132.297C90.9108 133.203 95.1783 133.362 98.7346 131.542C102.514 129.609 103.812 125.865 104.808 121.746C105.951 117.018 106.52 111.476 105.467 106.706ZM103.907 107.439C103.877 107.77 103.355 107.773 103.386 107.439C103.42 106.958 103.42 106.475 103.386 105.993C103.368 105.657 103.89 105.659 103.907 105.993C103.942 106.475 103.942 106.958 103.907 107.439ZM100.4 106.519C100.512 105.973 100.523 105.412 100.433 104.862C100.356 104.535 100.864 104.396 100.936 104.723C101.074 105.362 101.063 106.024 100.904 106.658C100.882 106.72 100.837 106.772 100.778 106.802C100.72 106.833 100.651 106.84 100.588 106.823C100.524 106.805 100.469 106.764 100.434 106.708C100.4 106.652 100.387 106.584 100.4 106.519V106.519ZM90.2616 129.739C91.4601 129.745 92.6586 129.734 93.8563 129.758C93.9231 129.761 93.986 129.79 94.0321 129.839C94.0781 129.888 94.1038 129.952 94.1038 130.019C94.1038 130.086 94.0781 130.15 94.0321 130.199C93.986 130.247 93.9231 130.277 93.8563 130.28C92.6586 130.297 91.4601 130.267 90.2616 130.261C90.2006 130.25 90.1454 130.218 90.1056 130.17C90.0658 130.123 90.044 130.063 90.044 130C90.044 129.938 90.0658 129.878 90.1056 129.831C90.1454 129.783 90.2006 129.751 90.2616 129.74V129.739ZM96.2064 102.722C96.2195 103.194 96.2248 104.516 96.1865 105.59C96.1742 105.925 95.6494 105.926 95.6647 105.59C95.6977 104.656 95.7031 103.572 95.6839 102.722C95.6875 102.655 95.7166 102.592 95.7652 102.546C95.8138 102.5 95.8782 102.474 95.9452 102.474C96.0121 102.474 96.0765 102.5 96.1251 102.546C96.1737 102.592 96.2028 102.655 96.2064 102.722Z" fill="#FF4848"/>
<path d="M73.6452 91.9867C73.62 91.9787 73.5944 91.9723 73.5685 91.9675C70.4585 91.6513 67.3337 91.5037 64.2078 91.5256C63.9692 91.4961 63.7273 91.5434 63.5173 91.6606C63.2764 91.8141 63.0332 91.9675 62.7999 92.1355C61.9145 92.7647 60.3516 94.0537 60.8465 95.0182C60.9927 95.2184 61.1846 95.3809 61.4063 95.492C61.6279 95.6032 61.8729 95.6598 62.1209 95.6573C64.3459 95.9228 66.7344 94.3813 69.9761 93.4644C70.1227 93.4222 73.5915 92.4916 73.6322 92.4816C73.6846 92.4657 73.7306 92.4337 73.7638 92.3901C73.797 92.3465 73.8157 92.2936 73.8171 92.2388C73.8186 92.1841 73.8027 92.1303 73.7719 92.085C73.741 92.0397 73.6967 92.0053 73.6452 91.9867Z" fill="white"/>
<path d="M100.28 53.5874C98.8274 54.0995 97.4905 54.8952 96.3475 55.9283L96.3367 55.9475C96.3095 55.9794 96.2902 56.0173 96.2804 56.0581C96.2705 56.0989 96.2704 56.1414 96.2799 56.1823C96.4894 57.0577 97.0066 58.0237 98.0447 57.8234C99.7702 57.4966 99.9536 55.2807 100.577 53.9702C100.601 53.9251 100.611 53.874 100.607 53.8231C100.602 53.7721 100.584 53.7235 100.552 53.6831C100.521 53.6427 100.479 53.6121 100.43 53.5952C100.382 53.5782 100.33 53.5755 100.28 53.5874Z" fill="white"/>
<path d="M93.856 129.758C92.658 129.732 91.4596 129.725 90.2614 129.74C90.1922 129.74 90.1259 129.767 90.0769 129.816C90.028 129.865 90.0005 129.932 90.0005 130.001C90.0005 130.07 90.028 130.136 90.0769 130.185C90.1259 130.234 90.1922 130.262 90.2614 130.262C91.4591 130.286 92.6583 130.299 93.856 130.281C93.9229 130.277 93.9858 130.248 94.0318 130.2C94.0779 130.151 94.1035 130.087 94.1035 130.02C94.1035 129.953 94.0779 129.888 94.0318 129.84C93.9858 129.791 93.9229 129.762 93.856 129.758Z" fill="#FC9070"/>
<path d="M100.435 104.863C100.525 105.412 100.514 105.974 100.402 106.519C100.389 106.584 100.401 106.652 100.436 106.709C100.47 106.765 100.525 106.807 100.589 106.824C100.653 106.842 100.721 106.835 100.78 106.804C100.839 106.773 100.884 106.721 100.906 106.658C101.065 106.025 101.076 105.363 100.938 104.724C100.864 104.396 100.358 104.535 100.435 104.863Z" fill="#FC9070"/>
<path d="M103.386 105.993C103.42 106.475 103.42 106.958 103.386 107.439C103.355 107.773 103.877 107.771 103.908 107.439C103.942 106.958 103.942 106.475 103.908 105.993C103.888 105.659 103.368 105.657 103.386 105.993Z" fill="#FC9070"/>
<path d="M95.6642 105.59C95.652 105.926 96.1737 105.926 96.186 105.59C96.2267 104.456 96.2151 103.058 96.2059 102.722C96.2023 102.655 96.1732 102.593 96.1246 102.546C96.076 102.5 96.0116 102.475 95.9447 102.475C95.8777 102.475 95.8134 102.5 95.7648 102.546C95.7162 102.593 95.6871 102.655 95.6834 102.722C95.7028 103.678 95.6964 104.635 95.6642 105.59Z" fill="#FC9070"/>
<path d="M71.374 84.0701C70.25 81.4614 66.617 80.9857 65.4661 84.1361C65.1883 84.8039 65.1167 85.5395 65.2604 86.2483C65.4041 86.9571 65.7566 87.6068 66.2725 88.1136C66.9367 88.6634 67.7873 88.9358 68.6473 88.874C69.5073 88.8123 70.3103 88.4212 70.8891 87.7822C71.3033 87.2678 71.5678 86.6492 71.6533 85.9943C71.7389 85.3395 71.6422 84.6737 71.374 84.0701Z" fill="#FF4848"/>
<path d="M72.6986 79.1818C72.4879 79.0192 72.2273 78.9346 71.9612 78.9425C71.6728 78.9228 71.3833 78.9276 71.0958 78.957C71.3442 78.7615 71.5807 78.5511 71.8039 78.3271C72.0129 78.1512 72.1585 77.9117 72.2183 77.6452C72.2782 77.3788 72.2491 77.1 72.1354 76.8517C71.9789 76.6455 71.7565 76.4991 71.5052 76.437C71.2539 76.3749 70.9889 76.4007 70.7543 76.5102C70.5276 76.584 70.3082 76.6788 70.0991 76.7934C70.3462 76.3259 70.4369 75.7916 70.3576 75.2688C70.3394 75.1795 70.3036 75.0947 70.2524 75.0193C70.2013 74.9439 70.1356 74.8794 70.0594 74.8294C69.9831 74.7795 69.8978 74.7452 69.8082 74.7284C69.7186 74.7116 69.6266 74.7128 69.5374 74.7317C69.3609 74.7815 69.1966 74.8675 69.0551 74.9843C68.9136 75.1011 68.798 75.246 68.7157 75.41C67.6736 76.9981 66.8356 78.711 66.2213 80.5084C66.2033 80.5756 66.2126 80.6472 66.2473 80.7075C66.2819 80.7677 66.3391 80.8118 66.4062 80.8299C66.5497 80.8683 70.4451 80.6519 71.128 80.6159C71.7571 80.5836 72.6686 80.6159 72.8727 79.8555C72.9059 79.7379 72.9073 79.6135 72.8767 79.4951C72.8461 79.3768 72.7846 79.2687 72.6986 79.1818Z" fill="black"/>
<path d="M46.3316 118.939V127.826C46.3316 127.896 46.3591 127.962 46.408 128.011C46.4569 128.06 46.5233 128.087 46.5925 128.087C46.6617 128.087 46.728 128.06 46.7769 128.011C46.8259 127.962 46.8533 127.896 46.8533 127.826V118.939C46.8533 118.87 46.8259 118.804 46.7769 118.755C46.728 118.706 46.6617 118.678 46.5925 118.678C46.5233 118.678 46.4569 118.706 46.408 118.755C46.3591 118.804 46.3316 118.87 46.3316 118.939Z" fill="#FFD2D2"/>
<path d="M115.117 118.741V127.826C115.117 127.896 115.145 127.962 115.194 128.011C115.243 128.06 115.309 128.087 115.378 128.087C115.447 128.087 115.514 128.06 115.563 128.011C115.612 127.962 115.639 127.896 115.639 127.826V118.741C115.639 118.672 115.612 118.606 115.563 118.557C115.514 118.508 115.447 118.48 115.378 118.48C115.309 118.48 115.243 118.508 115.194 118.557C115.145 118.606 115.117 118.672 115.117 118.741Z" fill="#FFD2D2"/>
<path d="M54.552 83.3603C53.1663 82.4135 51.3172 82.2539 49.6899 82.1288C41.2791 81.4843 32.7111 85.0444 26.2292 90.6991C24.3256 92.3595 21.7538 95.447 20.3681 95.1032C20.8599 93.8756 22.1535 91.461 22.5202 90.802C23.2416 89.497 23.5179 87.9924 23.3073 86.5163C23.0966 85.0402 22.4105 83.6729 21.3529 82.6218C20.2953 81.5708 18.9239 80.8931 17.4465 80.6915C15.9691 80.49 14.4662 80.7756 13.1658 81.505C12.0359 82.136 11.1055 83.0711 10.4803 84.2043C7.66524 88.8654 3.49822 94.2738 3.85347 100.317C4.02764 103.305 5.27444 106.378 7.78954 108.139C9.34858 109.123 11.1374 109.684 12.9793 109.766C17.4233 110.124 21.8938 109.582 26.1234 108.172C30.3531 106.762 34.2549 104.514 37.5955 101.561C39.8366 99.4382 41.9534 97.1877 43.9354 94.8209C44.5246 94.1557 45.1323 93.4398 46.0968 93.4506C47.0552 93.5853 47.9827 93.8865 48.8374 94.3406C49.2465 94.5308 49.6926 94.6279 50.1437 94.625C50.5948 94.6221 51.0396 94.5192 51.4461 94.3237C51.7805 94.1309 52.037 93.8273 52.1713 93.4654C52.3055 93.1035 52.309 92.7061 52.1812 92.3419C52.0111 92.0154 51.7683 91.7324 51.4714 91.5147C50.8797 91.0167 50.2467 90.5699 49.5794 90.1789C50.8223 90.5871 52.0615 91.0674 53.2231 90.235C53.5569 90.0009 53.789 89.6486 53.8724 89.2495C53.9557 88.8505 53.8841 88.4347 53.672 88.0866C53.2032 87.4176 52.2142 87.1927 51.4922 86.9357C50.9341 86.7398 50.3714 86.559 49.8042 86.3933C51.1693 86.384 52.5326 86.2897 53.886 86.1109C55.5387 85.8339 56.24 84.515 54.552 83.3603ZM44.9712 89.6595C44.6428 89.7232 44.5031 89.2199 44.8323 89.1569C45.4127 89.045 46.0088 89.0403 46.5909 89.1431C46.9216 89.2014 46.7804 89.704 46.452 89.6465C45.9619 89.5611 45.4604 89.5655 44.9719 89.6595H44.9712ZM44.6881 85.9674C45.2648 85.8251 45.8608 85.7777 46.4528 85.827C46.7858 85.8554 46.7881 86.3779 46.4528 86.3488C45.9088 86.3011 45.3608 86.342 44.83 86.47C44.5008 86.5475 44.3627 86.0472 44.6888 85.9674H44.6881ZM7.18033 103.282L9.03097 105.813C9.22892 106.085 8.77624 106.345 8.57982 106.077L6.72918 103.545C6.53122 103.274 6.98161 103.013 7.18033 103.282Z" fill="#9E647B"/>
<path d="M139.019 113.89C138.914 113.317 136.18 89.8183 136.169 89.7393C136.133 89.4094 135.611 89.4055 135.647 89.7393C136.023 93.1843 138.465 113.796 138.542 114.171C138.853 115.518 139.546 116.748 140.537 117.713C142.178 119.576 149.184 128.008 149.184 128.008C149.401 128.265 149.768 127.895 149.553 127.639C148.485 126.367 140.636 117.026 140.286 116.605C139.636 115.825 139.2 114.89 139.019 113.89Z" fill="#77751E"/>
<path d="M129.042 127.955C129.243 128.219 129.697 127.955 129.493 127.692L121.673 117.411C121.059 116.605 120.21 115.77 120.129 114.712C120.098 114.16 120.104 113.605 120.148 113.054C120.183 112.476 120.792 99.2475 120.945 96.661C120.965 96.3257 120.443 96.3265 120.423 96.661C120.148 101.314 119.637 112.922 119.59 114.069C119.564 114.593 119.643 115.116 119.821 115.609C120.244 116.534 119.802 115.761 129.042 127.955Z" fill="#77751E"/>
<path d="M106.65 118.672L104.686 127.754C104.614 128.082 105.118 128.222 105.189 127.893L107.153 118.811C107.224 118.483 106.721 118.344 106.65 118.672Z" fill="#77751E"/>
<path d="M123.287 121.398L122.036 127.754C121.971 128.082 122.474 128.222 122.539 127.893L123.79 121.537C123.855 121.209 123.352 121.068 123.287 121.398Z" fill="#77751E"/>
<path d="M22.8937 73.0891C22.4771 72.9464 22.3973 72.4661 22.4272 72.0809C22.4955 71.1962 23.7362 68.4679 22.6029 66.2052C22.3126 65.6185 21.8486 65.1353 21.2742 64.8214C20.6997 64.5075 20.0425 64.378 19.3919 64.4505C18.8733 64.485 18.7244 64.6423 18.241 64.4666C17.5589 64.2203 16.9712 63.8228 16.3996 64.2786C16.1204 64.6141 15.9799 65.0437 16.0068 65.4794C15.5356 65.4125 15.0553 65.4913 14.6302 65.705C14.2051 65.9188 13.8555 66.2575 13.6282 66.6755C13.1834 67.5179 12.9096 68.4399 12.8226 69.3886C12.6312 70.0058 12.5732 70.6566 12.6526 71.298C12.7319 71.9393 12.9468 72.5564 13.283 73.1083C14.7822 75.2512 18.1513 74.0428 22.8285 73.6047C22.8911 73.6026 22.9508 73.5783 22.9971 73.5362C23.0433 73.494 23.073 73.4368 23.0809 73.3747C23.0887 73.3126 23.0742 73.2498 23.0399 73.1974C23.0056 73.1451 22.9538 73.1067 22.8937 73.0891ZM20.6947 67.0645C21.1447 67.5024 21.4389 68.0755 21.5325 68.6963C21.6262 69.3171 21.5141 69.9515 21.2134 70.5026C21.008 70.8718 20.7218 71.1897 20.3761 71.4326C20.0304 71.6754 19.6342 71.8369 19.2173 71.9048C18.8003 71.9728 18.3734 71.9456 17.9685 71.8251C17.5636 71.7046 17.1911 71.4941 16.8791 71.2093C14.1085 68.7817 18.5088 65.2507 20.6947 67.0645Z" fill="black"/>
<path d="M136.744 81.8435C137.217 80.9309 137.568 79.9602 137.789 78.9562C137.861 78.6294 137.358 78.489 137.286 78.8174C137.077 79.7774 136.744 80.706 136.294 81.5795C136.14 81.878 136.59 82.1419 136.744 81.8435Z" fill="#FF4848"/>
<path d="M52.8494 118.878C53.0542 113.047 58.2018 108.257 63.4928 110.225C64.871 110.77 66.1041 111.627 67.0951 112.729C68.0861 113.831 68.8081 115.148 69.2044 116.576C70.3767 120.259 70.0161 124.157 70.1512 127.823C70.1634 128.159 70.6883 128.16 70.6729 127.823C70.5409 124.302 70.8624 120.736 69.9578 117.287C68.0481 110.013 61.2356 107.295 56.5529 110.746C55.4442 111.55 54.5093 112.57 53.8045 113.745C53.0996 114.92 52.6393 116.225 52.4511 117.582C51.9954 121.056 52.6583 124.223 53.233 127.893C53.2852 128.224 53.7877 128.083 53.7363 127.754C53.2015 124.327 52.7389 122.014 52.8494 118.878Z" fill="#2755A0"/>
<path d="M88.7578 82.9538H85.8422C85.773 82.9538 85.7067 82.9812 85.6578 83.0302C85.6088 83.0791 85.5814 83.1454 85.5814 83.2146C85.5814 83.2838 85.6088 83.3502 85.6578 83.3991C85.7067 83.448 85.773 83.4755 85.8422 83.4755H88.7578C88.827 83.4755 88.8934 83.448 88.9423 83.3991C88.9912 83.3502 89.0187 83.2838 89.0187 83.2146C89.0187 83.1454 88.9912 83.0791 88.9423 83.0302C88.8934 82.9812 88.827 82.9538 88.7578 82.9538Z" fill="#FF4848"/>
<path d="M114.209 86.1494L112.66 86.3136C112.33 86.3482 112.327 86.8707 112.66 86.8354L114.209 86.6712C114.539 86.6359 114.543 86.1134 114.209 86.1494Z" fill="#FF4848"/>
<path d="M114.563 90.4745H112.94C112.871 90.4745 112.805 90.502 112.756 90.5509C112.707 90.5998 112.679 90.6662 112.679 90.7354C112.679 90.8045 112.707 90.8709 112.756 90.9198C112.805 90.9687 112.871 90.9962 112.94 90.9962H114.562C114.631 90.9962 114.697 90.9687 114.746 90.9198C114.795 90.8709 114.822 90.8045 114.822 90.7354C114.822 90.6662 114.795 90.5998 114.746 90.5509C114.697 90.502 114.631 90.4745 114.562 90.4745H114.563Z" fill="#FF4848"/>
<path d="M20.6949 67.0644C18.9301 65.6004 15.6309 67.6475 16.033 69.7882C16.1978 70.4569 16.601 71.0426 17.1668 71.4353C17.7327 71.828 18.4224 72.0008 19.1066 71.9212C19.5459 71.8713 19.9668 71.7164 20.3335 71.4694C20.7003 71.2225 21.0021 70.8908 21.2135 70.5025C21.5142 69.9514 21.6263 69.317 21.5327 68.6962C21.439 68.0754 21.1448 67.5023 20.6949 67.0644Z" fill="#9E647B"/>
<path d="M76.1382 38.2758V27.6522C76.1382 27.583 76.1107 27.5167 76.0618 27.4678C76.0129 27.4188 75.9465 27.3914 75.8774 27.3914C75.8082 27.3914 75.7418 27.4188 75.6929 27.4678C75.644 27.5167 75.6165 27.583 75.6165 27.6522V38.2758C75.6165 38.345 75.644 38.4113 75.6929 38.4602C75.7418 38.5092 75.8082 38.5366 75.8774 38.5366C75.9465 38.5366 76.0129 38.5092 76.0618 38.4602C76.1107 38.4113 76.1382 38.345 76.1382 38.2758Z" fill="black"/>
<path d="M74.0951 38.7424C74.1441 38.7914 74.2105 38.8189 74.2797 38.8189C74.3489 38.8189 74.4153 38.7914 74.4642 38.7424C74.5131 38.6935 74.5406 38.6271 74.5406 38.5579C74.5406 38.4887 74.5131 38.4223 74.4642 38.3734C73.1082 36.9718 71.7292 35.5931 70.3271 34.237C70.2782 34.1881 70.2118 34.1606 70.1426 34.1606C70.0734 34.1606 70.007 34.1881 69.9581 34.237C69.9091 34.286 69.8816 34.3524 69.8816 34.4216C69.8816 34.4908 69.9091 34.5572 69.9581 34.6061L74.0951 38.7424Z" fill="black"/>
<path d="M77.302 38.8537C78.6079 37.5898 79.891 36.3033 81.1514 34.9944C81.2003 34.9454 81.2278 34.879 81.2278 34.8098C81.2278 34.7406 81.2003 34.6742 81.1514 34.6253C81.1024 34.5764 81.036 34.5489 80.9668 34.5489C80.8976 34.5489 80.8312 34.5764 80.7823 34.6253C79.4769 35.8892 78.1938 37.1757 76.9329 38.4846C76.884 38.5336 76.8565 38.6 76.8565 38.6692C76.8565 38.7384 76.884 38.8048 76.9329 38.8537C76.9819 38.9026 77.0483 38.9301 77.1175 38.9301C77.1867 38.9301 77.2531 38.9026 77.302 38.8537Z" fill="black"/>
<path d="M35.6775 57.5573C35.0959 57.0424 34.3141 57.2204 33.5591 57.1552C34.0948 57.7619 34.6747 58.3281 35.2939 58.8494C35.4257 58.8162 35.5467 58.7493 35.6449 58.6551C35.7431 58.561 35.8151 58.443 35.8538 58.3126C35.8925 58.1822 35.8966 58.044 35.8657 57.9116C35.8348 57.7792 35.7699 57.657 35.6775 57.5573Z" fill="#FFC431"/>
<path d="M61.5178 71.1448C61.4219 68.3826 60.2088 65.3627 57.8986 63.8243C55.2577 62.0665 52.115 62.3059 49.8753 60.2565C47.4968 58.0782 46.0336 53.1002 47.727 48.0002C48.917 44.4217 51.3738 40.2693 49.7272 36.3309C49.0445 34.7126 47.8834 33.3416 46.3996 32.4017C45.8733 33.4618 45.1248 34.3959 44.205 35.1407C43.2852 35.8854 42.2157 36.4231 41.0694 36.7173C39.923 37.0114 38.7268 37.0551 37.562 36.8453C36.3973 36.6355 35.2915 36.1771 34.3198 35.5015C33.6762 36.3621 33.1112 37.2788 32.6318 38.2406L34.863 37.1664C35.1646 37.0207 35.4293 37.4734 35.127 37.6168C32.3433 38.9572 32.3525 38.968 32.275 38.9818C32.0234 39.5296 31.7947 40.0874 31.5891 40.6552C31.5891 40.6552 33.0277 43.0698 33.5387 44.0012C33.5595 44.0413 33.5698 44.0859 33.5688 44.1309C33.5679 44.176 33.5556 44.2201 33.5331 44.2592C33.5107 44.2983 33.4788 44.3311 33.4403 44.3547C33.4019 44.3783 33.3582 44.3918 33.3131 44.3941H30.5794C30.1716 46.438 30.1171 48.5366 30.4183 50.5989C30.6619 52.187 31.2126 53.7123 32.0395 55.0898C32.1925 54.8046 32.4188 54.5652 32.6949 54.3964C32.9711 54.2276 33.2872 54.1353 33.6108 54.1291C34.3781 54.0716 35.7316 54.3969 36.116 53.4685C36.2901 53.0465 35.9295 52.6652 35.5628 52.5125C35.1319 52.3695 34.676 52.3172 34.2239 52.3591C33.4183 52.3767 32.3004 52.3721 32.1285 51.3616C32.0569 50.9605 32.1338 50.547 32.3449 50.1984C33.1505 49.0775 34.7909 49.3483 36.1643 49.5171C36.4935 49.5578 36.4958 50.0833 36.1643 50.0388C35.5935 49.9598 35.0187 49.9124 34.4426 49.8969C33.9687 49.8593 33.4942 49.9629 33.0791 50.1946C32.9007 50.3173 32.7641 50.4916 32.6876 50.6942C32.6111 50.8967 32.5983 51.1178 32.651 51.3279C32.9126 52.412 35.2689 51.2342 36.3523 52.435C36.4856 52.5926 36.5784 52.7805 36.6225 52.9822C36.6665 53.1839 36.6606 53.3933 36.6051 53.5921C36.5496 53.791 36.4463 53.9733 36.3042 54.123C36.1621 54.2728 35.9856 54.3855 35.7899 54.4514C34.5623 54.9002 34.1019 54.3862 32.9786 54.8074C32.8078 54.8941 32.667 55.0304 32.5748 55.1983C32.4825 55.3663 32.443 55.5581 32.4615 55.7488C32.6292 56.0071 32.8116 56.2556 33.0078 56.4931C33.7474 56.8314 34.1733 56.4931 35.4745 56.8476C35.6601 56.8934 35.8326 56.9815 35.9785 57.1049C36.1244 57.2284 36.2398 57.3839 36.3157 57.5594C36.3916 57.7348 36.426 57.9254 36.4161 58.1163C36.4062 58.3072 36.3523 58.4932 36.2587 58.6598C36.131 58.8822 35.9488 59.0684 35.7293 59.2008C41.9871 63.9908 49.1449 64.3414 55.5063 66.7967C60.8004 68.8407 59.5375 73.8448 59.7884 78.6824C59.7907 78.7442 59.8147 78.8032 59.8563 78.849C59.8979 78.8948 59.9543 78.9245 60.0156 78.9327C60.0769 78.941 60.1391 78.9273 60.1913 78.8941C60.2435 78.861 60.2823 78.8104 60.3009 78.7514C61.1611 76.3098 61.5734 73.7329 61.5178 71.1448ZM36.9316 48.4805L34.484 45.5757C34.2684 45.3202 34.6374 44.9496 34.853 45.2066L37.3006 48.1138C37.5193 48.367 37.1479 48.7376 36.9316 48.4805ZM44.9426 47.2337C44.8229 47.3427 45.228 47.3457 40.362 47.3105C40.2931 47.3097 40.2272 47.2819 40.1784 47.2332C40.1297 47.1844 40.1019 47.1185 40.1011 47.0496V42.6532C40.1021 42.5843 40.1299 42.5185 40.1786 42.4698C40.2274 42.4211 40.2931 42.3933 40.362 42.3923H44.7584C44.8274 42.3931 44.8933 42.4208 44.942 42.4696C44.9908 42.5183 45.0185 42.5842 45.0193 42.6532C45.0546 47.5391 45.0538 47.0856 44.9426 47.2337Z" fill="#FFD500"/>
<path d="M33.5387 44.0011C33.0277 43.0697 28.1164 34.6858 27.8809 34.2899C27.863 34.2602 27.8394 34.2343 27.8115 34.2138C27.7836 34.1933 27.7519 34.1784 27.7183 34.1701C27.6846 34.1619 27.6497 34.1603 27.6154 34.1656C27.5812 34.1709 27.5483 34.1829 27.5187 34.2009C27.4366 34.2507 27.7174 33.6131 21.7727 44.0011C21.7502 44.0409 21.7384 44.0858 21.7385 44.1314C21.7386 44.1771 21.7506 44.2219 21.7732 44.2615C21.7959 44.3012 21.8285 44.3342 21.8678 44.3574C21.9071 44.3807 21.9518 44.3932 21.9975 44.394H33.3131C33.358 44.3915 33.4016 44.3779 33.44 44.3542C33.4783 44.3306 33.5101 44.2978 33.5325 44.2588C33.5549 44.2198 33.5672 44.1757 33.5683 44.1307C33.5694 44.0857 33.5592 44.0412 33.5387 44.0011Z" fill="#FFD2D2"/>
<path d="M44.7579 42.3929H40.3614C40.2925 42.3939 40.2268 42.4217 40.1781 42.4704C40.1293 42.5191 40.1015 42.5849 40.1006 42.6538V47.0502C40.1014 47.1192 40.1291 47.1851 40.1778 47.2338C40.2266 47.2826 40.2925 47.3103 40.3614 47.3111C45.1722 47.3456 44.8215 47.3433 44.942 47.2344C45.0509 47.0894 45.054 47.605 45.0187 42.6546C45.0181 42.5855 44.9905 42.5194 44.9417 42.4705C44.8929 42.4216 44.8269 42.3937 44.7579 42.3929Z" fill="#FF4848"/>
<path d="M41.815 20.9464C40.3371 20.411 38.7372 20.3082 37.2029 20.6501C35.6687 20.9919 34.2637 21.7642 33.1529 22.8763C32.0421 23.9885 31.2715 25.3944 30.9315 26.929C30.5916 28.4637 30.6963 30.0635 31.2335 31.5407C31.7707 33.0179 32.718 34.3113 33.9643 35.2692C35.2106 36.227 36.7043 36.8095 38.27 36.9484C39.8357 37.0872 41.4086 36.7767 42.804 36.0532C44.1995 35.3297 45.3597 34.2232 46.1485 32.8636C46.7565 31.8178 47.1274 30.6513 47.2349 29.4464C47.3424 28.2415 47.1838 27.0277 46.7704 25.8909C46.357 24.7541 45.6989 23.722 44.8426 22.8675C43.9863 22.0131 42.9527 21.3573 41.815 20.9464Z" fill="#2755A0"/>
<path d="M35.4747 56.8543C34.2019 56.5045 33.7561 56.8367 33.008 56.4999C32.8461 56.4277 32.7081 56.3108 32.6103 56.163C32.5125 56.0151 32.4589 55.8424 32.4558 55.6651C32.4528 55.4879 32.5004 55.3135 32.593 55.1623C32.6856 55.0112 32.8195 54.8896 32.9788 54.8119C34.0898 54.3945 34.564 54.9039 35.7901 54.4559C35.9858 54.39 36.1624 54.2773 36.3045 54.1275C36.4466 53.9778 36.5498 53.7955 36.6053 53.5966C36.6608 53.3978 36.6667 53.1883 36.6227 52.9866C36.5786 52.785 36.4858 52.5971 36.3525 52.4395C35.2783 51.2495 32.9105 52.4088 32.6512 51.3323C32.5985 51.1223 32.6113 50.9012 32.6878 50.6987C32.7643 50.4961 32.901 50.3218 33.0793 50.1991C33.4944 49.9673 33.9689 49.8637 34.4428 49.9014C35.0189 49.9168 35.5937 49.9642 36.1645 50.0433C36.496 50.0878 36.4937 49.5622 36.1645 49.5216C34.7903 49.3528 33.1507 49.0819 32.3451 50.2029C32.134 50.5515 32.0571 50.965 32.1287 51.3661C32.3006 52.375 33.4185 52.3796 34.2241 52.3635C34.6762 52.3217 35.1321 52.3739 35.563 52.517C35.9297 52.6704 36.2903 53.0541 36.1162 53.473C35.7325 54.4014 34.3753 54.0761 33.6111 54.1336C31.3507 54.3039 31.4182 57.0001 33.4377 57.1497C33.6678 57.1789 34.1597 57.1804 34.2817 57.182C34.7687 57.139 35.2555 57.2673 35.6581 57.5449C35.7334 57.6108 35.7937 57.692 35.8351 57.7831C35.8764 57.8742 35.8978 57.9731 35.8978 58.0731C35.8978 58.1732 35.8764 58.2721 35.8351 58.3632C35.7937 58.4543 35.7334 58.5355 35.6581 58.6014C35.4212 58.8275 35.1079 58.9563 34.7804 58.962C33.9154 59.0545 33.0432 59.0568 32.1778 58.9689C31.8441 58.9329 31.8464 59.4561 32.1778 59.4907C32.9647 59.5722 33.7576 59.5779 34.5456 59.5075C36.7208 59.44 36.9824 57.3515 35.4747 56.8543Z" fill="#2755A0"/>
<path d="M7.74141 71.8161C7.81067 71.8161 7.8771 71.7887 7.92615 71.7398C7.97519 71.6909 8.00285 71.6245 8.00305 71.5553C7.73808 69.5705 8.07065 67.5519 8.9583 65.757C9.10715 65.457 8.6583 65.1931 8.50791 65.4939C7.57351 67.3683 7.21598 69.4777 7.48054 71.5553C7.48248 71.6238 7.51058 71.6891 7.55909 71.7376C7.6076 71.7861 7.67284 71.8142 7.74141 71.8161Z" fill="black"/>
<path d="M5.8301 71.757C5.86441 71.7572 5.89843 71.7506 5.93017 71.7376C5.96191 71.7245 5.99075 71.7053 6.01501 71.6811C6.03928 71.6568 6.05849 71.6279 6.07152 71.5962C6.08456 71.5645 6.09117 71.5304 6.09097 71.4961C5.82634 69.5116 6.15917 67.4932 7.04698 65.6987C7.19583 65.3987 6.74621 65.1347 6.59659 65.4355C5.66162 67.3097 5.30406 69.4193 5.56923 71.4969C5.57098 71.5655 5.59905 71.6307 5.64762 71.6791C5.69619 71.7276 5.76153 71.7555 5.8301 71.757Z" fill="black"/>
<path d="M92.8082 96.2573C92.8301 96.32 92.8749 96.372 92.9337 96.4029C92.9925 96.4337 93.0609 96.441 93.1249 96.4234C93.1889 96.4057 93.2438 96.3644 93.2785 96.3077C93.3131 96.2511 93.3249 96.1834 93.3115 96.1184C92.9172 94.5839 91.9305 91.1127 91.8668 90.901C91.8484 90.8342 91.8042 90.7775 91.744 90.7434C91.6838 90.7092 91.6124 90.7003 91.5457 90.7188C91.4789 90.7372 91.4223 90.7814 91.3881 90.8416C91.3539 90.9018 91.3451 90.9731 91.3635 91.0399C91.655 92.1716 92.7852 96.1798 92.8082 96.2573Z" fill="black"/>
<path d="M94.5105 96.8605L97.41 91.1359C97.5635 90.8367 97.1116 90.572 96.9597 90.872L94.0602 96.5973C93.9082 96.8958 94.3586 97.1605 94.5105 96.8605Z" fill="black"/>
<path d="M95.447 97.2395C95.1324 97.3515 95.2682 97.8533 95.5859 97.7428L99.647 96.3003C99.9616 96.1883 99.8257 95.6865 99.5081 95.797L95.447 97.2395Z" fill="black"/>
<path d="M27.1981 32.4869C27.0165 31.5442 26.8342 30.601 26.6511 29.6573C26.5874 29.3281 26.0841 29.4678 26.1477 29.7961L26.6956 32.625C26.7592 32.955 27.2618 32.8153 27.1981 32.4869Z" fill="black"/>
<path d="M19.6084 38.6457C20.4332 38.8927 21.2596 39.1344 22.0928 39.3508C22.1585 39.3664 22.2277 39.3559 22.2859 39.3215C22.344 39.2872 22.3865 39.2316 22.4045 39.1665C22.4225 39.1014 22.4146 39.0318 22.3823 38.9725C22.3501 38.9131 22.2961 38.8686 22.2317 38.8482C21.4078 38.5984 20.5796 38.3633 19.7473 38.1431C19.6816 38.1275 19.6124 38.138 19.5542 38.1724C19.4961 38.2068 19.4535 38.2623 19.4356 38.3274C19.4176 38.3926 19.4255 38.4621 19.4578 38.5214C19.49 38.5808 19.544 38.6253 19.6084 38.6457Z" fill="black"/>
<path d="M18.746 48.4804L20.8176 46.8569C21.0823 46.6505 20.7102 46.2837 20.4493 46.4886L18.3777 48.1114C18.113 48.3178 18.4844 48.6853 18.746 48.4804Z" fill="black"/>
<path d="M28.9538 49.2255L28.4712 46.6252C28.4106 46.2953 27.9073 46.4349 27.9687 46.7641L28.4505 49.3643C28.5119 49.6942 29.0145 49.5546 28.9538 49.2255Z" fill="black"/>
<path d="M35.1265 37.6168C35.4288 37.4711 35.1641 37.0207 34.8625 37.1665L32.0474 38.5215C31.7574 38.6611 31.9891 39.0754 32.2776 38.9818C32.352 38.968 32.1932 39.0286 35.1265 37.6168Z" fill="black"/>
<path d="M46.5917 89.1433C46.0096 89.0404 45.4136 89.0451 44.8332 89.1571C44.504 89.22 44.6437 89.7233 44.972 89.6596C45.4608 89.5656 45.9625 89.5611 46.4529 89.6466C46.7813 89.7041 46.9224 89.2016 46.5917 89.1433Z" fill="black"/>
<path d="M44.8282 86.4709C45.359 86.3429 45.907 86.302 46.451 86.3497C46.7863 86.3788 46.784 85.8563 46.451 85.828C45.859 85.7786 45.263 85.826 44.6863 85.9684C44.3632 86.0474 44.5013 86.5476 44.8282 86.4709Z" fill="black"/>
<path d="M7.18129 103.282C6.98487 103.013 6.53218 103.273 6.73014 103.545L8.58078 106.077C8.7772 106.345 9.22988 106.085 9.03193 105.814L7.18129 103.282Z" fill="black"/>
<path d="M123.536 113.929V111.32C123.536 111.251 123.508 111.185 123.459 111.136C123.41 111.087 123.344 111.059 123.275 111.059C123.206 111.059 123.139 111.087 123.09 111.136C123.042 111.185 123.014 111.251 123.014 111.32V113.929C123.014 113.998 123.042 114.064 123.09 114.113C123.139 114.162 123.206 114.19 123.275 114.19C123.344 114.19 123.41 114.162 123.459 114.113C123.508 114.064 123.536 113.998 123.536 113.929Z" fill="#77751E"/>
<path d="M34.8527 45.2043C34.6355 44.9472 34.268 45.3178 34.4836 45.5733L36.9312 48.4805C37.1476 48.7375 37.5151 48.3669 37.3003 48.1114L34.8527 45.2043Z" fill="black"/>
<path d="M16.2495 116.378L9.10164 127.692C8.9221 127.977 9.37325 128.238 9.55202 127.955L16.6999 116.641C16.8809 116.357 16.4282 116.095 16.2495 116.378Z" fill="black"/>
<path d="M36.9764 127.826C36.8997 125.364 36.6426 117.57 36.6089 116.513C36.5974 116.178 36.0718 116.176 36.0864 116.513L36.4546 127.826C36.4654 128.159 36.9871 128.16 36.9764 127.826Z" fill="black"/>
<path d="M97.3844 52.1916C97.8583 52.0399 98.2873 51.7734 98.6333 51.4159C98.9794 51.0584 99.2317 50.6208 99.3678 50.1423C100.007 47.8405 97.3652 46.1164 95.3711 47.4039C94.8522 47.7392 94.4568 48.2345 94.245 48.8149C94.0331 49.3952 94.0163 50.0288 94.1972 50.6195C94.3015 50.9332 94.467 51.2231 94.6842 51.4723C94.9014 51.7216 95.1659 51.9252 95.4623 52.0715C95.7588 52.2177 96.0814 52.3036 96.4113 52.3243C96.7413 52.3449 97.072 52.2998 97.3844 52.1916ZM94.811 50.7499C94.5966 50.2877 94.5416 49.7675 94.6546 49.2707C94.7676 48.7739 95.0423 48.3286 95.4356 48.0047C95.8086 47.6905 96.2756 47.5094 96.7629 47.49C97.2503 47.4705 97.7302 47.6138 98.1271 47.8972C99.5443 48.9024 98.998 51.0722 97.2793 51.6768C96.8251 51.8433 96.3261 51.8414 95.8732 51.6713C95.4203 51.5012 95.0434 51.1743 94.811 50.7499Z" fill="black"/>
<path d="M64.4709 50.523C63.4059 50.4516 62.341 50.391 61.2737 50.4056C61.2045 50.4056 61.1381 50.4331 61.0892 50.482C61.0403 50.5309 61.0128 50.5973 61.0128 50.6664C61.0128 50.7356 61.0403 50.802 61.0892 50.8509C61.1381 50.8998 61.2045 50.9273 61.2737 50.9273C62.3402 50.935 63.4059 50.9741 64.4709 51.0447C64.8062 51.067 64.8046 50.5452 64.4709 50.523Z" fill="black"/>
<path d="M70.5615 48.9178L67.7111 47.7316C67.4042 47.6027 67.2661 48.1076 67.5722 48.2349L70.4226 49.4211C70.7326 49.55 70.8676 49.0452 70.5615 48.9178Z" fill="black"/>
<path d="M36.4785 114.623C35.3909 114.066 34.2592 113.599 33.0949 113.228C35.5617 113.231 38.0192 112.926 40.41 112.318V127.826C40.41 127.896 40.4374 127.962 40.4864 128.011C40.5353 128.06 40.6016 128.087 40.6708 128.087C40.74 128.087 40.8064 128.06 40.8553 128.011C40.9042 127.962 40.9317 127.896 40.9317 127.826V112.174C42.5188 111.726 44.0332 111.051 45.4286 110.172C46.1322 115.524 46.1568 116.036 46.4314 117.808L46.4414 117.88C46.443 117.949 46.471 118.014 46.5196 118.063C46.5681 118.112 46.6336 118.14 46.7023 118.141H49.5304C50.2201 120.24 51.2641 122.204 52.6171 123.95C52.7829 125.125 53.0008 126.4 53.2348 127.895C53.2862 128.225 53.7887 128.085 53.7373 127.756C53.5778 126.731 53.4036 125.701 53.2501 124.669C55.2865 126.7 57.7925 128.198 60.546 129.029C58.1155 129.415 55.7583 130.17 53.5563 131.269C53.513 131.296 53.4784 131.334 53.4565 131.38C53.4347 131.426 53.4266 131.477 53.4331 131.528C53.4397 131.578 53.4607 131.626 53.4935 131.664C53.5264 131.703 53.5698 131.732 53.6184 131.746C60.3382 133.037 67.2105 133.339 74.0177 132.644C74.0762 132.637 74.1307 132.611 74.1726 132.57C74.2146 132.528 74.2416 132.474 74.2493 132.416C74.2571 132.358 74.2451 132.298 74.2154 132.247C74.1857 132.197 74.1399 132.157 74.0852 132.135C73.2211 131.642 72.3284 131.199 71.412 130.811C75.0646 131.026 78.7298 130.832 82.3394 130.234C82.7851 130.565 83.2555 130.862 83.7466 131.122C84.8194 131.644 85.9492 132.039 87.1133 132.3C92.6499 133.702 99.1157 133.125 102.228 128.429C103.47 126.369 104.342 124.109 104.804 121.749C105.093 120.557 105.341 119.353 105.532 118.143H115.376C115.445 118.142 115.511 118.115 115.56 118.066C115.608 118.017 115.636 117.951 115.636 117.882L112.606 94.8048C114.224 95.0043 115.804 95.5544 117.413 95.79C129.236 97.5892 139.095 88.6114 140.711 76.4633C141.033 74.4765 141.045 72.4516 140.747 70.461C140.406 68.6131 139.676 66.8587 138.606 65.3142C135.877 61.2431 132.031 59.3295 127.378 57.5802C127.422 57.2312 127.356 56.8772 127.191 56.5666C126.625 55.5431 125.345 55.6904 124.69 54.6838C124.476 54.3416 124.334 53.961 124.142 53.6096C123.341 52.1372 121.604 51.8549 120.075 51.9147C119.1 52.0338 118.113 52.0258 117.139 51.8909C116.964 51.862 116.796 51.7964 116.648 51.6983C116.499 51.6002 116.373 51.4718 116.277 51.3216C115.797 50.3963 116.101 49.3589 115.518 48.3968C115.13 47.7819 114.548 47.3137 113.864 47.0664C112.119 46.3973 110.283 46.9352 108.488 46.7855C108.137 46.7693 107.798 46.6563 107.508 46.4589C107.218 46.2616 106.989 45.9876 106.845 45.6676C106.198 44.44 106.209 43.1663 104.854 42.2917C102.664 41.0571 100.174 42.4451 98.1359 43.1733C95.3791 44.163 94.4891 42.7505 92.8678 42.9477C92.0721 43.0915 91.3528 43.5119 90.8369 44.1346C90.2579 44.6841 89.8524 45.3909 89.6703 46.168C89.4881 46.9451 89.5373 47.7586 89.8118 48.508C90.6619 50.1047 91.4837 50.2336 92.0722 51.6776C92.5088 53.0871 90.8392 54.2909 91.3387 55.6919C91.8596 57.1536 93.7448 57.0584 94.9341 57.5165C93.7511 59.0975 92.9561 60.9343 92.6131 62.8789C91.8903 65.2198 91.4821 66.3539 90.4164 67.7994C89.8616 68.5723 89.1173 69.1895 88.255 69.5917C87.4658 69.8428 86.6152 69.8218 85.8394 69.532C85.0635 69.2422 84.4074 68.7005 83.976 67.9935C81.8913 64.4641 85.0502 48.6999 82.3647 42.386C81.3351 39.9208 77.6223 40.6566 76.7238 43.3375C76.3565 45.0137 76.1652 46.7238 76.153 48.4398C73.3141 45.93 70.7476 43.8132 67.8036 42.3201C66.7195 41.7623 64.4844 40.7479 63.7847 42.3883C63.6719 42.7966 63.6574 43.2258 63.7422 43.6408C63.827 44.0557 64.0088 44.4448 64.2726 44.7761C64.7234 45.4449 65.2187 46.0826 65.755 46.685C63.8295 45.8511 61.7614 45.3962 59.6637 45.3454C58.7207 45.3004 57.7887 45.5633 57.0082 46.0942C56.6251 46.4177 56.371 46.8682 56.2923 47.3634C56.2136 47.8586 56.3154 48.3656 56.5793 48.7919C57.0856 49.5874 57.8697 50.1661 58.779 50.4155C57.6252 50.5562 56.5404 51.0406 55.6655 51.8057C55.3855 52.0481 55.1794 52.3644 55.0708 52.7184C54.9622 53.0724 54.9556 53.4499 55.0517 53.8075C55.1764 54.1531 55.3749 54.4673 55.6332 54.7284C55.8916 54.9896 56.2037 55.1914 56.5478 55.3198C57.2796 55.5738 58.0468 55.711 58.8212 55.7265C61.4622 55.9198 66.1217 55.8385 68.8026 55.7487C68.956 61.3835 69.2461 68.3096 71.0844 73.8347H61.4169C61.5204 72.9435 61.5547 72.0457 61.5197 71.1493C61.4368 68.4638 60.2376 65.384 57.9005 63.828C55.3148 62.107 52.0547 62.2536 49.878 60.2602C47.4442 58.0352 46.0578 52.9352 47.7297 48.004C48.8898 44.4423 51.3811 40.3313 49.7299 36.3346C49.0461 34.717 47.8853 33.3463 46.4023 32.4055C47.4075 30.4289 47.5952 28.1363 46.9247 26.0226C46.2543 23.9089 44.7795 22.1436 42.8188 21.1077C40.8581 20.0719 38.5687 19.8487 36.4448 20.4862C34.3209 21.1237 32.5329 22.5708 31.4668 24.5152C30.4006 26.4596 30.1418 28.7452 30.7462 30.8788C31.3507 33.0123 32.7698 34.8226 34.6974 35.9188C36.625 37.0151 38.9063 37.3094 41.049 36.7382C43.1917 36.167 45.0238 34.7761 46.1499 32.8658C47.2936 33.565 48.23 34.5567 48.8624 35.7387C49.4949 36.9206 49.8004 38.2499 49.7476 39.5894C49.5611 43.6167 46.6823 47.1201 46.4759 51.8265C46.3679 54.0163 46.8003 56.1992 47.735 58.1825C49.9509 62.9019 54.157 62.1592 57.3258 64.0828C59.7396 65.6556 60.8614 68.2613 60.9941 71.1508C61.0525 73.1435 60.8061 75.1335 60.2637 77.0518C60.2744 74.0595 60.6212 70.8439 58.6747 68.4025C57.4018 66.8065 55.3793 66.1459 53.5018 65.5636C47.6875 63.749 41.1212 62.7761 36.1263 58.8615C36.2629 58.7005 36.356 58.5071 36.3968 58.2998C36.4375 58.0926 36.4244 57.8784 36.3589 57.6776C36.2934 57.4768 36.1775 57.2962 36.0223 57.1529C35.8672 57.0096 35.6779 56.9084 35.4726 56.859C34.9355 56.7115 34.3785 56.6504 33.8222 56.6779C33.3926 56.1802 32.9998 55.652 32.6468 55.0973C32.7335 54.98 32.8465 54.8846 32.9767 54.8188C34.0823 54.4037 34.5741 54.907 35.788 54.4628C35.9836 54.3969 36.1602 54.2842 36.3023 54.1344C36.4444 53.9847 36.5477 53.8024 36.6032 53.6035C36.6586 53.4047 36.6646 53.1953 36.6205 52.9936C36.5765 52.7919 36.4837 52.604 36.3504 52.4464C35.2647 51.2433 32.8977 52.4249 32.6491 51.3393C32.595 51.1293 32.6072 50.9077 32.6838 50.7049C32.7604 50.502 32.8978 50.3278 33.0772 50.206C33.4923 49.9743 33.9667 49.8707 34.4406 49.9083C35.0167 49.9205 35.5914 49.9682 36.1616 50.051C36.4946 50.0917 36.4915 49.5692 36.1616 49.5285C35.2188 49.326 34.2439 49.3244 33.3005 49.5239C32.9064 49.6252 32.5658 49.8727 32.3477 50.2162C32.1296 50.5597 32.0506 50.9733 32.1266 51.373C32.28 52.3843 33.4156 52.3866 34.222 52.3705C34.6741 52.3278 35.1301 52.3801 35.5608 52.5239C35.9276 52.6774 36.289 53.061 36.1133 53.4799C35.7296 54.4083 34.3716 54.0723 33.6089 54.1405C33.1522 54.1686 32.7167 54.3435 32.3675 54.6393C30.5698 51.5127 30.4455 47.8774 31.1023 44.4055H33.3112C33.3466 44.4036 33.3813 44.3948 33.4132 44.3795C33.4452 44.3642 33.4738 44.3428 33.4975 44.3164C33.5212 44.29 33.5394 44.2593 33.5511 44.2258C33.5629 44.1924 33.5679 44.157 33.566 44.1216C33.5583 43.9681 32.5908 42.3883 31.9317 41.2582C32.2366 40.3641 32.599 39.4907 33.0166 38.6433L35.125 37.6282C35.4273 37.4825 35.1626 37.0321 34.8611 37.1779L33.4179 37.8722C33.8139 37.1447 34.2616 36.4465 34.7575 35.783C34.6086 35.6936 34.4625 35.5997 34.3194 35.5014C33.6755 36.3618 33.1106 37.2786 32.6314 38.2405L32.0475 38.5213C31.7575 38.661 31.9908 39.0753 32.2777 38.9817C32.0261 39.5295 31.7959 40.0876 31.5872 40.6559L27.879 34.2876C27.7869 34.1341 27.5606 34.0773 27.3787 34.3466C27.0826 34.7871 26.0122 36.5871 21.7708 43.9988C21.7483 44.0386 21.7365 44.0835 21.7366 44.1291C21.7367 44.1748 21.7487 44.2196 21.7714 44.2592C21.7941 44.2989 21.8266 44.3319 21.866 44.3551C21.9053 44.3784 21.95 44.3909 21.9956 44.3917H30.5798C30.1792 46.4364 30.1248 48.5338 30.4186 50.5965C30.6675 52.1838 31.2176 53.7089 32.0391 55.0896C31.6608 55.9382 32.135 57.0354 33.5567 57.1559C34.0935 57.7624 34.6744 58.3284 35.2946 58.8492C34.2705 59.055 33.2201 59.0949 32.1833 58.9674C31.8496 58.9321 31.8519 59.4538 32.1833 59.4891C32.9703 59.5699 33.7631 59.5756 34.5511 59.506C34.9626 59.4937 35.3663 59.3908 35.7335 59.2045C42.0734 64.0582 49.2573 64.3452 55.5097 66.8004C56.4086 67.0981 57.2228 67.6075 57.8836 68.2857C58.5445 68.9639 59.0326 69.791 59.3069 70.6973C59.6009 71.7164 59.7533 72.771 59.7596 73.8316H40.9524C40.8834 73.832 40.8172 73.8596 40.7684 73.9085C40.7196 73.9573 40.6919 74.0234 40.6915 74.0925L41.821 82.6935C41.524 82.7572 41.2271 82.8224 40.9317 82.8953V78.6055C40.9317 78.5363 40.9042 78.47 40.8553 78.4211C40.8064 78.3721 40.74 78.3447 40.6708 78.3447C40.6016 78.3447 40.5353 78.3721 40.4864 78.4211C40.4374 78.47 40.41 78.5363 40.41 78.6055V83.0327C39.0164 83.4018 37.6489 83.8632 36.3166 84.4137C35.0069 81.6869 33.6373 78.8127 31.0225 76.8554C28.8837 75.3377 26.3016 74.5729 23.6813 74.681C22.0147 74.6916 20.3699 75.0602 18.8583 75.7621C16.432 76.9387 14.3107 78.6605 12.6603 80.793C11.788 81.8305 11.0559 82.9782 10.4828 84.2066C7.40147 89.1708 3.51834 94.5148 3.85671 100.319C4.03011 103.307 5.27691 106.381 7.792 108.141C9.35151 109.125 11.14 109.685 12.9818 109.768C15.3339 109.978 17.7023 109.918 20.0406 109.588C21.546 110.788 23.2727 111.68 25.1222 112.213C22.3521 112.348 19.633 113.009 17.1104 114.161C16.8626 114.275 17.0022 114.642 17.2424 114.648L36.3473 115.108C36.4039 115.107 36.4586 115.088 36.5032 115.053C36.5478 115.018 36.58 114.97 36.5947 114.915C36.6095 114.86 36.6062 114.802 36.5852 114.75C36.5643 114.697 36.5268 114.653 36.4785 114.623ZM43.9348 34.6965C42.7531 35.6704 41.3092 36.2721 39.7857 36.4254C38.2621 36.5788 36.7272 36.2769 35.3752 35.5579C34.0232 34.839 32.9148 33.7353 32.19 32.3864C31.4653 31.0375 31.1568 29.504 31.3036 27.9797C31.4503 26.4555 32.0458 25.009 33.0146 23.8232C33.9835 22.6374 35.2822 21.7655 36.7465 21.3178C38.2109 20.87 39.7751 20.8666 41.2414 21.3078C42.7078 21.7491 44.0103 22.6152 44.9844 23.7968C46.2821 25.3848 46.9 27.4213 46.7034 29.4627C46.5068 31.5041 45.5117 33.3853 43.9348 34.6965ZM22.4514 43.8722L27.6549 34.9397L32.8593 43.8722H22.4514ZM35.735 58.5078L35.7204 58.5247C35.2139 58.1059 34.7339 57.6559 34.2833 57.1774C34.7705 57.1357 35.2569 57.2657 35.6583 57.5449C35.7958 57.6626 35.8811 57.83 35.8955 58.0105C35.9099 58.191 35.8522 58.3698 35.735 58.5078ZM73.1207 132.2C66.9225 132.753 60.6782 132.477 54.5529 131.379C56.8336 130.313 59.2801 129.647 61.7859 129.409C64.0372 130.022 66.3399 130.427 68.6652 130.619C69.9282 130.735 69.5921 130.648 70.1108 130.849C71.1409 131.237 72.1461 131.688 73.1207 132.2ZM75.6243 130.329C67.9647 130.456 58.1307 129.59 53.1205 123.736C52.8818 122.128 52.7914 120.5 52.8504 118.875C52.8835 117.544 53.1838 116.234 53.7334 115.021C54.283 113.809 55.0708 112.719 56.0499 111.817C60.4839 107.69 67.2182 110.155 69.2054 116.574C70.3931 120.211 70.0164 124.055 70.1514 127.822C70.1645 128.157 70.6885 128.159 70.6739 127.822C70.542 124.3 70.8642 120.734 69.9581 117.286C67.9862 109.772 61.0578 107.396 56.554 110.744C55.4484 111.552 54.5159 112.573 53.8114 113.747C53.107 114.921 52.6448 116.225 52.4522 117.58C52.2415 119.361 52.2528 121.16 52.4859 122.938C50.0031 119.515 48.4962 113.67 48.1125 109.46C47.7381 105.339 47.8823 100.753 50.6813 97.4373C53.613 93.9654 58.2189 92.4293 62.7865 92.1155C62.5287 92.2981 62.277 92.4907 62.0361 92.6964C61.5352 93.0731 61.1251 93.5573 60.8361 94.1135C60.7147 94.3441 60.6899 94.6136 60.7672 94.8625C60.8445 95.1114 61.0175 95.3195 61.2481 95.4409C63.4026 96.4291 66.1954 94.5823 70.4207 93.3401C70.8182 93.2288 72.9957 92.6434 73.5144 92.5114C74.5118 92.3634 81.2491 93.8043 85.4177 95.9933C83.8392 95.6091 82.1808 95.719 80.6669 96.3083C79.153 96.8976 77.8566 97.9377 76.9532 99.2879C75.9612 100.739 75.295 102.388 75.0005 104.122C74.9018 104.851 74.8529 105.586 74.854 106.321C74.6637 111.355 74.9253 116.536 76.4844 121.36C77.4161 124.626 79.2614 127.558 81.8031 129.81C79.7611 130.152 77.6947 130.326 75.6243 130.331V130.329ZM63.711 92.1547C63.8187 92.078 63.9498 92.0416 64.0816 92.0518C66.7222 92.0076 69.3632 92.1116 71.9921 92.3634C66.6051 93.7299 65.0906 95.0641 62.821 95.1654C62.3657 95.2134 61.9059 95.139 61.489 94.9498C61.4243 94.9208 61.3696 94.8734 61.3317 94.8135C61.2938 94.7536 61.2743 94.6839 61.2757 94.613C61.3394 94.2569 61.521 93.9326 61.7913 93.6923C62.3576 93.0941 63.0036 92.5767 63.711 92.1547ZM104.9 118.783C104.491 121.157 103.872 123.49 103.048 125.753C100.98 131.372 95.7067 133.042 89.8402 132.294C87.931 132.052 86.0634 131.553 84.2883 130.809C81.3251 129.383 79.2243 126.58 77.8816 123.575C75.9803 119.329 75.4034 114.547 75.3289 109.937C75.2959 107.854 75.3965 105.382 75.4548 104.643C75.5972 103.466 75.9277 102.319 76.4338 101.247C77.6507 98.49 79.9463 96.5227 82.9448 96.3708C84.3778 96.1267 85.8509 96.3964 87.1044 97.1324C88.3579 97.8684 89.3113 99.0233 89.7965 100.394C90.5407 102.158 90.5077 103.245 90.8154 107.005C90.8215 107.082 91.7024 117.952 91.7284 118.029C91.7369 118.093 91.7693 118.152 91.8192 118.194C91.8691 118.235 91.9327 118.256 91.9975 118.253C92.0623 118.249 92.1234 118.222 92.1687 118.175C92.2139 118.129 92.24 118.067 92.2417 118.002C92.9517 113.019 93.2248 107.983 93.0581 102.952C93.0088 102.321 92.9931 101.689 93.0113 101.056C93.0008 100.793 93.0527 100.532 93.1627 100.293C93.2727 100.054 93.4377 99.8439 93.6443 99.6808C93.8157 99.5507 94.0282 99.4868 94.2429 99.5009C94.4576 99.515 94.66 99.6061 94.8128 99.7575C95.1618 100.196 95.387 100.719 95.465 101.274C95.7244 102.696 95.7918 104.147 95.6653 105.587C95.653 105.923 96.1747 105.922 96.187 105.587C96.2177 104.723 96.2231 103.858 96.2085 102.993C97.2174 101.313 99.8085 101.519 100.172 103.423C100.195 103.597 100.384 103.776 100.565 103.648C100.872 103.391 101.26 103.251 101.661 103.252C101.962 103.291 102.237 103.441 102.434 103.672C102.86 104.173 103.125 104.79 103.197 105.443C103.215 105.51 103.259 105.566 103.319 105.6C103.38 105.635 103.451 105.644 103.517 105.626C103.749 105.568 103.994 105.592 104.211 105.693C104.427 105.794 104.602 105.967 104.707 106.182C104.944 106.665 105.09 107.188 105.137 107.725C105.679 111.398 105.599 115.137 104.9 118.783ZM132.269 60.3523C137.09 62.8943 140.573 67.6076 140.447 73.2193C140.309 87.1567 129.138 98.3641 115.225 94.8102C110.557 93.5588 110.058 94.593 106.695 94.8102C106.229 94.8227 105.765 94.7711 105.314 94.6567C104.951 94.5738 104.615 94.4033 104.334 94.1603C104.213 94.0337 104.139 93.8692 104.125 93.6944C104.111 93.5197 104.157 93.3455 104.257 93.2012C104.717 92.5552 105.373 92.4961 106.602 92.236L111.143 91.2769C111.477 91.2063 111.328 90.7245 111.004 90.7736C109.168 91.053 107.309 91.1578 105.452 91.0866C104.924 91.0895 104.397 91.0323 103.882 90.9163C103.639 90.8676 103.416 90.7483 103.24 90.5734C103.064 90.3984 102.944 90.1756 102.894 89.9327C102.864 89.4876 103.226 89.2145 103.593 89.0587C105.975 88.2321 108.414 87.5777 110.891 87.1007C110.95 87.0821 111 87.0432 111.034 86.9909C111.067 86.9387 111.08 86.8763 111.072 86.815C111.064 86.7536 111.034 86.6972 110.988 86.6557C110.942 86.6142 110.883 86.5903 110.821 86.5882L104.99 87.0485C104.431 87.1447 103.86 87.1447 103.302 87.0485C102.863 86.9273 102.389 86.5314 102.584 86.0258C102.804 85.6491 103.157 85.3691 103.574 85.2416C108.963 82.9444 114.893 84.2756 120.449 82.8385C122.589 82.4016 124.48 81.16 125.731 79.3697C126.262 78.5533 126.551 77.6035 126.565 76.6298C126.51 74.6792 125.697 72.827 124.297 71.4669C122.789 70.0682 119.19 68.5421 117.222 67.9459C114.862 67.2554 113.513 67.4088 111.42 66.5173C110.307 65.9593 109.385 65.0824 108.772 63.9982C108.159 62.9141 107.883 61.672 107.979 60.4302C108.074 59.1885 108.538 58.0035 109.31 57.0263C110.082 56.0492 111.128 55.3242 112.314 54.9439C113.554 54.5583 114.88 54.5505 116.124 54.9216C121.659 56.1976 127.229 57.6155 132.269 60.3523ZM93.0435 56.4761C92.7861 56.4231 92.5441 56.3121 92.3359 56.1517C92.1277 55.9912 91.9588 55.7855 91.842 55.55C91.7404 54.8726 91.8988 54.1819 92.2855 53.6165C92.6245 53.0063 92.7353 52.2953 92.5978 51.6109C92.2556 50.3426 91.0203 49.593 90.3911 48.4904C89.6077 47.1162 90.2822 45.4505 91.3003 44.3986C91.5538 44.093 91.8735 43.8491 92.2352 43.6855C92.5969 43.5218 92.9912 43.4427 93.388 43.4541C94.2466 43.5308 95.0315 43.9559 95.8947 44.0303C97.6663 44.1837 99.2453 43.2193 100.867 42.6807C102.095 42.274 103.728 42.0262 104.823 42.8947C105.851 43.7119 105.874 45.185 106.57 46.2247C106.759 46.5151 107.009 46.7601 107.304 46.942C107.598 47.1239 107.93 47.2382 108.274 47.2766C109.222 47.3646 110.178 47.3543 111.124 47.2459C112.532 47.1791 114.392 47.3318 115.125 48.7612C115.709 49.8976 115.168 51.6462 116.604 52.2615C117.467 52.5318 118.38 52.6047 119.276 52.4748C120.112 52.3811 120.958 52.4051 121.788 52.5462C122.508 52.6687 123.15 53.0715 123.574 53.6664C123.977 54.3009 124.153 55.0651 124.771 55.5454C125.487 56.1001 126.9 56.2359 126.862 57.3868C121.389 55.3919 115.794 54.3891 113.796 53.8436C109.951 52.7948 105.244 52.3375 101.64 53.1899C99.1464 53.7492 96.9076 55.1167 95.2717 57.0799C94.541 56.8367 93.7971 56.6351 93.0435 56.4761ZM99.8722 54.3155C99.662 54.8825 99.4955 55.4664 99.2476 56.0165C99.1449 56.3254 98.9694 56.6052 98.736 56.8322C98.5026 57.0591 98.2181 57.2267 97.9065 57.3208C97.2612 57.4267 96.9689 56.737 96.8254 56.2075C97.7302 55.4127 98.7605 54.7733 99.8745 54.3155H99.8722ZM93.0865 63.205C93.4576 60.7252 94.6079 58.4277 96.3712 56.6449C96.4908 57.0798 96.7664 57.4553 97.1453 57.6999C97.4124 57.8227 97.7081 57.8701 98.0002 57.837C98.2923 57.8039 98.5698 57.6914 98.8026 57.5119C99.9083 56.6794 100.021 55.1925 100.599 54.0339C104.435 52.7495 109.282 53.2359 113.154 54.2165C111.653 54.4569 110.275 55.1948 109.243 56.3116C108.211 57.4285 107.584 58.8597 107.463 60.3755C107.342 61.8914 107.733 63.404 108.574 64.6708C109.416 65.9376 110.658 66.8851 112.102 67.3613C113.61 67.8086 115.514 67.9099 117.921 68.7201C119.682 69.3356 121.373 70.1354 122.966 71.1063C125.356 72.6086 126.759 75.98 125.625 78.4651C123.116 83.9672 114.223 82.6774 108.083 83.5291C100.692 76.1488 98.4742 74.1309 95.2663 69.8211C94.381 68.6677 93.702 67.3698 93.2591 65.9848C93.0023 65.0814 92.9442 64.133 93.0888 63.205H93.0865ZM69.3143 55.4794C69.3139 55.4103 69.2863 55.3442 69.2375 55.2954C69.1887 55.2466 69.1225 55.2189 69.0535 55.2185C66.1739 55.2508 61.3478 55.4541 58.2934 55.1595C57.5038 55.1551 56.7348 54.9073 56.0913 54.4497C55.8096 54.2426 55.6136 53.9394 55.5404 53.5976C55.4672 53.2557 55.5218 52.8988 55.6939 52.5945C56.1595 51.9454 56.8309 51.4728 57.599 51.2533C58.3815 51.0079 59.1856 50.8381 60.0005 50.7462C60.266 50.7078 60.2307 50.305 60.0005 50.2428C58.951 50.0838 57.9805 49.5916 57.2322 48.8387C57.0812 48.676 56.9647 48.4843 56.8898 48.2753C56.8149 48.0663 56.7831 47.8442 56.7963 47.6226C56.8096 47.4009 56.8676 47.1843 56.967 46.9857C57.0663 46.7871 57.2048 46.6107 57.3742 46.4671C58.0731 46.0155 58.9007 45.8053 59.7304 45.8687C62.1682 45.9284 64.5575 46.5617 66.7049 47.717C66.7597 47.7467 66.8233 47.7559 66.8843 47.7429C66.9453 47.73 66.9997 47.6957 67.0377 47.6463C67.0757 47.5969 67.0949 47.5356 67.0919 47.4733C67.0888 47.4111 67.0637 47.3519 67.021 47.3065C66.2625 46.5079 65.5577 45.66 64.911 44.7684C64.4467 44.2377 64.1926 43.5554 64.1967 42.8502C64.2911 42.1236 65.0108 41.9295 65.6276 42.0431C66.3825 42.1946 67.1052 42.4768 67.7629 42.8771C70.1229 44.1607 72.3208 45.7219 74.31 47.5275C74.9146 48.039 75.5138 48.5577 76.1077 49.0835C75.6213 49.6095 75.1975 50.1901 74.8448 50.8137C73.0414 50.2032 71.0745 50.2931 69.3343 51.0653C69.0274 51.2011 69.2929 51.6508 69.5975 51.5157C71.2783 50.7813 73.1794 50.7317 74.8962 51.3776C74.9517 51.3937 75.0109 51.3908 75.0646 51.3694C75.1182 51.348 75.1632 51.3093 75.1924 51.2595C75.5651 50.5664 76.0277 49.9256 76.5681 49.3536C76.6322 49.2461 76.6664 49.1235 76.667 48.9983C76.6761 47.3797 76.8058 45.7639 77.0553 44.1646C77.1568 43.5959 77.3893 43.0588 77.7343 42.5955C78.118 42.048 78.6888 41.6599 79.339 41.5044C79.9892 41.349 80.6739 41.4368 81.2637 41.7515C81.5952 42.0216 81.8445 42.3791 81.9834 42.7835C84.4847 49.339 81.3159 64.504 83.5325 68.2567C83.8462 68.8147 84.288 69.2902 84.8214 69.644C85.3548 69.9979 85.9647 70.22 86.6007 70.2921C87.2368 70.3642 87.8809 70.2841 88.48 70.0586C89.079 69.833 89.616 69.4684 90.0466 68.9948C91.2173 67.8425 92.0712 66.4078 92.5256 64.8293C92.7302 66.4103 93.3152 67.9181 94.2305 69.2234C96.2388 72.0934 98.5161 74.7653 101.032 77.203C100.031 78.5509 98.9142 79.8089 97.6947 80.9626C96.5514 82.0888 95.2327 83.0217 93.7901 83.7247C87.3451 86.437 79.8182 83.9894 74.7374 78.9109C73.0238 77.2161 71.8266 75.0698 71.2847 72.7214C69.7164 67.1825 69.4678 61.329 69.3143 55.4794ZM41.2562 74.3557H59.7703C59.7811 75.7866 59.7028 76.939 59.7926 78.6884C59.7949 78.7502 59.8189 78.8092 59.8605 78.855C59.9021 78.9008 59.9585 78.9305 60.0198 78.9388C60.0811 78.947 60.1433 78.9333 60.1955 78.9002C60.2477 78.867 60.2866 78.8165 60.3051 78.7575C60.7869 77.3249 61.1377 75.8516 61.3532 74.3557H71.2678C71.7198 75.7038 72.4026 76.9632 73.2857 78.0777C77.4972 83.3004 85.4453 86.8414 92.5924 84.7007C96.2423 83.6066 99.0949 80.6012 101.396 77.5651C103.396 79.5953 105.421 81.6032 107.439 83.6165C106.095 83.8378 104.779 84.2028 103.513 84.7053C102.733 85.0322 101.717 85.6621 102.096 86.6687C102.527 87.815 103.979 87.6516 104.945 87.5749C106.68 87.4368 107.312 87.3876 107.312 87.3876C107.312 87.3876 107.076 87.4406 106.784 87.5196C106.123 87.6999 105.469 87.9079 104.81 88.0966C104.259 88.2463 103.72 88.4377 103.198 88.669C102.985 88.765 102.799 88.9123 102.657 89.0977C102.515 89.2831 102.42 89.5009 102.383 89.7316C102.363 90.0003 102.416 90.2693 102.537 90.5102C102.657 90.7512 102.84 90.9551 103.067 91.1004C103.536 91.3906 104.075 91.5496 104.627 91.5608C105.458 91.6283 106.205 91.6299 106.987 91.6183C106.269 91.7357 105.559 91.9039 104.865 92.1217C104.458 92.2229 104.106 92.4762 103.881 92.8294C103.656 93.1826 103.575 93.6087 103.655 94.0199C103.896 94.7941 104.852 95.1171 105.567 95.2475C107.694 95.6311 109.723 94.5762 112.081 94.7419C114.739 114.992 115.051 117.438 115.073 117.615H105.614C106.209 113.997 106.16 110.303 105.468 106.703C105.417 106.256 105.205 105.844 104.872 105.542C104.539 105.241 104.107 105.071 103.658 105.065C103.375 103.405 102.031 102.136 100.598 103.01C100.434 102.586 100.163 102.212 99.8111 101.923C99.4595 101.635 99.0392 101.443 98.5913 101.365C98.1433 101.288 97.6829 101.327 97.2547 101.48C96.8265 101.633 96.4452 101.894 96.1479 102.238C96.1071 101.366 95.8695 100.514 95.4527 99.746C95.3344 99.5246 95.161 99.3374 94.9491 99.2028C94.7373 99.0681 94.4942 98.9904 94.2435 98.9772C93.9421 98.9827 93.6477 99.0693 93.3912 99.2278C93.1347 99.3862 92.9256 99.6108 92.7857 99.8779C92.2678 101.071 92.5241 101.837 92.5717 104.11C92.6525 107.917 92.4746 111.725 92.0392 115.507C91.8995 113.8 91.1353 104.07 90.9834 102.855C90.4701 98.3235 87.5077 96.1513 83.2908 94.4649C77.3606 92.1224 73.6854 91.8363 67.743 91.5792C62.1711 91.3375 56.9407 91.7066 52.3156 95.1785C48.7256 97.8585 47.5355 101.476 47.4557 105.92C47.3965 109.899 48.0375 113.858 49.3494 117.615H46.9286L43.9363 94.8178C44.5263 94.1526 45.1332 93.4368 46.0985 93.4475C47.0569 93.5823 47.9844 93.8835 48.8391 94.3375C49.2482 94.5277 49.6943 94.6248 50.1454 94.6219C50.5965 94.619 51.0413 94.5161 51.4478 94.3206C51.7822 94.1279 52.0387 93.8243 52.173 93.4624C52.3072 93.1005 52.3107 92.703 52.1829 92.3388C52.0126 92.0125 51.7698 91.7296 51.4731 91.5117C50.8816 91.0134 50.2486 90.5666 49.5811 90.1759C50.824 90.5841 52.0632 91.0644 53.2248 90.2319C53.5586 89.9978 53.7907 89.6455 53.8741 89.2465C53.9574 88.8475 53.8858 88.4317 53.6737 88.0836C53.2049 87.4145 52.2159 87.1897 51.4946 86.9327C50.9361 86.7368 50.3734 86.5559 49.8066 86.3902C51.1721 86.3808 52.5356 86.2865 53.8893 86.1078C55.5412 85.8301 56.254 84.5135 54.5598 83.3557C53.1742 82.4089 51.3243 82.25 49.6969 82.1242C47.2337 81.939 44.7567 82.0939 42.3358 82.5846C42.1923 81.5503 41.2747 74.4922 41.2562 74.3557ZM25.8573 75.3454C26.2112 75.3573 26.5595 75.4373 26.8831 75.581C27.1921 75.7835 27.4771 76.0206 27.7324 76.2876C29.0145 77.6043 28.6179 78.6255 27.8299 78.8718C27.8521 78.8664 27.8752 78.8595 27.8982 78.8526C27.536 78.9548 27.1536 78.9619 26.7879 78.8733C24.9749 78.4628 23.9491 76.3199 22.0409 75.3439C23.3059 75.153 24.5924 75.1535 25.8573 75.3454ZM20.168 75.8058C20.4844 75.6945 20.8076 75.6033 21.1355 75.5326C21.2951 75.5693 21.448 75.6304 21.589 75.7137C23.4204 76.5723 24.3979 78.6485 26.3529 79.3022C28.7176 80.094 30.2168 78.0408 28.1368 75.917C32.28 77.3748 34.0286 80.8881 35.847 84.6132C32.3457 86.1322 29.1015 88.1856 26.2301 90.6999C24.3887 92.3027 21.7608 95.4493 20.369 95.104C20.8585 93.8825 22.0677 91.6107 22.5212 90.8027C23.2818 89.4278 23.547 87.8332 23.2723 86.2861C22.9977 84.739 22.1999 83.3331 21.0125 82.304C19.8251 81.2748 18.3203 80.6847 16.7498 80.6326C15.1793 80.5805 13.6386 81.0694 12.3856 82.0176C14.8677 78.5756 17.6782 76.6498 20.168 75.8058ZM16.156 109.36C14.3749 109.429 12.5922 109.274 10.8496 108.899C5.68433 107.744 2.25005 101.406 5.89303 93.1559C7.11862 90.6155 8.52185 88.1647 10.0923 85.8217C10.5311 85.0452 11.0111 84.2927 11.5301 83.5674C12.5117 82.3108 13.9308 81.4704 15.5045 81.2136C17.0782 80.9568 18.6909 81.3026 20.021 82.1821C21.3511 83.0615 22.3008 84.4099 22.6809 85.9585C23.0609 87.5071 22.8434 89.142 22.0716 90.5373C21.6488 91.2915 21.2644 92.0672 20.8608 92.8314C20.4513 93.5915 20.0925 94.3779 19.7867 95.1854C19.7719 95.2409 19.7757 95.2997 19.7975 95.3529C19.8192 95.4061 19.8577 95.4507 19.9071 95.48C20.7971 95.9802 21.8606 95.2989 22.568 94.7726C25.6125 92.3641 26.7112 90.0646 32.7926 86.7025C38.5777 83.4193 45.3895 81.8165 51.8974 82.9245C52.7239 83.0417 53.5171 83.3291 54.2269 83.7685C54.5384 83.9649 54.945 84.2518 54.9995 84.6477C55.0092 84.7822 54.9785 84.9164 54.9114 85.0333C54.8442 85.1502 54.7437 85.2444 54.6228 85.3038C53.9316 85.6212 53.1754 85.7713 52.4153 85.7419C50.1005 85.9176 48.6158 85.8953 47.923 85.9061C47.8611 85.9082 47.802 85.9321 47.7561 85.9736C47.7102 86.0151 47.6804 86.0715 47.672 86.1329C47.6637 86.1942 47.6773 86.2566 47.7104 86.3088C47.7436 86.3611 47.7941 86.4 47.8532 86.4186C49.576 86.8133 51.2596 87.3631 52.8834 88.0613C53.0334 88.15 53.1585 88.2752 53.2471 88.4253C53.3356 88.5754 53.3847 88.7455 53.3898 88.9197C53.3948 89.0939 53.3557 89.2666 53.276 89.4216C53.1963 89.5765 53.0786 89.7088 52.934 89.8061C52.5933 90.0115 52.2095 90.1352 51.8129 90.1673C51.4163 90.1994 51.0177 90.139 50.6483 89.991C49.7314 89.6153 48.7624 89.3825 47.7749 89.3004C47.5394 89.3073 47.3913 89.6787 47.6437 89.7869C48.9218 90.3265 50.1116 91.0551 51.1731 91.9483C51.4575 92.1373 51.6668 92.4198 51.7647 92.747C51.7853 92.9404 51.7565 93.1358 51.6811 93.3151C51.6057 93.4943 51.4861 93.6515 51.3335 93.7721C49.5542 95.1194 47.1818 92.0488 44.9652 93.1966C44.2284 93.6883 43.5844 94.3065 43.0632 95.0227C41.7634 96.4805 40.4905 97.9636 39.1294 99.3654C36.1505 102.467 32.5865 104.946 28.6434 106.662C24.7003 108.377 20.4563 109.294 16.1567 109.359L16.156 109.36ZM20.7595 109.481C23.4666 109.052 26.1111 108.294 28.634 107.223C34.1376 104.894 38.0268 101.591 41.7841 97.2416C42.3488 96.6063 42.9112 95.9687 43.4775 95.3342L45.3511 109.6C43.1202 111.007 40.6182 111.929 38.0076 112.305C34.7877 112.817 31.5098 112.849 28.2803 112.402C25.5761 112.046 22.9975 111.044 20.7626 109.48L20.7595 109.481ZM18.4624 114.156C21.2133 113.088 24.1549 112.599 27.1033 112.72C28.3489 112.965 29.6104 113.12 30.8782 113.185C32.3439 113.483 33.7717 113.944 35.135 114.559L18.4624 114.156Z" fill="black"/>
<path d="M93.8565 129.758C92.6581 129.752 91.4604 129.721 90.2619 129.74C90.1927 129.74 90.1264 129.767 90.0774 129.816C90.0285 129.865 90.001 129.932 90.001 130.001C90.001 130.07 90.0285 130.136 90.0774 130.185C90.1264 130.234 90.1927 130.262 90.2619 130.262C91.4604 130.268 92.6581 130.298 93.8565 130.281C93.9234 130.277 93.9863 130.248 94.0323 130.199C94.0784 130.151 94.104 130.086 94.104 130.02C94.104 129.953 94.0784 129.888 94.0323 129.84C93.9863 129.791 93.9234 129.762 93.8565 129.758Z" fill="black"/>
<path d="M100.436 104.863C100.526 105.412 100.515 105.974 100.404 106.519C100.39 106.584 100.402 106.652 100.437 106.709C100.472 106.765 100.526 106.807 100.59 106.824C100.654 106.842 100.723 106.835 100.782 106.804C100.84 106.773 100.885 106.721 100.907 106.658C101.064 106.024 101.075 105.363 100.939 104.724C100.863 104.396 100.359 104.535 100.436 104.863Z" fill="black"/>
<path d="M103.386 105.993C103.42 106.475 103.42 106.958 103.386 107.439C103.356 107.773 103.877 107.771 103.908 107.439C103.942 106.958 103.942 106.475 103.908 105.993C103.888 105.658 103.369 105.657 103.386 105.993Z" fill="black"/>
<path d="M66.273 88.1135C66.9389 88.6591 67.7886 88.9288 68.6473 88.8672C69.506 88.8055 70.3084 88.4172 70.8896 87.782C71.3059 87.2644 71.5707 86.6415 71.6545 85.9825C71.7383 85.3235 71.638 84.6541 71.3645 84.0487C71.091 83.4433 70.6552 82.9255 70.1053 82.5527C69.5555 82.18 68.9131 81.9669 68.2494 81.937C65.4029 81.9669 64.153 86.2797 66.273 88.1135ZM67.7661 82.517C70.1039 82.016 71.953 84.7605 70.8236 86.9756C70.6177 87.3217 70.3402 87.6197 70.0096 87.8497C69.6791 88.0797 69.3031 88.2362 68.9071 88.3089C68.511 88.3816 68.104 88.3687 67.7133 88.271C67.3226 88.1734 66.9573 87.9933 66.642 87.7429C65.0208 86.4009 65.6093 82.9789 67.7661 82.517Z" fill="black"/>
<path d="M66.475 80.8382C67.4156 80.7952 70.5192 80.6464 71.1307 80.6157C71.7599 80.5819 72.6798 80.6157 72.8762 79.8546C72.9094 79.7371 72.9105 79.6129 72.8794 79.4949C72.8484 79.3768 72.7864 79.2692 72.6998 79.1832C72.4891 79.0206 72.2285 78.936 71.9624 78.9438C71.674 78.9241 71.3845 78.929 71.097 78.9584C71.3454 78.7628 71.5819 78.5525 71.8051 78.3285C72.0141 78.1526 72.1596 77.9131 72.2195 77.6466C72.2794 77.3801 72.2502 77.1014 72.1366 76.853C71.9797 76.6473 71.7573 76.5013 71.5062 76.4392C71.255 76.3771 70.9902 76.4027 70.7555 76.5116C70.5291 76.5862 70.3098 76.681 70.1003 76.7947C70.3478 76.3269 70.4384 75.7919 70.3588 75.2686C70.321 75.0888 70.2135 74.9313 70.0597 74.8306C69.906 74.7299 69.7186 74.6943 69.5386 74.7315C69.3621 74.7813 69.1978 74.8673 69.0563 74.9841C68.9148 75.1009 68.7992 75.2459 68.7169 75.4098C67.6783 76.9999 66.8405 78.7124 66.2225 80.5083C66.2122 80.547 66.2109 80.5877 66.2187 80.627C66.2266 80.6664 66.2433 80.7034 66.2677 80.7353C66.2921 80.7671 66.3234 80.793 66.3594 80.8108C66.3953 80.8287 66.4348 80.838 66.475 80.8382ZM69.1688 75.673C69.2816 75.5011 69.4358 75.2433 69.6698 75.2387C69.9422 75.2333 69.8724 75.653 69.8486 75.8234C69.7235 76.4117 69.4868 76.9707 69.1512 77.4699C69.1178 77.531 69.1101 77.6028 69.1296 77.6695C69.1492 77.7363 69.1945 77.7925 69.2555 77.8259C69.5693 77.9963 69.6031 77.519 70.7409 77.0694C71.0302 76.9581 71.6103 76.7855 71.7261 77.2152C71.842 77.6448 71.4368 77.9778 71.1553 78.2126C70.7486 78.5533 70.3366 78.8886 69.9276 79.2262C69.7212 79.3957 69.943 79.7326 70.1808 79.662C70.6783 79.5128 71.1961 79.4421 71.7154 79.4525C71.8788 79.4525 72.1964 79.4272 72.3292 79.5507C72.4773 79.6896 72.2824 79.8998 72.1542 79.962C71.9085 80.0503 71.6478 80.0896 71.387 80.0778C71.1783 80.0894 67.0274 80.2888 66.8601 80.2965C67.436 78.666 68.2114 77.113 69.1688 75.673Z" fill="black"/>
<path d="M46.8547 127.826V118.939C46.8547 118.87 46.8272 118.804 46.7783 118.755C46.7294 118.706 46.663 118.678 46.5938 118.678C46.5247 118.678 46.4583 118.706 46.4094 118.755C46.3605 118.804 46.333 118.87 46.333 118.939V127.826C46.333 127.896 46.3605 127.962 46.4094 128.011C46.4583 128.06 46.5247 128.087 46.5938 128.087C46.663 128.087 46.7294 128.06 46.7783 128.011C46.8272 127.962 46.8547 127.896 46.8547 127.826Z" fill="black"/>
<path d="M115.37 118.49C115.303 118.492 115.241 118.519 115.194 118.566C115.147 118.612 115.12 118.675 115.118 118.741V127.826C115.118 127.896 115.145 127.962 115.194 128.011C115.243 128.06 115.31 128.087 115.379 128.087C115.448 128.087 115.514 128.06 115.563 128.011C115.612 127.962 115.64 127.896 115.64 127.826V118.741C115.639 118.707 115.631 118.673 115.616 118.642C115.602 118.611 115.582 118.583 115.557 118.559C115.532 118.536 115.502 118.518 115.47 118.506C115.438 118.494 115.404 118.488 115.37 118.49Z" fill="black"/>
<path d="M140.284 116.605C139.635 115.824 139.2 114.889 139.019 113.89C138.914 113.313 136.18 89.8191 136.17 89.7393C136.133 89.4094 135.611 89.4055 135.648 89.7393C136.024 93.1843 138.466 113.796 138.544 114.171C138.854 115.519 139.547 116.749 140.538 117.713C142.179 119.576 149.186 128.008 149.186 128.008C149.402 128.265 149.769 127.895 149.555 127.639C149.408 127.468 140.635 117.026 140.284 116.605Z" fill="black"/>
<path d="M129.493 127.692C129.28 127.414 122.064 117.925 121.672 117.411C121.059 116.604 120.21 115.77 120.129 114.712C120.097 114.16 120.104 113.605 120.148 113.054C120.182 112.476 120.929 96.9248 120.945 96.6609C120.964 96.3256 120.442 96.3264 120.422 96.6609C120.148 101.313 119.637 112.922 119.59 114.069C119.562 114.578 119.637 115.088 119.811 115.567C119.985 116.046 120.254 116.485 120.601 116.858C121.962 118.577 129.041 127.957 129.041 127.957C129.243 128.219 129.696 127.959 129.493 127.692Z" fill="black"/>
<path d="M106.651 118.672L104.687 127.754C104.616 128.082 105.119 128.222 105.19 127.893L107.154 118.811C107.226 118.483 106.722 118.344 106.651 118.672Z" fill="black"/>
<path d="M122.541 127.893L123.791 121.537C123.856 121.209 123.353 121.068 123.288 121.398L122.037 127.754C121.972 128.083 122.475 128.223 122.541 127.893Z" fill="black"/>
<path d="M22.6035 66.205C22.3133 65.6184 21.8495 65.1353 21.2752 64.8213C20.7009 64.5074 20.0438 64.3778 19.3933 64.4503C18.8792 64.4802 18.7319 64.6452 18.2378 64.4664C17.5519 64.2178 16.9672 63.8242 16.3964 64.2784C16.1172 64.614 15.9767 65.0435 16.0035 65.4792C15.5321 65.4088 15.0505 65.486 14.6246 65.7002C14.1988 65.9143 13.8496 66.255 13.625 66.6754C13.1805 67.5179 12.9068 68.4398 12.8194 69.3884C12.6288 70.0057 12.5712 70.6564 12.6506 71.2976C12.7299 71.9388 12.9444 72.5559 13.2797 73.1081C14.779 75.2503 18.148 74.0426 22.8253 73.6045C22.8874 73.6019 22.9466 73.5774 22.9924 73.5353C23.0381 73.4933 23.0675 73.4363 23.0754 73.3747C23.0832 73.313 23.0689 73.2505 23.0351 73.1983C23.0012 73.1462 22.95 73.1077 22.8905 73.0897C22.4739 72.947 22.3941 72.4667 22.424 72.0815C22.4954 71.2091 23.7414 68.4454 22.6035 66.205ZM22.1923 70.761C22.006 71.2876 21.9113 71.8421 21.9122 72.4007C21.9322 72.6696 22.0207 72.929 22.1693 73.1541C19.7624 73.4242 18.6276 73.6974 16.2713 73.824C15.5284 73.8732 14.7892 73.6825 14.1629 73.28C13.1163 72.482 13.0618 71.0303 13.2721 69.848C13.3727 69.0138 13.5649 68.1933 13.8452 67.4012C14.0064 66.9632 14.2868 66.5789 14.6547 66.2917C14.8798 66.1472 15.1313 66.0488 15.3948 66.0023C15.6582 65.9558 15.9282 65.9621 16.1892 66.0209C16.2574 66.0379 16.3295 66.0273 16.3898 65.9913C16.4502 65.9554 16.4939 65.8971 16.5115 65.8291C16.5383 65.7209 16.4301 64.5117 16.9941 64.5907C17.3964 64.6933 17.79 64.8277 18.1711 64.9927C18.5519 65.0647 18.9434 65.0589 19.3219 64.9759C19.9393 64.8881 20.568 65.0136 21.1044 65.3315C21.6408 65.6495 22.0527 66.1408 22.2721 66.7245C22.6725 68.0446 22.6445 69.4577 22.1923 70.761Z" fill="black"/>
<path d="M136.745 81.8434C137.218 80.9307 137.569 79.9601 137.79 78.9561C137.862 78.6285 137.358 78.4889 137.286 78.8173C137.078 79.7775 136.744 80.7061 136.294 81.5794C136.141 81.8779 136.59 82.1418 136.745 81.8434Z" fill="black"/>
<path d="M85.8436 83.4784H88.7592C88.8284 83.4784 88.8947 83.4509 88.9437 83.402C88.9926 83.3531 89.0201 83.2867 89.0201 83.2175C89.0201 83.1483 88.9926 83.082 88.9437 83.0331C88.8947 82.9841 88.8284 82.9567 88.7592 82.9567H85.8436C85.7744 82.9567 85.7081 82.9841 85.6591 83.0331C85.6102 83.082 85.5827 83.1483 85.5827 83.2175C85.5827 83.2867 85.6102 83.3531 85.6591 83.402C85.7081 83.4509 85.7744 83.4784 85.8436 83.4784Z" fill="black"/>
<path d="M114.21 86.1494L112.661 86.3136C112.33 86.3482 112.327 86.8707 112.661 86.8354L114.21 86.6712C114.54 86.6359 114.544 86.1134 114.21 86.1494Z" fill="black"/>
<path d="M114.565 90.4744H112.942C112.872 90.4744 112.806 90.5019 112.757 90.5508C112.708 90.5997 112.681 90.6661 112.681 90.7353C112.681 90.8044 112.708 90.8708 112.757 90.9197C112.806 90.9686 112.872 90.9961 112.942 90.9961H114.564C114.633 90.9961 114.699 90.9686 114.748 90.9197C114.797 90.8708 114.825 90.8044 114.825 90.7353C114.825 90.6661 114.797 90.5997 114.748 90.5508C114.699 90.5019 114.633 90.4744 114.564 90.4744H114.565Z" fill="black"/>
<path d="M20.6961 67.0644C19.3004 65.9066 17.0032 66.9409 16.2628 68.3956C16.0197 68.8623 15.9479 69.3995 16.0601 69.9136C16.1722 70.4277 16.4612 70.8862 16.8766 71.2092C17.1887 71.4943 17.5613 71.7051 17.9664 71.8257C18.3716 71.9463 18.7988 71.9737 19.216 71.9057C19.6332 71.8377 20.0296 71.6761 20.3755 71.4331C20.7214 71.1901 21.0078 70.872 21.2132 70.5025C21.5142 69.9516 21.6266 69.3173 21.5333 68.6964C21.4399 68.0756 21.1458 67.5024 20.6961 67.0644ZM21.0321 69.413C20.98 69.8523 20.8019 70.2672 20.5193 70.6075C20.2366 70.9479 19.8616 71.1992 19.4393 71.3312C17.8488 71.7862 16.1516 70.445 16.6188 68.8836C16.8914 68.2274 17.4028 67.699 18.0498 67.4051C18.3435 67.242 18.6684 67.1426 19.0031 67.1135C19.3379 67.0844 19.675 67.1263 19.9925 67.2363C20.3663 67.4506 20.6661 67.7736 20.8518 68.1625C21.0375 68.5513 21.1004 68.9875 21.0321 69.413Z" fill="black"/>
<path d="M75.617 27.6523V38.2758C75.6206 38.3427 75.6497 38.4056 75.6983 38.4516C75.7469 38.4976 75.8113 38.5233 75.8783 38.5233C75.9452 38.5233 76.0096 38.4976 76.0582 38.4516C76.1068 38.4056 76.1359 38.3427 76.1395 38.2758V27.6523C76.1359 27.5854 76.1068 27.5225 76.0582 27.4765C76.0096 27.4304 75.9452 27.4048 75.8783 27.4048C75.8113 27.4048 75.7469 27.4304 75.6983 27.4765C75.6497 27.5225 75.6206 27.5854 75.617 27.6523Z" fill="black"/>
<path d="M70.3285 34.2369C70.2795 34.188 70.2132 34.1605 70.144 34.1605C70.0747 34.1605 70.0084 34.188 69.9594 34.2369C69.9105 34.2859 69.883 34.3523 69.883 34.4215C69.883 34.4907 69.9105 34.5571 69.9594 34.606L74.0965 38.7423C74.146 38.7882 74.2114 38.8131 74.2789 38.8118C74.3464 38.8104 74.4108 38.783 74.4584 38.7352C74.5061 38.6874 74.5334 38.623 74.5346 38.5555C74.5358 38.488 74.5108 38.4227 74.4648 38.3733C73.1088 36.9722 71.73 35.5935 70.3285 34.2369Z" fill="black"/>
<path d="M80.7828 34.6253C79.4785 35.8898 78.1954 37.1762 76.9335 38.4846C76.8845 38.5336 76.857 38.6 76.857 38.6692C76.857 38.7384 76.8845 38.8048 76.9335 38.8537C76.9824 38.9026 77.0488 38.9301 77.118 38.9301C77.1872 38.9301 77.2536 38.9026 77.3025 38.8537L81.1519 34.9944C81.2008 34.9454 81.2283 34.879 81.2283 34.8098C81.2283 34.7406 81.2008 34.6742 81.1519 34.6253C81.1029 34.5764 81.0366 34.5489 80.9674 34.5489C80.8981 34.5489 80.8318 34.5764 80.7828 34.6253Z" fill="black"/>
<path d="M44.5206 47.3241C44.9625 47.3119 45.0193 47.3011 45.0324 46.8431C45.0454 46.385 45.0377 45.3001 45.0201 42.6538C45.0195 42.5849 44.9919 42.519 44.9433 42.4703C44.8947 42.4215 44.8289 42.3937 44.76 42.3929H40.3628C40.294 42.3941 40.2283 42.422 40.1796 42.4707C40.131 42.5193 40.1031 42.585 40.1019 42.6538V47.0502C40.1027 47.1192 40.1305 47.1851 40.1792 47.2338C40.228 47.2826 40.2939 47.3103 40.3628 47.3111C42.9462 47.3295 44.0418 47.3403 44.5206 47.3241ZM40.6237 42.9147H44.5022V46.7894H40.6275L40.6237 42.9147Z" fill="black"/>
<path d="M8.50846 65.4967C7.57308 67.3708 7.21576 69.4806 7.48186 71.5581C7.48361 71.6268 7.51165 71.6921 7.5602 71.7407C7.60875 71.7892 7.67409 71.8172 7.74273 71.819C7.77698 71.8191 7.81091 71.8124 7.84256 71.7993C7.87422 71.7862 7.90296 71.767 7.92715 71.7428C7.95133 71.7185 7.97047 71.6897 7.98346 71.658C7.99645 71.6263 8.00303 71.5924 8.00283 71.5581C7.74979 69.5735 8.08207 67.5582 8.95884 65.7599C9.10846 65.4607 8.65807 65.196 8.50846 65.4967Z" fill="black"/>
<path d="M6.59901 65.4355C5.66368 67.3096 5.3061 69.4193 5.57164 71.4969C5.5734 71.5655 5.60147 71.6307 5.65004 71.6791C5.6986 71.7276 5.76394 71.7555 5.83251 71.757C5.86676 71.7572 5.90071 71.7506 5.9324 71.7376C5.96409 71.7246 5.9929 71.7055 6.01715 71.6813C6.04141 71.6571 6.06063 71.6284 6.07372 71.5967C6.0868 71.5651 6.09348 71.5312 6.09338 71.4969C5.8398 69.5123 6.17211 67.4968 7.04939 65.6987C7.19901 65.3987 6.75246 65.1347 6.59901 65.4355Z" fill="black"/>
<path d="M92.8095 96.2572C92.8298 96.3216 92.8744 96.3756 92.9337 96.4079C92.9931 96.4401 93.0626 96.4481 93.1277 96.4301C93.1928 96.4121 93.2484 96.3695 93.2828 96.3114C93.3172 96.2533 93.3277 96.1841 93.3121 96.1183C93.0174 94.9743 91.8911 90.9777 91.8681 90.9009C91.8498 90.8342 91.8057 90.7775 91.7455 90.7432C91.6854 90.709 91.6141 90.7 91.5473 90.7183C91.4806 90.7366 91.4239 90.7807 91.3896 90.8409C91.3554 90.901 91.3464 90.9723 91.3647 91.039C91.7583 92.5713 92.7466 96.0439 92.8095 96.2572Z" fill="black"/>
<path d="M94.5115 96.8605C95.3555 95.1901 97.2906 91.3738 97.411 91.1359C97.5645 90.8367 97.1126 90.572 96.9607 90.872C96.1167 92.5423 94.1816 96.3595 94.0604 96.5973C93.9092 96.8958 94.3596 97.1605 94.5115 96.8605Z" fill="black"/>
<path d="M95.5834 97.7427L99.6446 96.3002C99.9584 96.1882 99.8233 95.6864 99.5057 95.7969L95.4446 97.2394C95.1308 97.3514 95.2658 97.8555 95.5834 97.7427Z" fill="black"/>
<path d="M26.1478 29.7959L26.6956 32.6248C26.7593 32.9548 27.2618 32.8151 27.1982 32.4867C27.0166 31.544 26.8342 30.6008 26.6511 29.6571C26.5874 29.3279 26.0872 29.4675 26.1478 29.7959Z" fill="black"/>
<path d="M22.4085 39.1574C22.4231 39.0935 22.4131 39.0265 22.3805 38.9696C22.348 38.9128 22.2952 38.8702 22.2328 38.8505C21.4049 38.615 20.5808 38.3633 19.7476 38.1454C19.6821 38.1306 19.6135 38.1416 19.5559 38.1761C19.4984 38.2106 19.4563 38.266 19.4385 38.3307C19.4208 38.3954 19.4286 38.4645 19.4604 38.5236C19.4923 38.5827 19.5456 38.6272 19.6095 38.6479C20.4374 38.8835 21.2606 39.1367 22.0939 39.3538C22.1274 39.3618 22.1622 39.363 22.1963 39.3574C22.2303 39.3518 22.2629 39.3395 22.2922 39.3213C22.3214 39.303 22.3468 39.2791 22.3667 39.251C22.3867 39.2229 22.4009 39.1911 22.4085 39.1574Z" fill="black"/>
<path d="M20.4503 46.4885L18.3786 48.1113C18.1147 48.3185 18.4861 48.6852 18.7477 48.4804L20.8193 46.8568C21.0833 46.6497 20.7111 46.2829 20.4503 46.4885Z" fill="black"/>
<path d="M28.9552 49.2255L28.4734 46.6252C28.4112 46.2953 27.9087 46.4349 27.9701 46.7641L28.4519 49.3643C28.5133 49.6942 29.0166 49.5538 28.9552 49.2255Z" fill="black"/>
<path d="M44.8337 89.1561C44.5045 89.2191 44.6442 89.7224 44.9725 89.6587C45.4612 89.5642 45.9631 89.5598 46.4534 89.6457C46.7818 89.7032 46.9229 89.2007 46.5922 89.1423C46.0102 89.0387 45.414 89.0434 44.8337 89.1561Z" fill="black"/>
<path d="M44.8294 86.4708C45.3604 86.3424 45.9088 86.3014 46.4529 86.3495C46.7875 86.3787 46.7852 85.8562 46.4529 85.8278C45.861 85.7785 45.2649 85.8259 44.6882 85.9682C44.3644 86.0465 44.5026 86.5475 44.8294 86.4708Z" fill="black"/>
<path d="M7.18136 103.282C6.98494 103.013 6.53225 103.273 6.73097 103.545L8.58085 106.077C8.77727 106.345 9.22995 106.085 9.032 105.814L7.18136 103.282Z" fill="black"/>
<path d="M123.536 113.929V111.32C123.536 111.251 123.509 111.185 123.46 111.136C123.411 111.087 123.345 111.059 123.275 111.059C123.206 111.059 123.14 111.087 123.091 111.136C123.042 111.185 123.015 111.251 123.015 111.32V113.929C123.015 113.998 123.042 114.064 123.091 114.113C123.14 114.162 123.206 114.19 123.275 114.19C123.345 114.19 123.411 114.162 123.46 114.113C123.509 114.064 123.536 113.998 123.536 113.929Z" fill="black"/>
<path d="M34.4841 45.5757L36.9317 48.4828C37.1481 48.7399 37.5156 48.3693 37.3008 48.1138L34.8524 45.2066C34.6361 44.9473 34.2685 45.3179 34.4841 45.5757Z" fill="black"/>
</svg>
