<svg width="155" height="154" viewBox="0 0 155 154" fill="none" xmlns="http://www.w3.org/2000/svg">
<path d="M129.497 34.9003C128.764 34.4821 128.51 34.911 129.079 34.4483C131.169 32.7488 128.979 31.5327 127.084 32.6422C127.147 32.4383 127.143 32.2192 127.071 32.0181C126.999 31.817 126.863 31.645 126.684 31.5281C126.396 31.3869 126.078 31.3167 125.757 31.3235C125.436 31.3303 125.121 31.4139 124.839 31.5673C123.242 32.1735 121.914 33.3281 121.091 34.8243C123.348 33.8353 126.155 36.3151 124.935 38.4857C126.196 37.8433 127.551 37.4061 128.949 37.1905C129.22 37.1684 129.479 37.069 129.695 36.904C129.911 36.739 130.075 36.5154 130.167 36.2598C130.206 35.9921 130.163 35.7187 130.044 35.4759C129.924 35.2332 129.734 35.0324 129.497 34.9003Z" fill="black"/>
<path d="M88.8309 63.7994C88.8128 63.8655 88.8217 63.9362 88.8557 63.9957C88.8896 64.0553 88.9459 64.0989 89.012 64.1171C89.078 64.134 89.148 64.1246 89.2072 64.091C89.2664 64.0574 89.3103 64.0021 89.3296 63.9368L90.6954 60.6797L90.225 60.4749L88.8309 63.7994Z" fill="black"/>
<path d="M102.83 69.5383C102.684 69.836 103.129 70.0984 103.275 69.7992L104.744 66.8069L104.271 66.6005L102.83 69.5383Z" fill="black"/>
<path d="M123.346 34.8404C122.949 34.6431 122.508 34.5512 122.065 34.5737C121.622 34.5961 121.193 34.7321 120.818 34.9686C120.443 35.205 120.135 35.534 119.924 35.9238C119.714 36.3136 119.606 36.7512 119.614 37.1943C119.844 39.0511 122.189 40.1637 123.697 39.5729C124.076 39.4231 124.411 39.1808 124.672 38.8681C124.934 38.5554 125.112 38.1823 125.192 37.7828C125.259 37.1564 125.113 36.5258 124.778 35.9922C124.443 35.4586 123.939 35.053 123.346 34.8404Z" fill="#FC9070"/>
<path d="M116.33 67.2322C115.394 65.8327 114.832 64.7862 114.389 64.2L113.072 67.2215C114.303 67.2322 114.772 67.2322 116.33 67.2322Z" fill="#FFD2D2"/>
<path d="M137.611 51.1855C136.241 48.0573 133.284 45.6389 130.027 44.3752C128.549 43.783 126.958 43.5292 125.37 43.6325C123.474 43.7008 121.595 44.0192 119.783 44.5793C120.255 46.7392 120.25 48.9761 119.77 51.134C119.882 51.2826 119.955 51.4566 119.983 51.6404C120.023 52.152 120.009 52.6663 119.942 53.175C119.84 53.9784 119.922 54.7945 120.18 55.5619C120.786 56.908 121.519 58.1927 122.371 59.3983C122.938 60.2368 123.635 60.98 124.435 61.6003C125.534 62.4359 126.525 62.3622 127.197 61.1745C128.016 59.7297 127.802 59.3292 128.416 57.332C128.808 56.3389 129.516 55.5028 130.432 54.9532C131.347 54.4037 132.418 54.1714 133.479 54.2924C134.539 54.4134 135.531 54.8808 136.299 55.6224C137.067 56.3639 137.569 57.3381 137.727 58.3939C137.804 59.0803 137.786 59.774 137.674 60.4555C137.475 62.7925 136.9 65.0819 135.97 67.2351H139.46C139.528 67.2365 139.593 67.264 139.641 67.3121C139.689 67.3601 139.717 67.4249 139.719 67.4929C139.385 62.5371 139.603 55.733 137.611 51.1855ZM130.007 46.6854C128.647 47.0875 127.298 47.5244 125.961 47.9959C125.646 48.1072 125.512 47.6077 125.823 47.498C127.159 47.0269 128.497 46.542 129.869 46.1867C129.935 46.1685 130.006 46.1773 130.066 46.2112C130.125 46.2451 130.169 46.3013 130.187 46.3674C130.205 46.4336 130.197 46.5042 130.163 46.5639C130.129 46.6235 130.073 46.6672 130.007 46.6854Z" fill="#FFD2D2"/>
<path d="M102.675 40.8136C102.598 40.8042 102.52 40.8151 102.449 40.8451C102.378 40.8751 102.316 40.9232 102.269 40.9847C101.919 41.3468 101.885 42.8407 102.806 43.697C102.941 43.0588 103.041 42.4135 103.104 41.7642C103.125 41.4305 103.013 40.8711 102.675 40.8136Z" fill="#F7DA31"/>
<path d="M106.859 42.3251C106.888 42.2284 106.899 42.1317 106.832 42.0803C106.731 42.0186 106.614 41.9867 106.496 41.9883C106.04 42.0136 105.918 43.0494 105.934 43.5105C106.346 43.2081 106.666 42.7979 106.859 42.3251Z" fill="#F7DA31"/>
<path d="M112.42 46.2022C112.448 46.1463 112.461 46.0846 112.459 46.0225C112.457 45.9603 112.44 45.8996 112.41 45.8454C112.302 45.659 112.08 45.84 111.949 45.9467C111.396 46.4553 110.872 46.995 110.38 47.5633C110.811 47.4721 111.221 47.3031 111.591 47.0646C111.951 46.8712 112.241 46.5695 112.42 46.2022Z" fill="#F7DA31"/>
<path d="M109.732 44.4144C109.799 44.2795 109.834 44.1313 109.834 43.9809C109.846 43.9233 109.793 43.8712 109.744 43.8405C109.701 43.8239 109.656 43.8164 109.611 43.8183C109.565 43.8203 109.521 43.8318 109.48 43.852C108.738 44.1213 108.475 45.1625 108.505 45.929C109.016 45.5162 109.434 45.0001 109.732 44.4144Z" fill="#F7DA31"/>
<path d="M111.097 34.0203C107.562 32.4706 103.568 32.3324 99.935 33.6342C96.3015 34.936 93.3039 37.5789 91.5574 41.0208C91.3003 41.528 91.2106 41.7566 90.2016 44.0707C90.4134 43.9185 90.6518 43.8071 90.9044 43.7423C91.1305 43.6866 91.3681 43.7001 91.5863 43.7811C91.8046 43.862 91.9935 44.0067 92.1286 44.1963C92.2636 44.386 92.3386 44.6118 92.3437 44.8445C92.3488 45.0773 92.2839 45.3062 92.1574 45.5016C91.7622 46.2597 91.2758 46.3065 90.5316 47.0292C89.9339 47.7351 91.12 48.2108 91.6057 48.4333C92.2134 48.7111 93.0566 49.3372 92.6799 50.1129C92.5658 50.3434 92.3809 50.5315 92.1523 50.6495C91.9237 50.7675 91.6634 50.8093 91.4093 50.7689C90.1986 50.5855 89.0576 49.2482 88.8512 49.2175C88.879 49.2831 88.9132 49.3458 88.9533 49.4047C89.6929 50.7451 90.5645 51.3582 90.718 52.163C90.8239 52.7131 90.5446 53.4252 89.8809 53.3615C89.1858 53.2947 88.6349 52.7047 87.7518 52.1009C87.6858 52.0556 87.5139 51.8914 87.4356 51.942C87.4264 51.9474 87.4264 51.942 87.4625 51.9896C87.4986 52.0372 87.8024 52.4791 87.9942 52.7891C88.2873 53.2625 88.7615 53.9653 88.5873 54.5538C88.5333 54.7275 88.4404 54.8865 88.3158 55.019C88.1911 55.1514 88.0379 55.2537 87.8678 55.3181C87.6978 55.3825 87.5152 55.4073 87.3341 55.3907C87.153 55.3741 86.9781 55.3164 86.8226 55.2221C86.4347 54.9484 86.0724 54.6402 85.74 54.3014C85.2727 55.3755 84.3182 57.5622 84.3075 57.5868C84.2739 57.6462 84.2648 57.7164 84.2822 57.7825C84.2995 57.8485 84.3419 57.9052 84.4003 57.9405L111.627 69.8109C111.687 69.8444 111.757 69.8535 111.823 69.8362C111.889 69.8189 111.946 69.7765 111.981 69.718L114.386 64.2022C114.169 63.8515 113.871 63.5589 113.516 63.3493C113.161 63.1397 112.76 63.0195 112.349 62.9991C111.684 62.9883 110.858 63.0612 110.382 62.485C110.22 62.2909 110.13 62.0469 110.127 61.794C110.124 61.5412 110.208 61.295 110.365 61.097C111.083 60.438 111.951 60.4157 114.067 60.0551C113.851 59.9961 113.63 59.9603 113.406 59.9484C112.695 59.9164 111.987 59.8395 111.286 59.7183C110.853 59.6876 110.437 59.5434 110.078 59.3001C109.924 59.1624 109.81 58.9864 109.747 58.7901C109.685 58.5938 109.675 58.3843 109.72 58.1831C109.765 57.9819 109.862 57.7962 110.002 57.6452C110.143 57.4942 110.321 57.3832 110.518 57.3236C111.658 56.8633 112.353 57.2331 114.033 57.1848C114.083 57.1848 114.228 57.2024 114.192 57.108C114.165 57.0313 114.011 57.0129 113.94 56.9876C113.582 56.8579 113.226 56.7236 112.871 56.5886C112.363 56.3952 111.73 56.2663 111.495 55.717C111.404 55.5078 111.379 55.2758 111.424 55.052C111.468 54.8283 111.58 54.6237 111.745 54.4656C112.178 54.0543 112.93 54.1518 113.479 54.1679C114.681 54.1934 115.862 54.4828 116.94 55.0157C117.372 52.3372 117.43 51.6351 118.025 50.9661C118.192 50.829 118.392 50.7386 118.605 50.7042C118.818 50.6699 119.036 50.6927 119.237 50.7704C119.266 50.7789 119.288 50.7957 119.314 50.8065C119.492 50.874 119.648 50.9895 119.764 51.1402C120.53 47.7242 120.085 44.1482 118.503 41.0248C116.922 37.9014 114.304 35.4251 111.097 34.0203ZM112.577 46.9065C111.873 47.6537 110.903 48.0927 109.877 48.128C105.527 52.8954 101.911 58.2848 99.1502 64.1185C99.0068 64.4193 98.5617 64.1569 98.7037 63.8584C101.434 58.0939 104.994 52.7607 109.271 48.029C109.007 47.9157 108.77 47.7471 108.576 47.5346C108.382 47.322 108.236 47.0704 108.148 46.7968L108.136 46.8037C107.955 46.929 107.743 47.0032 107.523 47.0183C107.303 47.0334 107.083 46.989 106.886 46.8896C106.127 46.2771 105.641 45.3902 105.532 44.4213C105.177 44.6295 104.778 44.7503 104.367 44.7737C103.957 44.797 103.547 44.7223 103.171 44.5556C101.959 51.0258 99.4423 57.1814 95.7735 62.6469C95.5886 62.9224 95.1413 62.663 95.327 62.386C98.9998 56.9197 101.509 50.7561 102.697 44.2786C101.499 43.3648 101.216 41.5732 101.826 40.7185C101.94 40.5545 102.102 40.4297 102.29 40.3611C102.478 40.2925 102.682 40.2833 102.875 40.3349C103.534 40.5198 103.666 41.3975 103.608 41.976C103.535 42.6684 103.424 43.3562 103.275 44.0361C103.618 44.2151 104.003 44.2949 104.389 44.2666C104.774 44.2383 105.144 44.1029 105.457 43.8758C105.405 43.4249 105.426 42.9686 105.521 42.5246C105.551 42.3318 105.621 42.1475 105.726 41.9835C105.832 41.8196 105.971 41.6798 106.135 41.5732C106.322 41.4822 106.534 41.4545 106.738 41.4944C106.942 41.5342 107.128 41.6395 107.267 41.7942C107.784 42.4663 106.677 43.6356 105.997 44.1359C106.093 44.9332 106.428 45.6828 106.958 46.2858C107.05 46.3848 107.164 46.4615 107.29 46.5098C107.552 46.5143 107.808 46.4335 108.019 46.2796C107.796 44.5916 108.716 43.3188 109.635 43.3011C110.249 43.2896 110.454 43.9011 110.29 44.3891C109.937 45.2435 109.349 45.9807 108.595 46.5159C108.651 46.7776 108.781 47.0179 108.969 47.2088C109.156 47.3997 109.394 47.5333 109.655 47.5939C110.218 46.9702 110.779 46.3295 111.39 45.7525C111.616 45.494 111.92 45.3162 112.257 45.2461C113.019 45.2032 113.216 46.3126 112.577 46.9065Z" fill="#F7DA31"/>
<path d="M63.5784 51.0703C63.292 49.6423 62.7033 48.2922 61.8518 47.1107C61.0003 45.9291 59.9058 44.9435 58.6418 44.2201C54.9781 42.0887 50.1474 41.857 45.9259 42.2383C42.8723 42.4501 39.9721 43.656 37.6686 45.6718C35.4244 47.7848 31.7837 46.7966 31.321 44.5401C31.2242 44.0437 31.2053 43.5353 31.265 43.0332C31.2635 43.1011 31.2358 43.1657 31.1878 43.2137C31.1398 43.2617 31.0751 43.2894 31.0072 43.291H21.8415C21.7732 43.2904 21.7079 43.263 21.6596 43.2148C21.6112 43.1667 21.5837 43.1014 21.5829 43.0332C21.1688 45.9947 21.8086 49.0076 23.3906 51.5452C25.8788 55.2473 29.8763 57.2345 34.2957 57.8905C34.252 60.0902 34.0855 69.7317 34.0456 72.3519C35.5017 73.0438 36.8163 74.0005 37.9226 75.1731C40.8558 73.1706 41.4213 70.2511 41.419 66.6841C41.419 62.4856 41.7558 66.2682 41.2563 52.4721C41.2145 52.1091 41.2145 51.7425 41.2563 51.3795C41.3187 51.0568 41.4981 50.7686 41.7601 50.5703C42.0221 50.3719 42.3482 50.2774 42.6756 50.3049C43.0031 50.3324 43.3088 50.48 43.5341 50.7193C43.7593 50.9586 43.8881 51.2727 43.8957 51.6012C44.1213 52.8043 44.3768 55.1552 44.4712 56.3345C45.1037 55.8093 45.9144 55.5485 46.7345 55.6064C47.5545 55.6642 48.3206 56.0364 48.873 56.6452C49.5804 55.3785 51.7372 55.5465 52.4024 58.0309C52.5975 58.5778 52.7351 59.1435 52.8129 59.7189C53.4719 65.9369 52.558 72.2209 50.1551 77.9936C48.7163 81.5098 46.5095 84.6598 43.6962 87.213C44.1434 89.1154 44.4739 91.0433 44.686 92.9859C44.6897 93.0272 44.6794 93.0685 44.6569 93.1033C44.7336 93.3151 45.0106 94.0862 45.0697 94.2588L54.3789 94.3355C54.3789 83.1074 54.339 83.6805 54.441 83.5632C54.4986 83.4864 54.2784 83.6399 64.4208 77.4718C64.4945 70.1997 64.6694 56.1833 63.5784 51.0703Z" fill="#78B5FF"/>
<path d="M51.5493 28.4468C51.5717 28.0359 51.4832 27.6264 51.293 27.2614C51.2745 27.2485 51.2604 27.2303 51.2523 27.2092C50.7971 26.8028 50.2121 26.5716 49.602 26.557C49.0088 26.4379 48.3955 26.4675 47.8165 26.643C47.5685 26.7645 47.3619 26.9567 47.2227 27.1953C47.0836 27.434 47.0182 27.7084 47.0347 27.9842C46.8992 29.5102 46.8956 31.045 47.024 32.5716C47.0842 32.2054 47.2327 31.8592 47.4566 31.5632C47.6805 31.2671 47.9731 31.03 48.3091 30.8723C48.6452 30.7145 49.0145 30.641 49.3853 30.658C49.7562 30.6749 50.1173 30.7819 50.4375 30.9696C50.9719 31.3509 51.3403 31.9222 51.4672 32.5663C51.5945 31.1969 51.6219 29.8201 51.5493 28.4468Z" fill="black"/>
<path d="M31.6402 64.2111C29.9868 62.26 26.8893 62.6766 25.1384 64.4045C24.2078 65.3453 23.4821 66.4687 23.007 67.7037C22.2873 69.5068 21.6681 71.6705 21.444 72.0879C20.1107 74.1592 18.1677 75.766 15.8829 76.6869C14.5387 77.2163 13.1093 77.4841 11.9208 78.3564C10.8109 79.1698 10.008 80.3339 9.64199 81.6603C9.45146 82.3195 9.47025 83.0217 9.69578 83.6698C9.92131 84.318 10.3424 84.8801 10.9011 85.2787C9.68432 85.7091 8.66823 86.5717 8.04608 87.7025C7.06244 89.7741 8.28163 91.7283 10.0302 91.8258C9.44502 92.4424 9.01042 93.1861 8.7604 93.9987C8.62233 94.4493 8.60691 94.9285 8.71575 95.3871C8.82459 95.8456 9.05374 96.2669 9.37958 96.6074C9.71595 96.8815 10.1104 97.0753 10.5329 97.1741C10.9554 97.2729 11.3949 97.274 11.8179 97.1774C11.8709 97.169 11.9238 97.1567 11.9768 97.146C12.1755 96.1102 13.8896 87.8084 14.2018 86.5455C15.3972 81.7194 17.6169 76.5956 21.6535 73.6623C23.1517 72.574 24.8722 71.8307 26.6915 71.4858C28.5109 71.1409 30.384 71.2029 32.1765 71.6674C32.287 71.6973 32.5832 71.7794 32.6914 71.8209C32.752 68.5316 33.1203 65.9574 31.6402 64.2111ZM31.0034 68.1158C30.8511 68.7437 30.4775 69.2957 29.9511 69.6704C29.4247 70.0451 28.7809 70.2175 28.1377 70.1559C27.4597 70.0955 26.8278 69.7874 26.3626 69.2904C25.8975 68.7935 25.6319 68.1425 25.6164 67.462C25.5779 66.9213 25.7294 66.3841 26.0447 65.9431C26.36 65.5021 26.8194 65.1851 27.3435 65.0467C28.1353 64.8371 28.975 64.9059 29.7221 65.2416C30.2236 65.5113 30.6215 65.9398 30.8534 66.4599C31.0853 66.98 31.1381 67.5624 31.0034 68.1158Z" fill="black"/>
<path d="M29.7249 65.2418C29.1429 64.9483 28.4833 64.8452 27.8395 64.9471C27.1956 65.049 26.6001 65.3507 26.1372 65.8096C25.8555 66.205 25.6832 66.6678 25.6377 67.1512C25.5922 67.6345 25.6751 68.1213 25.8781 68.5624C26.081 69.0034 26.3968 69.383 26.7936 69.6629C27.1903 69.9427 27.6539 70.1129 28.1374 70.1562C28.7806 70.2177 29.4245 70.0454 29.9509 69.6706C30.4772 69.2959 30.8509 68.7439 31.0032 68.116C31.1381 67.563 31.0858 66.9809 30.8545 66.4608C30.6232 65.9407 30.2259 65.512 29.7249 65.2418Z" fill="#FFD2D2"/>
<path d="M52.8158 59.7221C52.9294 60.8384 52.3831 62.0308 51.2452 62.1006C50.8599 62.0777 50.4879 61.9512 50.1686 61.7342C49.8493 61.5173 49.5946 61.2182 49.4314 60.8684C49.336 61.1534 49.1628 61.4061 48.9314 61.5978C48.6999 61.7896 48.4194 61.9127 48.1216 61.9534C47.8238 61.9942 47.5206 61.9508 47.2462 61.8282C46.9718 61.7056 46.7371 61.5086 46.5687 61.2597C46.4897 61.8798 46.5719 62.5098 46.8074 63.0888C46.9531 63.3865 46.5073 63.6482 46.3608 63.3497C45.6634 61.931 46.4314 60.4341 45.8122 59.2771C45.7023 59.1002 45.5464 58.9565 45.3613 58.8612C45.1761 58.7659 44.9686 58.7227 44.7608 58.7361C44.5529 58.7495 44.3527 58.819 44.1813 58.9372C44.0098 59.0555 43.8737 59.218 43.7874 59.4075C43.3817 60.3599 43.1729 61.3846 43.1736 62.4198C43.1421 62.7482 42.625 62.7505 42.6564 62.4198C42.7892 61.0487 42.8291 59.8556 43.5449 58.8397C43.6827 58.663 43.8555 58.5166 44.0525 58.4098C44.2495 58.3029 44.4664 58.2379 44.6897 58.2187C44.9129 58.1996 45.1378 58.2267 45.3501 58.2984C45.5624 58.3702 45.7576 58.485 45.9235 58.6356C45.8874 58.4688 45.8331 58.3064 45.7616 58.1515C45.6219 57.8515 46.0685 57.5898 46.2074 57.8906C46.4417 58.6045 46.581 59.3462 46.6217 60.0965C46.6488 60.3963 46.7635 60.6814 46.9515 60.9165C47.1395 61.1515 47.3925 61.3261 47.679 61.4185C47.9406 61.4851 48.2178 61.4482 48.4528 61.3154C48.6878 61.1826 48.8625 60.9642 48.9403 60.7057C49.1343 60.0682 49.1761 59.3942 49.0623 58.7377C49.0075 58.2385 48.8963 57.7471 48.7309 57.273C48.7171 57.2408 48.71 57.2061 48.7099 57.1711C48.7099 57.136 48.717 57.1014 48.7307 57.0691C48.7444 57.0369 48.7646 57.0078 48.7899 56.9836C48.8151 56.9593 48.8451 56.9405 48.8779 56.9281C48.9107 56.9158 48.9456 56.9102 48.9806 56.9117C49.0156 56.9133 49.0499 56.9219 49.0815 56.937C49.1131 56.9522 49.1413 56.9736 49.1643 57C49.1874 57.0263 49.2049 57.0571 49.2158 57.0904C49.5206 57.9867 49.657 58.9318 49.6178 59.8778C49.6403 59.909 49.6553 59.945 49.6616 59.9829C49.7118 60.3758 49.8853 60.7426 50.1572 61.0306C50.4291 61.3186 50.7853 61.513 51.1746 61.5858C51.3665 61.5822 51.5535 61.525 51.7145 61.4208C51.8756 61.3165 52.0043 61.1693 52.0861 60.9957C52.2708 60.5982 52.3435 60.1578 52.2964 59.7221C52.2826 59.3891 52.7997 59.3914 52.8135 59.7221C52.732 59.1474 52.5945 58.582 52.403 58.0341C52.2539 57.4699 51.9763 56.9479 51.592 56.5088C51.4269 56.2994 51.2139 56.1328 50.9711 56.0226C50.7283 55.9125 50.4626 55.8622 50.1963 55.8759C49.9301 55.8895 49.6709 55.9668 49.4407 56.1012C49.2104 56.2356 49.0157 56.4233 48.8728 56.6484C48.3204 56.0396 47.5543 55.6674 46.7343 55.6095C45.9143 55.5517 45.1035 55.8125 44.471 56.3377C44.3767 55.1622 44.1219 52.8082 43.8956 51.6044C43.8879 51.2759 43.7591 50.9618 43.5339 50.7225C43.3087 50.4832 43.0029 50.3356 42.6755 50.3081C42.348 50.2806 42.0219 50.3751 41.76 50.5735C41.498 50.7718 41.3185 51.06 41.2562 51.3827C41.2081 52.1714 41.2232 52.9626 41.3015 53.7489C41.7311 65.3684 41.415 63.2714 41.4181 66.6873C41.4181 70.2535 40.8557 73.1737 37.9217 75.1763C40.9623 78.3466 42.7048 82.9257 43.6969 87.2224C46.5102 84.6691 48.7169 81.5191 50.1557 78.0029C52.5658 72.23 53.4808 65.9424 52.8158 59.7221Z" fill="#FFD2D2"/>
<path d="M50.4356 30.9696C50.0763 30.7612 49.6672 30.654 49.2519 30.6593C48.8365 30.6645 48.4303 30.7821 48.0764 30.9995C47.7224 31.2169 47.4339 31.526 47.2414 31.8941C47.0489 32.2622 46.9596 32.6755 46.983 33.0903C47.043 33.5075 47.2274 33.8969 47.5121 34.2077C47.7968 34.5185 48.1685 34.7363 48.5789 34.8327C49.1358 34.9644 49.7211 34.8987 50.2349 34.6469C50.7488 34.395 51.1593 33.9725 51.3963 33.4517C51.5151 32.9894 51.4864 32.5016 51.3142 32.0565C51.1419 31.6114 50.8347 31.2313 50.4356 30.9696Z" fill="#9E647B"/>
<path d="M43.6996 87.2164C42.1773 80.5519 38.8021 73.4509 32.1791 71.6685C30.3865 71.2042 28.5134 71.1422 26.6941 71.4871C24.8748 71.832 23.1543 72.5752 21.656 73.6634C17.0018 77.0448 14.7721 83.2934 13.6765 88.9458C13.6318 89.1009 13.6023 89.26 13.5883 89.4207C13.792 88.5 14.2336 87.6488 14.8689 86.952C15.5043 86.2551 16.3111 85.737 17.2092 85.4492C18.1072 85.1615 19.0649 85.1141 19.9869 85.3119C20.9089 85.5097 21.763 85.9457 22.464 86.5765C23.0893 87.149 23.5755 87.857 23.8852 88.6462C24.1949 89.4355 24.32 90.2852 24.2509 91.1302C24.2371 91.9665 24.3046 98.1576 24.3231 100.414C25.2076 98.4757 26.2313 96.6038 27.386 94.8131C29.4491 91.556 32.4461 87.9453 36.2417 87.2824C37.0952 87.1139 37.9737 87.116 38.8263 87.2886C39.679 87.4613 40.4891 87.801 41.2098 88.2883C42.6066 89.2564 43.6867 90.6152 44.3149 92.1944C44.4369 92.5013 44.5497 92.8082 44.664 93.1105C44.6866 93.0757 44.6968 93.0344 44.6932 92.9931C44.4823 91.0488 44.1504 89.1195 43.6996 87.2164Z" fill="#C0C195"/>
<path d="M40.7751 32.7819C41.2446 32.8425 41.7165 32.8878 42.1876 32.9307C42.6371 32.9992 43.0923 33.0226 43.5464 33.0006C45.0679 32.8287 45.2781 30.7885 42.8996 30.675C42.0454 30.6231 41.2012 30.4638 40.3868 30.2008C40.4367 30.0082 41.3843 29.9921 41.9981 30.055C42.4081 30.0983 42.8224 30.0768 43.2257 29.9914C43.4387 29.9162 43.6133 29.7599 43.7116 29.5566C43.8099 29.3532 43.8239 29.1193 43.7505 28.9057C43.3815 27.8139 41.1035 27.6013 39.9088 27.5246C37.5556 27.3424 35.1893 27.6095 32.9359 28.3118C26.5009 30.3566 22.2663 36.3681 21.5804 43.0341C21.5812 43.1023 21.6087 43.1676 21.6571 43.2158C21.7054 43.264 21.7707 43.2913 21.839 43.2919H31.0078C31.0757 43.2903 31.1403 43.2627 31.1884 43.2147C31.2364 43.1666 31.264 43.102 31.2656 43.0341C31.3575 41.4498 32.0077 39.9492 33.1009 38.7988C33.5444 38.366 34.0983 38.0614 34.4666 38.554C34.8503 39.0612 35.7641 41.4121 37.1942 40.4722C38.7188 39.4678 36.5037 37.3126 37.4244 36.3198C37.8303 35.9621 38.3595 35.7767 38.8999 35.8026C40.9278 35.7719 41.8155 36.6221 42.9272 36.6029C43.9331 36.6497 44.7817 35.6146 44.1395 34.8036C43.8388 34.4293 43.4532 34.1321 43.0147 33.9366C42.3695 33.6418 41.6913 33.4254 40.9945 33.2921C40.8165 33.2584 40.3331 33.2722 40.3247 33.0075C40.3162 32.7428 40.5932 32.7566 40.7751 32.7819ZM36.005 31.4323C36.1976 31.166 36.6487 31.4254 36.4508 31.6931C36.3021 31.8933 36.1946 32.121 36.1344 32.363C36.0743 32.6051 36.0627 32.8566 36.1004 33.1031C36.138 33.3496 36.2242 33.5862 36.3539 33.7992C36.4836 34.0122 36.6542 34.1974 36.8559 34.344C37.126 34.5359 36.8689 34.9801 36.595 34.7898C36.3341 34.6093 36.1117 34.3788 35.9406 34.1116C35.7695 33.8445 35.6532 33.546 35.5983 33.2335C35.5434 32.9211 35.5511 32.6008 35.6209 32.2914C35.6907 31.9819 35.8213 31.6894 36.005 31.4307V31.4323ZM23.3259 39.642C23.3804 39.3144 23.8784 39.454 23.8247 39.7793L23.494 41.7819C23.4395 42.1095 22.9415 41.9699 22.9952 41.6446L23.3259 39.642Z" fill="#9E647B"/>
<path d="M56.4038 24.8997C56.421 24.8704 56.4322 24.838 56.4368 24.8043C56.4414 24.7707 56.4393 24.7365 56.4307 24.7036C56.4221 24.6708 56.4071 24.6399 56.3865 24.6129C56.366 24.5859 56.3403 24.5631 56.311 24.546C56.2817 24.5289 56.2493 24.5177 56.2156 24.5131C56.182 24.5085 56.1478 24.5105 56.1149 24.5192C56.0821 24.5278 56.0513 24.5428 56.0242 24.5633C55.9972 24.5838 55.9744 24.6095 55.9573 24.6388C54.9872 26.235 54.0294 27.8387 53.0839 29.4496C53.0533 29.5084 53.0464 29.5768 53.0648 29.6406C53.0832 29.7044 53.1254 29.7586 53.1827 29.7921C53.2399 29.8256 53.3079 29.8358 53.3725 29.8206C53.4371 29.8054 53.4934 29.766 53.5297 29.7104L56.4038 24.8997Z" fill="black"/>
<path d="M54.9968 30.2208L57.9407 28.0003C58.2031 27.8024 57.9461 27.3535 57.6806 27.5538L54.7359 29.7788C54.4742 29.9722 54.7313 30.421 54.9968 30.2208Z" fill="black"/>
<path d="M45.073 94.2621C44.832 93.5668 44.578 92.8762 44.3112 92.1904C43.7571 90.8005 42.8538 89.5769 41.6886 88.638C38.8889 86.4337 35.3618 86.8511 32.4922 88.9887C29.1017 91.5145 25.9543 96.8086 24.3193 100.524C24.3193 100.979 24.363 107.465 24.3638 107.638H54.3823V94.3365L45.073 94.2621ZM37.3682 99.7641C36.3696 102.219 35.4507 104.706 34.6129 107.221C34.5947 107.287 34.551 107.343 34.4913 107.377C34.4317 107.411 34.361 107.42 34.2949 107.402C34.2288 107.384 34.1726 107.34 34.1387 107.28C34.1048 107.221 34.096 107.15 34.1142 107.084C34.9515 104.569 35.8702 102.084 36.8702 99.6268C36.9945 99.3222 37.494 99.4572 37.3682 99.7641ZM40.514 90.7933L38.9978 90.26C38.6856 90.1503 38.8206 89.6516 39.1352 89.7621L40.6521 90.2945C40.9651 90.4035 40.8301 90.903 40.5155 90.7933H40.514ZM46.4311 102.541C46.2438 104.118 45.8518 105.664 45.2649 107.139C45.2471 107.205 45.2037 107.262 45.1442 107.296C45.0848 107.33 45.0142 107.339 44.948 107.322C44.8817 107.304 44.8253 107.26 44.791 107.201C44.7568 107.142 44.7476 107.071 44.7654 107.005C46.2623 102.891 46.5684 99.5807 44.8421 94.9073C44.7255 94.5943 45.2303 94.4616 45.3401 94.77C46.3209 97.2355 46.6956 99.9004 46.4326 102.541H46.4311Z" fill="#2755A0"/>
<path d="M143.38 89.6813C140.548 87.3473 135.124 82.7268 132.805 79.8687C127.834 82.9593 123.255 85.8933 120.324 90.9941C123.712 95.0648 128.041 98.2478 132.937 100.267C132.981 100.279 133.027 100.279 133.072 100.268C133.116 100.256 133.156 100.233 133.188 100.2C135.707 97.733 142.482 90.9496 143.38 90.0465C143.428 89.9979 143.455 89.9323 143.455 89.8639C143.455 89.7955 143.428 89.7299 143.38 89.6813Z" fill="#FFD2D2"/>
<path d="M91.6083 48.434C91.121 48.2115 89.9348 47.7358 90.5341 47.0299C90.8074 46.7641 91.1075 46.5273 91.4295 46.3232C93.2579 45.0189 91.9666 42.8421 90.2019 44.0713C89.8612 44.3084 89.5435 44.6015 89.2635 44.8301C87.7952 45.8869 86.4683 47.1275 85.3151 48.5214C84.7655 49.2426 84.4486 50.114 84.4065 51.0197C84.3644 51.9255 84.5992 52.8225 85.0796 53.5915C85.3341 53.921 85.627 54.219 85.952 54.4792C86.2198 54.7539 86.5135 55.0021 86.829 55.2204C86.9844 55.3149 87.1594 55.3727 87.3405 55.3894C87.5217 55.4061 87.7042 55.3813 87.8744 55.3169C88.0445 55.2524 88.1977 55.1501 88.3223 55.0176C88.447 54.8851 88.5398 54.7259 88.5937 54.5521C88.7701 53.9652 88.2937 53.2624 88.0006 52.7874C87.8088 52.4767 87.5088 52.0393 87.4689 51.9879C87.429 51.9365 87.4328 51.9457 87.442 51.9404C87.5187 51.8897 87.6921 52.0539 87.7581 52.0992C88.655 52.713 89.1929 53.293 89.8873 53.3598C90.551 53.4235 90.8302 52.7115 90.7244 52.1613C90.5431 51.6121 90.2377 51.1119 89.832 50.6997C89.4677 50.232 89.1416 49.7358 88.8568 49.2158C89.064 49.2465 90.2118 50.5854 91.4149 50.7672C91.669 50.8077 91.9293 50.7658 92.1579 50.6478C92.3865 50.5298 92.5714 50.3418 92.6855 50.1112C93.0591 49.337 92.2152 48.7109 91.6083 48.434ZM87.4044 47.0529C87.4408 47.058 87.4756 47.0714 87.506 47.092C87.5365 47.1126 87.5618 47.1399 87.5801 47.1718C87.7804 47.5163 87.999 47.8493 88.1939 48.1946C88.2246 48.2534 88.2314 48.3218 88.213 48.3856C88.1946 48.4494 88.1524 48.5036 88.0952 48.5371C88.0379 48.5706 87.9699 48.5808 87.9053 48.5656C87.8407 48.5504 87.7845 48.511 87.7481 48.4554C87.5387 48.1171 87.3369 47.7733 87.1343 47.4327C87.1114 47.39 87.1009 47.3417 87.104 47.2934C87.107 47.245 87.1235 47.1985 87.1516 47.159C87.1797 47.1195 87.2182 47.0887 87.2629 47.0699C87.3075 47.0512 87.3566 47.0453 87.4044 47.0529ZM85.6205 51.7424L85.0481 50.9514C84.8525 50.682 85.3006 50.4242 85.4939 50.6913L86.0663 51.4815C86.262 51.7508 85.8139 52.0086 85.6205 51.7416V51.7424Z" fill="#FC9070"/>
<path d="M36.8697 99.6267C35.8707 102.082 34.9521 104.568 34.1137 107.084C34.0955 107.15 34.1043 107.221 34.1382 107.28C34.1721 107.34 34.2283 107.384 34.2944 107.402C34.3605 107.42 34.4312 107.411 34.4908 107.377C34.5505 107.343 34.5942 107.287 34.6124 107.221C35.4495 104.709 36.3771 102.199 37.3677 99.764C37.4935 99.4571 36.994 99.3221 36.8697 99.6267Z" fill="#2755A0"/>
<path d="M139.72 67.4883C139.718 67.4203 139.69 67.3556 139.642 67.3077C139.594 67.2597 139.529 67.232 139.461 67.2305H135.971C135.317 68.7429 134.357 70.104 133.153 71.2286C131.948 72.3531 130.525 73.217 128.971 73.766C125.865 74.7243 122.099 73.9118 118.705 70.2711C117.831 69.3238 117.036 68.3069 116.327 67.2305C116.327 67.2305 113.506 67.2243 113.069 67.2197L111.982 69.7141C111.946 69.7726 111.89 69.815 111.824 69.8323C111.758 69.8496 111.687 69.8405 111.628 69.8069C111.628 69.8069 111.174 69.6098 110.986 69.5269C111.302 71.4222 111.814 73.2795 112.513 75.0688C109.438 77.7121 105.245 81.7939 103.619 85.5036C101.861 89.9445 100.85 94.6456 100.627 99.4164C100.627 99.4847 100.655 99.55 100.703 99.5984C100.751 99.6467 100.816 99.6742 100.885 99.675H117.27C117.327 99.6746 117.382 99.6559 117.427 99.6215C117.472 99.5872 117.504 99.5392 117.52 99.4847C117.853 96.5787 118.762 93.7682 120.193 91.2172C121.624 88.6663 123.549 86.4261 125.856 84.6274C128.059 82.884 130.38 81.2945 132.801 79.8704C135.563 78.2215 137.911 76.2098 139.016 73.2067C139.356 72.2653 139.582 71.2864 139.688 70.2911C139.749 69.3581 139.76 68.4224 139.72 67.4883ZM110.084 80.9921C109.579 81.5443 109.129 82.1446 108.741 82.7845C108.705 82.841 108.649 82.8814 108.584 82.8973C108.519 82.9131 108.45 82.9032 108.392 82.8695C108.334 82.8358 108.292 82.7811 108.274 82.7167C108.255 82.6523 108.263 82.5834 108.294 82.5244C108.695 81.8396 109.173 81.203 109.719 80.6269C109.945 80.3829 110.31 80.7489 110.084 80.9929V80.9921ZM116.465 72.5415C116.375 72.7417 115.102 73.3855 113.047 75.2775C112.816 75.4908 112.479 75.174 112.654 74.9484C113.735 73.9452 114.891 73.0276 116.114 72.2039C116.345 72.0481 116.558 72.3343 116.465 72.5422V72.5415Z" fill="#FF4848"/>
<path d="M27.2503 110.289C26.6641 110.289 26.078 110.276 25.4925 110.262C25.1327 110.253 24.7636 110.229 24.4007 110.242C24.3792 109.374 24.2334 91.9633 24.2473 91.1269C24.2805 90.2559 24.1466 89.3865 23.8529 88.5658C23.5924 87.9055 23.2033 87.3035 22.7082 86.7948C22.2131 86.2861 21.6219 85.8808 20.9689 85.6024C20.316 85.324 19.6142 85.1781 18.9043 85.1731C18.1945 85.1682 17.4908 85.3043 16.834 85.5735C16.0163 85.9102 15.2923 86.4399 14.7239 87.1173C14.1555 87.7948 13.7596 88.5998 13.57 89.4635C12.136 95.8042 10.6076 104.63 9.6278 110.366C8.43965 110.146 7.21531 110.225 6.06539 110.596C4.07511 111.294 4.17716 113.184 5.3902 113.594C6.01015 113.762 6.05849 113.714 9.03778 113.775C8.49379 116.289 7.85619 116.975 8.35645 117.798C8.52776 118.076 8.79559 118.282 9.10879 118.375C9.42199 118.468 9.75861 118.443 10.0544 118.304C10.4118 118.091 10.7392 117.831 11.0281 117.532C13.1664 115.636 15.2396 113.072 16.1841 114.009C16.7373 114.733 17.0641 116.48 17.7294 117.756C17.8368 118.008 18.0315 118.213 18.2778 118.333C18.5241 118.454 18.8055 118.481 19.0705 118.411C19.3826 118.308 19.6642 118.129 19.8902 117.89C20.1162 117.652 20.2796 117.361 20.3657 117.044C20.6473 116.009 20.724 114.463 21.1421 114.018C21.6818 113.728 22.3016 113.623 22.9069 113.718C23.7332 113.743 26.78 113.853 27.4751 113.854C27.8752 113.858 28.2647 113.726 28.5804 113.48C28.8961 113.234 29.1196 112.889 29.2145 112.501C29.2507 112.223 29.2267 111.94 29.1442 111.672C29.0618 111.404 28.9228 111.157 28.7366 110.947C28.5504 110.737 28.3213 110.57 28.0649 110.456C27.8085 110.343 27.5307 110.286 27.2503 110.289ZM17.8414 111.254C17.5132 111.505 17.2053 111.782 16.9207 112.082C16.6905 112.323 16.3253 111.957 16.5554 111.716C16.8732 111.387 17.2168 111.083 17.5828 110.807C17.8467 110.607 18.103 111.055 17.8414 111.254ZM12.8695 111.087L11.4838 111.854C11.1923 112.014 10.9314 111.568 11.2229 111.407L12.6086 110.64C12.9002 110.48 13.1611 110.926 12.8695 111.087ZM13.6022 98.4842C13.8554 97.7476 14.0411 96.9895 14.157 96.2193C14.2068 95.8916 14.704 96.0313 14.6557 96.3566C14.5392 97.1268 14.3533 97.8849 14.1002 98.6216C13.9928 98.9346 13.4933 98.7996 13.6022 98.4842Z" fill="#FFD2D2"/>
<path d="M118.044 103.47C113.504 101.352 108.377 100.844 103.51 102.031C102.176 102.366 100.882 102.847 99.6535 103.465C99.6034 103.493 99.5639 103.536 99.541 103.589C99.5181 103.641 99.5131 103.699 99.5269 103.755C99.5406 103.81 99.5723 103.86 99.6169 103.895C99.6616 103.931 99.7168 103.951 99.7739 103.952H117.914C118.155 103.952 118.284 103.583 118.044 103.47Z" fill="black"/>
<path d="M146.893 90.925C143.401 94.4238 142.8 95.857 140.602 98.0476C138.79 99.8723 136.602 101.279 134.19 102.168C134.129 102.179 134.073 102.212 134.033 102.259C133.994 102.307 133.971 102.367 133.971 102.429C133.97 102.491 133.991 102.552 134.029 102.6C134.068 102.649 134.123 102.683 134.183 102.696C136.833 103.73 140.657 102.722 143.406 98.666C144.947 96.3256 146.252 93.8373 147.299 91.2381C147.406 90.9849 147.118 90.7002 146.893 90.925Z" fill="black"/>
<path d="M91.0036 34.1238C91.2607 34.3302 91.629 33.9703 91.3696 33.7586L88.2814 31.2796C88.0251 31.0739 87.6568 31.433 87.9162 31.6455L91.0036 34.1238Z" fill="black"/>
<path d="M137.728 58.3893C137.57 57.3335 137.068 56.3593 136.3 55.6178C135.532 54.8762 134.541 54.4087 133.48 54.2878C132.419 54.1668 131.348 54.3991 130.433 54.9486C129.518 55.4982 128.809 56.3343 128.417 57.3274C127.82 59.2717 128.013 59.7335 127.198 61.1699C126.522 62.3622 125.525 62.4243 124.436 61.5957C123.636 60.9754 122.939 60.2322 122.372 59.3936C121.58 58.2717 120.886 57.0828 120.3 55.8404C119.943 54.999 119.819 54.0772 119.939 53.1711C120.006 52.6625 120.02 52.1482 119.98 51.6366C119.955 51.45 119.88 51.2736 119.763 51.1258C119.647 50.978 119.492 50.8643 119.317 50.7964C119.289 50.7857 119.268 50.7688 119.24 50.7604C119.039 50.6827 118.82 50.6598 118.607 50.6942C118.394 50.7286 118.194 50.8189 118.028 50.956C117.734 51.2865 117.537 51.6908 117.456 52.1254C117.214 53.1228 117.14 53.7941 116.943 55.0057C115.865 54.4728 114.684 54.1834 113.482 54.1578C112.932 54.1417 112.181 54.0443 111.748 54.4555C111.583 54.6136 111.471 54.8183 111.426 55.042C111.382 55.2657 111.406 55.4978 111.498 55.7069C111.733 56.2563 112.366 56.3852 112.874 56.5786C113.229 56.7136 113.585 56.8479 113.943 56.9775C114.013 57.0028 114.168 57.0182 114.195 57.098C114.231 57.1954 114.086 57.1747 114.036 57.1747C112.368 57.2231 111.657 56.8548 110.521 57.3136C110.323 57.3732 110.146 57.4841 110.005 57.6352C109.865 57.7862 109.767 57.9718 109.723 58.173C109.678 58.3742 109.687 58.5837 109.75 58.78C109.813 58.9763 109.927 59.1524 110.08 59.2901C110.439 59.5333 110.856 59.6776 111.289 59.7082C111.99 59.8293 112.698 59.9062 113.409 59.9384C113.632 59.9506 113.854 59.9864 114.07 60.0451C111.976 60.4018 111.078 60.4333 110.368 61.087C110.211 61.285 110.127 61.5311 110.13 61.784C110.133 62.0369 110.223 62.2809 110.385 62.475C110.861 63.0512 111.689 62.9775 112.352 62.989C114.753 63.0305 114.936 66.2231 118.704 70.265C122.104 73.9111 125.871 74.7152 128.97 73.7599C130.524 73.2106 131.948 72.3467 133.152 71.2222C134.356 70.0976 135.316 68.7366 135.97 67.2243C136.915 65.0761 137.491 62.7843 137.674 60.4448C137.786 59.7653 137.804 59.0737 137.728 58.3893ZM119.99 62.7819C120.15 62.8709 123.821 64.9747 123.821 64.9747C123.88 65.0092 123.923 65.0658 123.94 65.132C123.958 65.1982 123.948 65.2686 123.913 65.3277C123.879 65.3868 123.822 65.4298 123.756 65.4472C123.69 65.4646 123.62 65.455 123.56 65.4205C123.4 65.3315 119.729 63.2284 119.729 63.2284C119.699 63.2113 119.674 63.1886 119.653 63.1615C119.633 63.1345 119.618 63.1037 119.609 63.0708C119.6 63.038 119.598 63.0037 119.603 62.9701C119.608 62.9365 119.619 62.904 119.636 62.8747C119.653 62.8454 119.676 62.8197 119.703 62.7992C119.73 62.7787 119.761 62.7637 119.794 62.7551C119.826 62.7464 119.861 62.7444 119.894 62.749C119.928 62.7536 119.96 62.7648 119.99 62.7819ZM125.595 71.7504C126.354 71.9586 127.156 71.9467 127.909 71.7159C128.227 71.6146 128.362 72.1141 128.046 72.2139C127.206 72.4851 126.304 72.4974 125.457 72.2492C125.424 72.2401 125.394 72.2248 125.367 72.2039C125.34 72.183 125.318 72.1571 125.301 72.1276C125.267 72.0679 125.258 71.9973 125.276 71.9311C125.295 71.865 125.338 71.8088 125.398 71.7749C125.458 71.741 125.528 71.7322 125.595 71.7504ZM116.771 57.1663C117.099 57.22 116.959 57.7179 116.634 57.665L115.341 57.4555C115.013 57.4026 115.153 56.9046 115.478 56.9568L116.771 57.1663ZM115.484 60.0965C115.95 60.2346 116.431 60.315 116.916 60.3358C117.248 60.3497 117.249 60.8668 116.916 60.8522C116.384 60.8325 115.857 60.7462 115.347 60.5952C115.314 60.5862 115.284 60.5708 115.257 60.5499C115.23 60.5291 115.207 60.5031 115.191 60.4736C115.174 60.4441 115.163 60.4115 115.159 60.3778C115.155 60.3441 115.157 60.3099 115.166 60.2771C115.175 60.2444 115.191 60.2138 115.211 60.187C115.232 60.1602 115.258 60.1377 115.288 60.1209C115.317 60.1042 115.35 60.0934 115.384 60.0892C115.417 60.085 115.452 60.0874 115.484 60.0965Z" fill="#FC9070"/>
<path d="M103.968 28.8191L103.33 24.7035C103.278 24.3759 102.78 24.5155 102.831 24.8408L103.469 28.9564C103.52 29.284 104.019 29.1444 103.968 28.8191Z" fill="black"/>
<path d="M115.875 30.5689L118.01 26.2193C118.156 25.9224 117.71 25.66 117.563 25.9592L115.429 30.3081C115.282 30.605 115.728 30.8674 115.875 30.5689Z" fill="black"/>
<path d="M125.961 47.996C127.296 47.5249 128.646 47.0875 130.006 46.6855C130.039 46.6764 130.07 46.6611 130.097 46.6402C130.123 46.6193 130.146 46.5934 130.163 46.5639C130.179 46.5343 130.19 46.5018 130.194 46.4681C130.199 46.4344 130.196 46.4002 130.187 46.3674C130.178 46.3347 130.163 46.304 130.142 46.2772C130.121 46.2504 130.095 46.228 130.065 46.2112C130.036 46.1944 130.003 46.1836 129.97 46.1794C129.936 46.1752 129.902 46.1777 129.869 46.1867C128.497 46.542 127.158 47.0269 125.823 47.498C125.514 47.6077 125.646 48.1072 125.961 47.996Z" fill="black"/>
<path d="M79.9833 43.0524C79.9173 43.0342 79.8468 43.043 79.7872 43.0768C79.7277 43.1106 79.684 43.1667 79.6657 43.2327C79.6488 43.2986 79.6581 43.3686 79.6918 43.4279C79.7254 43.4871 79.7807 43.531 79.846 43.5503L83.8358 45.2245C83.9018 45.2426 83.9723 45.2338 84.0319 45.2C84.0914 45.1662 84.1351 45.1102 84.1534 45.0442C84.1703 44.9782 84.161 44.9082 84.1274 44.849C84.0937 44.7897 84.0384 44.7458 83.9731 44.7265L79.9833 43.0524Z" fill="black"/>
<path d="M149.65 62.9231H145.294C145.225 62.9231 145.16 62.9503 145.111 62.9988C145.063 63.0473 145.035 63.1131 145.035 63.1817C145.035 63.2502 145.063 63.316 145.111 63.3645C145.16 63.413 145.225 63.4402 145.294 63.4402H149.65C149.718 63.4402 149.784 63.413 149.832 63.3645C149.881 63.316 149.908 63.2502 149.908 63.1817C149.908 63.1131 149.881 63.0473 149.832 62.9988C149.784 62.9503 149.718 62.9231 149.65 62.9231Z" fill="black"/>
<path d="M140.936 52.7476H144.104C144.172 52.7476 144.238 52.7204 144.287 52.6719C144.335 52.6234 144.362 52.5576 144.362 52.4891C144.362 52.4205 144.335 52.3547 144.287 52.3062C144.238 52.2577 144.172 52.2305 144.104 52.2305H140.936C140.867 52.2305 140.801 52.2577 140.753 52.3062C140.704 52.3547 140.677 52.4205 140.677 52.4891C140.677 52.5576 140.704 52.6234 140.753 52.6719C140.801 52.7204 140.867 52.7476 140.936 52.7476Z" fill="black"/>
<path d="M150.045 47.6145H143.753C143.687 47.6181 143.625 47.6469 143.58 47.6949C143.534 47.7429 143.509 47.8065 143.509 47.8727C143.509 47.9388 143.534 48.0025 143.58 48.0505C143.625 48.0985 143.687 48.1273 143.753 48.1309H150.045C150.111 48.1273 150.173 48.0985 150.219 48.0505C150.264 48.0025 150.29 47.9388 150.29 47.8727C150.29 47.8065 150.264 47.7429 150.219 47.6949C150.173 47.6469 150.111 47.6181 150.045 47.6145Z" fill="black"/>
<path d="M52.8159 59.722C52.8021 59.3913 52.285 59.389 52.2988 59.722C52.3456 60.158 52.2721 60.5985 52.0862 60.9957C52.004 61.1693 51.8749 61.3164 51.7134 61.4204C51.5519 61.5244 51.3645 61.5812 51.1724 61.5842C50.7835 61.511 50.4278 61.3164 50.1564 61.0284C49.885 60.7405 49.7118 60.3739 49.6617 59.9813C49.6555 59.9434 49.6406 59.9074 49.6179 59.8762C49.6572 58.9302 49.5209 57.9851 49.2159 57.0888C49.205 57.0555 49.1875 57.0247 49.1644 56.9984C49.1414 56.972 49.1132 56.9506 49.0816 56.9355C49.05 56.9203 49.0157 56.9117 48.9807 56.9102C48.9457 56.9086 48.9108 56.9142 48.878 56.9266C48.8452 56.9389 48.8153 56.9578 48.79 56.982C48.7647 57.0062 48.7445 57.0353 48.7308 57.0676C48.7171 57.0998 48.71 57.1345 48.71 57.1695C48.7101 57.2045 48.7172 57.2392 48.731 57.2714C48.8964 57.7455 49.0076 58.2369 49.0624 58.7361C49.1758 59.3926 49.134 60.0666 48.9405 60.7041C48.8624 60.9625 48.6877 61.1808 48.4528 61.3136C48.2178 61.4463 47.9407 61.4834 47.6791 61.4169C46.1553 60.9243 46.809 59.1719 46.2036 57.8921C46.0617 57.5913 45.6182 57.853 45.7578 58.153C45.829 58.3081 45.8833 58.4704 45.9197 58.6371C45.7531 58.488 45.5577 58.3746 45.3456 58.3038C45.1335 58.2331 44.9092 58.2064 44.6864 58.2255C44.4636 58.2446 44.2471 58.3091 44.0502 58.415C43.8532 58.5209 43.68 58.6659 43.5412 58.8412C42.8261 59.8563 42.7878 61.0264 42.6527 62.4212C42.6205 62.7519 43.1376 62.7496 43.1699 62.4212C43.1692 61.386 43.3779 60.3614 43.7837 59.409C43.87 59.2195 44.0061 59.0569 44.1775 58.9387C44.3489 58.8205 44.5492 58.751 44.757 58.7376C44.9648 58.7242 45.1724 58.7674 45.3575 58.8627C45.5427 58.958 45.6986 59.1017 45.8085 59.2785C46.4223 60.4294 45.6612 61.9371 46.3571 63.3512C46.5036 63.6496 46.9494 63.388 46.8036 63.0903C46.5685 62.5111 46.4863 61.8812 46.565 61.2611C46.7334 61.5101 46.968 61.707 47.2425 61.8296C47.5169 61.9522 47.8201 61.9956 48.1179 61.9549C48.4157 61.9142 48.6962 61.791 48.9276 61.5993C49.1591 61.4075 49.3323 61.1549 49.4277 60.8698C49.5909 61.2198 49.8458 61.519 50.1652 61.7359C50.4846 61.9528 50.8568 62.0793 51.2422 62.1021C52.3809 62.0315 52.9302 60.8253 52.8159 59.722Z" fill="#FF4848"/>
<path d="M96.6795 109.454C96.6795 89.122 96.7232 84.7992 96.6626 83.8279C96.6434 83.5209 96.6135 83.5516 96.569 83.5209C96.4884 83.4603 75.9027 70.7406 75.826 70.6938C75.7865 70.6705 75.7414 70.6581 75.6956 70.6581C75.6497 70.6581 75.6046 70.6705 75.5651 70.6938C75.114 70.9639 54.6679 83.3767 54.5873 83.4373C54.2804 83.6675 54.3886 83.6606 54.3817 83.725C54.3817 111.207 54.3564 109.714 54.417 109.928C54.4792 110.018 53.0022 108.973 75.2559 124.497C75.2952 124.522 75.3403 124.534 75.3863 124.534C75.4324 124.534 75.4775 124.522 75.5168 124.497C80.0605 121.371 96.5214 110.053 96.6035 109.98C96.7255 109.853 96.6795 109.615 96.6795 109.454ZM75.6971 71.2217C75.6971 71.2217 95.7557 83.6299 95.9114 83.7281C95.9114 83.7281 75.7539 95.8309 75.5275 95.9882C74.8792 95.5985 55.8855 84.1409 55.1474 83.7166C58.2771 81.8169 75.6219 71.2754 75.6971 71.2217ZM75.8221 115.892C75.8221 115.96 75.7949 116.026 75.7464 116.075C75.6979 116.123 75.6322 116.15 75.5636 116.15C75.495 116.15 75.4292 116.123 75.3807 116.075C75.3323 116.026 75.305 115.96 75.305 115.892V102.825C75.3076 102.756 75.3372 102.691 75.3874 102.645C75.4376 102.598 75.5043 102.573 75.5728 102.575C75.6384 102.577 75.7008 102.604 75.7472 102.65C75.7936 102.697 75.8204 102.759 75.8221 102.825C75.8666 105.396 75.8805 112.524 75.8221 115.893V115.892Z" fill="#FFC431"/>
<path d="M90.9443 82.8606C90.6774 82.4636 90.3119 82.1427 89.8837 81.9294C89.4554 81.7161 88.9791 81.6176 88.5014 81.6438C88.5014 81.6438 62.9798 81.6253 62.6177 81.6553C62.141 81.6587 61.6749 81.796 61.2724 82.0514C60.8699 82.3068 60.5473 82.6702 60.3412 83.1C59.9116 84.2908 61.1269 85.7087 63.4149 85.5491C63.4149 85.5491 88.0525 85.5445 88.4592 85.5491C90.4349 85.5698 91.608 84.0982 90.9443 82.8606ZM82.8965 82.8898C82.8965 82.8212 82.9237 82.7555 82.9722 82.707C83.0207 82.6585 83.0865 82.6312 83.1551 82.6312C83.2236 82.6312 83.2894 82.6585 83.3379 82.707C83.3864 82.7555 83.4136 82.8212 83.4136 82.8898V84.2072C83.4136 84.2758 83.3864 84.3415 83.3379 84.39C83.2894 84.4385 83.2236 84.4658 83.1551 84.4658C83.0865 84.4658 83.0207 84.4385 82.9722 84.39C82.9237 84.3415 82.8965 84.2758 82.8965 84.2072V82.8898ZM67.1875 82.8898C67.1911 82.8238 67.2199 82.7616 67.2679 82.7161C67.3159 82.6707 67.3796 82.6453 67.4457 82.6453C67.5119 82.6453 67.5755 82.6707 67.6235 82.7161C67.6715 82.7616 67.7003 82.8238 67.7039 82.8898V84.1121C67.7003 84.1781 67.6715 84.2402 67.6235 84.2857C67.5755 84.3312 67.5119 84.3565 67.4457 84.3565C67.3796 84.3565 67.3159 84.3312 67.2679 84.2857C67.2199 84.2402 67.1911 84.1781 67.1875 84.1121V82.8898Z" fill="#2755A0"/>
<path d="M38.9992 90.26L40.5153 90.7933C40.8299 90.9038 40.9657 90.4043 40.6534 90.2945L39.1365 89.7621C38.822 89.6516 38.6869 90.1511 38.9992 90.26Z" fill="#2755A0"/>
<path d="M123.826 64.9711C123.826 64.9711 120.156 62.8672 119.995 62.7782C119.936 62.7436 119.866 62.734 119.799 62.7514C119.733 62.7688 119.676 62.8118 119.642 62.8711C119.607 62.9303 119.597 63.0008 119.615 63.0671C119.632 63.1335 119.675 63.1902 119.735 63.2248C119.735 63.2248 123.406 65.3278 123.566 65.4169C123.625 65.4464 123.693 65.4524 123.756 65.4336C123.819 65.4149 123.872 65.3729 123.906 65.3161C123.939 65.2593 123.949 65.192 123.934 65.1279C123.92 65.0638 123.881 65.0077 123.826 64.9711Z" fill="black"/>
<path d="M96.1638 112.528V118.666C96.1674 118.732 96.1962 118.794 96.2442 118.839C96.2922 118.885 96.3559 118.91 96.422 118.91C96.4881 118.91 96.5518 118.885 96.5998 118.839C96.6478 118.794 96.6766 118.732 96.6802 118.666V112.528C96.6766 112.462 96.6478 112.399 96.5998 112.354C96.5518 112.308 96.4881 112.283 96.422 112.283C96.3559 112.283 96.2922 112.308 96.2442 112.354C96.1962 112.399 96.1674 112.462 96.1638 112.528Z" fill="black"/>
<path d="M12.6084 110.641L11.2227 111.408C10.9312 111.569 11.192 112.015 11.4836 111.855L12.8693 111.088C13.1608 110.926 12.9 110.48 12.6084 110.641Z" fill="#FF4848"/>
<path d="M55.5591 118.666V112.528C55.5591 112.459 55.5319 112.393 55.4834 112.345C55.4349 112.296 55.3691 112.269 55.3006 112.269C55.232 112.269 55.1662 112.296 55.1177 112.345C55.0692 112.393 55.042 112.459 55.042 112.528V118.666C55.042 118.734 55.0692 118.8 55.1177 118.848C55.1662 118.897 55.232 118.924 55.3006 118.924C55.3691 118.924 55.4349 118.897 55.4834 118.848C55.5319 118.8 55.5591 118.734 55.5591 118.666Z" fill="black"/>
<path d="M75.1282 125.992V129.186C75.1282 129.254 75.1555 129.32 75.204 129.368C75.2525 129.417 75.3182 129.444 75.3868 129.444C75.4554 129.444 75.5211 129.417 75.5696 129.368C75.6181 129.32 75.6454 129.254 75.6454 129.186V125.992C75.6454 125.924 75.6181 125.858 75.5696 125.809C75.5211 125.761 75.4554 125.734 75.3868 125.734C75.3182 125.734 75.2525 125.761 75.204 125.809C75.1555 125.858 75.1282 125.924 75.1282 125.992Z" fill="black"/>
<path d="M17.5808 110.807C17.2148 111.083 16.8713 111.387 16.5535 111.716C16.3233 111.957 16.6885 112.323 16.9187 112.082C17.2033 111.782 17.5112 111.505 17.8394 111.254C18.1026 111.055 17.8463 110.607 17.5808 110.807Z" fill="#FF4848"/>
<path d="M14.1574 96.2194C14.0415 96.9896 13.8558 97.7477 13.6026 98.4843C13.4944 98.7997 13.9932 98.9347 14.1006 98.6217C14.3537 97.885 14.5396 97.1269 14.6561 96.3567C14.7044 96.0314 14.2072 95.8918 14.1574 96.2194Z" fill="#FF4848"/>
<path d="M75.8225 115.893V102.825C75.8225 102.756 75.7953 102.69 75.7468 102.642C75.6983 102.593 75.6325 102.566 75.5639 102.566C75.4953 102.566 75.4296 102.593 75.3811 102.642C75.3326 102.69 75.3054 102.756 75.3054 102.825V115.893C75.3054 115.962 75.3326 116.028 75.3811 116.076C75.4296 116.125 75.4953 116.152 75.5639 116.152C75.6325 116.152 75.6983 116.125 75.7468 116.076C75.7953 116.028 75.8225 115.962 75.8225 115.893Z" fill="black"/>
<path d="M45.3399 94.77C45.3279 94.7357 45.3089 94.7044 45.284 94.678C45.2592 94.6516 45.2291 94.6306 45.1957 94.6165C45.0138 94.5398 44.7553 94.6748 44.842 94.9081C46.5576 99.5462 46.2775 102.855 44.7652 107.006C44.7474 107.072 44.7567 107.142 44.7909 107.202C44.8252 107.261 44.8816 107.305 44.9479 107.322C45.0141 107.34 45.0847 107.331 45.1441 107.297C45.2035 107.262 45.2469 107.206 45.2647 107.14C45.8449 105.662 46.2367 104.117 46.431 102.542C46.6944 99.9011 46.3203 97.2359 45.3399 94.77Z" fill="#2755A0"/>
<path d="M36.5942 34.7882C36.8681 34.9785 37.1251 34.5342 36.855 34.3424C36.6533 34.1958 36.4827 34.0106 36.353 33.7976C36.2234 33.5846 36.1372 33.348 36.0995 33.1015C36.0619 32.855 36.0734 32.6034 36.1336 32.3614C36.1937 32.1194 36.3012 31.8917 36.4499 31.6915C36.6479 31.4237 36.1967 31.1644 36.0041 31.4306C35.8207 31.6892 35.6903 31.9816 35.6206 32.2909C35.5509 32.6003 35.5433 32.9203 35.5982 33.2326C35.6531 33.5449 35.7694 33.8432 35.9403 34.1102C36.1113 34.3772 36.3335 34.6077 36.5942 34.7882Z" fill="black"/>
<path d="M23.4935 41.7772L23.8242 39.7747C23.8779 39.4494 23.3799 39.3097 23.3255 39.6373L22.9948 41.6399C22.9411 41.9652 23.439 42.1049 23.4935 41.7772Z" fill="black"/>
<path d="M127.911 71.712C127.159 71.9428 126.356 71.9547 125.597 71.7466C125.564 71.7375 125.53 71.7351 125.496 71.7393C125.463 71.7435 125.43 71.7543 125.401 71.771C125.341 71.8049 125.297 71.8611 125.279 71.9272C125.261 71.9934 125.27 72.064 125.304 72.1237C125.337 72.1833 125.394 72.2271 125.46 72.2453C126.306 72.4928 127.207 72.4805 128.045 72.21C128.365 72.1102 128.23 71.6107 127.911 71.712Z" fill="#FF4848"/>
<path d="M115.342 57.4517L116.634 57.6612C116.96 57.7141 117.099 57.2162 116.772 57.1624L115.479 56.953C115.156 56.9008 115.014 57.3988 115.342 57.4517Z" fill="#FF4848"/>
<path d="M116.916 60.3389C116.431 60.3171 115.95 60.2356 115.484 60.0964C115.452 60.0874 115.417 60.0849 115.384 60.0891C115.35 60.0933 115.317 60.1041 115.288 60.1209C115.258 60.1377 115.232 60.1601 115.212 60.1869C115.191 60.2137 115.175 60.2444 115.166 60.2771C115.157 60.3099 115.155 60.3441 115.159 60.3778C115.163 60.4115 115.174 60.444 115.191 60.4736C115.208 60.5031 115.23 60.529 115.257 60.5499C115.284 60.5708 115.314 60.5861 115.347 60.5952C115.857 60.7465 116.384 60.8329 116.916 60.8522C117.249 60.8698 117.248 60.3527 116.916 60.3389Z" fill="#FF4848"/>
<path d="M116.114 72.2046C114.907 73.0244 113.759 73.9292 112.68 74.9122C112.637 74.9617 112.614 75.0259 112.616 75.0918C112.618 75.1576 112.645 75.2202 112.692 75.2667C112.739 75.3133 112.801 75.3404 112.867 75.3426C112.933 75.3447 112.997 75.3217 113.046 75.2782C114.09 74.3223 115.203 73.444 116.375 72.6503C116.636 72.4731 116.396 72.015 116.114 72.2046Z" fill="#FC9070"/>
<path d="M109.719 80.6278C109.173 81.2038 108.695 81.8405 108.294 82.5252C108.263 82.5843 108.255 82.6532 108.274 82.7176C108.292 82.7819 108.334 82.8367 108.392 82.8704C108.45 82.9041 108.519 82.914 108.584 82.8982C108.649 82.8823 108.705 82.8419 108.741 82.7853C109.129 82.1455 109.579 81.5452 110.084 80.993C110.31 80.749 109.945 80.383 109.719 80.6278Z" fill="#FC9070"/>
<path d="M85.4935 50.6904C85.3002 50.4234 84.8521 50.6812 85.0478 50.9505L85.6201 51.7416C85.8135 52.0086 86.2616 51.7508 86.0659 51.4807L85.4935 50.6904Z" fill="#FF4848"/>
<path d="M87.75 48.4548C87.7864 48.5103 87.8426 48.5498 87.9072 48.565C87.9718 48.5802 88.0398 48.57 88.0971 48.5364C88.1543 48.5029 88.1965 48.4487 88.2149 48.3849C88.2333 48.3211 88.2265 48.2528 88.1958 48.1939C87.9986 47.8486 87.78 47.5156 87.582 47.1711C87.5474 47.1119 87.4907 47.0689 87.4244 47.0515C87.3581 47.034 87.2875 47.0437 87.2283 47.0783C87.1691 47.1129 87.126 47.1696 87.1086 47.2359C87.0912 47.3023 87.1009 47.3728 87.1355 47.432C87.3388 47.7727 87.5406 48.1164 87.75 48.4548Z" fill="#FF4848"/>
<path d="M120.324 38.7914C121.754 40.1586 124.035 40.2737 125.004 38.5612C126.25 37.9295 127.588 37.4996 128.969 37.2875C131.034 36.8502 130.381 34.8729 129.02 34.6197C131.294 32.9072 129.293 31.4294 127.21 32.4668C127.236 32.2701 127.205 32.0703 127.121 31.8905C127.037 31.7108 126.904 31.5586 126.737 31.4517C126.436 31.2996 126.103 31.2229 125.767 31.2279C125.43 31.233 125.099 31.3198 124.803 31.4809C123.197 32.092 121.857 33.2509 121.022 34.7532C120.643 34.9096 120.311 35.1591 120.056 35.4785C119.8 35.7979 119.629 36.1769 119.56 36.58C119.49 36.9832 119.524 37.3974 119.657 37.7841C119.791 38.1707 120.02 38.5173 120.324 38.7914ZM126.372 33.208C126.374 33.2769 126.395 33.3438 126.434 33.4007C126.473 33.4575 126.528 33.5019 126.592 33.5284C126.655 33.5549 126.725 33.5625 126.793 33.5501C126.861 33.5378 126.924 33.5061 126.974 33.4589C127.985 32.5282 130.068 32.6387 129.054 33.6522C128.501 34.1831 127.855 34.6074 127.147 34.9036C126.764 35.0678 127.025 35.6847 127.414 35.555L127.457 35.5412C128.056 35.3433 128.876 35.0724 129.369 35.5757C129.452 35.6472 129.513 35.7399 129.547 35.8439C129.58 35.9478 129.584 36.0588 129.559 36.165C129.165 36.8555 128.05 36.386 125.313 37.6228C125.498 35.9502 123.758 34.408 122.014 34.5085C122.906 33.2336 124.226 32.3211 125.733 31.9366C125.868 31.8972 126.012 31.8995 126.145 31.9433C126.279 31.9872 126.396 32.0704 126.481 32.1821C126.573 32.4622 126.418 32.6187 126.372 33.208ZM123.902 38.7668C122.426 39.8755 119.489 38.1469 120.388 36.297C121.28 34.4594 124.013 35.077 124.58 37.0481C124.641 37.3694 124.609 37.7012 124.489 38.0053C124.369 38.3094 124.165 38.5734 123.902 38.7668Z" fill="black"/>
<path d="M46.8851 33.0941C46.9643 33.634 47.2388 34.1261 47.6565 34.4772C48.0742 34.8283 48.6061 35.014 49.1516 34.9992C49.6445 34.9946 50.1259 34.8493 50.5391 34.5805C50.9523 34.3116 51.2801 33.9304 51.4841 33.4816C51.5929 33.1874 51.6194 32.869 51.5608 32.5609C51.6877 31.193 51.7149 29.8178 51.6421 28.446C51.7188 27.0251 50.9861 26.6522 49.6181 26.4627C49.0062 26.3401 48.3735 26.3712 47.7766 26.5532C47.5122 26.6815 47.2912 26.8846 47.1412 27.1374C46.9912 27.3901 46.9187 27.6813 46.9327 27.9749C46.7994 29.5043 46.795 31.0422 46.9196 32.5724C46.8892 32.7445 46.8776 32.9195 46.8851 33.0941ZM50.9355 31.2926C50.7184 31.0612 50.4562 30.8768 50.1651 30.7508C49.874 30.6247 49.5601 30.5597 49.2429 30.5597C48.9256 30.5597 48.6118 30.6247 48.3207 30.7508C48.0296 30.8768 47.7674 31.0612 47.5503 31.2926C47.4979 30.1448 47.5333 28.9946 47.6562 27.8522C47.6533 27.7292 47.6823 27.6076 47.7403 27.4992C47.7984 27.3909 47.8836 27.2994 47.9876 27.2338C48.2806 27.1285 48.593 27.0887 48.903 27.1171C49.2692 27.1219 49.6336 27.168 49.9894 27.2545C50.7452 27.355 51.0222 27.7724 50.9454 28.7069C50.9866 29.5684 50.9832 30.4314 50.9355 31.2926ZM50.4989 31.8934C50.7324 32.1712 50.8693 32.5176 50.8887 32.8801C50.8818 33.7056 49.8268 34.3463 49.0211 34.2918C48.6859 34.2667 48.3673 34.1363 48.1106 33.9193C47.8539 33.7023 47.6723 33.4097 47.5917 33.0834C47.4697 31.3777 49.6526 30.6335 50.5004 31.8934H50.4989Z" fill="black"/>
<path d="M28.128 70.2513C28.794 70.3137 29.4602 70.1345 30.005 69.7464C30.5499 69.3584 30.937 68.7873 31.0957 68.1375C31.2346 67.5631 31.1792 66.9588 30.9382 66.4192C30.6972 65.8796 30.2842 65.4351 29.7638 65.1551C29.1613 64.8554 28.4801 64.7518 27.8157 64.8589C27.1514 64.9659 26.5372 65.2783 26.0594 65.7521C25.7676 66.1612 25.5889 66.6401 25.5416 67.1404C25.4942 67.6407 25.5799 68.1446 25.7898 68.6012C25.9997 69.0577 26.3265 69.4508 26.737 69.7406C27.1476 70.0303 27.6274 70.2065 28.128 70.2513ZM27.2356 65.7298C28.675 65.1782 30.373 65.8173 30.4443 67.3979C30.4697 67.9067 30.3039 68.4067 29.9795 68.7997C29.6551 69.1926 29.1956 69.4501 28.6911 69.5216C28.132 69.6034 27.5631 69.4621 27.1073 69.128C26.6515 68.794 26.3454 68.294 26.2551 67.7362C26.1752 67.3405 26.228 66.9295 26.4052 66.5668C26.5825 66.2041 26.8743 65.9099 27.2356 65.7298Z" fill="black"/>
<path d="M53.143 29.8839C53.2225 29.9263 53.3151 29.9371 53.4022 29.914C53.4893 29.891 53.5645 29.8358 53.6126 29.7596L56.4883 24.9451C56.5356 24.8637 56.5486 24.7668 56.5245 24.6758C56.5004 24.5848 56.4412 24.5071 56.3598 24.4598C56.2784 24.4124 56.1815 24.3994 56.0905 24.4235C55.9995 24.4476 55.9218 24.5069 55.8745 24.5883C54.9044 26.186 53.9458 27.7906 52.9988 29.4021C52.976 29.4431 52.9617 29.4882 52.9567 29.5348C52.9516 29.5814 52.9559 29.6285 52.9694 29.6734C52.9828 29.7183 53.0051 29.7601 53.0349 29.7962C53.0647 29.8324 53.1015 29.8622 53.143 29.8839Z" fill="black"/>
<path d="M55.0547 30.2975L57.9987 28.077C58.3601 27.8039 57.9911 27.1985 57.622 27.477L54.678 29.7021C54.3151 29.9721 54.6842 30.576 55.0547 30.2975Z" fill="black"/>
<path d="M143.447 90.1142C143.48 90.0806 143.506 90.0407 143.524 89.9971C143.541 89.9534 143.55 89.9067 143.549 89.8596C143.548 89.8126 143.539 89.7661 143.52 89.7229C143.501 89.6797 143.474 89.6406 143.441 89.6078C141.093 87.6736 135.41 82.8835 132.95 79.8958C134.572 78.9749 136.03 77.7913 137.264 76.3932C139.191 74.1758 140.049 71.1758 139.814 67.483C139.376 60.5224 139.809 52.8919 135.969 48.4073C133.815 45.9097 130.871 44.2243 127.627 43.6311C125.006 43.3829 122.361 43.6637 119.849 44.4566C119.151 41.4115 117.531 38.6555 115.211 36.5635C112.89 34.4716 109.982 33.1453 106.881 32.7652C103.78 32.385 100.637 32.9694 97.88 34.4389C95.1229 35.9084 92.8855 38.1916 91.4722 40.9779C91.2075 41.4996 91.0824 41.8065 90.1249 44.007C89.7888 44.2372 89.4734 44.5334 89.2041 44.7551C87.7294 45.817 86.3969 47.0635 85.2389 48.4641C84.8117 49.0466 84.5216 49.7182 84.3902 50.4285C84.2588 51.1389 84.2895 51.8698 84.4801 52.5666C84.6756 53.2561 85.0772 53.8695 85.631 54.3244L84.2315 57.5362C84.2084 57.5773 84.1936 57.6225 84.188 57.6693C84.1825 57.7161 84.1862 57.7635 84.1991 57.8089C84.2119 57.8542 84.2336 57.8966 84.2628 57.9336C84.2921 57.9705 84.3284 58.0013 84.3696 58.0242L90.1041 60.5247L88.743 63.7748C88.7167 63.8649 88.7272 63.9617 88.7722 64.044C88.8172 64.1263 88.8931 64.1873 88.9832 64.2137C89.0732 64.24 89.17 64.2295 89.2523 64.1845C89.3346 64.1395 89.3957 64.0636 89.422 63.9735L90.7502 60.8063L104.145 66.6459L102.748 69.4963C102.546 69.906 103.161 70.2574 103.366 69.8416L104.794 66.926L110.908 69.5914C111.222 71.4533 111.724 73.2785 112.406 75.039C109.243 77.7628 105.158 81.7687 103.539 85.4662C101.645 89.7912 100.748 95.5058 100.538 99.4181C100.539 99.5118 100.577 99.6014 100.643 99.6676C100.709 99.7338 100.799 99.7712 100.893 99.7718H117.279C117.358 99.7703 117.435 99.7428 117.497 99.6934C117.559 99.644 117.603 99.5756 117.623 99.4986C117.999 96.5734 118.922 93.7451 120.345 91.1616C123.736 95.1915 128.047 98.3458 132.914 100.358C132.975 100.375 133.038 100.375 133.099 100.359C133.16 100.343 133.215 100.312 133.26 100.268C135.801 97.7738 142.661 90.9045 143.447 90.1142ZM132.335 80.2756C134.929 83.3807 140.358 87.9782 142.674 89.8917C139.221 93.3444 137.015 95.7621 132.93 99.6053C128.185 97.6092 123.994 94.4935 120.716 90.5247C123.694 85.826 127.909 82.9887 132.335 80.2756ZM101.268 99.0644C101.502 95.0935 102.264 91.1715 103.534 87.402C104.256 85.3035 105.397 82.8797 108.832 79.381C111.155 76.9972 113.659 74.7982 116.324 72.804C116.451 72.7188 116.501 72.6851 116.54 72.606C117.367 71.9784 118.206 71.3673 119.057 70.773C122.035 73.7654 125.655 74.8909 128.999 73.8605C131.927 72.8415 134.34 70.7182 135.724 67.9441H139.13C139.354 70.6102 138.638 73.2707 137.104 75.4633C134.77 78.6145 131.728 79.3403 125.988 83.7498C123.523 85.5571 121.452 87.8479 119.902 90.4823C118.352 93.1168 117.355 96.0395 116.973 99.0721L101.268 99.0644ZM112.334 46.1607C112.162 46.5119 111.884 46.8 111.539 46.984C111.272 47.1567 110.983 47.2922 110.679 47.3868C111.102 46.902 111.552 46.4409 112.026 46.0057C112.374 45.7272 112.41 46.005 112.334 46.1607ZM108.6 45.7188C108.645 44.0615 109.751 43.753 109.738 43.9809C109.738 44.5364 109.017 45.3436 108.6 45.7188ZM106.03 43.3096C106.032 42.9484 106.112 42.5918 106.265 42.2646C106.455 41.9477 106.83 42.0827 106.77 42.2899C106.611 42.6854 106.357 43.0357 106.03 43.3096ZM102.31 41.0906C102.332 41.0428 102.366 41.0013 102.408 40.9701C102.451 40.9389 102.5 40.919 102.553 40.9122C102.605 40.9055 102.658 40.9121 102.707 40.9315C102.756 40.9509 102.8 40.9824 102.833 41.0231C103.115 41.4735 103.034 41.8909 102.743 43.4983C102.451 43.1786 102.255 42.7829 102.179 42.3569C102.102 41.9309 102.148 41.4919 102.31 41.0906ZM103.24 44.6906C103.598 44.8314 103.982 44.8933 104.367 44.872C104.751 44.8506 105.125 44.7467 105.466 44.5671C105.599 45.5177 106.094 46.3803 106.847 46.9756C107.043 47.0738 107.26 47.122 107.48 47.1158C107.699 47.1097 107.914 47.0494 108.104 46.9403C108.292 47.4264 108.652 47.826 109.117 48.062C104.946 52.6984 101.458 57.9067 98.7589 63.5293L96.0735 62.3607C99.6078 57.0028 102.044 50.9968 103.24 44.6906ZM109.92 48.2239C110.955 48.1798 111.932 47.7322 112.642 46.9771C113.341 46.3288 113.118 45.0981 112.237 45.1502C111.65 45.2738 111.386 45.5339 109.62 47.4858C109.4 47.422 109.2 47.3023 109.04 47.1382C108.879 46.9742 108.764 46.7714 108.706 46.5497C109.448 46.0063 110.028 45.2696 110.381 44.4198C110.443 44.2916 110.471 44.1501 110.463 44.0082C110.456 43.8663 110.412 43.7286 110.338 43.6077C110.263 43.4868 110.159 43.3866 110.036 43.3163C109.912 43.2459 109.773 43.2078 109.631 43.2052C109.422 43.2197 109.218 43.2782 109.033 43.377C108.848 43.4758 108.685 43.6126 108.557 43.7784C108.29 44.1225 108.096 44.5171 107.986 44.9383C107.877 45.3595 107.853 45.7985 107.918 46.229C107.742 46.353 107.532 46.4192 107.317 46.4185C107.206 46.3755 107.107 46.3072 107.028 46.219C106.52 45.6465 106.197 44.9342 106.1 44.175C106.75 43.7283 107.236 43.0818 107.485 42.3336C107.597 41.538 106.695 41.1935 106.081 41.4896C105.907 41.6033 105.76 41.7522 105.647 41.9265C105.535 42.1008 105.461 42.2967 105.429 42.5016C105.336 42.9367 105.312 43.3834 105.357 43.8259C105.071 44.0228 104.738 44.1406 104.392 44.1676C104.046 44.1945 103.699 44.1296 103.386 43.9794C103.529 43.3208 103.635 42.6548 103.705 41.9845C103.761 41.4367 103.654 40.45 102.903 40.242C102.691 40.1865 102.467 40.1971 102.261 40.2724C102.056 40.3477 101.878 40.4841 101.752 40.6633C101.13 41.5364 101.368 43.3487 102.596 44.3193C101.434 50.6639 98.9927 56.7055 95.4205 62.0761C94.466 61.6572 86.0231 57.9536 85.0064 57.5224L86.1796 54.83C86.3604 55.0661 86.6014 55.2492 86.8773 55.3601C87.1533 55.4709 87.454 55.5054 87.7479 55.46C87.9157 55.42 88.0738 55.3469 88.2131 55.2451C88.3523 55.1432 88.4699 55.0147 88.5589 54.8669C88.9747 54.1763 88.5266 53.4559 88.1315 52.8183C88.0028 52.609 87.8693 52.4028 87.731 52.1999C88.6233 52.8137 89.1596 53.3899 89.8793 53.4589C90.5752 53.5257 90.9474 52.8091 90.82 52.1477C90.6781 51.4126 90.0527 50.9753 89.1619 49.5681C89.7848 50.1856 90.5561 50.6324 91.4016 50.8656C92.6192 51.0474 93.9236 49.3756 91.5619 48.3083C90.9243 48.0198 90.154 47.6316 90.6021 47.0999C90.8721 46.838 91.1683 46.6046 91.486 46.4032C93.0972 45.2523 92.3814 43.4577 91.0686 43.6172C91.0686 43.6172 91.5512 42.5116 91.7185 42.1257C93.1332 38.8372 95.715 36.1886 98.9662 34.6902C102.217 33.1918 105.908 32.9496 109.327 34.0103C112.747 35.0709 115.652 37.3594 117.485 40.4349C119.317 43.5103 119.947 47.155 119.252 50.6669C119.035 50.5893 118.802 50.5697 118.575 50.6101C118.349 50.6504 118.137 50.7494 117.96 50.897C117.353 51.5807 117.291 52.2536 116.872 54.8669C115.814 54.3635 114.661 54.0907 113.489 54.0666C112.898 54.0505 112.148 53.9523 111.686 54.3904C111.507 54.5623 111.386 54.7845 111.337 55.0273C111.289 55.2701 111.315 55.5219 111.413 55.7492C111.692 56.3983 112.334 56.4582 113.958 57.0889C112.424 57.1226 111.627 56.7751 110.49 57.2323C110.275 57.2975 110.082 57.419 109.93 57.584C109.778 57.749 109.674 57.9517 109.627 58.1709C109.58 58.3902 109.592 58.618 109.663 58.8307C109.734 59.0434 109.86 59.2333 110.029 59.3807C110.399 59.6313 110.829 59.7808 111.274 59.8142C112.011 59.9388 112.754 60.0184 113.5 60.0528C112.067 60.283 111.01 60.3789 110.295 61.0372C110.125 61.2527 110.034 61.52 110.037 61.7946C110.04 62.0691 110.137 62.3342 110.312 62.5457C110.811 63.1495 111.617 63.0827 112.35 63.095C112.643 63.1006 112.931 63.1646 113.198 63.2832C113.466 63.4017 113.707 63.5726 113.907 63.7856C113.907 63.7856 111.849 68.4659 111.575 69.1242L99.408 63.8193C102.132 58.1357 105.674 52.8816 109.92 48.2239ZM85.0218 51.0804L85.542 51.7978C85.8051 52.1638 86.4167 51.8024 86.1435 51.4249L85.5704 50.6339C85.5169 50.5597 85.4377 50.508 85.3482 50.4889C85.2588 50.4697 85.1654 50.4845 85.0862 50.5303C85.4043 49.335 86.0967 48.273 87.0619 47.4996C87.0619 47.4996 87.53 48.283 87.6673 48.5055C87.6909 48.5458 87.7222 48.5811 87.7594 48.6093C87.7966 48.6375 87.839 48.6581 87.8842 48.6699C87.9293 48.6817 87.9764 48.6846 88.0226 48.6782C88.0689 48.6718 88.1134 48.6564 88.1538 48.6328C88.1941 48.6093 88.2293 48.578 88.2575 48.5408C88.2857 48.5036 88.3064 48.4612 88.3182 48.416C88.33 48.3708 88.3328 48.3238 88.3265 48.2775C88.3201 48.2313 88.3047 48.1867 88.2811 48.1464C88.0824 47.7973 87.8691 47.4727 87.6673 47.1229C87.6456 47.0858 87.6172 47.053 87.5837 47.0262C88.2535 46.4446 90.2492 44.7766 90.6804 44.5011C90.8208 44.4114 91.3003 44.1467 91.5873 44.4804C91.6665 44.592 91.7103 44.7249 91.7131 44.8617C91.7158 44.9985 91.6773 45.133 91.6026 45.2477C91.2734 45.8546 90.5445 46.0917 90.0788 46.6203C89.9543 46.7582 89.8635 46.9231 89.8137 47.1021C89.7639 47.2811 89.7564 47.4692 89.7919 47.6515C90.1632 48.9328 91.6717 48.738 92.1021 49.5497C92.138 49.6065 92.1561 49.6726 92.1542 49.7397C92.1523 49.8068 92.1304 49.8719 92.0914 49.9265C92.0208 50.0118 91.9299 50.0782 91.8272 50.1195C91.7244 50.1607 91.6129 50.1756 91.5029 50.1628C90.4985 49.9257 90.0197 49.2965 89.2402 48.7295C89.104 48.6298 88.934 48.5876 88.767 48.612C88.5999 48.6364 88.4491 48.7255 88.3471 48.86C88.1131 49.1753 88.3141 49.5137 88.4745 49.786C89.4489 51.4403 90.4049 52.0265 90.1133 52.6249C89.9599 52.9357 89.4328 52.552 89.1497 52.3449C88.9087 52.1692 88.9671 52.2213 88.433 51.8239C87.899 51.4265 87.6435 51.2369 87.299 51.3321C87.137 51.3773 86.9994 51.4846 86.916 51.6307C86.8327 51.7768 86.8104 51.9499 86.854 52.1124C86.9346 52.404 87.5138 52.9641 87.9282 53.9492C87.9805 54.0377 88.0085 54.1385 88.0093 54.2413C88.0101 54.3441 87.9837 54.4453 87.9328 54.5346C87.8531 54.6489 87.7348 54.7304 87.5996 54.7641C87.4645 54.7978 87.3217 54.7814 87.1977 54.718C86.9063 54.5327 86.6402 54.3104 86.4059 54.0566C86.1107 53.8248 85.8423 53.5608 85.6057 53.2694C85.194 52.6157 84.9904 51.8524 85.0218 51.0804ZM119.49 55.4262C120.086 56.8944 120.847 58.2903 121.758 59.5871C122.322 60.4127 124.306 63.0797 126.179 62.7421C127.804 62.4482 128.466 59.8203 128.634 59.0155C128.73 58.3522 128.921 57.7062 129.201 57.0973C129.737 56.1081 130.643 55.3719 131.721 55.0502C132.799 54.7286 133.961 54.8478 134.951 55.3817C135.592 55.7203 136.133 56.2201 136.522 56.8319C136.911 57.4438 137.133 58.1464 137.167 58.8705C137.175 59.5814 137.119 60.2916 137.002 60.9927C136.775 63.228 136.167 65.4079 135.204 67.4377C133.593 70.6871 130.26 73.5291 126.534 73.5291C121.26 73.5291 117.71 68.5203 115.489 64.7408C114.754 63.4894 113.856 62.3876 112.402 62.3876C111.858 62.3876 111.11 62.4889 110.829 62.0469C110.407 61.3817 111.456 61.1262 112.237 60.9766C113.935 60.649 114.756 60.7809 114.752 60.0444C114.752 59.3907 113.855 59.35 113.375 59.327C112.457 59.3012 111.545 59.1705 110.658 58.9372C110.554 58.9002 110.464 58.8327 110.4 58.7437C110.335 58.6547 110.299 58.5483 110.296 58.4385C110.317 58.0487 110.811 57.8554 110.955 57.8078C111.54 57.6775 112.143 57.659 112.735 57.7533C113.262 57.8256 113.797 57.83 114.326 57.7664C114.464 57.726 114.586 57.6425 114.674 57.528C114.761 57.4135 114.81 57.274 114.813 57.1299C114.815 56.9857 114.772 56.8445 114.689 56.7268C114.605 56.6092 114.487 56.5212 114.35 56.4758C113.991 56.3354 112.684 55.8543 112.385 55.74C112.276 55.7109 112.181 55.6446 112.115 55.5524C112.05 55.4603 112.019 55.3482 112.027 55.2355C112.036 55.1228 112.084 55.0167 112.162 54.9355C112.241 54.8543 112.345 54.8032 112.458 54.7909C114.019 54.6598 115.584 54.9872 116.962 55.7331C117.003 55.757 117.048 55.7726 117.094 55.779C117.141 55.7854 117.188 55.7824 117.233 55.7704C117.279 55.7583 117.321 55.7373 117.359 55.7087C117.396 55.68 117.427 55.6443 117.45 55.6034C117.537 55.2737 117.598 54.9376 117.631 54.5983C117.71 53.598 117.925 52.6131 118.27 51.6712C118.311 51.5435 118.398 51.4357 118.515 51.3697C118.631 51.3036 118.768 51.2842 118.899 51.3152C118.964 51.3149 119.029 51.3275 119.09 51.3523C119.15 51.3771 119.205 51.4136 119.252 51.4597C119.298 51.5059 119.335 51.5607 119.36 51.6211C119.385 51.6814 119.398 51.7462 119.398 51.8116C119.394 53.6285 119.095 53.8564 119.49 55.4262ZM113.217 67.1255L114.41 64.3894C114.786 64.915 115.275 65.8157 116.15 67.1339C115.58 67.1331 113.817 67.1293 113.217 67.1255ZM112.072 69.7526L112.904 67.8429H116.635C117.22 68.6907 117.863 69.4969 118.56 70.2559C116.996 71.3592 114.251 73.3978 112.962 74.5342C112.398 73.0409 111.968 71.5003 111.677 69.9306C111.753 69.9474 111.833 69.9392 111.904 69.9071C111.975 69.875 112.034 69.8208 112.072 69.7526ZM136.115 67.1339C137.016 65.013 137.574 62.7624 137.769 60.4664C138.054 59.1878 137.87 57.8495 137.253 56.6945C136.794 55.8779 136.114 55.208 135.291 54.7624C134.467 54.3169 133.534 54.114 132.6 54.1773C131.666 54.2406 130.769 54.5675 130.013 55.12C129.257 55.6726 128.673 56.4282 128.329 57.2991C127.732 59.2418 127.924 59.7006 127.119 61.1231C126.937 61.4556 126.673 61.7353 126.351 61.9349C125.8 62.2602 124.958 61.8697 124.498 61.5191C123.705 60.9053 123.016 60.1695 122.454 59.3393C121.88 58.5186 121.355 57.6647 120.882 56.782C120.585 56.2596 120.341 55.7091 120.153 55.1385C119.769 53.4827 120.217 53.1751 120.083 51.6259C120.054 51.4416 119.984 51.2662 119.877 51.1134C120.31 49.1549 120.351 47.13 119.997 45.1556C121.353 44.7498 122.743 44.4714 124.151 44.3239C125.566 44.1333 127.004 44.1889 128.401 44.4881C131.762 45.3214 134.668 47.4271 136.508 50.3615C138.973 54.5277 138.766 61.8191 139.091 67.1339H136.115Z" fill="black"/>
<path d="M96.7751 83.8051C96.7838 83.7372 96.7746 83.6683 96.7485 83.605C96.7224 83.5418 96.6803 83.4865 96.6263 83.4445C96.5319 83.3731 76.0636 70.724 75.8748 70.612C75.8205 70.5794 75.7583 70.5622 75.6949 70.5622C75.6315 70.5622 75.5693 70.5794 75.515 70.612L64.5216 77.2987C64.5761 71.7744 64.8009 56.3485 63.6722 51.0483C63.3853 49.6063 62.7919 48.2429 61.9323 47.0502C61.0727 45.8575 59.9668 44.8634 58.6896 44.1352C55.5799 42.3268 51.2832 41.6554 45.917 42.1403C42.8422 42.3552 39.9222 43.5705 37.6029 45.6007C35.4016 47.6723 31.8584 46.6894 31.4149 44.5204C30.976 42.3789 32.2397 39.1372 33.7881 38.4352C34.197 38.2495 34.431 38.6224 34.6436 39.0137C35.2827 40.1869 36.1274 41.2863 37.2461 40.5482C38.8359 39.5017 36.6369 37.3042 37.4886 36.3881C37.8767 36.0441 38.3848 35.8669 38.9026 35.8948C40.8423 35.8603 41.829 36.7135 42.9239 36.695C44.0165 36.7426 44.9096 35.6155 44.216 34.7408C43.9057 34.3546 43.5081 34.0477 43.0558 33.8454C42.3621 33.524 41.6277 33.2989 40.873 33.1764C40.7057 33.1595 40.4257 33.1303 40.4218 33.0007C40.4134 32.7659 40.6988 32.8879 42.1727 33.0206C42.6296 33.0899 43.0923 33.1133 43.5538 33.0904C43.7386 33.0908 43.921 33.0486 44.0869 32.9671C44.2528 32.8857 44.3977 32.7672 44.5104 32.6208C44.6232 32.4743 44.7007 32.3039 44.7371 32.1227C44.7734 31.9416 44.7676 31.7544 44.72 31.5758C44.5594 31.2418 44.2985 30.9662 43.9738 30.7874C43.6491 30.6086 43.2767 30.5356 42.9085 30.5784C42.1242 30.5083 41.347 30.3728 40.5853 30.1733C41.562 29.9746 42.1581 30.3198 43.2553 30.0805C43.4915 29.9961 43.6851 29.8223 43.7943 29.5965C43.9035 29.3707 43.9197 29.1111 43.8392 28.8735C43.5576 28.0403 42.2732 27.5692 39.9124 27.4311C37.5472 27.2454 35.1684 27.5139 32.9042 28.2221C22.5223 31.5214 18.7228 44.772 23.3134 51.5984C25.6244 55.0373 29.3878 57.2401 34.2008 57.9728C34.1131 62.7162 34.031 67.4597 33.9546 72.2033C33.5753 72.0312 33.187 71.8798 32.7914 71.7498C32.8528 68.6708 33.2195 65.9263 31.7172 64.1493C30.0453 62.1767 26.8942 62.5426 25.075 64.3365C23.3264 66.059 22.7065 68.1207 21.8824 70.5951C21.6476 71.3033 21.4612 71.8618 21.366 72.0406C20.045 74.0955 18.1177 75.6888 15.8509 76.5997C14.5167 77.126 13.0696 77.3984 11.8673 78.2823C10.7417 79.1099 9.92657 80.2915 9.55247 81.6376C9.36536 82.2882 9.37479 82.9797 9.57956 83.625C9.78434 84.2703 10.1753 84.8407 10.7034 85.2644C9.52917 85.7028 8.55596 86.5556 7.96731 87.6621C6.96986 89.7476 8.15682 91.6734 9.83713 91.9036C9.30723 92.5037 8.91147 93.2099 8.67626 93.9752C8.53355 94.4436 8.51854 94.9416 8.6328 95.4178C8.74705 95.894 8.98641 96.331 9.32613 96.6836C9.67218 96.9677 10.0788 97.1687 10.5146 97.2712C10.9505 97.3736 11.4041 97.3747 11.8405 97.2744C11.9172 97.2614 11.8934 96.666 9.55324 110.267C8.37965 110.055 7.17178 110.139 6.0384 110.51C3.96679 111.236 4.05656 113.247 5.36935 113.691C5.9962 113.86 6.05452 113.815 8.92332 113.873C8.37396 116.346 7.75631 116.993 8.27882 117.852C8.46339 118.151 8.75247 118.372 9.09026 118.471C9.42806 118.571 9.79062 118.541 10.108 118.389C11.1177 117.788 13.177 115.492 14.4399 114.534C14.7401 114.278 15.0826 114.077 15.452 113.939C15.5633 113.896 15.6843 113.886 15.8012 113.909C15.9181 113.932 16.026 113.988 16.1126 114.07C16.6497 114.77 16.9834 116.525 17.6471 117.8C17.7656 118.072 17.9779 118.293 18.2453 118.422C18.5128 118.552 18.8178 118.581 19.1049 118.505C19.4324 118.397 19.728 118.21 19.9651 117.96C20.2021 117.709 20.3733 117.404 20.463 117.071C20.7354 116.074 20.8336 114.494 21.2049 114.097C21.6911 113.83 22.2515 113.73 22.8001 113.813L27.4804 113.952C27.8339 113.964 28.1828 113.87 28.4834 113.684C28.7841 113.498 29.0231 113.227 29.1706 112.906C29.318 112.584 29.3673 112.226 29.3124 111.877C29.2574 111.528 29.1005 111.202 28.8615 110.942C28.6635 110.71 28.4181 110.523 28.1419 110.395C27.8656 110.266 27.565 110.198 27.2602 110.195C26.5175 110.195 24.498 110.146 24.498 110.146C24.4804 109.419 24.4696 108.648 24.4643 107.736H54.2863V109.271C54.2493 109.493 54.2603 109.721 54.3185 109.939C54.3185 110.043 53.7446 109.616 75.2058 124.586C75.2607 124.619 75.3237 124.637 75.388 124.637C75.4523 124.637 75.5153 124.619 75.5702 124.586C75.5702 124.586 96.1874 110.402 96.6485 110.073C96.8434 110.037 96.7751 111.4 96.7751 83.8051ZM8.88879 116.674C9.22034 115.64 9.49088 114.588 9.69902 113.522C9.69822 113.429 9.66089 113.34 9.59504 113.274C9.52918 113.208 9.44007 113.17 9.34685 113.169C8.67933 113.158 6.47114 113.122 6.04761 113.097C5.89969 113.105 5.75181 113.08 5.61471 113.024C5.47761 112.968 5.35474 112.882 5.25503 112.772C5.16095 112.603 5.12452 112.408 5.15123 112.216C5.17794 112.024 5.26635 111.846 5.40311 111.709C5.66406 111.44 5.99232 111.246 6.35375 111.147C6.777 111.009 7.21466 110.921 7.6581 110.883C8.38702 110.874 9.11576 110.913 9.83943 111.001C9.91846 111 9.9951 110.974 10.0573 110.925C10.1195 110.876 10.1638 110.808 10.1832 110.731C10.5668 108.482 13.5829 90.6828 14.4967 88.5913C14.7443 88.0239 15.1032 87.5119 15.552 87.0856C16.0009 86.6593 16.5307 86.3272 17.11 86.1092C17.8331 85.8315 18.6127 85.7328 19.3821 85.8217C20.1516 85.9106 20.8882 86.1843 21.5289 86.6196C22.1696 87.0548 22.6955 87.6387 23.0617 88.3212C23.4279 89.0038 23.6235 89.7648 23.6318 90.5394L23.7952 110.516C23.7962 110.61 23.8346 110.7 23.9019 110.766C23.9692 110.832 24.06 110.869 24.1543 110.868C24.6499 110.842 26.5328 110.913 27.2571 110.902C27.5817 110.903 27.8958 111.017 28.1463 111.223C28.3968 111.429 28.5684 111.716 28.632 112.034C28.654 112.332 28.5567 112.627 28.3614 112.853C28.1661 113.08 27.889 113.219 27.5909 113.241C27.4505 113.248 23.3586 113.128 22.9819 113.108C22.4778 113.075 21.9715 113.107 21.4758 113.204C21.1283 113.277 20.8141 113.461 20.5811 113.729C20.4558 113.917 20.362 114.125 20.3034 114.343C19.8108 116.171 20.0371 116.555 19.5476 117.343C19.4574 117.484 19.3357 117.603 19.1921 117.689C19.0485 117.775 18.8868 117.827 18.7198 117.84C18.6471 117.837 18.5766 117.814 18.5151 117.775C18.4537 117.736 18.4034 117.682 18.3691 117.618C17.9791 116.929 17.68 116.193 17.4791 115.428C17.3224 114.697 16.9829 114.018 16.4924 113.454L16.4839 113.448C14.9579 112.254 12.7581 115.263 10.2177 117.424C10.0241 117.652 9.74825 117.794 9.45043 117.819C9.32418 117.804 9.20355 117.759 9.09967 117.686C8.99579 117.612 8.912 117.514 8.85604 117.4C8.80008 117.286 8.77375 117.16 8.77947 117.033C8.78519 116.906 8.82279 116.782 8.88879 116.674ZM9.57166 93.5716C9.92965 92.8992 10.3844 92.2829 10.9213 91.7424C10.9743 91.6861 11.0076 91.6141 11.0162 91.5372C11.0247 91.4603 11.008 91.3827 10.9686 91.3161C10.9292 91.2495 10.8693 91.1976 10.7977 91.168C10.7262 91.1385 10.6471 91.133 10.5722 91.1524C10.3297 91.207 10.0787 91.2122 9.83421 91.1676C9.5897 91.1231 9.35666 91.0298 9.149 90.8932C8.94134 90.7567 8.76332 90.5797 8.62554 90.3728C8.48777 90.166 8.39307 89.9335 8.3471 89.6892C8.26876 89.1017 8.35662 88.5039 8.60073 87.9638C8.84484 87.4236 9.23542 86.9627 9.72818 86.6332C10.3034 86.204 10.9452 85.8722 11.6279 85.6511C11.7003 85.6283 11.7635 85.583 11.8084 85.5218C11.8533 85.4606 11.8775 85.3867 11.8775 85.3108C11.8775 85.235 11.8533 85.161 11.8084 85.0998C11.7635 85.0387 11.7003 84.9934 11.6279 84.9706C11.1059 84.7485 10.6757 84.3544 10.4089 83.8538C10.1421 83.3532 10.0549 82.7763 10.1617 82.2192C10.3693 80.944 11.0553 79.796 12.0798 79.0089C13.1747 78.135 14.4937 77.8503 15.8018 77.3731C18.1257 76.516 20.1394 74.9823 21.5832 72.9698C21.9497 72.5233 22.2119 72.0006 22.3504 71.4398C23.3533 68.3815 24.3622 64.8053 27.3423 63.7611C27.8514 63.5712 28.3957 63.4939 28.9375 63.5345C29.4794 63.5752 30.0061 63.7328 30.4811 63.9966C30.9496 64.3318 31.3371 64.7677 31.6151 65.2722C31.8932 65.7767 32.0547 66.3371 32.0878 66.9122C32.1865 68.4552 32.1865 70.0028 32.0878 71.5457C30.6532 71.177 29.1633 71.073 27.6914 71.2388C18.6776 72.2363 15.0423 81.4081 13.5829 88.9166C13.5607 88.9933 12.3553 94.7478 12.0054 96.5263C11.4313 96.6985 10.816 96.6737 10.2576 96.4557C9.15887 96.0115 9.04224 94.5944 9.56859 93.5716H9.57166ZM39.8019 30.4088C39.9055 30.7595 40.339 30.8646 40.6305 30.9336C42.5579 31.394 43.6896 31.1638 44.0203 31.717C44.0499 31.7633 44.0691 31.8155 44.0768 31.8699C44.0845 31.9243 44.0804 31.9797 44.0648 32.0324C44.0014 32.1483 43.9065 32.244 43.7911 32.3084C43.6758 32.3729 43.5446 32.4035 43.4126 32.3968C42.3876 32.3654 40.7571 32.1666 40.6888 32.1559C40.5373 32.1375 40.3836 32.1597 40.2435 32.2203C40.1034 32.2809 39.982 32.3776 39.8916 32.5006C39.8011 32.6235 39.7451 32.7683 39.729 32.9201C39.713 33.0719 39.7376 33.2252 39.8003 33.3643C39.8811 33.5002 39.994 33.6143 40.1291 33.6964C40.2642 33.7785 40.4174 33.8263 40.5753 33.8354C41.548 33.9529 42.4814 34.2895 43.3052 34.8198C43.4187 34.8897 43.5172 34.9814 43.5952 35.0895C43.6731 35.1976 43.729 35.32 43.7594 35.4498C43.7428 35.568 43.6853 35.6766 43.5968 35.7567C42.9231 36.3475 41.7891 35.6938 40.9827 35.4689C39.6991 35.1114 37.8753 34.9518 36.9668 35.9247C36.8278 36.0716 36.7209 36.2459 36.6529 36.4363C36.5849 36.6268 36.5572 36.8294 36.5717 37.0311C36.6436 37.6041 36.7856 38.1661 36.9945 38.7045C37.1049 39.0574 37.2576 39.5393 37.0344 39.8186C36.9741 39.8988 36.8956 39.9636 36.8052 40.0073C36.7149 40.051 36.6154 40.0725 36.5151 40.0699C36.4148 40.0674 36.3165 40.0409 36.2285 39.9926C36.1405 39.9443 36.0654 39.8757 36.0093 39.7925C35.0702 38.6516 35.2014 38.1045 34.362 37.7454C34.1432 37.6882 33.914 37.6837 33.6931 37.7322C33.4722 37.7808 33.266 37.881 33.0914 38.0247C32.3921 38.5931 31.8179 39.3002 31.4052 40.1013C30.9924 40.9024 30.7499 41.7803 30.6929 42.6797H22.243C22.6082 39.8024 23.6652 37.0566 25.3236 34.6771C28.7916 29.6984 34.7824 27.3114 41.351 28.2996C41.7285 28.3544 42.0995 28.4475 42.4581 28.5774C42.7512 28.6664 43.2891 28.9833 43.1671 29.2679C43.1249 29.3631 43.0044 29.4214 42.8264 29.4413C41.829 29.5334 41.3587 29.281 40.3535 29.518C40.1624 29.5635 39.9969 29.6826 39.893 29.8494C39.7891 30.0162 39.7553 30.2172 39.7988 30.4088H39.8019ZM22.1625 43.3902H30.6254C30.297 47.2411 35.265 48.761 38.0679 46.1362C40.6313 43.7332 44.2965 42.6068 49.2622 42.705C55.2976 42.8186 59.16 44.3608 61.4188 47.5587C62.184 48.6626 62.7163 49.9107 62.9832 51.227C63.3741 53.3417 63.594 55.4845 63.6408 57.6345C63.8403 63.3161 63.9224 67.1562 63.8065 77.7368C57.8142 81.3813 54.4743 83.3961 54.3968 83.4713C54.2265 83.6056 54.2848 83.3486 54.2848 93.9913L45.1037 93.9522C45.0162 93.722 44.8367 93.3092 44.7615 93.112C44.9379 92.6777 43.9175 87.768 43.8016 87.2501C46.6029 84.6905 48.8037 81.5433 50.2466 78.0337C52.6618 72.2482 53.5781 65.9468 52.9106 59.713C52.8323 59.1322 52.694 58.5611 52.4978 58.0089C52.3442 57.4305 52.0596 56.8953 51.6661 56.4444C51.4964 56.2331 51.2807 56.0634 51.0354 55.9482C50.7901 55.833 50.5217 55.7755 50.2507 55.7799C49.9798 55.7844 49.7134 55.8507 49.472 55.9738C49.2306 56.097 49.0205 56.2737 48.8579 56.4905C48.3031 55.9224 47.561 55.5749 46.7694 55.5125C45.9778 55.4502 45.1905 55.6771 44.5535 56.1513C44.4469 54.8969 44.206 52.7301 43.9934 51.5945C43.9834 51.2425 43.8437 50.9066 43.601 50.6513C43.3583 50.3961 43.0299 50.2395 42.6788 50.2117C42.3277 50.184 41.9788 50.2869 41.699 50.5008C41.4192 50.7147 41.2283 51.0244 41.163 51.3705C41.1139 52.1633 41.1288 52.9587 41.2075 53.749C41.6441 65.5603 41.3211 63.1465 41.3241 66.6843C41.3241 70.2905 40.7495 73.0902 37.9359 75.0475C36.9821 74.0477 35.8754 73.2057 34.6574 72.5532C34.6804 71.0363 34.9129 57.7779 34.9136 57.6759C34.9139 57.5982 34.8885 57.5226 34.8415 57.4607C34.7945 57.3989 34.7284 57.3542 34.6535 57.3337H34.6397C31.8284 56.9888 29.1481 55.9462 26.8428 54.3007C23.3732 51.8102 21.7152 47.9393 22.1625 43.3902ZM37.4548 99.8002C37.629 99.3729 36.95 99.1703 36.7789 99.5908C35.783 102.039 34.8664 104.518 34.0305 107.026C33.8709 107.038 27.9753 107.026 24.4551 107.026C24.4505 106.028 24.4297 102.776 24.4236 101.908C25.1528 99.9746 26.0752 98.1197 27.1765 96.3713C28.4181 94.1523 29.9755 92.1255 31.8001 90.3545C36.3829 86.0209 41.7845 87.4903 43.7218 92.3639C45.5633 96.9936 46.4011 100.516 45.251 104.82C45.0914 105.416 44.7561 106.655 44.6633 107.026H34.7794C35.5945 104.589 36.4872 102.18 37.4563 99.8002H37.4548ZM52.0014 60.9552C51.9273 61.1118 51.8113 61.2449 51.6663 61.3396C51.5213 61.4344 51.3528 61.4873 51.1796 61.4923C50.1638 61.4309 49.9313 60.3889 49.7142 59.8603C49.7495 58.9363 49.6195 58.0133 49.3305 57.135C49.3841 56.9431 49.5004 56.7746 49.6609 56.6566C49.8214 56.5385 50.0168 56.4776 50.216 56.4836C50.4557 56.5042 50.687 56.5819 50.8905 56.7101C51.0941 56.8384 51.264 57.0136 51.386 57.2209C51.6093 57.6003 51.779 58.0088 51.8901 58.4347C52.0369 58.8583 52.1419 59.2951 52.2039 59.7391C52.2526 60.1554 52.1824 60.5771 52.0014 60.9552ZM42.0553 66.0913C42.2147 62.2424 42.1753 58.3879 41.9372 54.5431C41.8796 53.2096 41.8344 52.1562 41.842 51.6506C41.8528 50.904 43.0275 50.5841 43.2231 51.3889C43.3943 52.1407 43.5135 52.9034 43.5799 53.6715C43.6436 54.2992 43.873 56.2119 43.9021 56.894C43.9046 56.9635 43.9273 57.0307 43.9674 57.0875C44.0075 57.1443 44.0633 57.1881 44.128 57.2137C44.1926 57.2393 44.2633 57.2454 44.3314 57.2315C44.3995 57.2175 44.462 57.1839 44.5113 57.135C44.7696 56.831 45.094 56.5901 45.4596 56.4306C45.8252 56.2711 46.2225 56.1973 46.621 56.2149C47.0195 56.2324 47.4087 56.3408 47.7589 56.5318C48.1091 56.7228 48.411 56.9913 48.6415 57.3168C48.8027 57.7822 48.9111 58.2643 48.9646 58.7539C49.075 59.3953 49.0342 60.0537 48.8456 60.6767C48.7757 60.911 48.6181 61.1094 48.4055 61.2305C48.193 61.3515 47.942 61.3859 47.7047 61.3265C46.2469 60.8562 46.9052 59.1613 46.2868 57.8516C46.0896 57.4334 45.475 57.7825 45.6668 58.1946C45.6998 58.2645 45.7287 58.3362 45.7536 58.4094C45.3958 58.1668 44.9585 58.0707 44.532 58.1409C44.1054 58.2112 43.7221 58.4424 43.461 58.7869C42.7252 59.8311 42.6845 61.0557 42.5556 62.413C42.5119 62.8733 43.2193 62.8841 43.263 62.4314C43.2624 61.4053 43.47 60.3897 43.873 59.446C43.9526 59.2735 44.0772 59.1257 44.2338 59.0181C44.3904 58.9105 44.5731 58.8472 44.7626 58.8348C44.9522 58.8224 45.1416 58.8613 45.3109 58.9476C45.4801 59.0338 45.623 59.1641 45.7244 59.3247C46.3206 60.4396 45.5625 61.9534 46.2715 63.3912C46.4778 63.8102 47.0886 63.448 46.8922 63.0521C46.6918 62.5575 46.6055 62.0241 46.6397 61.4915C46.8241 61.7037 47.0586 61.8664 47.3219 61.9647C47.5853 62.0631 47.8691 62.0939 48.1474 62.0543C48.4257 62.0148 48.6897 61.9062 48.9152 61.7385C49.1408 61.5708 49.3208 61.3492 49.4387 61.0941C49.6261 61.4136 49.8896 61.6818 50.2059 61.8747C50.5221 62.0676 50.8811 62.1793 51.251 62.1997C51.6789 62.1729 52.0794 61.9802 52.3674 61.6626C52.9045 71.4069 49.4894 81.0951 43.6129 86.4713C42.4896 81.8677 40.8338 78.3951 38.4108 75.567C41.9249 73.0956 41.9939 69.3759 42.0553 66.0913ZM31.0067 90.0851C28.4594 92.5496 25.9037 96.7519 24.4083 99.979C24.4029 99.3368 24.3315 91.7156 24.3407 91.1286C24.3756 90.2452 24.2396 89.3633 23.9402 88.5314C23.5925 87.6608 23.027 86.8941 22.298 86.3048C21.5689 85.7154 20.7007 85.3232 19.7765 85.1657C18.8524 85.0082 17.9032 85.0907 17.0201 85.4053C16.137 85.7199 15.3495 86.2561 14.733 86.9624C16.019 81.58 19.3712 72.9053 27.6714 71.9508C29.6695 71.7017 31.6978 71.9932 33.5448 72.7948C40.0505 75.6414 42.7021 84.1151 43.7778 90.9222C40.6796 85.9158 35.3195 85.912 31.0067 90.0851ZM45.4313 94.7386L45.4244 94.721H54.2855V107.025H45.4106C47.0318 102.695 47.0349 99.2378 45.429 94.7386H45.4313ZM55.3359 83.7192C66.9339 76.6649 75.6293 71.3869 75.7022 71.3386C76.8024 72.0191 94.0398 82.6826 95.7278 83.7307C93.8718 84.8447 76.6344 95.1951 75.5265 95.8803C75.5257 95.8803 56.8797 84.636 55.3336 83.7192H55.3359ZM54.9968 84.3537L75.3531 96.6015C75.4074 96.6339 75.4694 96.651 75.5326 96.651C75.5958 96.651 75.6579 96.6339 75.7122 96.6015C75.8518 96.5187 94.0928 85.5629 96.0692 84.3591V109.614C94.8032 110.482 76.5723 123.001 75.3815 123.841C75.3815 123.841 55.7825 110.147 54.9968 109.611V84.3537Z" fill="black"/>
<path d="M118.082 103.383C115.199 102.019 112.05 101.31 108.861 101.307C105.671 101.305 102.521 102.008 99.6351 103.367C99.5616 103.399 99.501 103.455 99.4633 103.526C99.4257 103.597 99.4131 103.678 99.4277 103.757C99.4423 103.836 99.4832 103.908 99.5437 103.961C99.6042 104.013 99.6808 104.044 99.761 104.048H117.911C117.989 104.046 118.064 104.019 118.125 103.971C118.187 103.923 118.23 103.856 118.25 103.78C118.269 103.705 118.263 103.625 118.233 103.554C118.203 103.482 118.15 103.422 118.082 103.383ZM116.144 103.339H101.447C106.188 101.581 111.403 101.581 116.144 103.339Z" fill="black"/>
<path d="M146.825 90.857C143.419 94.2698 142.661 95.8596 140.534 97.9795C138.739 99.7946 136.566 101.192 134.17 102.073C134.089 102.089 134.015 102.132 133.962 102.195C133.908 102.258 133.877 102.338 133.875 102.42C133.872 102.503 133.898 102.584 133.948 102.651C133.998 102.717 134.068 102.764 134.149 102.785C136.776 103.812 140.656 102.893 143.485 98.7184C145.034 96.3755 146.341 93.882 147.388 91.276C147.427 91.2011 147.438 91.1149 147.419 91.0327C147.4 90.9505 147.352 90.8777 147.285 90.8273C147.217 90.7769 147.134 90.7523 147.05 90.7577C146.965 90.7631 146.886 90.7984 146.825 90.857ZM145.939 92.8297C145.169 94.519 144.288 96.1551 143.3 97.7271C141.822 100.094 140.151 101.51 138.04 102.182C137.166 102.46 136.238 102.526 135.334 102.374C140.638 100.062 142.547 96.5678 145.939 92.8297Z" fill="black"/>
<path d="M87.8555 31.7201C91.2016 34.4055 90.9913 34.2812 91.1717 34.2812C91.2434 34.2873 91.3151 34.2706 91.3768 34.2336C91.4385 34.1966 91.487 34.1411 91.5155 34.075C91.5439 34.0089 91.5508 33.9355 91.5352 33.8653C91.5197 33.795 91.4824 33.7314 91.4287 33.6835L88.3404 31.2053C87.986 30.9199 87.4949 31.4309 87.8555 31.7201Z" fill="black"/>
<path d="M103.375 28.971C103.444 29.4252 104.132 29.2572 104.065 28.8037L103.427 24.6889C103.358 24.2385 102.669 24.4004 102.736 24.8554L103.375 28.971Z" fill="black"/>
<path d="M115.96 30.6114L118.095 26.2618C118.296 25.8529 117.68 25.5014 117.476 25.9165L115.341 30.2662C115.14 30.6759 115.755 31.0265 115.96 30.6114Z" fill="black"/>
<path d="M129.844 46.0948C128.472 46.4493 127.124 46.9388 125.791 47.4076C125.714 47.4344 125.648 47.4866 125.604 47.5558C125.56 47.625 125.541 47.707 125.55 47.7885C125.559 47.8699 125.595 47.9458 125.653 48.0039C125.711 48.062 125.787 48.0987 125.868 48.1081C126.026 48.1081 127.152 47.6286 130.029 46.7777C130.116 46.75 130.19 46.6895 130.234 46.6088C130.277 46.5282 130.288 46.4337 130.264 46.3453C130.239 46.2568 130.181 46.1813 130.102 46.1346C130.023 46.0879 129.929 46.0736 129.84 46.0948H129.844Z" fill="black"/>
<path d="M79.8081 43.6395C84.1508 45.4617 83.807 45.3274 83.9007 45.3274C83.9784 45.3275 84.054 45.302 84.1159 45.2549C84.1777 45.2077 84.2223 45.1416 84.2429 45.0666C84.2659 44.9781 84.2543 44.8842 84.2103 44.804C84.1664 44.7239 84.0935 44.6635 84.0065 44.6354L80.0076 42.9574C79.9186 42.9348 79.8244 42.9476 79.7448 42.9931C79.6651 43.0386 79.6062 43.1131 79.5803 43.2012C79.5545 43.2892 79.5638 43.3838 79.6063 43.4651C79.6487 43.5464 79.7211 43.6081 79.8081 43.6372V43.6395Z" fill="black"/>
<path d="M149.65 62.828H145.29C145.199 62.8323 145.113 62.8714 145.05 62.9374C144.987 63.0033 144.952 63.091 144.952 63.1821C144.952 63.2733 144.987 63.3609 145.05 63.4269C145.113 63.4928 145.199 63.532 145.29 63.5362H149.646C149.694 63.5384 149.742 63.5309 149.787 63.5141C149.832 63.4974 149.873 63.4716 149.907 63.4385C149.942 63.4054 149.97 63.3656 149.988 63.3216C150.007 63.2775 150.017 63.2301 150.017 63.1821C150.017 63.1342 150.007 63.0867 149.988 63.0427C149.97 62.9986 149.942 62.9588 149.907 62.9257C149.873 62.8926 149.832 62.8669 149.787 62.8501C149.742 62.8333 149.694 62.8258 149.646 62.828H149.65Z" fill="black"/>
<path d="M140.935 52.8428H144.111C144.202 52.8386 144.288 52.7994 144.351 52.7335C144.413 52.6675 144.449 52.5799 144.449 52.4887C144.449 52.3975 144.413 52.3099 144.351 52.2439C144.288 52.178 144.202 52.1389 144.111 52.1346H140.935C140.844 52.1389 140.758 52.178 140.695 52.2439C140.632 52.3099 140.597 52.3975 140.597 52.4887C140.597 52.5799 140.632 52.6675 140.695 52.7335C140.758 52.7994 140.844 52.8386 140.935 52.8428Z" fill="black"/>
<path d="M150.047 47.5188H143.748C143.657 47.5231 143.571 47.5622 143.508 47.6282C143.445 47.6941 143.41 47.7818 143.41 47.8729C143.41 47.9641 143.445 48.0518 143.508 48.1177C143.571 48.1836 143.657 48.2228 143.748 48.227H150.045C150.136 48.2228 150.222 48.1836 150.285 48.1177C150.348 48.0518 150.383 47.9641 150.383 47.8729C150.383 47.7818 150.348 47.6941 150.285 47.6282C150.222 47.5622 150.136 47.5231 150.045 47.5188H150.047Z" fill="black"/>
<path d="M88.4539 85.6466C88.9402 85.6783 89.4265 85.5855 89.8669 85.3768C90.3073 85.1682 90.6871 84.8507 90.9705 84.4542C91.724 83.2105 90.7043 81.5724 88.4969 81.5501C87.4542 81.5501 62.9677 81.5325 62.6048 81.5616C62.1096 81.5661 61.6258 81.71 61.2086 81.9768C60.7915 82.2436 60.4579 82.6225 60.2462 83.0701C59.7943 84.3223 61.0633 85.8192 63.4104 85.6466C63.6597 85.6466 88.0549 85.6404 88.4539 85.6466ZM88.8276 84.9215C88.5207 84.9491 64.3986 84.9215 62.9347 84.9384C62.0531 84.9537 60.9689 84.534 60.8631 83.6478C60.8631 82.6266 62.0439 82.2583 63.3068 82.2583H88.4946C89.2572 82.2668 90.425 82.6067 90.5132 83.5105C90.6022 84.323 89.6347 84.8494 88.8306 84.9192L88.8276 84.9215Z" fill="black"/>
<path d="M40.6845 90.2038L39.1684 89.6713C38.7349 89.5179 38.5347 90.1984 38.9674 90.3503C39.4964 90.5799 40.0436 90.7652 40.6032 90.9043C40.6849 90.8957 40.7611 90.8595 40.8195 90.8018C40.8778 90.744 40.9148 90.6681 40.9242 90.5866C40.9337 90.505 40.9151 90.4227 40.8716 90.3531C40.828 90.2836 40.762 90.2309 40.6845 90.2038Z" fill="black"/>
<path d="M119.682 63.3068C119.682 63.3068 123.356 65.4122 123.518 65.5012C123.57 65.53 123.628 65.5451 123.687 65.5449C123.764 65.5449 123.84 65.5196 123.901 65.473C123.963 65.4264 124.008 65.3609 124.029 65.2866C124.05 65.2122 124.046 65.133 124.018 65.0609C123.99 64.9889 123.939 64.928 123.874 64.8874C122.597 64.1528 121.318 63.4219 120.037 62.6945C119.996 62.672 119.951 62.6579 119.905 62.6529C119.859 62.6479 119.812 62.6522 119.767 62.6655C119.722 62.6788 119.681 62.7008 119.644 62.7302C119.608 62.7597 119.578 62.7961 119.556 62.8372C119.514 62.9169 119.504 63.0096 119.527 63.0967C119.55 63.1838 119.606 63.2588 119.682 63.3068Z" fill="black"/>
<path d="M96.4086 112.182C96.319 112.186 96.234 112.223 96.1707 112.286C96.1074 112.35 96.0704 112.435 96.0672 112.524V118.669C96.0714 118.761 96.1106 118.846 96.1765 118.909C96.2425 118.972 96.3301 119.007 96.4213 119.007C96.5124 119.007 96.6001 118.972 96.666 118.909C96.732 118.846 96.7711 118.761 96.7754 118.669V112.528C96.7746 112.481 96.7644 112.434 96.7454 112.391C96.7265 112.348 96.6991 112.31 96.6649 112.277C96.6307 112.245 96.5904 112.22 96.5464 112.204C96.5024 112.188 96.4555 112.18 96.4086 112.182Z" fill="black"/>
<path d="M67.4315 82.5444C67.3412 82.5477 67.2556 82.5852 67.1921 82.6493C67.1285 82.7135 67.0917 82.7994 67.0893 82.8897V84.1173C67.0893 84.2113 67.1266 84.3014 67.1931 84.3679C67.2596 84.4344 67.3497 84.4717 67.4437 84.4717C67.5378 84.4717 67.6279 84.4344 67.6944 84.3679C67.7609 84.3014 67.7982 84.2113 67.7982 84.1173V82.8897C67.7976 82.8426 67.7876 82.7962 67.7687 82.7532C67.7498 82.7101 67.7224 82.6713 67.6882 82.6391C67.654 82.6069 67.6136 82.5819 67.5695 82.5656C67.5254 82.5493 67.4784 82.5421 67.4315 82.5444Z" fill="black"/>
<path d="M83.1424 82.5444C83.0522 82.5479 82.9667 82.5854 82.9032 82.6495C82.8396 82.7136 82.8028 82.7995 82.8002 82.8897V84.2101C82.8002 84.3042 82.8375 84.3943 82.904 84.4608C82.9705 84.5273 83.0606 84.5646 83.1546 84.5646C83.2487 84.5646 83.3388 84.5273 83.4053 84.4608C83.4718 84.3943 83.5091 84.3042 83.5091 84.2101V82.8843C83.5075 82.8378 83.4968 82.7922 83.4775 82.7499C83.4581 82.7076 83.4306 82.6696 83.3965 82.638C83.3624 82.6064 83.3224 82.5818 83.2788 82.5658C83.2352 82.5497 83.1888 82.5425 83.1424 82.5444Z" fill="black"/>
<path d="M11.3578 111.981C11.4783 111.981 11.4016 112.004 12.9146 111.171C12.991 111.122 13.0456 111.045 13.0671 110.957C13.0885 110.868 13.0752 110.775 13.0299 110.696C12.9846 110.618 12.9107 110.559 12.8236 110.533C12.7364 110.507 12.6427 110.516 12.5617 110.557L11.1752 111.325C11.1109 111.366 11.0615 111.426 11.0342 111.497C11.007 111.569 11.0033 111.647 11.0238 111.72C11.0442 111.794 11.0877 111.859 11.1478 111.905C11.208 111.952 11.2816 111.979 11.3578 111.981Z" fill="black"/>
<path d="M54.9454 112.528V118.666C54.9454 118.76 54.9827 118.85 55.0492 118.916C55.1157 118.983 55.2058 119.02 55.2998 119.02C55.3939 119.02 55.484 118.983 55.5505 118.916C55.617 118.85 55.6543 118.76 55.6543 118.666V112.521C55.6534 112.427 55.6152 112.337 55.5481 112.271C55.4809 112.205 55.3904 112.169 55.2964 112.17C55.2024 112.171 55.1126 112.209 55.0467 112.276C54.9809 112.343 54.9444 112.434 54.9454 112.528Z" fill="black"/>
<path d="M75.3746 125.648C75.285 125.651 75.2 125.688 75.1365 125.751C75.073 125.815 75.0359 125.9 75.0324 125.989V129.189C75.0324 129.283 75.0698 129.373 75.1363 129.439C75.2027 129.506 75.2929 129.543 75.3869 129.543C75.4809 129.543 75.5711 129.506 75.6376 129.439C75.7041 129.373 75.7414 129.283 75.7414 129.189V125.989C75.7403 125.943 75.7299 125.897 75.7108 125.854C75.6917 125.811 75.6642 125.773 75.63 125.741C75.5958 125.709 75.5556 125.685 75.5118 125.669C75.4679 125.653 75.4213 125.646 75.3746 125.648Z" fill="black"/>
<path d="M16.6686 112.248C16.9871 112.324 16.9702 112.037 17.8963 111.331C18.2576 111.055 17.8886 110.453 17.5195 110.731C17.1495 111.01 16.8024 111.318 16.4814 111.652C16.4385 111.699 16.4086 111.756 16.3948 111.817C16.381 111.879 16.3837 111.944 16.4027 112.004C16.4217 112.064 16.4563 112.119 16.503 112.161C16.5497 112.204 16.6068 112.234 16.6686 112.248Z" fill="black"/>
<path d="M14.1903 98.6531C14.4457 97.911 14.6329 97.1472 14.7497 96.3712C14.8172 95.9208 14.1312 95.749 14.0591 96.2055C13.9433 96.9698 13.7589 97.7222 13.5082 98.4536C13.3601 98.8917 14.0415 99.0843 14.1903 98.6531Z" fill="black"/>
<path d="M75.5641 116.239C75.6564 116.238 75.745 116.202 75.8111 116.138C75.8772 116.073 75.9158 115.986 75.9185 115.893V102.822C75.9134 102.728 75.8724 102.64 75.804 102.577C75.7357 102.513 75.6453 102.478 75.5518 102.479C75.4621 102.483 75.3771 102.52 75.3136 102.583C75.2502 102.647 75.213 102.732 75.2096 102.822V115.897C75.2128 115.989 75.2516 116.076 75.3177 116.14C75.3839 116.203 75.4722 116.239 75.5641 116.239Z" fill="black"/>
<path d="M36.9104 34.2642C36.7189 34.1251 36.5569 33.9493 36.4338 33.7471C36.3107 33.545 36.2289 33.3204 36.1933 33.0864C36.1576 32.8524 36.1687 32.6136 36.2259 32.3839C36.2832 32.1543 36.3854 31.9382 36.5268 31.7483C36.8014 31.3755 36.1915 31.0072 35.9252 31.3747C35.7341 31.6436 35.5983 31.9477 35.5256 32.2695C35.453 32.5913 35.445 32.9244 35.5021 33.2493C35.5592 33.5742 35.6803 33.8845 35.8583 34.1623C36.0363 34.44 36.2677 34.6797 36.539 34.8673C36.9173 35.1297 37.2848 34.5297 36.9104 34.2642Z" fill="black"/>
<path d="M23.2307 39.622L22.9 41.6238C22.8233 42.0734 23.5138 42.2483 23.5906 41.7926L23.9212 39.79C23.9926 39.3427 23.3067 39.1655 23.2307 39.622Z" fill="black"/>
<path d="M125.431 72.3376C126.296 72.5923 127.218 72.5797 128.077 72.3015C128.163 72.2722 128.234 72.2108 128.277 72.1301C128.319 72.0494 128.328 71.9555 128.303 71.868C128.278 71.7805 128.22 71.706 128.141 71.66C128.063 71.614 127.97 71.6 127.881 71.621C127.146 71.8462 126.361 71.8579 125.62 71.6547C125.531 71.6336 125.437 71.6478 125.358 71.6945C125.279 71.7413 125.221 71.8168 125.196 71.9052C125.172 71.9936 125.183 72.0881 125.226 72.1687C125.27 72.2494 125.344 72.3099 125.431 72.3376Z" fill="black"/>
<path d="M115.325 57.5462C116.638 57.7595 116.63 57.7611 116.681 57.7611C117.086 57.7611 117.218 57.138 116.786 57.0705L115.493 56.8611C115.044 56.7866 114.869 57.4726 115.325 57.5462Z" fill="black"/>
<path d="M116.92 60.2431C116.441 60.2222 115.966 60.1426 115.507 60.006C115.417 59.9833 115.321 59.9968 115.241 60.0436C115.161 60.0903 115.103 60.1666 115.078 60.2561C115.054 60.3455 115.065 60.441 115.11 60.5221C115.155 60.6031 115.231 60.6633 115.319 60.6896C115.836 60.8464 116.372 60.9344 116.912 60.9512C117.38 60.9666 117.369 60.2622 116.92 60.2431Z" fill="black"/>
<path d="M109.647 80.5626C109.096 81.1446 108.614 81.7883 108.21 82.4808C108.18 82.5348 108.165 82.5956 108.166 82.6572C108.167 82.7188 108.185 82.7791 108.216 82.8321C108.247 82.885 108.292 82.9289 108.346 82.9593C108.399 82.9898 108.46 83.0057 108.521 83.0056C108.939 83.0056 108.837 82.4816 110.153 81.0614C110.464 80.7222 109.96 80.2243 109.647 80.5626Z" fill="black"/>
</svg>
